<svg width="500" height="477" viewBox="0 0 500 477" fill="none" xmlns="http://www.w3.org/2000/svg">
<path d="M235.734 10.9058C240.224 -2.9139 259.776 -2.9139 264.266 10.9058L312.864 160.475C314.872 166.656 320.631 170.84 327.13 170.84L484.396 170.84C498.927 170.84 504.969 189.434 493.213 197.975L365.982 290.414C360.724 294.234 358.525 301.004 360.533 307.185L409.131 456.754C413.621 470.574 397.804 482.066 386.048 473.525L258.817 381.086C253.559 377.266 246.441 377.266 241.183 381.086L113.952 473.525C102.196 482.066 86.3789 470.574 90.8692 456.754L139.467 307.185C141.475 301.004 139.276 294.234 134.018 290.414L6.78679 197.975C-4.96891 189.434 1.07272 170.84 15.6036 170.84L172.87 170.84C179.369 170.84 185.128 166.656 187.136 160.475L235.734 10.9058Z" fill="#40916C"/>
</svg>
