<svg width="1920" height="28" viewBox="0 0 1920 28" fill="none" xmlns="http://www.w3.org/2000/svg">
<g clip-path="url(#clip0_421_8848)">
<path d="M1.21593e-05 18.1C1.21593e-05 18.1 24.7196 13.8 47.4074 13.5C70.4339 13.2 90.0741 13.5 118.18 15C156.444 17 230.265 25.1 269.545 20.7C308.825 16.3 310.519 16.1 330.497 13.3C352.847 10.1 398.222 3.70005 454.434 4.00005C514.37 4.30005 623.069 20.6 667.767 19.8C672.508 19.7 690.116 19 703.323 17.8C716.19 16.6 735.153 14 760.889 13.1C771.725 12.7 788.995 12 808.974 12.2C814.053 12.3 830.307 12.6 849.608 13.8C868.91 15 886.857 16.9 903.111 17.5C937.989 18.6 960 17 960 17V27.8L1.21593e-05 27.8V18.1ZM76.8678 16.5C79.2381 17.5 83.6402 16.9 91.4286 16.9C99.2169 16.9 112.085 18.1 111.069 18C110.053 17.9 100.571 16.5 90.7513 16.1C80.5926 15.6 74.836 15.5 76.8678 16.5ZM139.175 19.2C139.175 19.2 147.302 19.4 158.138 20.1C168.974 20.9 193.016 22.9 209.27 23.6C237.037 24.7 262.772 23.6 260.402 23.5C257.693 23.4 227.894 24.1 200.804 22.4C189.63 21.7 169.312 20.2 158.815 19.7C147.64 19.1 139.175 19.2 139.175 19.2ZM332.868 19.3C327.111 20 377.905 14.6 395.513 13.2C402.624 12.6 416.508 11.6 429.376 11.2C442.582 10.8 459.513 10.8 459.175 10.7C459.175 10.5 439.534 9.90005 421.249 10.7C402.963 11.5 403.64 11.8 395.513 12.3C382.646 13.1 338.624 18.6 332.868 19.3ZM285.799 20.9C285.122 20.9 288.508 21.3 302.053 19.8C315.598 18.3 324.741 16.3 325.418 16.1C326.095 16 313.566 17.9 303.069 19.1C292.91 20.3 286.138 20.9 285.799 20.9ZM1.69313 21.8C2.03176 21.7 8.12695 20.7 17.9471 19.3C27.7672 17.9 41.3122 16.5 40.6349 16.6C39.9577 16.6 28.7831 17.2 15.5768 19.1C2.3704 21 1.35451 21.9 1.69313 21.8ZM854.011 16.2C853.672 16.4 860.444 16.4 869.249 17.4C878.053 18.4 887.534 19 895.661 19.4C909.206 20.2 935.28 19.3 933.926 19.2C932.91 19.1 906.159 19.5 891.598 18.5C884.148 18 883.471 18 872.296 16.9C861.122 15.8 854.349 15.9 854.011 16.2ZM712.804 18.6C711.45 18.7 700.952 20.2 684.36 21.2C667.767 22.3 654.222 21.7 654.222 22C654.222 22.3 657.608 22.9 675.217 22.3C692.825 21.7 714.159 18.5 712.804 18.6ZM717.545 21.1C716.868 21 706.032 22.4 698.243 22.8C690.455 23.1 691.81 23.3 691.81 23.4C691.81 23.5 695.534 23.6 700.952 23.2C706.709 22.7 718.222 21.2 717.545 21.1ZM643.048 23.4C642.709 23.2 631.196 22.6 624.085 21.6C616.974 20.6 617.989 21 617.651 21.1C617.312 21.2 620.36 21.9 625.778 22.4C631.196 23 643.386 23.6 643.048 23.4ZM738.54 16.7C738.878 16.4 737.524 16.2 732.106 16.9C726.688 17.6 723.302 18.2 724.656 18.1C726.011 18 727.704 17.7 733.122 17.3C738.878 16.9 738.201 17 738.54 16.7ZM843.175 15.4C843.852 15.4 836.063 14.6 832 14.5C827.937 14.4 825.228 14.4 825.228 14.7C825.228 15 825.566 15.2 830.646 15.1C836.063 15 842.497 15.4 843.175 15.4ZM444.614 6.70005C444.952 6.60005 452.741 7.00005 470.011 7.00005C486.942 7.00005 516.063 9.40005 528.254 10.5C540.444 11.6 494.392 6.60005 472.381 6.40005C450.37 6.20005 444.275 6.80005 444.614 6.70005Z" fill="#F2CBA6"/>
<path d="M47.068 9.79999C47.4066 9.89999 62.6448 9.49999 71.449 9.79999C96.1686 10.5 129.015 13 127.661 12.7C126.306 12.4 81.2691 9.59999 70.0945 9.39999C53.5019 8.99999 46.7294 9.79999 47.068 9.79999Z" fill="#F2CBA6"/>
<path d="M189.969 18.0002C190.646 18.1002 205.207 19.0002 222.138 19.2002C239.07 19.4002 265.144 18.6002 263.789 18.7002C262.773 18.8002 243.81 20.5002 218.752 19.9002C193.694 19.3002 189.292 17.9002 189.969 18.0002Z" fill="#F2CBA6"/>
<path d="M267.514 14.4001C267.852 14.5001 260.741 15.4001 256.678 15.5001C252.614 15.6001 249.905 15.5001 249.905 15.2001C249.905 14.9001 250.244 14.7001 255.323 14.8001C261.08 14.9001 267.175 14.3001 267.514 14.4001Z" fill="#F2CBA6"/>
<path d="M279.364 17.2001C279.364 17.3001 294.264 16.0001 300.697 15.0001C307.131 14.1001 321.692 11.9001 321.354 11.9001C321.015 11.8001 307.131 13.5001 300.02 14.5001C292.909 15.5001 279.364 17.1001 279.364 17.2001Z" fill="#F2CBA6"/>
<path d="M436.826 1.10003C437.164 1.20003 452.403 0.800034 461.207 1.10003C485.926 1.80003 518.773 4.30004 517.418 4.00004C516.064 3.70004 471.027 0.900035 459.852 0.700035C443.26 0.300035 436.487 1.00003 436.826 1.10003Z" fill="#F2CBA6"/>
<path d="M818.117 8.50001C818.117 8.50001 814.054 8.80001 808.297 8.60001C802.54 8.40001 788.657 7.70001 780.53 7.90001C766.308 8.30001 755.472 10.6 756.826 10.5C758.181 10.5 771.387 8.30001 785.948 8.60001C792.043 8.70001 803.218 9.10001 808.636 9.00001C814.054 8.90001 818.117 8.50001 818.117 8.50001Z" fill="#F2CBA6"/>
<path d="M704.339 15.2C703.662 15.1 697.566 16 689.778 16.3C681.99 16.5 682.667 16.6 682.667 16.8C682.667 16.9 688.762 17.2 694.18 16.8C699.598 16.3 705.016 15.3 704.339 15.2Z" fill="#F2CBA6"/>
<path d="M907.174 14.6002C907.174 14.7002 892.613 14.6002 884.486 14.1002C876.359 13.6002 867.555 12.2002 867.555 12.1002C867.555 12.0002 876.698 12.9002 884.825 13.5002C892.613 14.1002 906.835 14.5002 907.174 14.6002Z" fill="#F2CBA6"/>
</g>
<g clip-path="url(#clip1_421_8848)">
<path d="M1920 18.1C1920 18.1 1895.28 13.8 1872.59 13.5C1849.57 13.2 1829.93 13.5 1801.82 15C1763.56 17 1689.74 25.1 1650.45 20.7C1611.17 16.3 1609.48 16.1 1589.5 13.3C1567.15 10.1 1521.78 3.70005 1465.57 4.00005C1405.63 4.30005 1296.93 20.6 1252.23 19.8C1247.49 19.7 1229.88 19 1216.68 17.8C1203.81 16.6 1184.85 14 1159.11 13.1C1148.28 12.7 1131.01 12 1111.03 12.2C1105.95 12.3 1089.69 12.6 1070.39 13.8C1051.09 15 1033.14 16.9 1016.89 17.5C982.011 18.6 960 17 960 17V27.8L1920 27.8V18.1ZM1843.13 16.5C1840.76 17.5 1836.36 16.9 1828.57 16.9C1820.78 16.9 1807.92 18.1 1808.93 18C1809.95 17.9 1819.43 16.5 1829.25 16.1C1839.41 15.6 1845.16 15.5 1843.13 16.5ZM1780.83 19.2C1780.83 19.2 1772.7 19.4 1761.86 20.1C1751.03 20.9 1726.98 22.9 1710.73 23.6C1682.96 24.7 1657.23 23.6 1659.6 23.5C1662.31 23.4 1692.11 24.1 1719.2 22.4C1730.37 21.7 1750.69 20.2 1761.19 19.7C1772.36 19.1 1780.83 19.2 1780.83 19.2ZM1587.13 19.3C1592.89 20 1542.1 14.6 1524.49 13.2C1517.38 12.6 1503.49 11.6 1490.62 11.2C1477.42 10.8 1460.49 10.8 1460.83 10.7C1460.83 10.5 1480.47 9.90005 1498.75 10.7C1517.04 11.5 1516.36 11.8 1524.49 12.3C1537.35 13.1 1581.38 18.6 1587.13 19.3ZM1634.2 20.9C1634.88 20.9 1631.49 21.3 1617.95 19.8C1604.4 18.3 1595.26 16.3 1594.58 16.1C1593.9 16 1606.43 17.9 1616.93 19.1C1627.09 20.3 1633.86 20.9 1634.2 20.9ZM1918.31 21.8C1917.97 21.7 1911.87 20.7 1902.05 19.3C1892.23 17.9 1878.69 16.5 1879.37 16.6C1880.04 16.6 1891.22 17.2 1904.42 19.1C1917.63 21 1918.65 21.9 1918.31 21.8ZM1065.99 16.2C1066.33 16.4 1059.56 16.4 1050.75 17.4C1041.95 18.4 1032.47 19 1024.34 19.4C1010.79 20.2 984.72 19.3 986.074 19.2C987.09 19.1 1013.84 19.5 1028.4 18.5C1035.85 18 1036.53 18 1047.7 16.9C1058.88 15.8 1065.65 15.9 1065.99 16.2ZM1207.2 18.6C1208.55 18.7 1219.05 20.2 1235.64 21.2C1252.23 22.3 1265.78 21.7 1265.78 22C1265.78 22.3 1262.39 22.9 1244.78 22.3C1227.17 21.7 1205.84 18.5 1207.2 18.6ZM1202.46 21.1C1203.13 21 1213.97 22.4 1221.76 22.8C1229.54 23.1 1228.19 23.3 1228.19 23.4C1228.19 23.5 1224.47 23.6 1219.05 23.2C1213.29 22.7 1201.78 21.2 1202.46 21.1ZM1276.95 23.4C1277.29 23.2 1288.8 22.6 1295.92 21.6C1303.03 20.6 1302.01 21 1302.35 21.1C1302.69 21.2 1299.64 21.9 1294.22 22.4C1288.8 23 1276.61 23.6 1276.95 23.4ZM1181.46 16.7C1181.12 16.4 1182.48 16.2 1187.89 16.9C1193.31 17.6 1196.7 18.2 1195.34 18.1C1193.99 18 1192.3 17.7 1186.88 17.3C1181.12 16.9 1181.8 17 1181.46 16.7ZM1076.83 15.4C1076.15 15.4 1083.94 14.6 1088 14.5C1092.06 14.4 1094.77 14.4 1094.77 14.7C1094.77 15 1094.43 15.2 1089.35 15.1C1083.94 15 1077.5 15.4 1076.83 15.4ZM1475.39 6.70005C1475.05 6.60005 1467.26 7.00005 1449.99 7.00005C1433.06 7.00005 1403.94 9.40005 1391.75 10.5C1379.56 11.6 1425.61 6.60005 1447.62 6.40005C1469.63 6.20005 1475.72 6.80005 1475.39 6.70005Z" fill="#F2CBA6"/>
<path d="M1872.93 9.79999C1872.59 9.89999 1857.36 9.49999 1848.55 9.79999C1823.83 10.5 1790.98 13 1792.34 12.7C1793.69 12.4 1838.73 9.59999 1849.91 9.39999C1866.5 8.99999 1873.27 9.79999 1872.93 9.79999Z" fill="#F2CBA6"/>
<path d="M1730.03 18.0002C1729.35 18.1002 1714.79 19.0002 1697.86 19.2002C1680.93 19.4002 1654.86 18.6002 1656.21 18.7002C1657.23 18.8002 1676.19 20.5002 1701.25 19.9002C1726.31 19.3002 1730.71 17.9002 1730.03 18.0002Z" fill="#F2CBA6"/>
<path d="M1652.49 14.4001C1652.15 14.5001 1659.26 15.4001 1663.32 15.5001C1667.39 15.6001 1670.09 15.5001 1670.09 15.2001C1670.09 14.9001 1669.76 14.7001 1664.68 14.8001C1658.92 14.9001 1652.82 14.3001 1652.49 14.4001Z" fill="#F2CBA6"/>
<path d="M1640.64 17.2001C1640.64 17.3001 1625.74 16.0001 1619.3 15.0001C1612.87 14.1001 1598.31 11.9001 1598.65 11.9001C1598.99 11.8001 1612.87 13.5001 1619.98 14.5001C1627.09 15.5001 1640.64 17.1001 1640.64 17.2001Z" fill="#F2CBA6"/>
<path d="M1483.17 1.10003C1482.84 1.20003 1467.6 0.800034 1458.79 1.10003C1434.07 1.80003 1401.23 4.30004 1402.58 4.00004C1403.94 3.70004 1448.97 0.900035 1460.15 0.700035C1476.74 0.300035 1483.51 1.00003 1483.17 1.10003Z" fill="#F2CBA6"/>
<path d="M1101.88 8.50001C1101.88 8.50001 1105.95 8.80001 1111.7 8.60001C1117.46 8.40001 1131.34 7.70001 1139.47 7.90001C1153.69 8.30001 1164.53 10.6 1163.17 10.5C1161.82 10.5 1148.61 8.30001 1134.05 8.60001C1127.96 8.70001 1116.78 9.10001 1111.36 9.00001C1105.95 8.90001 1101.88 8.50001 1101.88 8.50001Z" fill="#F2CBA6"/>
<path d="M1215.66 15.2C1216.34 15.1 1222.43 16 1230.22 16.3C1238.01 16.5 1237.33 16.6 1237.33 16.8C1237.33 16.9 1231.24 17.2 1225.82 16.8C1220.4 16.3 1214.98 15.3 1215.66 15.2Z" fill="#F2CBA6"/>
<path d="M1012.83 14.6002C1012.83 14.7002 1027.39 14.6002 1035.51 14.1002C1043.64 13.6002 1052.45 12.2002 1052.45 12.1002C1052.45 12.0002 1043.3 12.9002 1035.18 13.5002C1027.39 14.1002 1013.16 14.5002 1012.83 14.6002Z" fill="#F2CBA6"/>
</g>
<defs>
<clipPath id="clip0_421_8848">
<rect width="960" height="27.8" fill="white" transform="matrix(-1 0 0 -1 960 27.8)"/>
</clipPath>
<clipPath id="clip1_421_8848">
<rect width="960" height="27.8" fill="white" transform="matrix(1 0 0 -1 960 27.8)"/>
</clipPath>
</defs>
</svg>
