<svg width="1922" height="28" viewBox="0 0 1922 28" fill="none" xmlns="http://www.w3.org/2000/svg">
<mask id="mask0_594_25738" style="mask-type:alpha" maskUnits="userSpaceOnUse" x="0" y="0" width="1920" height="28">
<rect width="1920" height="27.8" fill="#F1F9F5"/>
</mask>
<g mask="url(#mask0_594_25738)">
</g>
<g clip-path="url(#clip0_594_25738)">
<path d="M2.00002 18.1C2.00002 18.1 51.4392 13.8 96.8148 13.5C142.868 13.2 182.148 13.5 238.36 15C314.889 17 462.529 25.1 541.09 20.7C619.651 16.3 623.037 16.1 662.995 13.3C707.693 10.1 798.444 3.69999 910.868 3.99999C1030.74 4.29999 1248.14 20.6 1337.53 19.8C1347.02 19.7 1382.23 19 1408.65 17.8C1434.38 16.6 1472.31 14 1523.78 13.1C1545.45 12.7 1579.99 12 1619.95 12.2C1630.11 12.3 1662.61 12.6 1701.22 13.8C1739.82 15 1775.71 16.9 1808.22 17.5C1877.98 18.6 1922 17 1922 17V27.8L2.00002 27.8V18.1ZM155.736 16.5C160.476 17.5 169.28 16.9 184.857 16.9C200.434 16.9 226.169 18.1 224.138 18C222.106 17.9 203.143 16.5 183.503 16.1C163.185 15.6 151.672 15.5 155.736 16.5ZM280.349 19.2C280.349 19.2 296.603 19.4 318.275 20.1C339.947 20.9 388.032 22.9 420.54 23.6C476.074 24.7 527.545 23.6 522.804 23.5C517.386 23.4 457.788 24.1 403.609 22.4C381.259 21.7 340.624 20.2 319.63 19.7C297.28 19.1 280.349 19.2 280.349 19.2ZM667.735 19.3C656.222 20 757.81 14.6 793.026 13.2C807.249 12.6 835.016 11.6 860.751 11.2C887.164 10.8 921.027 10.8 920.349 10.7C920.349 10.5 881.069 9.89999 844.497 10.7C807.926 11.5 809.28 11.8 793.026 12.3C767.291 13.1 679.249 18.6 667.735 19.3ZM573.598 20.9C572.243 20.9 579.016 21.3 606.106 19.8C633.196 18.3 651.482 16.3 652.836 16.1C654.191 16 629.132 17.9 608.138 19.1C587.82 20.3 574.275 20.9 573.598 20.9ZM5.38627 21.8C6.06352 21.7 18.2539 20.7 37.8941 19.3C57.5343 17.9 84.6244 16.5 83.2699 16.6C81.9154 16.6 59.5662 17.2 33.1535 19.1C6.74081 21 4.70902 21.9 5.38627 21.8ZM1710.02 16.2C1709.34 16.4 1722.89 16.4 1740.5 17.4C1758.11 18.4 1777.07 19 1793.32 19.4C1820.41 20.2 1872.56 19.3 1869.85 19.2C1867.82 19.1 1814.32 19.5 1785.2 18.5C1770.3 18 1768.94 18 1746.59 16.9C1724.24 15.8 1710.7 15.9 1710.02 16.2ZM1427.61 18.6C1424.9 18.7 1403.9 20.2 1370.72 21.2C1337.53 22.3 1310.44 21.7 1310.44 22C1310.44 22.3 1317.22 22.9 1352.43 22.3C1387.65 21.7 1430.32 18.5 1427.61 18.6ZM1437.09 21.1C1435.74 21 1414.06 22.4 1398.49 22.8C1382.91 23.1 1385.62 23.3 1385.62 23.4C1385.62 23.5 1393.07 23.6 1403.9 23.2C1415.42 22.7 1438.44 21.2 1437.09 21.1ZM1288.1 23.4C1287.42 23.2 1264.39 22.6 1250.17 21.6C1235.95 20.6 1237.98 21 1237.3 21.1C1236.62 21.2 1242.72 21.9 1253.56 22.4C1264.39 23 1288.77 23.6 1288.1 23.4ZM1479.08 16.7C1479.76 16.4 1477.05 16.2 1466.21 16.9C1455.38 17.6 1448.6 18.2 1451.31 18.1C1454.02 18 1457.41 17.7 1468.24 17.3C1479.76 16.9 1478.4 17 1479.08 16.7ZM1688.35 15.4C1689.7 15.4 1674.13 14.6 1666 14.5C1657.87 14.4 1652.46 14.4 1652.46 14.7C1652.46 15 1653.13 15.2 1663.29 15.1C1674.13 15 1686.99 15.4 1688.35 15.4ZM891.228 6.69999C891.905 6.59999 907.482 6.99999 942.021 6.99999C975.884 6.99999 1034.13 9.39999 1058.51 10.5C1082.89 11.6 990.783 6.59999 946.762 6.39999C902.741 6.19999 890.55 6.79999 891.228 6.69999Z" fill="#F1F9F5"/>
<path d="M96.138 9.79999C96.8153 9.89999 127.292 9.49999 144.9 9.79999C194.339 10.5 260.032 13 257.323 12.7C254.614 12.4 164.54 9.59999 142.191 9.39999C109.006 8.99999 95.4608 9.79999 96.138 9.79999Z" fill="#F1F9F5"/>
<path d="M381.936 18C383.291 18.1 412.412 19 446.275 19.2C480.137 19.4 532.285 18.6 529.576 18.7C527.545 18.8 489.619 20.5 439.502 19.9C389.386 19.3 380.582 17.9 381.936 18Z" fill="#F1F9F5"/>
<path d="M537.027 14.4C537.705 14.5 523.482 15.4 515.356 15.5C507.229 15.6 501.811 15.5 501.811 15.2C501.811 14.9 502.488 14.7 512.646 14.8C524.16 14.9 536.35 14.3 537.027 14.4Z" fill="#F1F9F5"/>
<path d="M560.73 17.2C560.73 17.3 590.529 16 603.397 15C616.265 14.1 645.386 11.9 644.709 11.9C644.032 11.8 616.265 13.5 602.042 14.5C587.82 15.5 560.73 17.1 560.73 17.2Z" fill="#F1F9F5"/>
<path d="M875.652 1.09997C876.329 1.19997 906.805 0.799973 924.414 1.09997C973.853 1.79997 1039.55 4.29998 1036.84 3.99998C1034.13 3.69998 944.054 0.899974 921.705 0.699974C888.519 0.299974 874.974 0.999973 875.652 1.09997Z" fill="#F1F9F5"/>
<path d="M1638.23 8.50001C1638.23 8.50001 1630.11 8.80001 1618.59 8.60001C1607.08 8.40001 1579.31 7.70001 1563.06 7.90001C1534.61 8.30001 1512.94 10.6 1515.65 10.5C1518.36 10.5 1544.77 8.30001 1573.89 8.60001C1586.08 8.70001 1608.43 9.10001 1619.27 9.00001C1630.11 8.90001 1638.23 8.50001 1638.23 8.50001Z" fill="#F1F9F5"/>
<path d="M1410.68 15.2C1409.32 15.1 1397.13 16 1381.56 16.3C1365.98 16.5 1367.33 16.6 1367.33 16.8C1367.33 16.9 1379.52 17.2 1390.36 16.8C1401.2 16.3 1412.03 15.3 1410.68 15.2Z" fill="#F1F9F5"/>
<path d="M1816.35 14.6C1816.35 14.7 1787.23 14.6 1770.97 14.1C1754.72 13.6 1737.11 12.2 1737.11 12.1C1737.11 12 1755.4 12.9 1771.65 13.5C1787.23 14.1 1815.67 14.5 1816.35 14.6Z" fill="#F1F9F5"/>
</g>
<defs>
<clipPath id="clip0_594_25738">
<rect width="1920" height="27.8" fill="white" transform="matrix(-1 0 0 -1 1922 27.8)"/>
</clipPath>
</defs>
</svg>
