<svg width="24" height="24" viewBox="0 0 24 24" fill="none" xmlns="http://www.w3.org/2000/svg">
<path d="M8.00586 2.01416C7.45386 2.01416 7.00586 2.46216 7.00586 3.01416C4.79686 3.01416 3.00586 4.80516 3.00586 7.01416V9.01416V17.0142C3.00586 19.2222 4.79686 21.0142 7.00586 21.0142H17.0059C19.2149 21.0142 21.0059 19.2232 21.0059 17.0142V9.01416V7.01416C21.0059 4.80516 19.2149 3.01416 17.0059 3.01416C17.0059 2.46216 16.5579 2.01416 16.0059 2.01416C15.4539 2.01416 15.0059 2.46216 15.0059 3.01416H9.00586C9.00586 2.46216 8.55786 2.01416 8.00586 2.01416ZM7.00586 5.01416C7.00586 5.56616 7.45386 6.01416 8.00586 6.01416C8.55786 6.01416 9.00586 5.56616 9.00586 5.01416H15.0059C15.0059 5.56616 15.4539 6.01416 16.0059 6.01416C16.5579 6.01416 17.0059 5.56616 17.0059 5.01416C18.1109 5.01416 19.0059 5.90916 19.0059 7.01416V8.01416C17.0819 8.01416 6.92986 8.01416 5.00586 8.01416V7.01416C5.00586 5.90916 5.90086 5.01416 7.00586 5.01416ZM5.00586 10.0142C6.92986 10.0142 17.0819 10.0142 19.0059 10.0142V17.0142C19.0059 18.1172 18.1109 19.0142 17.0059 19.0142H7.00586C5.90086 19.0142 5.00586 18.1192 5.00586 17.0142V10.0142ZM13.0059 12.0142C12.4539 12.0142 12.0059 12.4622 12.0059 13.0142C12.0059 13.5662 12.4539 14.0142 13.0059 14.0142H16.0059C16.5579 14.0142 17.0059 13.5662 17.0059 13.0142C17.0059 12.4622 16.5579 12.0142 16.0059 12.0142H13.0059ZM8.00586 15.0142C7.45386 15.0142 7.00586 15.4622 7.00586 16.0142C7.00586 16.5662 7.45386 17.0142 8.00586 17.0142H11.0059C11.5579 17.0142 12.0059 16.5662 12.0059 16.0142C12.0059 15.4622 11.5579 15.0142 11.0059 15.0142H8.00586Z" fill="#242424"/>
</svg>
