<svg width="48" height="48" viewBox="0 0 48 48" fill="none" xmlns="http://www.w3.org/2000/svg">
<path d="M23.9956 4.02832C15.159 4.02832 7.99561 11.1923 7.99561 20.0283C7.99561 26.9623 12.4912 34.8523 18.558 41.4043C18.754 41.6143 18.9126 41.7783 19.1206 41.9663C20.8366 43.5043 22.6168 44.0483 23.9956 44.0283C24.013 44.0283 24.044 44.0283 24.058 44.0283C25.493 44.0283 27.5166 43.3823 29.4332 41.4663C35.2532 35.6463 39.9956 27.0643 39.9956 20.0283C39.9956 11.1923 32.8322 4.02832 23.9956 4.02832ZM23.9956 8.02832C30.623 8.02832 35.9956 13.4003 35.9956 20.0283C35.9956 25.8003 31.7002 33.4483 26.558 38.5903C25.4746 39.6743 24.5056 40.0283 23.9956 40.0283C23.9532 40.0283 23.923 40.0283 23.9332 40.0283C23.4784 40.0343 22.6846 39.8143 21.808 39.0283C21.692 38.9243 21.5452 38.7743 21.4332 38.6523C15.9916 32.7783 11.9956 25.6943 11.9956 20.0283C11.9956 13.4003 17.3682 8.02832 23.9956 8.02832ZM23.9956 14.0283C20.6818 14.0283 17.9956 16.7143 17.9956 20.0283C17.9956 23.3423 20.6818 26.0283 23.9956 26.0283C27.3094 26.0283 29.9956 23.3423 29.9956 20.0283C29.9956 16.7143 27.3094 14.0283 23.9956 14.0283ZM23.9956 18.0283C25.1002 18.0283 25.9956 18.9243 25.9956 20.0283C25.9956 21.1323 25.1002 22.0283 23.9956 22.0283C22.891 22.0283 21.9956 21.1323 21.9956 20.0283C21.9956 18.9243 22.891 18.0283 23.9956 18.0283Z" fill="#454545"/>
</svg>
