<svg width="42" height="66" viewBox="0 0 42 66" fill="none" xmlns="http://www.w3.org/2000/svg">
<path fill-rule="evenodd" clip-rule="evenodd" d="M0.5 3C0.5 1.61929 1.61929 0.5 3 0.5H39C40.3807 0.5 41.5 1.61929 41.5 3V63C41.5 64.3807 40.3807 65.5 39 65.5H3C1.61929 65.5 0.5 64.3807 0.5 63V3ZM3 1.5C2.17157 1.5 1.5 2.17157 1.5 3V63C1.5 63.8284 2.17157 64.5 3 64.5H39C39.8284 64.5 40.5 63.8284 40.5 63V3C40.5 2.17157 39.8284 1.5 39 1.5H3Z" fill="#242424"/>
<path fill-rule="evenodd" clip-rule="evenodd" d="M11 50.5C8.51472 50.5 6.5 52.5147 6.5 55C6.5 57.4853 8.51472 59.5 11 59.5C13.4853 59.5 15.5 57.4853 15.5 55C15.5 52.5147 13.4853 50.5 11 50.5ZM5.5 55C5.5 51.9624 7.96243 49.5 11 49.5C14.0376 49.5 16.5 51.9624 16.5 55C16.5 58.0376 14.0376 60.5 11 60.5C7.96243 60.5 5.5 58.0376 5.5 55Z" fill="#242424"/>
<path fill-rule="evenodd" clip-rule="evenodd" d="M11 6C11.2761 6 11.5 6.22386 11.5 6.5V46C11.5 46.2761 11.2761 46.5 11 46.5C10.7239 46.5 10.5 46.2761 10.5 46V6.5C10.5 6.22386 10.7239 6 11 6Z" fill="#242424"/>
<path fill-rule="evenodd" clip-rule="evenodd" d="M19.5 55C19.5 54.7239 19.7239 54.5 20 54.5H36C36.2761 54.5 36.5 54.7239 36.5 55C36.5 55.2761 36.2761 55.5 36 55.5H20C19.7239 55.5 19.5 55.2761 19.5 55Z" fill="#242424"/>
</svg>
