<svg width="52" height="46" viewBox="0 0 52 46" fill="none" xmlns="http://www.w3.org/2000/svg">
<ellipse cx="26.2446" cy="23" rx="23.2505" ry="22" fill="#D8F3DC" stroke="#081C15" stroke-width="0.616"/>
<path d="M50.8559 5.81625C46.4013 23.9967 34.6022 25.8503 28.8327 24.4187C28.5989 24.3608 28.3963 24.2144 28.2624 24.0142C21.7018 14.2014 33.3489 0.532102 50.1065 4.56964C50.6553 4.70188 50.9902 5.2679 50.8559 5.81625Z" fill="#52B788" stroke="#1B4332" stroke-width="1.59244"/>
<path d="M1.72183 14.2197C8.53355 11.1427 22.1671 12.0869 22.4614 25.7663C22.4676 26.0507 22.3502 26.3378 22.1389 26.5283C15.1359 32.8399 3.85683 25.1295 1.19359 15.3567C1.06833 14.8971 1.28767 14.4158 1.72183 14.2197Z" fill="#52B788" stroke="#1B4332" stroke-width="1.59244"/>
<path d="M27.0469 41.9276C27.0471 28.3865 27.0469 17.5535 39.6404 12.4079" stroke="#1B4332" stroke-width="1.59244" stroke-linecap="round"/>
<path d="M34.7754 28.2174C39.0686 28.2174 42.217 27.6758 45.6516 23.3426" stroke="#1B4332" stroke-width="1.59244" stroke-linecap="round"/>
<path d="M33.6285 2.76C29.7456 4.49324 27.0454 6.28077 26.4729 9.25976" stroke="#1B4332" stroke-width="1.59244" stroke-linecap="round"/>
<path d="M6.72599 29.6315C10.3123 31.8647 13.3316 33.1144 16.3172 32.0249" stroke="#1B4332" stroke-width="1.59244" stroke-linecap="round"/>
<path d="M21.035 13.0513C19.0308 10.3431 15.8824 9.25978 11.8756 9.54103" stroke="#1B4332" stroke-width="1.59244" stroke-linecap="round"/>
<path d="M12.7383 20.2617C20.4661 24.3241 27.0491 29.1989 26.7629 41.9276" stroke="#1B4332" stroke-width="1.59244" stroke-linecap="round"/>
</svg>
