<svg width="80" height="80" viewBox="0 0 80 80" fill="none" xmlns="http://www.w3.org/2000/svg">
<path d="M49.7763 26.1636L40.9546 20.9655C40.5495 20.7268 40.049 20.721 39.6388 20.9506L30.7022 25.9501C30.2894 26.181 30.0314 26.6151 30.0263 27.0879L29.9195 36.5238L21.6522 41.149C21.2394 41.3799 20.9814 41.814 20.9762 42.2868L20.8614 52.4843C20.8562 52.9571 21.1039 53.397 21.5116 53.6376L30.3333 58.8351C30.5404 58.9563 30.7719 59.0176 31.0041 59.0176C30.7725 59.5196 39.8766 54.1813 39.9266 54.2189C39.9266 54.2188 48.0942 59.0318 48.0942 59.0318C48.4985 59.2695 49.0008 59.2756 49.41 59.046L58.3459 54.0465C58.7587 53.8156 59.0167 53.3815 59.0219 52.9087L59.138 42.7106C59.1431 42.2378 58.8954 41.7979 58.4878 41.5573L50.3203 36.7457L50.4265 27.3162C50.4317 26.8434 50.184 26.4035 49.7763 26.1636ZM40.267 23.6268L47.7755 28.0515L47.6788 36.7191L40.0711 40.9754L32.5611 36.5503L32.6592 27.8825L40.267 23.6268ZM31.0209 56.1738L23.5117 51.749L23.6098 43.0808L31.2166 38.8256L38.7268 43.2499L38.6287 51.9174L31.0209 56.1738ZM56.3889 52.1141L48.7817 56.3698L41.2719 51.9451L41.3693 43.2775L48.9778 39.0211L56.487 43.4459L56.3889 52.1141Z" fill="#242424"/>
<path d="M72.9778 39.9983C72.9778 24.2886 61.7366 10.7396 46.2487 7.78223C44.5288 7.51177 44.0523 10.0071 45.7534 10.3778C79.0275 17.3669 77.9389 64.0894 44.7161 69.7961C44.7165 69.7961 46.757 68.3721 46.757 68.3721C48.1715 67.3723 46.6633 65.2247 45.2451 66.2062C45.2451 66.2062 39.244 70.3942 39.244 70.3942C38.5101 70.9005 38.5069 72.0556 39.244 72.5608C39.244 72.5608 45.2451 76.7482 45.2451 76.7482C46.6572 77.7356 48.1669 75.5678 46.7569 74.5809C46.757 74.5809 43.875 72.5705 43.875 72.5705C60.2385 70.6553 72.9778 56.7827 72.9778 39.9983Z" fill="#242424"/>
<path d="M34.2469 69.6189C0.973443 62.6306 2.06099 15.9072 35.2837 10.2006C35.2833 10.2006 33.2432 11.6245 33.2432 11.6245C32.6447 12.0418 32.4983 12.8655 32.9162 13.4634C33.336 14.066 34.1639 14.2053 34.7551 13.7904L40.7563 9.6024C41.4901 9.09665 41.4933 7.94067 40.7562 7.43583C40.7563 7.43583 34.7551 3.24845 34.7551 3.24845C33.3358 2.27344 31.8284 4.4146 33.2433 5.41571C33.2432 5.41566 36.1249 7.42615 36.1249 7.42615C19.7616 9.34149 7.02246 23.214 7.02246 39.9983C7.01732 55.7615 18.4027 69.4629 34.0005 72.2376C35.5704 72.2263 35.8011 69.9223 34.2469 69.6189Z" fill="#242424"/>
</svg>
