<svg width="48" height="48" viewBox="0 0 48 48" fill="none" xmlns="http://www.w3.org/2000/svg">
<path d="M11.9814 5.85938C11.2234 5.85938 10.5074 6.3074 10.1694 6.9834L6.16943 14.9834C6.09743 15.1274 5.98145 15.6894 5.98145 15.8594C5.98145 17.8594 7.01745 19.5154 7.99945 20.3274L7.98145 37.8594C6.87745 37.8594 5.98145 38.7554 5.98145 39.8594C5.98145 40.9634 6.87745 41.8594 7.98145 41.8594H9.98145H39.9815C41.0855 41.8594 41.9815 40.9634 41.9815 39.8594C41.9815 38.7554 41.0855 37.8594 39.9815 37.8594L39.9855 20.3154C41.0715 19.3774 41.9815 17.8594 41.9815 15.8594C41.9815 15.6894 41.8655 15.1274 41.7935 14.9834L37.7935 6.9834C37.4555 6.3074 36.7395 5.85938 35.9815 5.85938H11.9814ZM13.2314 9.85937H34.7315L37.9434 16.2854C37.8014 17.2514 36.9875 17.8594 35.9815 17.8594C34.8775 17.8594 33.9815 16.9634 33.9815 15.8594C33.9815 14.7554 33.0855 13.8594 31.9815 13.8594C31.4295 13.8594 30.9735 14.0594 30.6115 14.4214C30.2495 14.7834 29.9815 15.3074 29.9815 15.8594C29.9815 16.9634 29.0855 17.8594 27.9815 17.8594C26.8775 17.8594 25.9815 16.9634 25.9815 15.8594C25.9815 14.7554 25.0854 13.8594 23.9814 13.8594C23.4294 13.8594 22.9395 14.0574 22.5775 14.4194C22.2155 14.7814 21.9814 15.3074 21.9814 15.8594C21.9814 16.9634 21.0854 17.8594 19.9814 17.8594C18.8774 17.8594 17.9814 16.9634 17.9814 15.8594C17.9814 14.7554 17.0854 13.8594 15.9814 13.8594C15.4294 13.8594 14.9374 14.0754 14.5754 14.4374C14.2134 14.7994 13.9814 15.3074 13.9814 15.8594C13.9814 16.9634 13.0854 17.8594 11.9814 17.8594C10.9774 17.8594 10.1715 17.2134 10.0295 16.2474L13.2314 9.85937ZM15.9814 20.3314C17.0474 21.3033 18.4254 21.8594 19.9814 21.8594C21.5374 21.8594 22.8935 21.2954 23.9595 20.3234C25.0255 21.2954 26.4255 21.8594 27.9815 21.8594C29.5375 21.8594 30.9015 21.3193 31.9675 20.3473C32.9235 21.1833 34.4255 21.8594 35.9815 21.8594V37.8594H27.9815V31.8594C27.9815 28.5454 25.2954 25.8594 21.9814 25.8594C18.6674 25.8594 15.9814 28.5454 15.9814 31.8594V37.8594H11.9814V21.8594C13.5374 21.8594 14.9134 21.3033 15.9814 20.3314ZM31.9815 23.8594C30.8775 23.8594 29.9815 24.7554 29.9815 25.8594C29.9815 26.9634 30.8775 27.8594 31.9815 27.8594C33.0855 27.8594 33.9815 26.9634 33.9815 25.8594C33.9815 24.7554 33.0855 23.8594 31.9815 23.8594ZM21.9814 29.8594C23.0854 29.8594 23.9814 30.7554 23.9814 31.8594V37.8594H19.9814V31.8594C19.9814 30.7554 20.8774 29.8594 21.9814 29.8594Z" fill="#454545"/>
</svg>
