<svg width="80" height="80" viewBox="0 0 80 80" fill="none" xmlns="http://www.w3.org/2000/svg">
<path d="M59.7675 23.7391C59.7793 24.1463 60.1123 24.4686 60.5175 24.4686C60.5244 24.4686 60.5312 24.4686 60.5381 24.4681C60.9521 24.4569 61.2783 24.1121 61.2675 23.6981C61.1777 20.4622 58.2109 16.2723 58.0849 16.0955C57.8447 15.7591 57.3769 15.68 57.039 15.9212C56.7011 16.162 56.624 16.6302 56.8642 16.9676C56.8925 17.0072 59.6914 20.9564 59.7675 23.7391Z" fill="#242424"/>
<path d="M39.6172 41.7743C39.6172 41.3602 39.2812 41.0243 38.8672 41.0243C38.4531 41.0243 38.1172 41.3602 38.1172 41.7743C38.1172 41.9706 37.4053 42.5389 36.0469 42.5389C34.6885 42.5389 33.9766 41.9706 33.9766 41.7743C33.9766 41.3602 33.6406 41.0243 33.2266 41.0243C32.8125 41.0243 32.4766 41.3602 32.4766 41.7743C32.4766 43.0653 34.0117 44.0389 36.0469 44.0389C38.082 44.0389 39.6172 43.0653 39.6172 41.7743Z" fill="#242424"/>
<path d="M46.4394 54.0599C46.0547 54.4193 44.8935 54.7831 43.4189 54.7831C41.7139 54.7831 40.5742 54.3143 40.3408 53.9974C40.0967 53.6639 39.626 53.5926 39.293 53.8382C38.959 54.0838 38.8877 54.5536 39.1338 54.8871C39.8916 55.9164 41.8437 56.2831 43.4189 56.2831C45.1699 56.2831 46.7187 55.8509 47.4629 55.1556C47.7656 54.8729 47.7822 54.3983 47.499 54.0956C47.2158 53.7933 46.7422 53.7772 46.4394 54.0599Z" fill="#242424"/>
<path d="M54.5176 41.0243C54.1035 41.0243 53.7676 41.3602 53.7676 41.7743C53.7676 41.9706 53.0557 42.5389 51.6973 42.5389C50.3389 42.5389 49.627 41.9706 49.627 41.7743C49.627 41.3602 49.291 41.0243 48.877 41.0243C48.4629 41.0243 48.127 41.3602 48.127 41.7743C48.127 43.0653 49.6621 44.0389 51.6973 44.0389C53.7324 44.0389 55.2676 43.0653 55.2676 41.7743C55.2676 41.3602 54.9316 41.0243 54.5176 41.0243Z" fill="#242424"/>
<path d="M20.2316 36.3084C20.1672 36.5721 18.6798 42.7899 21.1007 45.8202C21.937 46.8667 23.1192 47.4026 24.6028 47.4392C25.5575 51.2886 27.2471 54.8108 29.5783 57.7259C31.2661 59.8369 33.2005 61.5134 35.2961 62.7225V71.7801C35.1213 72.2996 33.5519 76.0452 24.4738 75.7035C24.465 75.703 24.4552 75.703 24.4455 75.703C24.0441 75.703 23.7121 76.0208 23.6974 76.4251C23.6818 76.8392 24.005 77.1873 24.4191 77.2025C24.8273 77.2176 25.2228 77.2249 25.6047 77.2249C35.5754 77.2249 36.7345 72.2577 36.7804 72.0384C36.7912 71.9876 36.7961 71.9364 36.7961 71.8846V63.4978C38.9194 64.4629 41.1797 64.9674 43.5011 64.9671C43.55 64.9671 43.6007 64.9671 43.6506 64.9666C46.0177 64.9445 48.2835 64.3922 50.3791 63.4012V71.8846C50.3791 71.9364 50.384 71.9876 50.3947 72.0379C50.4406 72.2577 51.5968 77.2254 61.5695 77.2249C61.9513 77.2249 62.3478 77.2176 62.755 77.2025C63.1691 77.1873 63.4924 76.8392 63.4767 76.4251C63.4621 76.0111 63.0724 75.6825 62.7004 75.7035C53.5793 76.0452 52.0422 72.2723 51.8791 71.783V62.5938C56.8346 59.6322 60.6484 54.1308 62.2758 47.4278C63.6972 47.3658 64.8237 46.8409 65.6027 45.827C67.6131 43.2107 66.5912 38.208 66.2243 36.7128C67.0664 35.748 67.0956 34.7847 67.0939 34.7533C69.2502 13.8695 51.339 3.5726 51.1457 3.4642C49.6447 2.66049 48.1408 2.55941 46.674 3.16293C44.1882 4.1871 42.3197 7.10061 41.1316 9.54263C33.0456 10.9049 28.6415 14.6522 28.507 14.7733C24.1359 17.9364 24.1027 22.1175 24.216 23.4403C20.9699 26.6512 19.465 29.8416 19.7423 32.9281C19.8418 34.0327 20.1636 35.0042 20.5801 35.8434C20.4123 35.9424 20.2816 36.1046 20.2316 36.3084ZM43.6369 63.4666C43.592 63.4671 43.547 63.4671 43.5011 63.4671C38.7199 63.4671 34.1955 61.0995 30.7492 56.7894C27.2287 52.3851 25.257 46.4935 25.1984 40.1986C25.1945 39.867 25.1974 39.537 25.2052 39.2088C25.2073 39.1197 25.1871 39.0362 25.1604 38.9562C27.5479 36.8982 37.5202 28.6468 46.601 26.1407C53.7496 30.2859 60.0359 36.3978 61.5544 37.9228C61.6014 38.5641 61.6314 39.2149 61.6379 39.8602C61.758 52.783 53.6828 63.3729 43.6369 63.4666ZM64.4132 44.9129C63.9804 45.4772 63.3898 45.7938 62.6041 45.9026C62.9696 43.9607 63.1573 41.9326 63.1379 39.846C63.1332 39.3624 63.1021 38.8785 63.0756 38.3949C63.8183 38.2266 64.4249 37.9959 64.9181 37.7285C65.341 39.766 65.7082 43.2277 64.4132 44.9129ZM25.1524 24.6408C25.19 24.6194 25.2304 24.6055 25.2648 24.577C26.0881 23.8954 28.5265 22.0579 29.9064 21.7445C30.3107 21.6527 30.5636 21.2508 30.4718 20.847C30.38 20.4422 29.9718 20.1917 29.5744 20.2816C28.3775 20.5537 26.8245 21.5451 25.7091 22.3471C25.8054 20.8077 26.4427 18.1173 29.4377 15.9476C29.4781 15.9123 33.3637 12.6168 40.3882 11.2002C39.915 12.3503 39.6551 13.1814 39.6232 13.2855C39.5011 13.6815 39.7238 14.1009 40.1203 14.2225C40.5207 14.3446 40.9357 14.1204 41.0568 13.7249C41.0802 13.6493 43.4269 6.12338 47.2453 4.55014C48.2882 4.11898 49.3332 4.19516 50.424 4.77963C50.5968 4.87631 67.6584 14.6844 65.5978 34.6541C65.595 34.7226 65.4837 36.2062 63.0215 36.8669C62.3878 26.0777 48.6465 15.0671 48.0461 14.5912C47.7209 14.3333 47.2502 14.39 46.9923 14.7132C46.7355 15.0379 46.7902 15.5096 47.1144 15.7669C47.25 15.8744 59.77 25.9013 61.375 35.6376C57.5392 31.9475 47.5738 23.1061 38.3024 21.0988C38.2965 21.0973 38.2909 21.0963 38.285 21.0949C37.774 20.9848 37.2645 20.8881 36.759 20.8216C36.339 20.763 35.9709 21.0575 35.9181 21.4676C35.8807 21.7489 36.0118 22.0062 36.2256 22.1628C34.4761 23.354 31.5334 25.5204 29.1886 28.0682C28.9084 28.3729 28.9279 28.8475 29.2326 29.1278C29.3761 29.2606 29.5588 29.326 29.7404 29.326C29.9425 29.326 30.1447 29.2445 30.2922 29.0838C33.201 25.9231 37.2126 23.2851 38.2504 22.6258C40.3987 23.1241 42.601 24.0143 44.7592 25.1316C35.5973 28.1782 26.2866 35.9804 24.0881 37.8973C23.2414 37.1844 21.4709 35.4002 21.2365 32.7938C21.0047 30.2149 22.3332 27.4732 25.1524 24.6408ZM23.7032 39.4914C23.6999 39.7323 23.6957 39.973 23.6984 40.2142C23.7165 42.1616 23.9299 44.0658 24.2882 45.9137C23.4197 45.8229 22.7616 45.4959 22.2736 44.8851C20.8459 43.0998 21.1728 39.3519 21.5376 37.3805C22.5465 38.7019 23.6126 39.4311 23.7032 39.4914Z" fill="#242424"/>
<path d="M5.6178 30.6556C5.65589 30.682 9.39515 33.3475 9.39515 36.4871C9.39515 36.9012 9.73109 37.2371 10.1451 37.2371C10.5592 37.2371 10.8951 36.9012 10.8951 36.4871C10.8951 33.3475 14.6344 30.682 14.6725 30.6556C14.9342 30.471 15.0514 30.1409 14.9616 29.8333C14.8727 29.5257 14.5992 29.3079 14.2789 29.2923C12.3678 29.1976 11.1715 26.1712 10.8717 25.013C10.8627 24.9787 10.8403 24.9531 10.8272 24.9212C10.8078 24.874 10.7901 24.8281 10.7616 24.7858C10.7334 24.7439 10.6992 24.7105 10.6638 24.6756C10.6314 24.6434 10.6011 24.6118 10.5629 24.5858C10.5175 24.5548 10.4681 24.5351 10.4168 24.5148C10.3874 24.503 10.3641 24.4821 10.3326 24.474C10.3204 24.4708 10.3088 24.4746 10.2966 24.4721C10.2467 24.4617 10.1961 24.4638 10.1439 24.4639C10.092 24.464 10.0416 24.4618 9.99219 24.4721C9.98054 24.4746 9.96937 24.471 9.95765 24.474C9.92756 24.4817 9.9054 24.5019 9.8772 24.513C9.82325 24.534 9.77155 24.5546 9.72413 24.5873C9.6886 24.6117 9.66077 24.6415 9.63032 24.6712C9.59278 24.7078 9.55665 24.7431 9.52717 24.7876C9.4997 24.8287 9.48273 24.8733 9.46381 24.9191C9.45032 24.9517 9.42768 24.9779 9.41859 25.013C9.11878 26.1712 7.92249 29.1976 6.01136 29.2923C5.69105 29.3079 5.41761 29.5257 5.32874 29.8333C5.2389 30.1409 5.35609 30.471 5.6178 30.6556ZM10.1451 27.325C10.6671 28.4199 11.4888 29.6945 12.6832 30.3524C11.8839 31.0838 10.8407 32.2113 10.1451 33.5852C9.44959 32.2113 8.40638 31.0838 7.60706 30.3524C8.80146 29.6945 9.62318 28.4199 10.1451 27.325Z" fill="#242424"/>
<path d="M15.1111 54.9129C15.103 54.9653 15.0964 55.0157 15.0996 55.0695C15.1006 55.0864 15.0938 55.1019 15.096 55.119C15.1038 55.1786 15.8127 61.1185 11.9407 61.9452C11.6155 62.0145 11.3743 62.2899 11.3489 62.6214C11.3235 62.953 11.5198 63.2616 11.8303 63.3797C11.8899 63.4022 17.759 65.6751 18.8293 69.91C18.9153 70.2503 19.221 70.4764 19.5559 70.4764C19.6174 70.4764 19.679 70.4691 19.7405 70.4535C20.1419 70.3519 20.386 69.9442 20.2844 69.5428C19.2161 65.3197 23.2981 60.5189 23.3391 60.471C23.553 60.2225 23.5813 59.8641 23.4085 59.5853C23.2356 59.3075 22.8997 59.1727 22.5852 59.2542C18.8557 60.2113 16.5559 54.7904 16.5325 54.7357C16.5266 54.7216 16.5145 54.7129 16.5079 54.6993C16.4819 54.6452 16.4475 54.5998 16.4101 54.5545C16.3856 54.5247 16.3639 54.4941 16.3355 54.4688C16.2963 54.434 16.252 54.409 16.2059 54.3831C16.1657 54.3602 16.1278 54.3371 16.0841 54.3219C16.0439 54.3082 16.0015 54.3035 15.9584 54.2965C15.9034 54.2874 15.8504 54.2801 15.7938 54.2835C15.7767 54.2843 15.7617 54.2777 15.7444 54.2796C15.71 54.284 15.6824 54.3029 15.6498 54.3117C15.6172 54.3203 15.5841 54.3176 15.552 54.3309C15.5358 54.3377 15.5255 54.3515 15.51 54.3592C15.4639 54.3822 15.4252 54.4119 15.3854 54.4433C15.3476 54.473 15.3104 54.5008 15.2795 54.5365C15.249 54.5716 15.2274 54.6107 15.2038 54.6508C15.1785 54.6941 15.1538 54.7352 15.1376 54.7825C15.123 54.8247 15.118 54.8681 15.1111 54.9129ZM21.1829 60.8524C20.3096 62.1436 19.1399 64.2201 18.7445 66.5145C17.3217 64.7033 15.3345 63.4395 13.9544 62.7142C15.6182 61.6226 16.3373 59.6316 16.5717 57.7741C17.5879 59.1593 19.1325 60.6488 21.1829 60.8524Z" fill="#242424"/>
<path d="M66.2315 54.1361C65.92 54.0667 65.5958 54.1996 65.4268 54.4715C65.2579 54.744 65.2813 55.0936 65.4844 55.3416C65.5128 55.3778 68.3926 58.9452 67.5382 61.9789C67.4258 62.3778 67.6573 62.7918 68.0567 62.9041C68.1241 62.9237 68.1924 62.9325 68.2598 62.9325C68.588 62.9325 68.8887 62.7166 68.9815 62.3861C69.8331 59.3636 74.1553 57.8123 74.1993 57.7972C74.501 57.6908 74.7032 57.4041 74.7012 57.0843C74.6983 56.764 74.4932 56.4803 74.1905 56.3783C72.376 55.7684 72.046 52.5311 72.0714 51.3353C72.0721 51.3001 72.0574 51.2696 72.0535 51.2356C72.0476 51.1843 72.0427 51.135 72.0266 51.086C72.0112 51.0395 71.988 50.9995 71.9642 50.9574C71.941 50.9158 71.9191 50.8755 71.8879 50.8385C71.8539 50.7984 71.8136 50.7679 71.772 50.7357C71.7457 50.7152 71.7279 50.6875 71.6983 50.6703C71.6868 50.6636 71.6738 50.664 71.6621 50.658C71.6176 50.6349 71.569 50.6236 71.5197 50.6096C71.4718 50.5963 71.4259 50.581 71.3772 50.5775C71.3634 50.5765 71.3519 50.569 71.338 50.5687C71.3321 50.5687 71.3262 50.5687 71.3214 50.5687C71.2874 50.5687 71.2582 50.5833 71.2255 50.5877C71.1777 50.594 71.1321 50.6 71.0864 50.6153C71.0372 50.6317 70.9943 50.6552 70.9503 50.681C70.9119 50.7032 70.8751 50.7242 70.8408 50.7531C70.7994 50.7882 70.7672 50.8293 70.7343 50.8725C70.7153 50.8973 70.6891 50.9137 70.6729 50.9413C70.0704 51.9745 68.1007 54.5545 66.2315 54.1361ZM70.7451 53.3631C70.9505 54.5586 71.3956 56.0085 72.3663 56.9657C71.399 57.4532 70.0891 58.2555 69.0469 59.3891C68.7501 57.878 68.0518 56.51 67.4805 55.5892C68.8087 55.2796 69.9456 54.2755 70.7451 53.3631Z" fill="#242424"/>
</svg>
