<svg width="18" height="18" viewBox="0 0 18 18" fill="none" xmlns="http://www.w3.org/2000/svg">
<path d="M9.01888 1.83105C8.59071 1.8309 8.15346 2.09731 7.89448 2.62756L6.30156 5.90708L2.67066 6.42241C1.50298 6.58486 1.12468 7.73041 1.96791 8.55391L4.59148 11.1077L3.98248 14.6919C3.78193 15.8522 4.74426 16.5534 5.78623 16.0037C6.18883 15.7907 8.25891 14.7182 9.01888 14.3169L12.2515 16.0037C13.2947 16.5534 14.26 15.8529 14.0553 14.6919L13.4228 11.1077L16.0465 8.55391C16.8937 7.73341 16.5349 6.58816 15.3671 6.42241L11.7128 5.90708L10.1433 2.62756C9.88468 2.09708 9.44706 1.83128 9.01888 1.83105Z" fill="#FF8338"/>
</svg>
