<svg width="80" height="80" viewBox="0 0 80 80" fill="none" xmlns="http://www.w3.org/2000/svg">
<path d="M73.8311 43.1009C73.8344 43.0864 73.8373 43.0717 73.84 43.0571C73.8537 42.98 75.2434 35.2815 77.2836 29.6519C77.3922 29.3524 77.3392 29.018 77.1432 28.7668C76.9471 28.5154 76.635 28.3817 76.3191 28.4146C75.8224 28.465 68.3531 29.2641 61.5384 32.1807C61.0502 29.2416 60.8173 26.4335 61.7533 23.7497C62.3665 21.9911 62.2033 20.8115 61.2684 20.2437C60.3626 19.6934 58.5836 19.5657 52.8212 23.4911C50.1186 25.332 47.5211 27.4066 46.4959 28.3305C45.5054 26.5565 44.0377 23.8953 43.0172 22.0451C42.5477 21.194 41.5717 19.4283 41.489 19.2803C41.3144 18.9674 41.0967 18.578 40.5505 18.578H39.4496C38.9034 18.578 38.6857 18.9674 38.5109 19.2803C38.4284 19.4283 37.4524 21.194 36.9829 22.0451C35.9624 23.8953 34.4947 26.5565 33.5042 28.3305C32.479 27.4066 29.8814 25.3319 27.1789 23.4911C21.4165 19.5658 19.6377 19.694 18.7317 20.2437C17.7968 20.8115 17.6336 21.9911 18.247 23.7498C19.1828 26.4335 18.9498 29.2415 18.4617 32.1807C11.6471 29.2641 4.17787 28.465 3.68115 28.4146C3.36395 28.3819 3.05294 28.5155 2.85698 28.7667C2.66102 29.018 2.608 29.3524 2.71657 29.6519C4.75521 35.2779 6.14627 42.98 6.16002 43.0571C6.16275 43.0717 6.16561 43.0864 6.16888 43.1009C7.05729 46.9755 9.1028 49.8842 12.2484 51.7462C12.9755 52.1766 13.737 52.5338 14.5183 52.8327C12.1029 53.6309 9.68094 54.1315 7.05439 53.8038C6.71532 53.7614 6.37929 53.9096 6.18225 54.1897C5.98504 54.4696 5.95843 54.8354 6.11296 55.141C7.51904 57.9225 11.7109 59.3769 15.6258 60.4327C18.0723 61.0924 20.7046 61.422 23.3963 61.422C26.157 61.422 28.9802 61.0752 31.7291 60.3819C34.4898 59.6858 37.3237 58.8244 39.3482 57.2491C39.358 57.2416 39.623 57.0227 40 56.6595C40.3769 57.0227 40.642 57.2416 40.6517 57.2491C42.6766 58.8244 45.5103 59.6858 48.2711 60.3819C51.0201 61.0752 53.8426 61.4221 56.6039 61.422C59.295 61.4219 61.928 61.0923 64.3741 60.4327C68.2891 59.3769 72.4809 57.9225 73.8872 55.141C74.0417 54.8355 74.0151 54.4696 73.8179 54.1897C73.6209 53.9096 73.2841 53.7615 72.9458 53.8038C70.319 54.1317 67.8971 53.631 65.4817 52.8326C66.2631 52.5338 67.0246 52.1766 67.7515 51.7462C70.8972 49.8842 72.9427 46.9755 73.8311 43.1009ZM47.4864 29.9423C47.9326 29.4692 50.7463 27.1598 53.7098 25.128C58.4976 21.8454 59.9759 21.7882 60.2605 21.8216C60.2804 21.9504 60.2891 22.321 60.0037 23.1397C58.6689 26.967 59.4072 30.9361 60.1212 34.7747C60.8605 38.7496 61.5587 42.5042 60.0689 45.9889C58.8492 48.8415 56.0969 51.2693 52.7063 52.4831C51.7598 52.8219 50.8046 53.0449 49.8512 53.1775C50.7952 52.5175 51.6299 51.7445 52.3247 50.8584C53.5421 49.306 54.1278 47.4389 54.0661 45.3085C54.0836 44.7663 54.0516 44.2108 53.9705 43.6571C53.3164 39.1792 50.5794 34.9088 48.1644 31.1411C47.9527 30.8109 47.4703 29.9593 47.4864 29.9423ZM19.9965 23.1398C19.7109 22.321 19.7196 21.9504 19.7395 21.8216C20.0251 21.7884 21.5028 21.8457 26.2902 25.128C29.2537 27.1598 32.0675 29.4692 32.5136 29.9423C32.5298 29.9594 32.0474 30.8109 31.8357 31.1412C29.4207 34.9089 26.6836 39.1792 26.0295 43.657C25.9486 44.2103 25.9164 44.7657 25.9341 45.3086C25.8724 47.4389 26.4581 49.3059 27.6753 50.8585C28.3685 51.7425 29.1978 52.5172 30.1392 53.1763C29.1891 53.0435 28.2371 52.821 27.2937 52.4832C23.9031 51.2694 21.1508 48.8416 19.9311 45.989C18.4412 42.5043 19.1395 38.7497 19.8788 34.7748C20.5929 30.9361 21.3311 26.967 19.9965 23.1398ZM13.1922 50.1519C10.5064 48.5619 8.75272 46.0577 7.97975 42.7081C7.88782 42.1974 6.732 35.8778 4.95154 30.4515C7.53562 30.8377 13.1166 31.8634 18.1258 34.0671C18.1031 34.1899 18.0802 34.3127 18.0573 34.4359C17.3001 38.5071 16.5172 42.7169 18.2274 46.7174C18.8102 48.0804 19.6899 49.3547 20.7877 50.4821C20.4049 50.6175 17.6538 51.6775 17.42 51.7686C15.9375 51.4383 14.4948 50.9229 13.1922 50.1519ZM38.2105 55.7868C36.4559 57.152 33.8407 57.9386 31.276 58.5854C26.1498 59.8783 20.7631 59.899 16.1083 58.6437C14.4498 58.1965 11.059 57.2821 9.0614 55.7577C12.5077 55.6851 15.5801 54.4806 18.7997 53.2182C19.2921 53.0252 21.7025 52.1199 22.3845 51.8969C23.651 52.8665 25.0999 53.6657 26.6692 54.2276C28.6316 54.9301 30.5994 55.1911 32.511 55.1911C33.1077 55.1911 33.6988 55.1653 34.2826 55.1198C35.5176 55.4755 36.8429 55.6945 38.2349 55.7673C38.2269 55.7736 38.2183 55.7807 38.2105 55.7868ZM40.0335 53.9302C40.0223 53.9297 40.0112 53.9295 40 53.9295C39.9888 53.9295 39.9777 53.9297 39.9665 53.9302C35.3837 54.0969 31.3328 52.5202 29.1333 49.7152C28.1724 48.4895 27.732 47.0571 27.787 45.3363C27.7877 45.3153 27.7877 45.2942 27.787 45.2731C27.7709 44.8321 27.7964 44.3785 27.8628 43.9249C28.4591 39.8425 30.9686 35.9272 33.3955 32.141C33.6083 31.809 33.8196 31.4793 34.0283 31.1516C34.3596 30.6312 39.6902 20.9728 39.9909 20.4308H40.009C40.3098 20.9728 45.6404 30.6312 45.9717 31.1515C46.1803 31.4793 46.3917 31.809 46.6045 32.141C49.0314 35.9272 51.5408 39.8425 52.1372 43.9251C52.2036 44.3792 52.2291 44.8327 52.2132 45.2731C52.2125 45.2942 52.2125 45.3153 52.2132 45.3363C52.2682 47.0572 51.8276 48.4895 50.8666 49.7151C48.667 52.5201 44.6194 54.093 40.0335 53.9302ZM70.9388 55.7577C68.9411 57.2821 65.5503 58.1965 63.8918 58.6437C59.2369 59.8991 53.8502 59.8782 48.7242 58.5854C46.1595 57.9386 43.5442 57.152 41.7895 55.7868C41.7811 55.7803 41.7719 55.7726 41.7632 55.7657C43.1534 55.693 44.476 55.4736 45.7095 55.1191C46.2959 55.1649 46.8897 55.191 47.4893 55.191C49.4005 55.191 51.3688 54.9299 53.3309 54.2275C54.9002 53.6657 56.3491 52.8664 57.6156 51.8969C58.2977 52.1198 60.708 53.0251 61.2001 53.2181C64.4199 54.4806 67.4919 55.6853 70.9388 55.7577ZM62.5774 51.7674C62.3445 51.6766 59.5952 50.6174 59.2123 50.4821C60.3102 49.3546 61.1898 48.0803 61.7726 46.7173C63.4828 42.7169 62.6999 38.5071 61.9427 34.4359C61.9198 34.3128 61.8969 34.1899 61.8742 34.0672C66.8835 31.8634 72.4646 30.8378 75.0486 30.4515C73.268 35.8779 72.1122 42.1974 72.0203 42.7081C71.2476 46.0554 69.4956 48.5591 66.8127 50.149C65.5091 50.9215 64.0635 51.4373 62.5774 51.7674Z" fill="#242424"/>
</svg>
