<svg width="175" height="339" viewBox="0 0 175 339" fill="none" xmlns="http://www.w3.org/2000/svg">
<path d="M174.348 337.869C162.324 324.853 151.302 310.931 141.377 296.226C130.756 283.023 124.822 265.384 136.426 250.417C146.03 235.691 160.828 223.223 163.308 205.255C166.582 190.195 165.093 174.459 159.051 160.258C154.816 155.402 155.811 176.358 154.261 178.605C150.99 191.049 148.566 204.064 142.759 215.729C134.902 231.688 125.038 246.783 125.726 264.836C96.3544 204.111 136.118 216.179 136.365 163.782C136.594 144.937 126.437 128.001 126.076 109.115C125.884 108.259 126.278 106.962 124.79 107.192C115.763 125.416 121.621 147.149 120.399 166.908C120.185 182.157 115.248 196.944 112.069 211.786C108.092 194.02 104.507 175.717 100.012 157.929C97.8608 148.322 103.322 139.395 106.545 130.555C111.999 119.762 114.063 107.538 112.463 95.5059C110.863 83.4735 105.675 72.2014 97.5875 63.186C97.2872 62.9411 96.915 62.8035 96.5297 62.7949C96.1443 62.7863 95.7675 62.9072 95.4587 63.1386C95.1499 63.37 94.9266 63.6987 94.8239 64.073C94.7212 64.4473 94.7449 64.8459 94.8914 65.2061C106.403 86.053 94.7441 120.034 93.9134 143.989C77.1195 119.419 81.7052 99.7014 82.0706 72.2915C83.8115 52.5543 73.9037 34.2851 76.0663 14.9027C71.9174 17.0062 70.994 40.3952 70.684 45.8888C70.9798 67.692 75.1432 89.804 77.6329 111.012C60.891 88.8144 54.0527 84.714 52.0367 56.1443C49.0837 36.0761 35.4401 19.9215 25.3222 2.7012C24.8374 1.91147 25.2365 0.0255729 23.5062 0.551151C21.1443 1.77093 23.4495 5.95347 22.548 8.19369C18.3648 47.134 46.6465 74.8673 69.0507 102.638C54.5995 94.2771 39.2025 87.7125 23.1976 83.0884C13.7135 79.8567 7.57468 72.7666 0.431033 66.3852C-1.14612 70.1931 9.35656 87.6037 14.465 89.3275C20.3654 92.6015 25.877 96.5845 31.8352 99.811C39.2989 103.495 48.282 103.419 56.1901 105.725C68.8429 109.353 80.11 117.644 84.4049 129.949C90.709 141.649 95.7654 153.986 99.4888 166.752C86.2033 148.376 66.2375 137.61 46.8738 126.018C40.6989 122.678 35.5688 117.662 32.0658 111.54C30.1424 108.758 29.2186 104.784 26.0855 103.171C22.3296 114.826 34.5003 125.471 41.6643 133.472C57.4113 149.087 79.4244 156.769 96.3444 171.05C108.453 181.571 106.004 199.981 109.253 214.49C90.6578 179.889 56.225 171.913 30.6326 145.339C29.8619 154.736 38.5946 163.63 43.3448 171.549C67.2 200.757 112.963 207.371 116.765 252.021C96.5839 220.573 59.1618 214.683 32.6732 190.832C32.6398 191.6 32.2699 192.546 32.6306 193.088C42.1538 207.193 50.2289 223.696 66.8268 231.036C77.0192 237.737 89.9691 239.329 99.12 247.645C108.271 255.961 119.885 263.967 125.281 275.231C113.406 266.972 97.5964 266.366 86.4237 257.121C84.4144 255.636 66.3411 236.051 70.8354 246.342C92.7889 275.769 95.1363 270.51 125.65 282.991C136.907 294.601 145.484 308.608 155.99 320.835C161.895 326.423 165.607 337.961 174.316 338.187M121.261 129.644C122.11 126.863 121.866 119.351 124.175 114.688C133.485 151.99 144.173 177.719 116.313 211.941C114.259 199.86 121.103 187.479 121.776 175.202C121.953 158.717 122.005 147.028 121.307 129.392L121.261 129.644ZM23.2627 17.5001C24.2037 13.1435 23.404 9.41855 25.5374 6.10791C40.3658 27.2487 52.9643 48.0595 51.7378 74.833C33.2212 61.9806 26.8088 38.2301 23.2627 17.5001ZM103.656 216.088C81.312 195.006 45.7402 184.694 35.2358 153.671C57.9631 173.562 97.1901 183.54 103.656 216.088ZM115.778 257.7C106.615 251.011 98.2738 243.101 87.8705 238.209C66.8764 231.716 48.058 218.586 39.0466 198.665C65.1566 217.003 103.59 225.88 115.778 257.7ZM163.445 186.913C163.752 217.939 145.888 232.303 128.924 256.346C128.176 240.621 140.9 226.993 146.487 212.51C152.614 198.148 155.188 182.439 158.889 167.481C162.162 173.463 163.748 180.23 163.474 187.045L163.445 186.913ZM111.634 101.776C111.792 116.39 103.649 129.545 98.3706 142.957C93.3163 119.006 106.951 93.3928 99.726 69.3752C107.491 78.3689 111.73 89.9079 111.642 101.809L111.634 101.776ZM28.2349 111.396L28.732 110.559C42.8388 134.591 80.4107 137.788 92.264 163.982C68.574 150.491 39.8117 137.273 28.1845 111.477L28.2349 111.396ZM5.63059 76.3112C6.17298 75.9825 6.17073 75.3611 6.35354 74.802C24.2893 90.4102 53.8306 88.4604 69.2893 107.525C57.3229 103.295 44.4918 101.469 32.3204 97.6985C21.935 92.7338 11.4861 86.2632 5.63059 76.3112ZM72.6118 44.8699C73.0158 41.3245 71.9121 36.7003 73.872 33.5321C81.5672 53.2296 80.7414 75.5257 79.4254 96.5497C74.5042 80.377 73.5647 61.9655 72.6118 44.8699ZM82.9884 258.132C84.3778 256.542 92.0969 264.73 96.3871 264.633C105.181 268.296 117.936 269.171 122.689 278.022C107.868 274.949 92.321 270.622 82.9884 258.132Z" fill="#1B4332"/>
</svg>
