<svg width="1920" height="28" viewBox="0 0 1920 28" fill="none" xmlns="http://www.w3.org/2000/svg">
<g clip-path="url(#clip0_523_16081)">
<path d="M1.21593e-05 18.0998C1.21593e-05 18.0998 24.7196 13.7998 47.4074 13.4998C70.4339 13.1998 90.0741 13.4998 118.18 14.9998C156.444 16.9998 230.265 25.0998 269.545 20.6998C308.825 16.2998 310.519 16.0998 330.497 13.2998C352.847 10.0998 398.222 3.69981 454.434 3.99981C514.37 4.29981 623.069 20.5998 667.767 19.7998C672.508 19.6998 690.116 18.9998 703.323 17.7998C716.19 16.5998 735.153 13.9998 760.889 13.0998C771.725 12.6998 788.995 11.9998 808.974 12.1998C814.053 12.2998 830.307 12.5998 849.608 13.7998C868.91 14.9998 886.857 16.8998 903.111 17.4998C937.989 18.5998 960 16.9998 960 16.9998V27.7998L1.21593e-05 27.7998V18.0998ZM76.8678 16.4998C79.2381 17.4998 83.6402 16.8998 91.4286 16.8998C99.2169 16.8998 112.085 18.0998 111.069 17.9998C110.053 17.8998 100.571 16.4998 90.7513 16.0998C80.5926 15.5998 74.836 15.4998 76.8678 16.4998ZM139.175 19.1998C139.175 19.1998 147.302 19.3998 158.138 20.0998C168.974 20.8998 193.016 22.8998 209.27 23.5998C237.037 24.6998 262.772 23.5998 260.402 23.4998C257.693 23.3998 227.894 24.0998 200.804 22.3998C189.63 21.6998 169.312 20.1998 158.815 19.6998C147.64 19.0998 139.175 19.1998 139.175 19.1998ZM332.868 19.2998C327.111 19.9998 377.905 14.5998 395.513 13.1998C402.624 12.5998 416.508 11.5998 429.376 11.1998C442.582 10.7998 459.513 10.7998 459.175 10.6998C459.175 10.4998 439.534 9.8998 421.249 10.6998C402.963 11.4998 403.64 11.7998 395.513 12.2998C382.646 13.0998 338.624 18.5998 332.868 19.2998ZM285.799 20.8998C285.122 20.8998 288.508 21.2998 302.053 19.7998C315.598 18.2998 324.741 16.2998 325.418 16.0998C326.095 15.9998 313.566 17.8998 303.069 19.0998C292.91 20.2998 286.138 20.8998 285.799 20.8998ZM1.69313 21.7998C2.03176 21.6998 8.12695 20.6998 17.9471 19.2998C27.7672 17.8998 41.3122 16.4998 40.6349 16.5998C39.9577 16.5998 28.7831 17.1998 15.5768 19.0998C2.3704 20.9998 1.35451 21.8998 1.69313 21.7998ZM854.011 16.1998C853.672 16.3998 860.444 16.3998 869.249 17.3998C878.053 18.3998 887.534 18.9998 895.661 19.3998C909.206 20.1998 935.28 19.2998 933.926 19.1998C932.91 19.0998 906.159 19.4998 891.598 18.4998C884.148 17.9998 883.471 17.9998 872.296 16.8998C861.122 15.7998 854.349 15.8998 854.011 16.1998ZM712.804 18.5998C711.45 18.6998 700.952 20.1998 684.36 21.1998C667.767 22.2998 654.222 21.6998 654.222 21.9998C654.222 22.2998 657.608 22.8998 675.217 22.2998C692.825 21.6998 714.159 18.4998 712.804 18.5998ZM717.545 21.0998C716.868 20.9998 706.032 22.3998 698.243 22.7998C690.455 23.0998 691.81 23.2998 691.81 23.3998C691.81 23.4998 695.534 23.5998 700.952 23.1998C706.709 22.6998 718.222 21.1998 717.545 21.0998ZM643.048 23.3998C642.709 23.1998 631.196 22.5998 624.085 21.5998C616.974 20.5998 617.989 20.9998 617.651 21.0998C617.312 21.1998 620.36 21.8998 625.778 22.3998C631.196 22.9998 643.386 23.5998 643.048 23.3998ZM738.54 16.6998C738.878 16.3998 737.524 16.1998 732.106 16.8998C726.688 17.5998 723.302 18.1998 724.656 18.0998C726.011 17.9998 727.704 17.6998 733.122 17.2998C738.878 16.8998 738.201 16.9998 738.54 16.6998ZM843.175 15.3998C843.852 15.3998 836.063 14.5998 832 14.4998C827.937 14.3998 825.228 14.3998 825.228 14.6998C825.228 14.9998 825.566 15.1998 830.646 15.0998C836.063 14.9998 842.497 15.3998 843.175 15.3998ZM444.614 6.6998C444.952 6.5998 452.741 6.99981 470.011 6.99981C486.942 6.99981 516.063 9.39981 528.254 10.4998C540.444 11.5998 494.392 6.59981 472.381 6.39981C450.37 6.19981 444.275 6.7998 444.614 6.6998Z" fill="#D8F3DC"/>
<path d="M47.068 9.79974C47.4066 9.89974 62.6448 9.49974 71.449 9.79974C96.1686 10.4997 129.015 12.9997 127.661 12.6997C126.306 12.3997 81.2691 9.59974 70.0945 9.39974C53.5019 8.99974 46.7294 9.79974 47.068 9.79974Z" fill="#D8F3DC"/>
<path d="M189.969 17.9999C190.646 18.0999 205.207 18.9999 222.138 19.1999C239.07 19.3999 265.144 18.5999 263.789 18.6999C262.773 18.7999 243.81 20.4999 218.752 19.8999C193.694 19.2999 189.292 17.8999 189.969 17.9999Z" fill="#D8F3DC"/>
<path d="M267.514 14.3996C267.852 14.4996 260.741 15.3996 256.678 15.4996C252.614 15.5996 249.905 15.4996 249.905 15.1996C249.905 14.8996 250.244 14.6996 255.323 14.7996C261.08 14.8996 267.175 14.2996 267.514 14.3996Z" fill="#D8F3DC"/>
<path d="M279.364 17.1996C279.364 17.2996 294.264 15.9996 300.697 14.9996C307.131 14.0996 321.692 11.8996 321.354 11.8996C321.015 11.7996 307.131 13.4996 300.02 14.4996C292.909 15.4996 279.364 17.0996 279.364 17.1996Z" fill="#D8F3DC"/>
<path d="M436.826 1.10003C437.164 1.20003 452.403 0.800034 461.207 1.10003C485.926 1.80003 518.773 4.30004 517.418 4.00004C516.064 3.70004 471.027 0.900035 459.852 0.700035C443.26 0.300035 436.487 1.00003 436.826 1.10003Z" fill="#D8F3DC"/>
<path d="M818.117 8.49976C818.117 8.49976 814.054 8.79976 808.297 8.59976C802.54 8.39976 788.657 7.69976 780.53 7.89976C766.308 8.29976 755.472 10.5998 756.826 10.4998C758.181 10.4998 771.387 8.29976 785.948 8.59976C792.043 8.69976 803.218 9.09976 808.636 8.99976C814.054 8.89976 818.117 8.49976 818.117 8.49976Z" fill="#D8F3DC"/>
<path d="M704.339 15.1998C703.662 15.0998 697.566 15.9998 689.778 16.2998C681.99 16.4998 682.667 16.5998 682.667 16.7998C682.667 16.8998 688.762 17.1998 694.18 16.7998C699.598 16.2998 705.016 15.2998 704.339 15.1998Z" fill="#D8F3DC"/>
<path d="M907.174 14.5999C907.174 14.6999 892.613 14.5999 884.486 14.0999C876.359 13.5999 867.555 12.1999 867.555 12.0999C867.555 11.9999 876.698 12.8999 884.825 13.4999C892.613 14.0999 906.835 14.4999 907.174 14.5999Z" fill="#D8F3DC"/>
</g>
<g clip-path="url(#clip1_523_16081)">
<path d="M1920 18.0998C1920 18.0998 1895.28 13.7998 1872.59 13.4998C1849.57 13.1998 1829.93 13.4998 1801.82 14.9998C1763.56 16.9998 1689.74 25.0998 1650.45 20.6998C1611.17 16.2998 1609.48 16.0998 1589.5 13.2998C1567.15 10.0998 1521.78 3.69981 1465.57 3.99981C1405.63 4.29981 1296.93 20.5998 1252.23 19.7998C1247.49 19.6998 1229.88 18.9998 1216.68 17.7998C1203.81 16.5998 1184.85 13.9998 1159.11 13.0998C1148.28 12.6998 1131.01 11.9998 1111.03 12.1998C1105.95 12.2998 1089.69 12.5998 1070.39 13.7998C1051.09 14.9998 1033.14 16.8998 1016.89 17.4998C982.011 18.5998 960 16.9998 960 16.9998V27.7998L1920 27.7998V18.0998ZM1843.13 16.4998C1840.76 17.4998 1836.36 16.8998 1828.57 16.8998C1820.78 16.8998 1807.92 18.0998 1808.93 17.9998C1809.95 17.8998 1819.43 16.4998 1829.25 16.0998C1839.41 15.5998 1845.16 15.4998 1843.13 16.4998ZM1780.83 19.1998C1780.83 19.1998 1772.7 19.3998 1761.86 20.0998C1751.03 20.8998 1726.98 22.8998 1710.73 23.5998C1682.96 24.6998 1657.23 23.5998 1659.6 23.4998C1662.31 23.3998 1692.11 24.0998 1719.2 22.3998C1730.37 21.6998 1750.69 20.1998 1761.19 19.6998C1772.36 19.0998 1780.83 19.1998 1780.83 19.1998ZM1587.13 19.2998C1592.89 19.9998 1542.1 14.5998 1524.49 13.1998C1517.38 12.5998 1503.49 11.5998 1490.62 11.1998C1477.42 10.7998 1460.49 10.7998 1460.83 10.6998C1460.83 10.4998 1480.47 9.8998 1498.75 10.6998C1517.04 11.4998 1516.36 11.7998 1524.49 12.2998C1537.35 13.0998 1581.38 18.5998 1587.13 19.2998ZM1634.2 20.8998C1634.88 20.8998 1631.49 21.2998 1617.95 19.7998C1604.4 18.2998 1595.26 16.2998 1594.58 16.0998C1593.9 15.9998 1606.43 17.8998 1616.93 19.0998C1627.09 20.2998 1633.86 20.8998 1634.2 20.8998ZM1918.31 21.7998C1917.97 21.6998 1911.87 20.6998 1902.05 19.2998C1892.23 17.8998 1878.69 16.4998 1879.37 16.5998C1880.04 16.5998 1891.22 17.1998 1904.42 19.0998C1917.63 20.9998 1918.65 21.8998 1918.31 21.7998ZM1065.99 16.1998C1066.33 16.3998 1059.56 16.3998 1050.75 17.3998C1041.95 18.3998 1032.47 18.9998 1024.34 19.3998C1010.79 20.1998 984.72 19.2998 986.074 19.1998C987.09 19.0998 1013.84 19.4998 1028.4 18.4998C1035.85 17.9998 1036.53 17.9998 1047.7 16.8998C1058.88 15.7998 1065.65 15.8998 1065.99 16.1998ZM1207.2 18.5998C1208.55 18.6998 1219.05 20.1998 1235.64 21.1998C1252.23 22.2998 1265.78 21.6998 1265.78 21.9998C1265.78 22.2998 1262.39 22.8998 1244.78 22.2998C1227.17 21.6998 1205.84 18.4998 1207.2 18.5998ZM1202.46 21.0998C1203.13 20.9998 1213.97 22.3998 1221.76 22.7998C1229.54 23.0998 1228.19 23.2998 1228.19 23.3998C1228.19 23.4998 1224.47 23.5998 1219.05 23.1998C1213.29 22.6998 1201.78 21.1998 1202.46 21.0998ZM1276.95 23.3998C1277.29 23.1998 1288.8 22.5998 1295.92 21.5998C1303.03 20.5998 1302.01 20.9998 1302.35 21.0998C1302.69 21.1998 1299.64 21.8998 1294.22 22.3998C1288.8 22.9998 1276.61 23.5998 1276.95 23.3998ZM1181.46 16.6998C1181.12 16.3998 1182.48 16.1998 1187.89 16.8998C1193.31 17.5998 1196.7 18.1998 1195.34 18.0998C1193.99 17.9998 1192.3 17.6998 1186.88 17.2998C1181.12 16.8998 1181.8 16.9998 1181.46 16.6998ZM1076.83 15.3998C1076.15 15.3998 1083.94 14.5998 1088 14.4998C1092.06 14.3998 1094.77 14.3998 1094.77 14.6998C1094.77 14.9998 1094.43 15.1998 1089.35 15.0998C1083.94 14.9998 1077.5 15.3998 1076.83 15.3998ZM1475.39 6.6998C1475.05 6.5998 1467.26 6.99981 1449.99 6.99981C1433.06 6.99981 1403.94 9.39981 1391.75 10.4998C1379.56 11.5998 1425.61 6.59981 1447.62 6.39981C1469.63 6.19981 1475.72 6.7998 1475.39 6.6998Z" fill="#D8F3DC"/>
<path d="M1872.93 9.79974C1872.59 9.89974 1857.36 9.49974 1848.55 9.79974C1823.83 10.4997 1790.98 12.9997 1792.34 12.6997C1793.69 12.3997 1838.73 9.59974 1849.91 9.39974C1866.5 8.99974 1873.27 9.79974 1872.93 9.79974Z" fill="#D8F3DC"/>
<path d="M1730.03 17.9999C1729.35 18.0999 1714.79 18.9999 1697.86 19.1999C1680.93 19.3999 1654.86 18.5999 1656.21 18.6999C1657.23 18.7999 1676.19 20.4999 1701.25 19.8999C1726.31 19.2999 1730.71 17.8999 1730.03 17.9999Z" fill="#D8F3DC"/>
<path d="M1652.49 14.3996C1652.15 14.4996 1659.26 15.3996 1663.32 15.4996C1667.39 15.5996 1670.09 15.4996 1670.09 15.1996C1670.09 14.8996 1669.76 14.6996 1664.68 14.7996C1658.92 14.8996 1652.82 14.2996 1652.49 14.3996Z" fill="#D8F3DC"/>
<path d="M1640.64 17.1996C1640.64 17.2996 1625.74 15.9996 1619.3 14.9996C1612.87 14.0996 1598.31 11.8996 1598.65 11.8996C1598.99 11.7996 1612.87 13.4996 1619.98 14.4996C1627.09 15.4996 1640.64 17.0996 1640.64 17.1996Z" fill="#D8F3DC"/>
<path d="M1483.17 1.10003C1482.84 1.20003 1467.6 0.800034 1458.79 1.10003C1434.07 1.80003 1401.23 4.30004 1402.58 4.00004C1403.94 3.70004 1448.97 0.900035 1460.15 0.700035C1476.74 0.300035 1483.51 1.00003 1483.17 1.10003Z" fill="#D8F3DC"/>
<path d="M1101.88 8.49976C1101.88 8.49976 1105.95 8.79976 1111.7 8.59976C1117.46 8.39976 1131.34 7.69976 1139.47 7.89976C1153.69 8.29976 1164.53 10.5998 1163.17 10.4998C1161.82 10.4998 1148.61 8.29976 1134.05 8.59976C1127.96 8.69976 1116.78 9.09976 1111.36 8.99976C1105.95 8.89976 1101.88 8.49976 1101.88 8.49976Z" fill="#D8F3DC"/>
<path d="M1215.66 15.1998C1216.34 15.0998 1222.43 15.9998 1230.22 16.2998C1238.01 16.4998 1237.33 16.5998 1237.33 16.7998C1237.33 16.8998 1231.24 17.1998 1225.82 16.7998C1220.4 16.2998 1214.98 15.2998 1215.66 15.1998Z" fill="#D8F3DC"/>
<path d="M1012.83 14.5999C1012.83 14.6999 1027.39 14.5999 1035.51 14.0999C1043.64 13.5999 1052.45 12.1999 1052.45 12.0999C1052.45 11.9999 1043.3 12.8999 1035.18 13.4999C1027.39 14.0999 1013.16 14.4999 1012.83 14.5999Z" fill="#D8F3DC"/>
</g>
<defs>
<clipPath id="clip0_523_16081">
<rect width="960" height="27.8" fill="white" transform="matrix(-1 0 0 -1 960 27.7998)"/>
</clipPath>
<clipPath id="clip1_523_16081">
<rect width="960" height="27.8" fill="white" transform="matrix(1 0 0 -1 960 27.7998)"/>
</clipPath>
</defs>
</svg>
