<svg width="25" height="24" viewBox="0 0 25 24" fill="none" xmlns="http://www.w3.org/2000/svg">
<g clip-path="url(#clip0_135_8005)">
<path d="M6.58577 23.9151C5.15848 23.8502 4.38314 23.6127 3.86743 23.4115C3.1841 23.1455 2.69693 22.8288 2.18407 22.3166C1.67122 21.8045 1.35381 21.3173 1.08918 20.634C0.888029 20.1183 0.650504 19.3429 0.585595 17.9157C0.514266 16.3728 0.5 15.9099 0.5 12.0011C0.5 8.09225 0.515692 7.63004 0.584881 6.08577C0.64979 4.65848 0.888742 3.88457 1.08846 3.36743C1.35452 2.6841 1.67193 2.19693 2.18336 1.68336C2.6955 1.17122 3.18268 0.853092 3.86672 0.588463C4.38243 0.387315 5.15777 0.14979 6.58506 0.0848813C8.12861 0.0142658 8.59225 0 12.4996 0C16.4085 0 16.8707 0.0156923 18.4149 0.0848813C19.8422 0.14979 20.6161 0.388742 21.1333 0.588463C21.8166 0.853092 22.3038 1.17122 22.8166 1.68336C23.3295 2.1955 23.6455 2.68339 23.9115 3.36672C24.1127 3.88243 24.3502 4.65777 24.4151 6.08506C24.4857 7.62933 24.5 8.09154 24.5 12.0004C24.5 15.9077 24.4857 16.3714 24.4151 17.9157C24.3502 19.3429 24.1113 20.1183 23.9115 20.634C23.6455 21.3173 23.3288 21.8045 22.8166 22.3166C22.3045 22.8288 21.8166 23.1455 21.1333 23.4115C20.6176 23.6127 19.8422 23.8502 18.4149 23.9151C16.8721 23.9857 16.4085 24 12.4996 24C8.59225 24 8.12862 23.9864 6.58577 23.9151" fill="#10141F"/>
<path d="M9.77709 11.915C9.77709 10.4579 10.9579 9.27645 12.415 9.27645C13.8721 9.27645 15.0535 10.4579 15.0535 11.915C15.0535 13.3721 13.8721 14.5535 12.415 14.5535C10.9579 14.5535 9.77709 13.3721 9.77709 11.915M8.35074 11.915C8.35074 14.1597 10.1703 15.9793 12.415 15.9793C14.6597 15.9793 16.4793 14.1597 16.4793 11.915C16.4793 9.67031 14.6597 7.85074 12.415 7.85074C10.1703 7.85074 8.35081 9.67018 8.35081 11.915M15.6904 7.68959C15.6903 7.87745 15.746 8.0611 15.8503 8.21734C15.9546 8.37357 16.1029 8.49537 16.2764 8.56733C16.4499 8.63929 16.6409 8.65817 16.8251 8.6216C17.0094 8.58502 17.1787 8.49463 17.3116 8.36185C17.4444 8.22907 17.535 8.05987 17.5717 7.87564C17.6084 7.69141 17.5897 7.50043 17.5179 7.32685C17.446 7.15327 17.3244 7.00488 17.1682 6.90045C17.0121 6.79603 16.8284 6.74025 16.6406 6.74017H16.6402C16.3884 6.74029 16.147 6.84034 15.9689 7.01836C15.7908 7.19637 15.6906 7.43779 15.6904 7.68959M9.21734 18.3577C8.44566 18.3225 8.02623 18.194 7.74749 18.0854C7.37796 17.9415 7.11429 17.7702 6.83708 17.4934C6.55986 17.2165 6.38827 16.9531 6.24504 16.5836C6.13638 16.305 6.00784 15.8854 5.97276 15.1137C5.93439 14.2794 5.92673 14.0288 5.92673 11.9151C5.92673 9.80144 5.93502 9.55152 5.97276 8.71652C6.0079 7.94484 6.13739 7.5261 6.24504 7.24667C6.3889 6.87713 6.56024 6.61347 6.83708 6.33625C7.11391 6.05904 7.37732 5.88744 7.74749 5.74421C8.0261 5.63556 8.44566 5.50702 9.21734 5.47194C10.0516 5.43356 10.3023 5.4259 12.415 5.4259C14.5277 5.4259 14.7786 5.43407 15.6136 5.47206C16.3853 5.50721 16.804 5.6367 17.0835 5.74434C17.453 5.88757 17.7167 6.05955 17.9939 6.33638C18.2711 6.61322 18.4421 6.87726 18.5859 7.2468C18.6946 7.5254 18.8231 7.94496 18.8582 8.71664C18.8966 9.55164 18.9042 9.80157 18.9042 11.9153C18.9042 14.0289 18.8966 14.2789 18.8582 15.1139C18.823 15.8855 18.6939 16.305 18.5859 16.5837C18.4421 16.9532 18.2707 17.2169 17.9939 17.4935C17.717 17.7701 17.453 17.9417 17.0835 18.0855C16.8048 18.1942 16.3853 18.3227 15.6136 18.3578C14.7793 18.3962 14.5287 18.4038 12.415 18.4038C10.3013 18.4038 10.0514 18.3962 9.21734 18.3578M9.1518 4.04793C8.3092 4.08631 7.73344 4.21991 7.23061 4.41557C6.71018 4.61762 6.26903 4.8887 5.82852 5.32852C5.388 5.76834 5.11762 6.20955 4.91557 6.73061C4.71991 7.23375 4.58631 7.8092 4.54793 8.6518C4.50893 9.49573 4.5 9.76554 4.5 11.915C4.5 14.0645 4.50893 14.3343 4.54793 15.1782C4.58631 16.0209 4.71991 16.5962 4.91557 17.0994C5.11762 17.6198 5.38806 18.0619 5.82852 18.5015C6.26897 18.9411 6.70955 19.2118 7.23061 19.4144C7.73439 19.6101 8.3092 19.7437 9.1518 19.7821C9.99618 19.8204 10.2655 19.83 12.415 19.83C14.5645 19.83 14.8343 19.8211 15.6782 19.7821C16.5209 19.7437 17.0962 19.6101 17.5994 19.4144C18.1198 19.2118 18.561 18.9413 19.0015 18.5015C19.442 18.0617 19.7118 17.6198 19.9144 17.0994C20.1101 16.5962 20.2443 16.0208 20.2821 15.1782C20.3204 14.3336 20.3294 14.0645 20.3294 11.915C20.3294 9.76554 20.3204 9.49573 20.2821 8.6518C20.2437 7.80914 20.1101 7.23344 19.9144 6.73061C19.7118 6.21018 19.4413 5.76903 19.0015 5.32852C18.5617 4.888 18.1198 4.61762 17.6 4.41557C17.0962 4.21991 16.5208 4.08567 15.6788 4.04793C14.8348 4.00937 14.5651 4 12.416 4C10.2668 4 9.99649 4.00893 9.15212 4.04793" fill="white"/>
</g>
<defs>
<clipPath id="clip0_135_8005">
<rect x="0.5" width="24" height="24" rx="12" fill="white"/>
</clipPath>
</defs>
</svg>
