<svg width="24" height="24" viewBox="0 0 24 24" fill="none" xmlns="http://www.w3.org/2000/svg">
<path d="M10.7044 16.6016C11.8969 16.6016 12.8636 15.7653 12.8636 14.4865V5H15.4532C15.3079 6.73007 17.0637 8.40128 19 8.36306V10.7483C17.344 10.7483 15.9359 10.0624 15.4458 9.68177V14.4865C15.4458 16.6016 13.7471 19 10.7044 19C7.66157 19 6 16.6016 6 14.4865C6 11.5013 9.22511 9.76994 11.3612 10.1931V12.6226C11.2537 12.5854 10.9766 12.5303 10.7406 12.5303C9.53813 12.4869 8.54511 13.4422 8.54511 14.4865C8.54511 15.6546 9.51184 16.6016 10.7044 16.6016Z" fill="#10141F"/>
</svg>
