<svg width="24" height="24" viewBox="0 0 24 24" fill="none" xmlns="http://www.w3.org/2000/svg">
<rect width="24" height="24" rx="12" fill="#10141F"/>
<path d="M10.9373 16.4303C12.1888 16.4303 13.2034 15.5342 13.2034 14.1641V4H15.9212C15.7687 5.85365 17.6114 7.64423 19.6436 7.60328V10.1589C17.9057 10.1589 16.4278 9.42401 15.9134 9.01618V14.1641C15.9134 16.4303 14.1307 19 10.9373 19C7.74384 19 6 16.4303 6 14.1641C6 10.9656 9.38478 9.11065 11.6266 9.56403V12.1671C11.5138 12.1272 11.223 12.0682 10.9753 12.0682C9.71331 12.0217 8.67112 13.0452 8.67112 14.1641C8.67112 15.4157 9.68571 16.4303 10.9373 16.4303Z" fill="white"/>
</svg>
