<svg width="48" height="48" viewBox="0 0 48 48" fill="none" xmlns="http://www.w3.org/2000/svg">
<path d="M12.0283 7.99609C7.61033 7.99609 4.02832 11.5781 4.02832 15.9961V31.9961C4.02832 36.4141 7.61033 39.9961 12.0283 39.9961H36.0284C40.4464 39.9961 44.0284 36.4141 44.0284 31.9961V15.9961C44.0284 11.5781 40.4464 7.99609 36.0284 7.99609H12.0283ZM12.0283 11.9961H36.0284C38.0444 11.9961 39.7104 13.4761 39.9864 15.4161C38.0704 17.2021 35.2224 19.3941 33.3404 20.7461C29.0104 23.8561 25.2004 25.9961 24.0284 25.9961C22.8563 25.9961 19.0463 23.8581 14.7163 20.7461C12.8343 19.3941 10.9843 17.9321 9.59034 16.7461C8.99634 16.2401 8.55632 15.8321 8.21632 15.4961C8.49232 13.5561 10.0123 11.9961 12.0283 11.9961ZM8.04835 20.7041C13.1244 24.8101 20.5623 29.9721 24.0284 29.9961C26.2864 30.0121 30.1484 27.8561 34.0884 25.1341C36.1264 23.7241 38.3944 22.0501 40.0304 20.6761L40.0284 31.9961C40.0284 34.2061 38.2384 35.9961 36.0284 35.9961H12.0283C9.81833 35.9961 8.02833 34.2061 8.02833 31.9961L8.04835 20.7041Z" fill="#454545"/>
</svg>
