<svg width="25" height="24" viewBox="0 0 25 24" fill="none" xmlns="http://www.w3.org/2000/svg">
<path d="M10.1672 12C10.1672 10.7114 11.2116 9.66648 12.5003 9.66648C13.7889 9.66648 14.8339 10.7114 14.8339 12C14.8339 13.2886 13.7889 14.3335 12.5003 14.3335C11.2116 14.3335 10.1672 13.2886 10.1672 12M8.90572 12C8.90572 13.9852 10.515 15.5944 12.5003 15.5944C14.4856 15.5944 16.0948 13.9852 16.0948 12C16.0948 10.0148 14.4856 8.40558 12.5003 8.40558C10.515 8.40558 8.90578 10.0147 8.90578 12M15.3972 8.26306C15.3971 8.4292 15.4463 8.59163 15.5385 8.7298C15.6308 8.86797 15.762 8.97569 15.9154 9.03933C16.0689 9.10297 16.2378 9.11967 16.4008 9.08732C16.5637 9.05498 16.7134 8.97504 16.831 8.85761C16.9485 8.74018 17.0285 8.59054 17.061 8.42761C17.0935 8.26467 17.0769 8.09577 17.0134 7.94226C16.9499 7.78874 16.8423 7.65751 16.7042 7.56515C16.5661 7.4728 16.4037 7.42347 16.2375 7.4234H16.2372C16.0145 7.4235 15.8009 7.51199 15.6434 7.66943C15.4859 7.82686 15.3974 8.04037 15.3972 8.26306M9.67217 17.6979C8.98967 17.6668 8.61871 17.5531 8.37219 17.4571C8.04536 17.3299 7.81216 17.1783 7.56699 16.9335C7.32181 16.6887 7.17004 16.4557 7.04337 16.1289C6.94727 15.8825 6.83358 15.5114 6.80256 14.829C6.76862 14.0911 6.76184 13.8694 6.76184 12.0001C6.76184 10.1308 6.76918 9.90974 6.80256 9.17127C6.83364 8.4888 6.94816 8.11847 7.04337 7.87134C7.1706 7.54453 7.32214 7.31134 7.56699 7.06618C7.81183 6.82101 8.0448 6.66925 8.37219 6.54258C8.6186 6.44648 8.98967 6.3328 9.67217 6.30178C10.4101 6.26784 10.6317 6.26106 12.5003 6.26106C14.3689 6.26106 14.5907 6.26829 15.3292 6.30189C16.0117 6.33297 16.3821 6.44749 16.6292 6.54269C16.956 6.66936 17.1892 6.82146 17.4344 7.06629C17.6796 7.31112 17.8308 7.54464 17.958 7.87146C18.0541 8.11786 18.1678 8.48891 18.1988 9.17138C18.2328 9.90986 18.2396 10.1309 18.2396 12.0002C18.2396 13.8696 18.2328 14.0906 18.1988 14.8291C18.1678 15.5115 18.0535 15.8825 17.958 16.129C17.8308 16.4558 17.6793 16.689 17.4344 16.9336C17.1896 17.1782 16.956 17.33 16.6292 17.4572C16.3828 17.5533 16.0117 17.667 15.3292 17.698C14.5913 17.7319 14.3697 17.7387 12.5003 17.7387C10.6309 17.7387 10.4098 17.7319 9.67217 17.698M9.6142 5.04239C8.86898 5.07633 8.35975 5.19449 7.91504 5.36753C7.45476 5.54622 7.06459 5.78596 6.67498 6.17494C6.28538 6.56391 6.04625 6.95412 5.86754 7.41494C5.6945 7.85992 5.57633 8.36885 5.54239 9.11404C5.5079 9.86041 5.5 10.099 5.5 12C5.5 13.901 5.5079 14.1396 5.54239 14.886C5.57633 15.6312 5.6945 16.1401 5.86754 16.5851C6.04625 17.0453 6.28543 17.4363 6.67498 17.8251C7.06453 18.2139 7.4542 18.4533 7.91504 18.6325C8.36059 18.8055 8.86898 18.9237 9.6142 18.9576C10.361 18.9915 10.5992 19 12.5003 19C14.4013 19 14.64 18.9921 15.3864 18.9576C16.1316 18.9237 16.6405 18.8055 17.0855 18.6325C17.5458 18.4533 17.936 18.214 18.3256 17.8251C18.7152 17.4361 18.9538 17.0453 19.133 16.5851C19.3061 16.1401 19.4248 15.6312 19.4582 14.886C19.4921 14.139 19.5 13.901 19.5 12C19.5 10.099 19.4921 9.86041 19.4582 9.11404C19.4242 8.36879 19.3061 7.85964 19.133 7.41494C18.9538 6.95468 18.7146 6.56453 18.3256 6.17494C17.9366 5.78534 17.5458 5.54622 17.0861 5.36753C16.6405 5.19449 16.1316 5.07577 15.3869 5.04239C14.6404 5.00829 14.4019 5 12.5011 5C10.6003 5 10.3613 5.0079 9.61449 5.04239" fill="#10141F"/>
</svg>
