<svg width="24" height="24" viewBox="0 0 24 24" fill="none" xmlns="http://www.w3.org/2000/svg">
<rect width="24" height="24" rx="12" fill="#10141F"/>
<path d="M8.56771 13.6879C8.65787 12.9414 8.96402 12.5235 9.54096 12.0951C10.3665 11.5148 11.3976 11.843 11.3976 11.843V9.89581C11.6483 9.8894 11.8991 9.90426 12.1471 9.94021V12.4461C12.1471 12.4461 11.1162 12.1179 10.2907 12.6984C9.71408 13.1266 9.4073 13.5448 9.31745 14.2913C9.31463 14.6966 9.3907 15.2265 9.741 15.6847C9.65439 15.6402 9.56611 15.5896 9.47617 15.5328C8.70451 15.0147 8.56395 14.2373 8.56771 13.6879ZM16.4048 6.2954C15.8369 5.67313 15.6222 5.04486 15.5445 4.60352H16.2589C16.2589 4.60352 16.1165 5.76074 17.1545 6.89877L17.1689 6.91407C16.8891 6.73809 16.6326 6.53036 16.4048 6.2954ZM19.8461 8.0596V10.5151C19.8461 10.5151 18.9345 10.4794 18.2599 10.3078C17.3179 10.0677 16.7125 9.69958 16.7125 9.69958C16.7125 9.69958 16.2943 9.43705 16.2605 9.41875V14.4893C16.2605 14.7716 16.1831 15.4767 15.9474 16.0648C15.6397 16.8341 15.1648 17.339 15.0775 17.4422C15.0775 17.4422 14.4999 18.1248 13.4809 18.5845C12.5625 18.9991 11.7561 18.9886 11.515 18.9991C11.515 18.9991 10.121 19.0543 8.86667 18.2391C8.59542 18.0595 8.34222 17.856 8.11035 17.6313L8.11661 17.6358C9.3713 18.451 10.765 18.3958 10.765 18.3958C11.0063 18.3853 11.8127 18.3958 12.7309 17.9811C13.7489 17.5215 14.3274 16.8389 14.3274 16.8389C14.4138 16.7357 14.8909 16.2307 15.1974 15.4611C15.4325 14.8734 15.5104 14.168 15.5104 13.8857V8.81569C15.5442 8.83429 15.9621 9.09682 15.9621 9.09682C15.9621 9.09682 16.5679 9.46526 17.5098 9.70499C18.1847 9.8766 19.096 9.91231 19.096 9.91231V7.98819C19.4078 8.0581 19.6736 8.077 19.8461 8.0596Z" fill="#FD355A"/>
<path d="M19.0965 7.98819V9.91171C19.0965 9.91171 18.1853 9.876 17.5104 9.70438C16.5684 9.46436 15.9627 9.09622 15.9627 9.09622C15.9627 9.09622 15.5447 8.83369 15.5109 8.81509V13.8863C15.5109 14.1686 15.4336 14.874 15.1979 15.4617C14.8902 16.2313 14.4153 16.7363 14.3279 16.8395C14.3279 16.8395 13.7501 17.5221 12.7314 17.9817C11.8133 18.3964 11.0068 18.3859 10.7655 18.3964C10.7655 18.3964 9.37182 18.4516 8.11714 17.6364L8.11087 17.6319C7.97841 17.5036 7.85372 17.3682 7.73741 17.2262C7.33703 16.7381 7.0916 16.1608 7.02993 15.9961C7.02982 15.9954 7.02982 15.9947 7.02993 15.994C6.9307 15.7078 6.72221 15.0204 6.7507 14.3546C6.8011 13.18 7.21431 12.459 7.32357 12.2784C7.61291 11.7858 7.98925 11.3451 8.43581 10.9759C8.82988 10.6573 9.27655 10.4038 9.75749 10.2258C10.2774 10.0169 10.8341 9.90484 11.3978 9.89581V11.843C11.3978 11.843 10.3667 11.516 9.54149 12.0951C8.96455 12.5235 8.65839 12.9414 8.56823 13.6879C8.56448 14.2373 8.70503 15.0147 9.47606 15.5331C9.56601 15.5901 9.65429 15.6407 9.7409 15.685C9.8756 15.86 10.0395 16.0126 10.2261 16.1365C10.9793 16.6133 11.6104 16.6466 12.4174 16.3369C12.9556 16.1299 13.3606 15.6634 13.5485 15.1464C13.6665 14.8236 13.6649 14.4986 13.6649 14.1626V4.60352H15.5432C15.6208 5.04486 15.8356 5.67313 16.4034 6.2954C16.6312 6.53036 16.8878 6.73809 17.1676 6.91407C17.2502 6.99958 17.6728 7.42233 18.2153 7.68186C18.4958 7.81601 18.7915 7.9188 19.0965 7.98819V7.98819Z" fill="white"/>
<path d="M6.28223 15.3982V15.3997L6.32883 15.526C6.32348 15.5113 6.30616 15.4666 6.28223 15.3982Z" fill="#33F3ED"/>
<path d="M9.75741 10.226C9.27647 10.4039 8.82981 10.6574 8.43573 10.976C7.98902 11.3461 7.61279 11.7877 7.3238 12.2812C7.21455 12.4612 6.80133 13.1828 6.75093 14.3574C6.72244 15.0232 6.93093 15.7106 7.03017 15.9968C7.03006 15.9975 7.03006 15.9982 7.03017 15.9989C7.09277 16.1621 7.33726 16.7394 7.73765 17.229C7.85395 17.371 7.97864 17.5064 8.11111 17.6347C7.68668 17.3533 7.30816 17.0132 6.9879 16.6254C6.59096 16.1414 6.34616 15.5701 6.2823 15.4015C6.28223 15.4003 6.28223 15.3991 6.2823 15.3979V15.3958C6.18275 15.1099 5.97364 14.4222 6.00275 13.7555C6.05315 12.5809 6.46637 11.8599 6.57562 11.6793C6.86452 11.1858 7.24077 10.7441 7.68756 10.3742C8.08155 10.0555 8.52823 9.80196 9.00923 9.62409C9.30926 9.50478 9.6218 9.41676 9.94148 9.36156C10.4232 9.28096 10.9153 9.27397 11.3993 9.34085V9.89592C10.8351 9.90476 10.2778 10.0168 9.75741 10.226Z" fill="#33F3ED"/>
<path d="M15.5447 4.60367H13.6665V14.163C13.6665 14.4991 13.6665 14.8231 13.55 15.1468C13.3603 15.6635 12.9568 16.1301 12.419 16.3371C11.6117 16.6479 10.9806 16.6134 10.2277 16.1367C10.0408 16.0133 9.87642 15.8613 9.74121 15.6866C10.3826 16.0145 10.9568 16.0088 11.668 15.7352C12.2055 15.5282 12.6096 15.0616 12.7987 14.5447C12.917 14.2218 12.9155 13.8969 12.9155 13.5612V4H15.5091C15.5091 4 15.4799 4.23763 15.5447 4.60367ZM19.0965 7.45639V7.98834C18.7921 7.91884 18.4969 7.81605 18.2169 7.68201C17.6744 7.42248 17.2518 6.99973 17.1691 6.91422C17.265 6.97457 17.3645 7.02947 17.4672 7.07864C18.1267 7.39428 18.7763 7.48849 19.0965 7.45639Z" fill="#33F3ED"/>
</svg>
