<svg width="1920" height="28" viewBox="0 0 1920 28" fill="none" xmlns="http://www.w3.org/2000/svg">
<g clip-path="url(#clip0_421_9040)">
<path d="M1920 9.7C1920 9.7 1895.28 14 1872.59 14.3C1849.57 14.6 1829.93 14.3 1801.82 12.8C1763.56 10.8 1689.74 2.7 1650.45 7.1C1611.17 11.5 1609.48 11.7 1589.5 14.5C1567.15 17.7 1521.78 24.1 1465.57 23.8C1405.63 23.5 1296.93 7.2 1252.23 8C1247.49 8.1 1229.88 8.8 1216.68 10C1203.81 11.2 1184.85 13.8 1159.11 14.7C1148.28 15.1 1131.01 15.8 1111.03 15.6C1105.95 15.5 1089.69 15.2 1070.39 14C1051.09 12.8 1033.14 10.9 1016.89 10.3C982.011 9.2 960 10.8 960 10.8V0L1920 0V9.7ZM1843.13 11.3C1840.76 10.3 1836.36 10.9 1828.57 10.9C1820.78 10.9 1807.92 9.7 1808.93 9.8C1809.95 9.9 1819.43 11.3 1829.25 11.7C1839.41 12.2 1845.16 12.3 1843.13 11.3ZM1780.83 8.6C1780.83 8.6 1772.7 8.4 1761.86 7.7C1751.03 6.9 1726.98 4.9 1710.73 4.2C1682.96 3.1 1657.23 4.2 1659.6 4.3C1662.31 4.4 1692.11 3.7 1719.2 5.4C1730.37 6.1 1750.69 7.6 1761.19 8.1C1772.36 8.7 1780.83 8.6 1780.83 8.6ZM1587.13 8.5C1592.89 7.8 1542.1 13.2 1524.49 14.6C1517.38 15.2 1503.49 16.2 1490.62 16.6C1477.42 17 1460.49 17 1460.83 17.1C1460.83 17.3 1480.47 17.9 1498.75 17.1C1517.04 16.3 1516.36 16 1524.49 15.5C1537.35 14.7 1581.38 9.2 1587.13 8.5ZM1634.2 6.9C1634.88 6.9 1631.49 6.5 1617.95 8C1604.4 9.5 1595.26 11.5 1594.58 11.7C1593.9 11.8 1606.43 9.9 1616.93 8.7C1627.09 7.5 1633.86 6.9 1634.2 6.9ZM1918.31 6C1917.97 6.1 1911.87 7.1 1902.05 8.5C1892.23 9.9 1878.69 11.3 1879.37 11.2C1880.04 11.2 1891.22 10.6 1904.42 8.7C1917.63 6.8 1918.65 5.9 1918.31 6ZM1065.99 11.6C1066.33 11.4 1059.56 11.4 1050.75 10.4C1041.95 9.4 1032.47 8.8 1024.34 8.4C1010.79 7.6 984.72 8.5 986.074 8.6C987.09 8.7 1013.84 8.3 1028.4 9.3C1035.85 9.8 1036.53 9.8 1047.7 10.9C1058.88 12 1065.65 11.9 1065.99 11.6ZM1207.2 9.2C1208.55 9.1 1219.05 7.6 1235.64 6.6C1252.23 5.5 1265.78 6.1 1265.78 5.8C1265.78 5.5 1262.39 4.9 1244.78 5.5C1227.17 6.1 1205.84 9.3 1207.2 9.2ZM1202.46 6.7C1203.13 6.8 1213.97 5.4 1221.76 5C1229.54 4.7 1228.19 4.5 1228.19 4.4C1228.19 4.3 1224.47 4.2 1219.05 4.6C1213.29 5.1 1201.78 6.6 1202.46 6.7ZM1276.95 4.4C1277.29 4.6 1288.8 5.2 1295.92 6.2C1303.03 7.2 1302.01 6.8 1302.35 6.7C1302.69 6.6 1299.64 5.9 1294.22 5.4C1288.8 4.8 1276.61 4.2 1276.95 4.4ZM1181.46 11.1C1181.12 11.4 1182.48 11.6 1187.89 10.9C1193.31 10.2 1196.7 9.6 1195.34 9.7C1193.99 9.8 1192.3 10.1 1186.88 10.5C1181.12 10.9 1181.8 10.8 1181.46 11.1ZM1076.83 12.4C1076.15 12.4 1083.94 13.2 1088 13.3C1092.06 13.4 1094.77 13.4 1094.77 13.1C1094.77 12.8 1094.43 12.6 1089.35 12.7C1083.94 12.8 1077.5 12.4 1076.83 12.4ZM1475.39 21.1C1475.05 21.2 1467.26 20.8 1449.99 20.8C1433.06 20.8 1403.94 18.4 1391.75 17.3C1379.56 16.2 1425.61 21.2 1447.62 21.4C1469.63 21.6 1475.72 21 1475.39 21.1Z" fill="#AFE2E9"/>
<path d="M1872.93 18.0001C1872.59 17.9001 1857.36 18.3001 1848.55 18.0001C1823.83 17.3001 1790.98 14.8001 1792.34 15.1001C1793.69 15.4001 1838.73 18.2001 1849.91 18.4001C1866.5 18.8001 1873.27 18.0001 1872.93 18.0001Z" fill="#AFE2E9"/>
<path d="M1730.03 9.79989C1729.35 9.69989 1714.79 8.79989 1697.86 8.59989C1680.93 8.39989 1654.86 9.19989 1656.21 9.09989C1657.23 8.99989 1676.19 7.29989 1701.25 7.89989C1726.31 8.49989 1730.71 9.89989 1730.03 9.79989Z" fill="#AFE2E9"/>
<path d="M1652.49 13.4C1652.15 13.3 1659.26 12.4 1663.32 12.3C1667.39 12.2 1670.09 12.3 1670.09 12.6C1670.09 12.9 1669.76 13.1 1664.68 13C1658.92 12.9 1652.82 13.5 1652.49 13.4Z" fill="#AFE2E9"/>
<path d="M1640.64 10.5999C1640.64 10.4999 1625.74 11.7999 1619.3 12.7999C1612.87 13.6999 1598.31 15.8999 1598.65 15.8999C1598.99 15.9999 1612.87 14.2999 1619.98 13.2999C1627.09 12.2999 1640.64 10.6999 1640.64 10.5999Z" fill="#AFE2E9"/>
<path d="M1483.17 26.7C1482.84 26.6 1467.6 27 1458.79 26.7C1434.07 26 1401.23 23.5 1402.58 23.8C1403.94 24.1 1448.97 26.9 1460.15 27.1C1476.74 27.5 1483.51 26.8 1483.17 26.7Z" fill="#AFE2E9"/>
<path d="M1101.88 19.3C1101.88 19.3 1105.95 19 1111.7 19.2C1117.46 19.4 1131.34 20.1 1139.47 19.9C1153.69 19.5 1164.53 17.2 1163.17 17.3C1161.82 17.3 1148.61 19.5 1134.05 19.2C1127.96 19.1 1116.78 18.7 1111.36 18.8C1105.95 18.9 1101.88 19.3 1101.88 19.3Z" fill="#AFE2E9"/>
<path d="M1215.66 12.6C1216.34 12.7 1222.43 11.8 1230.22 11.5C1238.01 11.3 1237.33 11.2 1237.33 11C1237.33 10.9 1231.24 10.6 1225.82 11C1220.4 11.5 1214.98 12.5 1215.66 12.6Z" fill="#AFE2E9"/>
<path d="M1012.83 13.1999C1012.83 13.0999 1027.39 13.1999 1035.51 13.6999C1043.64 14.1999 1052.45 15.5999 1052.45 15.6999C1052.45 15.7999 1043.3 14.8999 1035.18 14.2999C1027.39 13.6999 1013.16 13.2999 1012.83 13.1999Z" fill="#AFE2E9"/>
</g>
<g clip-path="url(#clip1_421_9040)">
<path d="M1.21593e-05 9.7C1.21593e-05 9.7 24.7196 14 47.4074 14.3C70.4339 14.6 90.0741 14.3 118.18 12.8C156.444 10.8 230.265 2.7 269.545 7.1C308.825 11.5 310.519 11.7 330.497 14.5C352.847 17.7 398.222 24.1 454.434 23.8C514.37 23.5 623.069 7.2 667.767 8C672.508 8.1 690.116 8.8 703.323 10C716.19 11.2 735.153 13.8 760.889 14.7C771.725 15.1 788.995 15.8 808.974 15.6C814.053 15.5 830.307 15.2 849.608 14C868.91 12.8 886.857 10.9 903.111 10.3C937.989 9.2 960 10.8 960 10.8V0H1.21593e-05V9.7ZM76.8678 11.3C79.2381 10.3 83.6402 10.9 91.4286 10.9C99.2169 10.9 112.085 9.7 111.069 9.8C110.053 9.9 100.571 11.3 90.7513 11.7C80.5926 12.2 74.836 12.3 76.8678 11.3ZM139.175 8.6C139.175 8.6 147.302 8.4 158.138 7.7C168.974 6.9 193.016 4.9 209.27 4.2C237.037 3.1 262.772 4.2 260.402 4.3C257.693 4.4 227.894 3.7 200.804 5.4C189.63 6.1 169.312 7.6 158.815 8.1C147.64 8.7 139.175 8.6 139.175 8.6ZM332.868 8.5C327.111 7.8 377.905 13.2 395.513 14.6C402.624 15.2 416.508 16.2 429.376 16.6C442.582 17 459.513 17 459.175 17.1C459.175 17.3 439.534 17.9 421.249 17.1C402.963 16.3 403.64 16 395.513 15.5C382.646 14.7 338.624 9.2 332.868 8.5ZM285.799 6.9C285.122 6.9 288.508 6.5 302.053 8C315.598 9.5 324.741 11.5 325.418 11.7C326.095 11.8 313.566 9.9 303.069 8.7C292.91 7.5 286.138 6.9 285.799 6.9ZM1.69313 6C2.03176 6.1 8.12695 7.1 17.9471 8.5C27.7672 9.9 41.3122 11.3 40.6349 11.2C39.9577 11.2 28.7831 10.6 15.5768 8.7C2.3704 6.8 1.35451 5.9 1.69313 6ZM854.011 11.6C853.672 11.4 860.444 11.4 869.249 10.4C878.053 9.4 887.534 8.8 895.661 8.4C909.206 7.6 935.28 8.5 933.926 8.6C932.91 8.7 906.159 8.3 891.598 9.3C884.148 9.8 883.471 9.8 872.296 10.9C861.122 12 854.349 11.9 854.011 11.6ZM712.804 9.2C711.45 9.1 700.952 7.6 684.36 6.6C667.767 5.5 654.222 6.1 654.222 5.8C654.222 5.5 657.608 4.9 675.217 5.5C692.825 6.1 714.159 9.3 712.804 9.2ZM717.545 6.7C716.868 6.8 706.032 5.4 698.243 5C690.455 4.7 691.81 4.5 691.81 4.4C691.81 4.3 695.534 4.2 700.952 4.6C706.709 5.1 718.222 6.6 717.545 6.7ZM643.048 4.4C642.709 4.6 631.196 5.2 624.085 6.2C616.974 7.2 617.989 6.8 617.651 6.7C617.312 6.6 620.36 5.9 625.778 5.4C631.196 4.8 643.386 4.2 643.048 4.4ZM738.54 11.1C738.878 11.4 737.524 11.6 732.106 10.9C726.688 10.2 723.302 9.6 724.656 9.7C726.011 9.8 727.704 10.1 733.122 10.5C738.878 10.9 738.201 10.8 738.54 11.1ZM843.175 12.4C843.852 12.4 836.063 13.2 832 13.3C827.937 13.4 825.228 13.4 825.228 13.1C825.228 12.8 825.566 12.6 830.646 12.7C836.063 12.8 842.497 12.4 843.175 12.4ZM444.614 21.1C444.952 21.2 452.741 20.8 470.011 20.8C486.942 20.8 516.063 18.4 528.254 17.3C540.444 16.2 494.392 21.2 472.381 21.4C450.37 21.6 444.275 21 444.614 21.1Z" fill="#AFE2E9"/>
<path d="M47.068 18.0001C47.4066 17.9001 62.6448 18.3001 71.449 18.0001C96.1686 17.3001 129.015 14.8001 127.661 15.1001C126.306 15.4001 81.2691 18.2001 70.0945 18.4001C53.5019 18.8001 46.7294 18.0001 47.068 18.0001Z" fill="#AFE2E9"/>
<path d="M189.969 9.79989C190.646 9.69989 205.207 8.79989 222.138 8.59989C239.07 8.39989 265.144 9.19989 263.789 9.09989C262.773 8.99989 243.81 7.29989 218.752 7.89989C193.694 8.49989 189.292 9.89989 189.969 9.79989Z" fill="#AFE2E9"/>
<path d="M267.514 13.4C267.852 13.3 260.741 12.4 256.678 12.3C252.614 12.2 249.905 12.3 249.905 12.6C249.905 12.9 250.244 13.1 255.323 13C261.08 12.9 267.175 13.5 267.514 13.4Z" fill="#AFE2E9"/>
<path d="M279.364 10.5999C279.364 10.4999 294.264 11.7999 300.697 12.7999C307.131 13.6999 321.692 15.8999 321.354 15.8999C321.015 15.9999 307.131 14.2999 300.02 13.2999C292.909 12.2999 279.364 10.6999 279.364 10.5999Z" fill="#AFE2E9"/>
<path d="M436.826 26.7C437.164 26.6 452.403 27 461.207 26.7C485.926 26 518.773 23.5 517.418 23.8C516.064 24.1 471.027 26.9 459.852 27.1C443.26 27.5 436.487 26.8 436.826 26.7Z" fill="#AFE2E9"/>
<path d="M818.117 19.3C818.117 19.3 814.054 19 808.297 19.2C802.54 19.4 788.657 20.1 780.53 19.9C766.308 19.5 755.472 17.2 756.826 17.3C758.181 17.3 771.387 19.5 785.948 19.2C792.043 19.1 803.218 18.7 808.636 18.8C814.054 18.9 818.117 19.3 818.117 19.3Z" fill="#AFE2E9"/>
<path d="M704.339 12.6C703.662 12.7 697.566 11.8 689.778 11.5C681.99 11.3 682.667 11.2 682.667 11C682.667 10.9 688.762 10.6 694.18 11C699.598 11.5 705.016 12.5 704.339 12.6Z" fill="#AFE2E9"/>
<path d="M907.174 13.1999C907.174 13.0999 892.613 13.1999 884.486 13.6999C876.359 14.1999 867.555 15.5999 867.555 15.6999C867.555 15.7999 876.698 14.8999 884.825 14.2999C892.613 13.6999 906.835 13.2999 907.174 13.1999Z" fill="#AFE2E9"/>
</g>
<defs>
<clipPath id="clip0_421_9040">
<rect width="960" height="27.8" fill="white" transform="translate(960)"/>
</clipPath>
<clipPath id="clip1_421_9040">
<rect width="960" height="27.8" fill="white" transform="matrix(-1 0 0 1 960 0)"/>
</clipPath>
</defs>
</svg>
