<svg width="1920" height="28" viewBox="0 0 1920 28" fill="none" xmlns="http://www.w3.org/2000/svg">
<g clip-path="url(#clip0_147_7875)">
<path d="M1920 9.7C1920 9.7 1870.56 14 1825.19 14.3C1779.13 14.6 1739.85 14.3 1683.64 12.8C1607.11 10.8 1459.47 2.7 1380.91 7.1C1302.35 11.5 1298.96 11.7 1259.01 14.5C1214.31 17.7 1123.56 24.1 1011.13 23.8C891.259 23.5 673.862 7.2 584.466 8C574.984 8.1 539.767 8.8 513.355 10C487.619 11.2 449.693 13.8 398.222 14.7C376.55 15.1 342.011 15.8 302.053 15.6C291.894 15.5 259.386 15.2 220.783 14C182.18 12.8 146.286 10.9 113.778 10.3C44.0212 9.2 0 10.8 0 10.8V0H1920V9.7ZM1766.26 11.3C1761.52 10.3 1752.72 10.9 1737.14 10.9C1721.57 10.9 1695.83 9.7 1697.86 9.8C1699.89 9.9 1718.86 11.3 1738.5 11.7C1758.81 12.2 1770.33 12.3 1766.26 11.3ZM1641.65 8.6C1641.65 8.6 1625.4 8.4 1603.72 7.7C1582.05 6.9 1533.97 4.9 1501.46 4.2C1445.93 3.1 1394.46 4.2 1399.2 4.3C1404.61 4.4 1464.21 3.7 1518.39 5.4C1540.74 6.1 1581.38 7.6 1602.37 8.1C1624.72 8.7 1641.65 8.6 1641.65 8.6ZM1254.26 8.5C1265.78 7.8 1164.19 13.2 1128.97 14.6C1114.75 15.2 1086.98 16.2 1061.25 16.6C1034.84 17 1000.97 17 1001.65 17.1C1001.65 17.3 1040.93 17.9 1077.5 17.1C1114.07 16.3 1112.72 16 1128.97 15.5C1154.71 14.7 1242.75 9.2 1254.26 8.5ZM1348.4 6.9C1349.76 6.9 1342.98 6.5 1315.89 8C1288.8 9.5 1270.52 11.5 1269.16 11.7C1267.81 11.8 1292.87 9.9 1313.86 8.7C1334.18 7.5 1347.72 6.9 1348.4 6.9ZM1916.61 6C1915.94 6.1 1903.75 7.1 1884.11 8.5C1864.47 9.9 1837.38 11.3 1838.73 11.2C1840.08 11.2 1862.43 10.6 1888.85 8.7C1915.26 6.8 1917.29 5.9 1916.61 6ZM211.979 11.6C212.656 11.4 199.111 11.4 181.503 10.4C163.894 9.4 144.931 8.8 128.677 8.4C101.587 7.6 49.4392 8.5 52.1481 8.6C54.1799 8.7 107.683 8.3 136.804 9.3C151.704 9.8 153.058 9.8 175.407 10.9C197.757 12 211.302 11.9 211.979 11.6ZM494.392 9.2C497.101 9.1 518.095 7.6 551.28 6.6C584.466 5.5 611.556 6.1 611.556 5.8C611.556 5.5 604.783 4.9 569.566 5.5C534.349 6.1 491.683 9.3 494.392 9.2ZM484.91 6.7C486.265 6.8 507.937 5.4 523.513 5C539.09 4.7 536.381 4.5 536.381 4.4C536.381 4.3 528.931 4.2 518.095 4.6C506.582 5.1 483.556 6.6 484.91 6.7ZM633.905 4.4C634.582 4.6 657.608 5.2 671.831 6.2C686.053 7.2 684.021 6.8 684.698 6.7C685.376 6.6 679.28 5.9 668.444 5.4C657.608 4.8 633.227 4.2 633.905 4.4ZM442.921 11.1C442.243 11.4 444.952 11.6 455.788 10.9C466.624 10.2 473.397 9.6 470.688 9.7C467.979 9.8 464.593 10.1 453.757 10.5C442.243 10.9 443.598 10.8 442.921 11.1ZM233.651 12.4C232.296 12.4 247.873 13.2 256 13.3C264.127 13.4 269.545 13.4 269.545 13.1C269.545 12.8 268.868 12.6 258.709 12.7C247.873 12.8 235.005 12.4 233.651 12.4ZM1030.77 21.1C1030.1 21.2 1014.52 20.8 979.979 20.8C946.116 20.8 887.873 18.4 863.492 17.3C839.111 16.2 931.217 21.2 975.238 21.4C1019.26 21.6 1031.45 21 1030.77 21.1Z" fill="#95D5B2"/>
<path d="M1825.86 18C1825.19 17.9 1794.71 18.3 1777.1 18C1727.66 17.3 1661.97 14.8 1664.68 15.1C1667.39 15.4 1757.46 18.2 1779.81 18.4C1812.99 18.8 1826.54 18 1825.86 18Z" fill="#95D5B2"/>
<path d="M1540.06 9.8C1538.71 9.7 1509.59 8.8 1475.72 8.6C1441.86 8.4 1389.71 9.2 1392.42 9.1C1394.46 9 1432.38 7.3 1482.5 7.9C1532.61 8.5 1541.42 9.9 1540.06 9.8Z" fill="#95D5B2"/>
<path d="M1384.97 13.4C1384.3 13.3 1398.52 12.4 1406.65 12.3C1414.77 12.2 1420.19 12.3 1420.19 12.6C1420.19 12.9 1419.51 13.1 1409.35 13C1397.84 12.9 1385.65 13.5 1384.97 13.4Z" fill="#95D5B2"/>
<path d="M1361.27 10.6C1361.27 10.5 1331.47 11.8 1318.6 12.8C1305.74 13.7 1276.61 15.9 1277.29 15.9C1277.97 16 1305.74 14.3 1319.96 13.3C1334.18 12.3 1361.27 10.7 1361.27 10.6Z" fill="#95D5B2"/>
<path d="M1046.35 26.7C1045.67 26.6 1015.2 27 997.587 26.7C948.148 26 882.455 23.5 885.164 23.8C887.873 24.1 977.947 26.9 1000.3 27.1C1033.48 27.5 1047.03 26.8 1046.35 26.7Z" fill="#95D5B2"/>
<path d="M283.767 19.3C283.767 19.3 291.894 19 303.407 19.2C314.921 19.4 342.688 20.1 358.942 19.9C387.386 19.5 409.058 17.2 406.349 17.3C403.64 17.3 377.228 19.5 348.106 19.2C335.915 19.1 313.566 18.7 302.73 18.8C291.894 18.9 283.767 19.3 283.767 19.3Z" fill="#95D5B2"/>
<path d="M511.323 12.6C512.677 12.7 524.868 11.8 540.444 11.5C556.021 11.3 554.667 11.2 554.667 11C554.667 10.9 542.476 10.6 531.64 11C520.804 11.5 509.968 12.5 511.323 12.6Z" fill="#95D5B2"/>
<path d="M105.651 13.2C105.651 13.1 134.772 13.2 151.026 13.7C167.28 14.2 184.889 15.6 184.889 15.7C184.889 15.8 166.603 14.9 150.349 14.3C134.772 13.7 106.328 13.3 105.651 13.2Z" fill="#95D5B2"/>
</g>
<defs>
<clipPath id="clip0_147_7875">
<rect width="1920" height="27.8" fill="white"/>
</clipPath>
</defs>
</svg>
