<svg width="1920" height="28" viewBox="0 0 1920 28" fill="none" xmlns="http://www.w3.org/2000/svg">
<g clip-path="url(#clip0_147_7866)">
<path d="M2.43187e-05 16.4746C2.43187e-05 16.4746 49.4392 11.4541 94.8148 11.1038C140.868 10.7535 180.148 11.1038 236.36 12.8551C312.889 15.1903 460.529 24.6476 539.09 19.5103C617.651 14.373 621.037 14.1395 660.995 10.8703C705.693 7.13406 796.444 -0.338374 908.868 0.0118967C1028.74 0.362167 1246.14 19.3935 1335.53 18.4595C1345.02 18.3427 1380.23 17.5254 1406.65 16.1243C1432.38 14.7232 1470.31 11.6876 1521.78 10.6368C1543.45 10.1697 1577.99 9.35243 1617.95 9.58595C1628.11 9.7027 1660.61 10.053 1699.22 11.4541C1737.82 12.8551 1773.71 15.0735 1806.22 15.7741C1875.98 17.0584 1920 15.1903 1920 15.1903V27.8L2.43187e-05 27.8V16.4746ZM153.736 14.6065C158.476 15.7741 167.28 15.0735 182.857 15.0735C198.434 15.0735 224.169 16.4746 222.138 16.3578C220.106 16.2411 201.143 14.6065 181.503 14.1395C161.185 13.5557 149.672 13.4389 153.736 14.6065ZM278.349 17.7589C278.349 17.7589 294.603 17.9924 316.275 18.8097C337.947 19.7438 386.032 22.0789 418.54 22.8962C474.074 24.1805 525.545 22.8962 520.804 22.7795C515.386 22.6627 455.788 23.48 401.609 21.4951C379.259 20.6778 338.624 18.9265 317.63 18.3427C295.28 17.6422 278.349 17.7589 278.349 17.7589ZM665.735 17.8757C654.222 18.693 755.81 12.3881 791.026 10.7535C805.249 10.053 833.016 8.88541 858.751 8.41838C885.164 7.95135 919.027 7.95135 918.349 7.8346C918.349 7.60108 879.069 6.90054 842.497 7.8346C805.926 8.76865 807.28 9.11892 791.026 9.7027C765.291 10.6368 677.249 17.0584 665.735 17.8757ZM571.598 19.7438C570.243 19.7438 577.016 20.2108 604.106 18.4595C631.196 16.7081 649.482 14.373 650.836 14.1395C652.191 14.0227 627.132 16.2411 606.138 17.6422C585.82 19.0432 572.275 19.7438 571.598 19.7438ZM3.38627 20.7946C4.06352 20.6778 16.2539 19.5103 35.8941 17.8757C55.5343 16.2411 82.6244 14.6065 81.2699 14.7232C79.9154 14.7232 57.5662 15.4238 31.1535 17.6422C4.74081 19.8605 2.70902 20.9114 3.38627 20.7946ZM1708.02 14.2562C1707.34 14.4897 1720.89 14.4897 1738.5 15.6573C1756.11 16.8249 1775.07 17.5254 1791.32 17.9924C1818.41 18.9265 1870.56 17.8757 1867.85 17.7589C1865.82 17.6422 1812.32 18.1092 1783.2 16.9416C1768.3 16.3578 1766.94 16.3578 1744.59 15.0735C1722.24 13.7892 1708.7 13.9059 1708.02 14.2562ZM1425.61 17.0584C1422.9 17.1751 1401.9 18.9265 1368.72 20.0941C1335.53 21.3784 1308.44 20.6778 1308.44 21.0281C1308.44 21.3784 1315.22 22.0789 1350.43 21.3784C1385.65 20.6778 1428.32 16.9416 1425.61 17.0584ZM1435.09 19.9773C1433.74 19.8605 1412.06 21.4951 1396.49 21.9622C1380.91 22.3124 1383.62 22.5459 1383.62 22.6627C1383.62 22.7795 1391.07 22.8962 1401.9 22.4292C1413.42 21.8454 1436.44 20.0941 1435.09 19.9773ZM1286.1 22.6627C1285.42 22.4292 1262.39 21.7286 1248.17 20.5611C1233.95 19.3935 1235.98 19.8605 1235.3 19.9773C1234.62 20.0941 1240.72 20.9114 1251.56 21.4951C1262.39 22.1957 1286.77 22.8962 1286.1 22.6627ZM1477.08 14.84C1477.76 14.4897 1475.05 14.2562 1464.21 15.0735C1453.38 15.8908 1446.6 16.5914 1449.31 16.4746C1452.02 16.3578 1455.41 16.0076 1466.24 15.5405C1477.76 15.0735 1476.4 15.1903 1477.08 14.84ZM1686.35 13.3222C1687.7 13.3222 1672.13 12.3881 1664 12.2714C1655.87 12.1546 1650.46 12.1546 1650.46 12.5049C1650.46 12.8551 1651.13 13.0887 1661.29 12.9719C1672.13 12.8551 1684.99 13.3222 1686.35 13.3222ZM889.228 3.16433C889.905 3.04757 905.482 3.5146 940.021 3.5146C973.884 3.5146 1032.13 6.31676 1056.51 7.60108C1080.89 8.88541 988.783 3.04757 944.762 2.81406C900.741 2.58054 888.55 3.28108 889.228 3.16433Z" fill="#52B788"/>
<path d="M1661.69 18.0552C1662.37 18.171 1692.79 17.7077 1710.37 18.0552C1759.72 18.866 1825.3 21.7618 1822.59 21.4143C1819.89 21.0668 1729.97 17.8235 1707.66 17.5918C1674.54 17.1285 1661.01 18.0552 1661.69 18.0552Z" fill="#52B788"/>
<path d="M1390 9.00843C1391.35 9.12426 1420.42 10.1668 1454.22 10.3984C1488.03 10.6301 1540.08 9.70343 1537.38 9.81926C1535.35 9.93509 1497.49 11.9043 1447.46 11.2093C1397.43 10.5143 1388.65 8.89259 1390 9.00843Z" fill="#52B788"/>
<path d="M1417.67 14.2171C1418.34 14.3329 1404.15 15.3754 1396.03 15.4912C1387.92 15.6071 1382.51 15.4912 1382.51 15.1437C1382.51 14.7962 1383.19 14.5646 1393.33 14.6804C1404.82 14.7962 1416.99 14.1012 1417.67 14.2171Z" fill="#52B788"/>
<path d="M1275.03 18.416C1275.03 18.5318 1304.78 17.026 1317.62 15.8677C1330.47 14.8252 1359.54 12.2768 1358.86 12.2768C1358.18 12.161 1330.47 14.1302 1316.27 15.2885C1302.07 16.4468 1275.03 18.3002 1275.03 18.416Z" fill="#52B788"/>
<path d="M405.862 20.7717C405.862 20.7717 397.749 21.1192 386.256 20.8876C374.763 20.6559 347.045 19.8451 330.819 20.0767C302.425 20.5401 280.791 23.2042 283.495 23.0884C286.2 23.0884 312.566 20.5401 341.636 20.8876C353.805 21.0034 376.115 21.4667 386.932 21.3509C397.749 21.2351 405.862 20.7717 405.862 20.7717Z" fill="#52B788"/>
<path d="M553.604 12.5164C552.252 12.4006 540.083 13.4431 524.534 13.7906C508.985 14.0223 510.337 14.1381 510.337 14.3698C510.337 14.4856 522.506 14.8331 533.323 14.3698C544.139 13.7906 554.956 12.6323 553.604 12.5164Z" fill="#52B788"/>
<path d="M184.564 18.1542C184.564 18.2701 155.494 18.1542 139.268 17.5751C123.043 16.9959 105.465 15.3742 105.465 15.2584C105.465 15.1426 123.719 16.1851 139.944 16.8801C155.494 17.5751 183.888 18.0384 184.564 18.1542Z" fill="#52B788"/>
</g>
<defs>
<clipPath id="clip0_147_7866">
<rect width="1920" height="27.8" fill="white"/>
</clipPath>
</defs>
</svg>
