<svg width="1920" height="28" viewBox="0 0 1920 28" fill="none" xmlns="http://www.w3.org/2000/svg">
<g clip-path="url(#clip0_135_8193)">
<path d="M2.43187e-05 16.4744C2.43187e-05 16.4744 49.4392 11.4539 94.8148 11.1036C140.868 10.7533 180.148 11.1036 236.36 12.8549C312.889 15.1901 460.529 24.6474 539.09 19.5101C617.651 14.3728 621.037 14.1393 660.995 10.8701C705.693 7.13386 796.444 -0.338568 908.868 0.0117021C1028.74 0.361972 1246.14 19.3933 1335.53 18.4593C1345.02 18.3425 1380.23 17.5252 1406.65 16.1241C1432.38 14.7231 1470.31 11.6874 1521.78 10.6366C1543.45 10.1695 1577.99 9.35224 1617.95 9.58575C1628.11 9.70251 1660.61 10.0528 1699.22 11.4539C1737.82 12.8549 1773.71 15.0733 1806.22 15.7739C1875.98 17.0582 1920 15.1901 1920 15.1901V27.7998L2.43187e-05 27.7998V16.4744ZM153.736 14.6063C158.476 15.7739 167.28 15.0733 182.857 15.0733C198.434 15.0733 224.169 16.4744 222.138 16.3576C220.106 16.2409 201.143 14.6063 181.503 14.1393C161.185 13.5555 149.672 13.4387 153.736 14.6063ZM278.349 17.7587C278.349 17.7587 294.603 17.9922 316.275 18.8095C337.947 19.7436 386.032 22.0787 418.54 22.896C474.074 24.1803 525.545 22.896 520.804 22.7793C515.386 22.6625 455.788 23.4798 401.609 21.4949C379.259 20.6776 338.624 18.9263 317.63 18.3425C295.28 17.642 278.349 17.7587 278.349 17.7587ZM665.735 17.8755C654.222 18.6928 755.81 12.3879 791.026 10.7533C805.249 10.0528 833.016 8.88521 858.751 8.41819C885.164 7.95116 919.027 7.95116 918.349 7.8344C918.349 7.60089 879.069 6.90035 842.497 7.8344C805.926 8.76846 807.28 9.11873 791.026 9.70251C765.291 10.6366 677.249 17.0582 665.735 17.8755ZM571.598 19.7436C570.243 19.7436 577.016 20.2106 604.106 18.4593C631.196 16.7079 649.482 14.3728 650.836 14.1393C652.191 14.0225 627.132 16.2409 606.138 17.642C585.82 19.043 572.275 19.7436 571.598 19.7436ZM3.38627 20.7944C4.06352 20.6776 16.2539 19.5101 35.8941 17.8755C55.5343 16.2409 82.6244 14.6063 81.2699 14.7231C79.9154 14.7231 57.5662 15.4236 31.1535 17.642C4.74081 19.8603 2.70902 20.9112 3.38627 20.7944ZM1708.02 14.256C1707.34 14.4895 1720.89 14.4895 1738.5 15.6571C1756.11 16.8247 1775.07 17.5252 1791.32 17.9922C1818.41 18.9263 1870.56 17.8755 1867.85 17.7587C1865.82 17.642 1812.32 18.109 1783.2 16.9414C1768.3 16.3576 1766.94 16.3576 1744.59 15.0733C1722.24 13.789 1708.7 13.9058 1708.02 14.256ZM1425.61 17.0582C1422.9 17.1749 1401.9 18.9263 1368.72 20.0939C1335.53 21.3782 1308.44 20.6776 1308.44 21.0279C1308.44 21.3782 1315.22 22.0787 1350.43 21.3782C1385.65 20.6776 1428.32 16.9414 1425.61 17.0582ZM1435.09 19.9771C1433.74 19.8603 1412.06 21.4949 1396.49 21.962C1380.91 22.3122 1383.62 22.5458 1383.62 22.6625C1383.62 22.7793 1391.07 22.896 1401.9 22.429C1413.42 21.8452 1436.44 20.0939 1435.09 19.9771ZM1286.1 22.6625C1285.42 22.429 1262.39 21.7285 1248.17 20.5609C1233.95 19.3933 1235.98 19.8603 1235.3 19.9771C1234.62 20.0939 1240.72 20.9112 1251.56 21.4949C1262.39 22.1955 1286.77 22.896 1286.1 22.6625ZM1477.08 14.8398C1477.76 14.4895 1475.05 14.256 1464.21 15.0733C1453.38 15.8906 1446.6 16.5912 1449.31 16.4744C1452.02 16.3576 1455.41 16.0074 1466.24 15.5403C1477.76 15.0733 1476.4 15.1901 1477.08 14.8398ZM1686.35 13.322C1687.7 13.322 1672.13 12.3879 1664 12.2712C1655.87 12.1544 1650.46 12.1544 1650.46 12.5047C1650.46 12.8549 1651.13 13.0885 1661.29 12.9717C1672.13 12.8549 1684.99 13.322 1686.35 13.322ZM889.228 3.16413C889.905 3.04738 905.482 3.5144 940.021 3.5144C973.884 3.5144 1032.13 6.31657 1056.51 7.60089C1080.89 8.88521 988.783 3.04738 944.762 2.81386C900.741 2.58035 888.55 3.28089 889.228 3.16413Z" fill="#2D6A4F"/>
<path d="M1661.69 18.0554C1662.37 18.1712 1692.79 17.7079 1710.37 18.0554C1759.72 18.8662 1825.3 21.7621 1822.59 21.4146C1819.89 21.0671 1729.97 17.8237 1707.66 17.5921C1674.54 17.1287 1661.01 18.0554 1661.69 18.0554Z" fill="#2D6A4F"/>
<path d="M1390 9.00842C1391.35 9.12425 1420.42 10.1668 1454.22 10.3984C1488.03 10.6301 1540.08 9.70342 1537.38 9.81925C1535.35 9.93509 1497.49 11.9043 1447.46 11.2093C1397.43 10.5143 1388.65 8.89259 1390 9.00842Z" fill="#2D6A4F"/>
<path d="M1417.67 14.2171C1418.34 14.3329 1404.15 15.3754 1396.03 15.4912C1387.92 15.6071 1382.51 15.4912 1382.51 15.1437C1382.51 14.7962 1383.19 14.5646 1393.33 14.6804C1404.82 14.7962 1416.99 14.1012 1417.67 14.2171Z" fill="#2D6A4F"/>
<path d="M1275.03 18.4161C1275.03 18.5319 1304.78 17.0261 1317.62 15.8677C1330.47 14.8252 1359.54 12.2769 1358.86 12.2769C1358.18 12.1611 1330.47 14.1302 1316.27 15.2886C1302.07 16.4469 1275.03 18.3002 1275.03 18.4161Z" fill="#2D6A4F"/>
<path d="M405.862 20.772C405.862 20.772 397.749 21.1195 386.256 20.8878C374.763 20.6561 347.045 19.8453 330.819 20.077C302.425 20.5403 280.791 23.2045 283.495 23.0886C286.2 23.0886 312.566 20.5403 341.636 20.8878C353.805 21.0036 376.115 21.467 386.932 21.3511C397.749 21.2353 405.862 20.772 405.862 20.772Z" fill="#2D6A4F"/>
<path d="M553.604 12.5165C552.252 12.4007 540.083 13.4432 524.534 13.7907C508.985 14.0223 510.337 14.1382 510.337 14.3698C510.337 14.4857 522.506 14.8332 533.323 14.3698C544.139 13.7907 554.956 12.6323 553.604 12.5165Z" fill="#2D6A4F"/>
<path d="M184.564 18.1545C184.564 18.2703 155.494 18.1545 139.268 17.5753C123.043 16.9961 105.465 15.3745 105.465 15.2586C105.465 15.1428 123.719 16.1853 139.944 16.8803C155.494 17.5753 183.888 18.0386 184.564 18.1545Z" fill="#2D6A4F"/>
</g>
<defs>
<clipPath id="clip0_135_8193">
<rect width="1920" height="27.8" fill="white"/>
</clipPath>
</defs>
</svg>
