<svg width="221" height="627" viewBox="0 0 221 627" fill="none" xmlns="http://www.w3.org/2000/svg">
<g clip-path="url(#clip0_586_25661)">
<mask id="mask0_586_25661" style="mask-type:luminance" maskUnits="userSpaceOnUse" x="44" y="-23" width="206" height="650">
<path d="M249.364 -13.9573L78.5508 -22.9434L44.8805 617.079L215.694 626.066L249.364 -13.9573Z" fill="white"/>
</mask>
<g mask="url(#mask0_586_25661)">
<path d="M195.999 338.668C193.197 337.285 189.7 340.155 186.927 340.991C181.542 343.375 175.788 344.819 169.914 345.26C175.131 339.789 185.46 338.114 187.394 330.052C187.465 328.692 186.722 328.29 185.843 328.753C181.259 331.184 180.536 336.982 175.585 339.122C171.541 341.309 168.254 345.009 163.952 346.564C163.952 346.564 164.706 344.349 164.865 344.085C165.329 343.278 165.9 342.537 166.563 341.884C167.547 340.958 168.582 340.09 169.665 339.283C171.563 337.783 175.116 335.934 174.217 332.959C171.261 333.149 169.499 338.293 166.985 340.088C162.808 344.468 162.557 349.236 155.554 349.923C159.242 341.026 164.151 332.411 168.164 323.55C172.67 310.514 182.483 293.394 198.577 301.404C200.505 301.76 204.828 299.097 201.457 297.483C195.414 296.184 189.262 298.333 183.482 299.992C184.734 297.622 212.18 280.029 201.131 279.83C195.564 286.428 194.504 292.736 185.715 296.273C186.54 292.68 195.005 279.417 190.963 277.768C188.803 278.363 188.724 282.286 188.63 284.081C188.678 293.884 180.446 301.342 174.645 307.891C175.981 302.198 178.864 296.84 180.147 291.126C183.611 277.49 182.786 256.865 200.127 253.286C205.148 252.223 210.182 256.106 215.182 254.078C216.393 253.524 216.331 252.975 216.015 252.068C214.206 247.736 208.998 250.608 205.613 249.611C207.195 246.513 213.279 245.651 213.3 241.798C210.895 238.762 207.854 244.348 206.489 246.094C203.047 251.367 196.776 253.365 191.533 256.216C192.521 250.214 214.231 233.083 209.645 230.369C206.525 227.423 199.855 247.036 194.078 249.677C191.747 245.918 200.396 222.574 194.871 224.919C192.258 228.255 194.425 233.387 193.488 237.374C194.324 250.527 191.156 255.433 183.926 265.961C183.897 255.451 185.47 244.915 186.259 234.412C186.795 229.749 191.487 221.469 184.942 219.342C182.781 221.701 184.506 225.556 184.628 228.417C185.866 237.391 183.946 246.563 183.112 255.5C169.303 241.392 180.576 234.567 173.442 225.301C168.778 227.874 176.881 237.718 174.33 243.002C171.259 239.991 168.719 236.483 166.818 232.625C165.564 230.177 164.033 226.788 160.706 227.104C160.346 231.867 167.266 234.831 169.699 238.722C174.851 244.401 179.267 250.705 182.844 257.486C183.245 262.093 183.062 266.733 182.3 271.294C178.17 263.368 171.159 255.908 170.868 246.565C170.964 244.752 170.184 242.293 167.813 242.405C165.766 246.752 171.655 254.079 173.319 258.422C171.05 257.629 159.368 246.997 161.483 254.163C163.483 256.613 167.186 256.063 169.856 257.167C174.451 260.137 178.062 264.401 180.234 269.422C185.354 285.145 173.914 303.798 168.913 318.662C158.676 290.578 170.632 300.153 169.387 286.833C162.874 289.272 165.376 297.731 163.787 303.029C161.559 300.093 160.68 296.065 158.871 292.752C156.375 289.417 154.766 285.504 154.195 281.379C154.112 278.12 157.041 274.983 155.977 271.709C150.042 266.27 154.587 286.709 154.923 288.617C150.292 287.101 150.279 279.064 145.583 278.78C143.937 284.821 152.902 287.274 156.225 290.849C159.713 296.681 162.44 302.934 164.34 309.458C160.846 306.729 157.904 303.192 153.611 301.457C152.421 300.922 151.613 299.334 150.041 300.178C148.791 300.767 148.358 301.744 149.464 302.839C152.659 306.771 158.641 304.049 161.714 308.211C172.81 317.885 165.961 326.361 160.688 338.429C154.493 349.012 145.93 364.143 137.468 374.589C138.614 369.546 139.49 364.445 140.091 359.309L139.432 359.038C137.706 380.092 128.763 386.204 112.239 402.607C117.727 399.259 122.1 393.58 127.09 389.316C129.987 386.104 132.151 382.309 136.623 380.981C142.406 377.885 156.591 374.122 159.599 369.153C152.634 366.714 146.863 379.247 135.051 380.425C142.319 371.244 147.5 359.881 155.537 351.631C160.413 349.542 165.579 348.141 170.632 346.479C178.164 343.694 179.737 354.231 186.63 353.557C191.446 351.556 177.864 347.314 176.818 345.768C180.425 343.576 197.514 344.439 196.099 338.837M195.423 339.238C194.984 339.979 194.841 340.626 194.507 340.735C192.547 341.014 190.041 342.664 188.28 341.899C190.399 340.465 192.8 339.5 195.323 339.069L195.423 339.238ZM186.278 329.83C186.719 332.508 184.205 334.648 182.08 335.973C182.421 335.027 182.656 334.021 183.085 333.116L182.977 333.111C183.834 331.683 184.317 329.763 186.177 329.661L186.278 329.83ZM173.294 334.601C173.547 335.669 172.256 336.019 171.675 336.68C171.689 336.426 171.703 336.154 171.728 335.683L173.294 334.601ZM200.251 298.293C200.491 298.318 200.721 298.406 200.918 298.547C201.114 298.688 201.271 298.877 201.373 299.097C201.256 301.309 197.907 300.315 196.652 300.667L194.922 298.976C196.233 297.918 198.375 298.339 200.114 298.122L200.251 298.293ZM202.321 281.074C202.442 283.953 199.32 286.244 197.214 287.897C197.49 287.147 197.766 286.398 198.174 285.22C199.187 283.946 200.262 281.475 202.184 280.904L202.321 281.074ZM189.813 280.253L190.881 279.327C191.332 282.151 188.548 286.332 189.677 280.082L189.813 280.253ZM212.238 242.269C211.967 244.309 209.283 245.532 207.602 246.371C207.619 246.044 207.637 245.718 207.66 245.265C209.098 244.213 210.213 241.344 212.238 242.269ZM213.625 250.469C218.446 256.687 206.075 253.272 203.536 251.757C206.093 250.164 210.377 251.026 213.558 250.375L213.625 250.469ZM208.9 231.385C209.653 234.006 206.842 235.931 205.057 237.364C205.291 236.376 205.523 235.407 205.667 234.76C206.792 233.074 207.01 231.703 208.832 231.29L208.9 231.385ZM193.934 235.124C194.091 232.133 193.153 228.174 195.33 225.871C196.602 228.319 195.036 231.455 194.905 233.957L193.934 235.124ZM186.042 230.582C184.871 227.466 184.377 224.137 184.592 220.815C188.458 219.582 187.445 228.819 186.042 230.582ZM173.722 227.243C173.935 229.072 175.329 231.273 174.475 232.992C173.333 232.568 171.2 226.092 173.722 227.243ZM164.538 232.051C163.273 230.857 161.332 230.064 161.399 228.104C163.467 228.213 164.783 230.518 165.493 232.228L164.538 232.051ZM167.698 243.562C170.19 243.566 169.184 246.077 169.862 247.713C168.171 248.06 168.578 245.154 167.698 243.562ZM162.358 253.099C163.273 253.128 164.175 253.323 165.019 253.676L166.178 254.81C165.439 255.062 164.631 255.022 163.921 254.697C163.21 254.373 162.652 253.788 162.36 253.063L162.358 253.099ZM166.65 290.452L166.831 290.462C167.083 289.581 167.671 288.835 168.468 288.384C169.124 290.091 167.371 293.345 166.012 294.273C165.493 293.082 166.474 291.716 166.65 290.452ZM154.022 277.061C153.636 276.24 153.498 275.324 153.626 274.426C153.754 273.529 154.142 272.688 154.742 272.008C156.008 273.183 154.808 274.902 154.748 276.39C154.461 276.666 154.231 276.89 154.001 277.114L154.022 277.061ZM145.977 279.583C147.446 279.66 149.651 283.74 150.054 285.07C148.31 283.577 146.912 281.723 145.956 279.636L145.977 279.583ZM150.102 301.436C151.268 300.716 152.277 301.932 153.365 302.335L153.371 302.226C154.286 302.802 155.568 302.996 156.153 303.973C153.882 303.969 151.703 303.077 150.081 301.49L150.102 301.436ZM157.916 369.683C156.333 372.109 152.849 372.653 150.3 373.737C150.308 373.592 150.315 373.447 150.346 372.866C152.738 371.992 155.205 369.704 157.895 369.736L157.916 369.683ZM184.738 350.803C185.364 351.053 185.909 351.472 186.311 352.013C184.873 352.719 181.779 351.029 181.137 349.759C182.366 349.551 183.496 350.556 184.717 350.857L184.738 350.803Z" fill="#1B4332"/>
</g>
<path d="M8.55651 506.096C6.81512 504.623 7.57303 502.317 6.68415 500.543C6.53616 500.244 7.35905 499.47 7.71607 498.906C9.86887 499.129 9.78031 504.27 11.5703 502.746C15.2551 498.394 21.5777 494.036 19.9936 487.498C18.2522 486.025 15.3107 481.433 16.9402 479.501C18.9536 479.607 19.223 482.785 20.9013 483.728C21.9837 479.057 30.2589 459.711 26.1174 457.875C25.1198 457.132 23.9712 455.453 24.9936 454.343C26.1134 453.802 27.2868 455.009 27.6296 456.1C29.8455 459.617 33.0536 447.731 34.2488 446.103C35.9403 442.992 30.4356 440.448 32.7753 437.116C33.4202 437.326 34.0152 437.666 34.5234 438.115C35.0317 438.564 35.4424 439.112 35.7302 439.726C35.897 434.135 38.3338 424.809 34.1656 420.717C32.0948 418.935 33.6079 416.797 36.1073 418.383C36.851 418.767 37.1841 418.657 37.312 417.955C37.7845 415.198 40.4422 414.12 41.7749 411.954C42.7017 409.202 48.2368 407.366 46.7455 404.252C44.6298 401.595 45.4297 397.801 48.5745 401.639C50.7235 402.279 50.8646 398.214 50.495 394.176L51.6015 394.234L51.6654 393.02C51.8668 394.03 52.0502 395.04 52.2517 396.05C52.2375 399.431 55.4517 396.073 56.8838 398.24C56.2978 401.081 51.532 399.012 50.8467 402.013C49.3363 405.132 47.2443 407.935 44.6827 410.27C43.1563 411.626 45.5726 412.372 45.7798 413.964C42.7459 415.277 38.5597 414.984 38.2248 419.276C38.055 422.503 36.9821 425.956 37.8176 429.091C41.3325 426.585 44.2405 428.01 39.5523 430.691C36.3799 430.833 37.7004 434.43 37.4293 436.47C37.7428 444.687 44.3269 437.779 47.3378 435.173C49.7731 433.483 47.5763 430.64 48.3084 428.134C50.2759 425.31 50.1854 431.178 51.0418 432.186C54.0537 429.563 56.549 426.04 59.621 423.311C61.2945 421.58 61.2038 421.576 60.1001 419.39C56.7986 412.999 62.1017 411.078 63.1942 418.662C66.3644 413.72 63.6651 403.833 64.6109 397.61C64.2594 394.264 60.3031 390.983 62.2639 387.595C64.8883 388.188 64.054 390.908 65.2742 392.608C70.6831 387.984 73.958 374.138 73.0221 367.38C70.6565 367.401 70.9046 365.45 70.5589 364.068C70.3164 363.146 69.0352 361.915 70.4958 361.12C71.0094 361.038 72.515 363.189 73.5184 363.479C71.3518 353.837 78.036 344.335 71.3376 335.782C65.9014 328.133 65.4016 318.27 60.0886 310.7C58.0626 307.721 53.4563 306.078 53.4494 302.06C55.8439 305.986 59.7706 308.447 62.3865 312.312C63.704 313.89 65.5866 311.989 66.8411 313.382C68.3152 315.787 63.5734 317.065 65.8753 322.059C68.6509 328.768 72.4689 335.024 75.7628 341.56C77.1968 343.69 77.7073 339.172 78.3326 338.35C79.2127 335.797 82.8797 338.353 81.128 340.188C71.8355 347.408 75.4848 358.946 75.4566 368.817C75.8472 371.765 69.4801 384.575 74.9799 382.719C75.8983 382.895 76.2449 383.567 75.5356 384.257C63.4688 389.931 65.6995 403.54 66.0895 414.796C68.8771 412.288 78.7699 404.027 75.7482 400.268C75.479 399.551 75.4689 398.763 75.7195 398.039C75.9701 397.315 76.4658 396.701 77.1209 396.304C78.9491 396.128 78.4088 398.79 78.6351 400.02C79.1938 403.922 87.7303 400.008 87.9278 396.255C92.4839 385.367 84.8055 386.454 87.8984 381.253C89.8775 382.012 89.7019 384.312 90.5803 385.94C92.0543 384.199 92.4532 381.802 93.5395 379.823C94.0111 378.811 95.3333 377.881 93.3246 376.993C92.6988 373.174 92.2941 369.322 92.1126 365.457C91.701 362.908 87.2427 361.564 87.6281 357.003C88.8863 353.833 90.2383 358.213 91.5519 358.827C90.4328 353.823 93.1706 348.113 89.9359 343.561C89.2447 342.179 87.0068 339.079 88.5266 337.85C90.5094 336.809 90.7167 339.784 92.2108 340.426C92.5017 334.896 95.8485 329.708 96.128 324.396C95.7565 320.74 95.1912 317.31 90.8626 315.919C87.9267 308.801 97.4815 318.721 89.4262 302.771C88.1487 298.703 82.8649 306.48 81.3907 302.348C81.7266 301.518 82.325 300.82 83.0946 300.361C83.8643 299.903 84.7628 299.709 85.6532 299.808C82.6095 295.43 78.4136 291.864 75.9245 286.969C75.6238 286.463 74.8791 285.751 74.5297 285.823C73.4156 286.256 68.5305 283.69 69.4612 282.593C69.6317 282.361 69.8478 282.165 70.0963 282.019C70.3448 281.873 70.6205 281.778 70.9066 281.742C74.5572 281.498 69.2575 275.055 69.435 272.719C68.4563 269.195 63.9025 268.974 62.8264 265.226C62.181 262.628 65.0078 263.523 66.2775 264.626C65.8392 261.203 64.1684 258.042 63.6747 254.634C62.7045 250.947 64.8638 245.17 60.1581 243.686C58.1332 243.452 55.4772 240.694 54.3174 243.379C54.2217 243.813 54.0305 244.22 53.7577 244.571C53.4849 244.922 53.1373 245.208 52.7402 245.409C52.3431 245.609 51.9063 245.718 51.4617 245.729C51.017 245.739 50.5756 245.651 50.1695 245.469C49.04 244.119 52.3613 242.876 52.8166 241.481C54.7116 240.036 42.9354 234.307 41.4202 230.955C39.0659 227.995 35.0775 235.003 32.894 229.143C32.28 226.638 35.9393 227.612 37.378 227.233C41.0134 227.279 35.772 223.185 35.1476 221.916C33.7123 220.951 32.028 220.424 30.2989 220.398C28.5698 220.371 26.8701 220.847 25.4061 221.767C23.8892 222.942 21.4203 219.739 23.7363 218.934C24.669 218.492 24.2288 217.869 23.4956 217.63C20.7424 218.103 19.1556 214.384 19.819 212.146C23.0867 209.845 23.6228 220.746 33.0825 219.334C36.9509 219.102 32.4704 215.411 32.1668 213.577C31.7409 212.337 33.5079 210.211 34.4932 211.881C38.5431 216.84 35.1198 218.642 36.9004 222.135C40.4701 225.85 45.4846 239.096 44.6744 225.453C45.8821 226.699 47.7677 227.852 46.8981 229.861C45.6008 233.429 45.5455 233.79 48.484 236.017C52.9854 238.618 57.2768 241.753 62.2355 243.268C65.1616 245.04 64.1999 236.353 69.2962 242.512C62.9735 245.489 64.5002 248.623 65.1859 254.605C66.2657 255.171 71.398 255.113 69.609 256.965C67.3808 257.138 65.1831 256.732 66.4979 259.747C68.7377 264.883 69.2707 271.001 72.0767 275.749C73.46 274.004 73.2612 270.866 75.624 270.208C77.3601 280.772 65.5962 271.008 79.5964 290.126C81.0789 288.568 78.3837 286.208 80.631 285.326C81.7986 284.915 82.421 285.875 82.7724 286.802C84.4556 289.382 82.1101 292.131 82.7794 294.621C84.1847 295.568 88.0935 302.173 88.9191 298.58C89.7294 293.896 90.5588 289.194 91.4779 284.515C92.5889 278.955 98.1121 265.591 94.9195 261.278C91.6523 255.961 88.7012 250.86 82.1235 249.696C81.0934 249.224 80.4212 247.479 81.7615 246.895C84.0556 246.507 85.0581 249.232 87.1679 249.58C87.4388 244.43 84.7388 239.397 84.3367 234.249C84.3363 232.839 84.0074 231.448 83.376 230.188C82.7446 228.927 81.828 227.83 80.699 226.985C75.5481 222.756 71.9671 216.92 70.5301 210.414C68.993 208.515 65.3741 193.979 62.9666 196.525C61.3255 196.257 56.4812 190.838 58.8354 189.308C61.2831 188.073 61.964 193.109 64.3211 193.596C65.3595 186.996 63.4356 181.041 61.6625 174.984C67.1655 181.019 64.1902 190.553 66.3127 197.919C71.2918 206.999 72.0246 220.038 81.5515 225.648C81.0168 224.056 82.25 218.594 84.2081 221.133C85.5056 223.438 83.8532 225.805 83.9326 228.1C84.7377 230.797 85.4073 233.533 85.9387 236.297C87.114 245.493 90.7825 254.192 96.5472 261.455C97.7788 263.974 98.8975 260.342 100.679 260.017C101.511 259.752 101.803 260.786 101.411 261.311C96.2867 263.986 96.9705 270.695 95.3879 275.539C93.6507 282.284 91.5727 289.629 90.4684 296.444C90.8476 299.264 90.1049 301.279 91.6544 303.288C93.3374 301.376 93.4194 297.399 96.4209 297.393C97.074 301.573 90.6187 303.961 93.2146 308.552C94.8091 312.817 95.7487 317.43 97.0444 321.844C97.939 324.545 100.568 320.211 102.364 320.306C101.842 326.769 92.6103 329.374 94.0275 340.467C94.3072 340.336 94.6729 340.301 94.8476 340.092C95.9778 338.66 96.4495 339.722 97.113 340.593C97.7766 341.464 97.031 342.152 96.5203 342.871C94.7918 344.787 93.5786 347.111 92.9946 349.624C92.4106 352.138 92.4749 354.758 93.1815 357.24C98.2879 353.873 97.1024 360.156 94.1984 362.112C93.8231 362.331 93.5312 362.668 93.3684 363.071C93.2057 363.474 93.1813 363.919 93.2992 364.337C94.0487 366.34 92.8617 378.532 96.3432 375.625C98.0299 371.568 105.398 369.465 104.892 365.602C103.238 357.624 107.461 357.919 106.762 364.627C106.753 364.791 107.114 365.191 107.317 365.493C114.007 362.1 118.674 339.073 115.405 333.792C112.752 333.397 112.539 331.568 111.963 329.72C111.166 326.896 115.401 329.719 114.73 326.574C115.389 310.245 110.014 319.054 110.013 312.508C109.793 309.787 113.686 311.847 113.163 309.346C111.744 303.817 112.052 297.615 108.358 293.148C106.966 291.948 109.347 289.564 110.386 291.237C111.426 292.91 111.998 292.067 112.386 290.924C113.393 286.632 115.243 282.602 116.137 278.394C117.073 275.807 113.84 274.346 113.59 271.824C114.675 267.463 116.596 272.091 118.009 273.584C120.033 271.763 119.23 267.993 121.311 266.485C125.271 265.893 129.401 259.638 125.782 256.52C124.608 257.749 126.019 259.278 126.181 260.686C125.179 263.834 124.134 257.07 124.346 256.153C124.423 254.685 125.575 254.582 126.755 255.662C128.502 257.027 127.739 259.077 128.616 260.724C132.683 258.447 130.849 252.859 130.963 248.956C130.336 247.396 128.418 246.168 127.664 244.601C126.404 239.862 131.613 246.281 130.461 239.148C129.631 234.177 135.255 229.619 129.702 226.254C129.478 226.143 129.284 225.98 129.137 225.777C128.991 225.574 128.897 225.338 128.863 225.09C128.829 224.842 128.857 224.59 128.944 224.355C129.031 224.121 129.174 223.911 129.361 223.745C131.452 222.037 133.897 228.111 134.87 222.762C135.21 220.089 138.656 219.943 140.388 218.489C141.965 217.553 142.658 218.899 143.381 219.682C144.103 220.466 143.298 221.26 142.61 221.878C140.634 224.865 138.2 219.974 136.499 222.211C135.062 225.154 134.012 228.271 133.374 231.483C131.847 234.585 133.814 233.834 136.011 234.258C139.216 235.572 135.367 237.861 133.568 238.166C129.254 239.957 132.792 250.162 132.725 254.194C133.958 257.041 136.947 249.653 139.472 251.458C140.664 253.339 138.361 256.673 136.363 256.604C132.078 256.815 128.906 262.83 125.466 265.631C126.402 265.964 127.26 266.485 127.987 267.163C127.001 268.62 125.142 268.686 123.574 268.749C120.205 268.826 117.685 276.967 116.859 279.887C115.416 283.447 120.552 280.554 119.255 283.431C117.978 284.545 117.844 287.084 115.464 286.341C112.888 290.369 110.827 296.696 113.078 301.615C114.045 299.484 119.092 291.022 118.607 298.178C112.693 304.104 113.334 304.701 114.428 312.958C114.903 314.983 115.847 311.906 118.468 312.571C118.5 313.4 118.363 314.228 118.066 315.003C117.769 315.778 117.317 316.484 116.739 317.08C113.896 318.912 115.873 330.089 117.214 332.596C122.428 327.179 124.911 319.401 128.178 312.627C129.601 309.775 125.479 308.613 127.462 305.481C128.174 305.347 128.909 305.45 129.557 305.773C133.879 308.327 130.503 292.968 130.922 290.536C130.935 290.3 130.827 289.931 130.684 289.887C128.49 289.062 128.872 285.591 129.843 284.079C132.056 284.195 132.605 288.624 134.011 286.116C137.55 280.375 139.644 280.34 135.407 274.099C134.97 270.985 138.678 273.453 139.257 274.901C140.522 277.132 140.441 275.218 141.811 274.418C143.191 276.872 137.883 279.92 141.03 281.649C141.226 281.866 141.367 282.126 141.441 282.408C141.514 282.691 141.519 282.987 141.454 283.271C141.136 283.782 140.1 284.455 139.836 284.295C137.037 282.53 136.285 284.709 134.896 286.563C131.238 290.752 131.574 296.824 133.498 301.744C136.765 297.716 139.812 301.694 135.778 303.682C134.804 303.885 133.412 304.066 132.994 304.753C130.819 307.021 131.992 311.701 129.454 312.913C127.466 315.681 126.146 318.873 125.599 322.237C127.204 322.485 129.483 321.005 130.753 322.108C129.97 324.54 125.229 323.381 123.73 325.266C118.905 330.885 115.345 338.734 117.176 346.121C120.473 340.84 124.704 343.735 121.486 346.475C119.809 347.587 117.078 346.934 116.606 349.345C115.531 353.525 112.984 357.682 113.067 361.977C114.708 361.918 115.985 360.804 117.48 360.391C121.593 362.426 115.143 363.668 113.29 363.28C108.459 363.826 100.264 372.667 97.2177 376.634C98.5171 377.175 102.777 377.454 100.414 379.493C98.6681 381.22 96.478 378.941 94.7262 380.085C91.3947 385.673 90.5711 392.685 88.2849 398.801C87.1375 401.249 91.9767 400.54 90.8455 403.026C90.4779 403.272 90.0553 403.423 89.6152 403.467C89.175 403.51 88.731 403.444 88.3223 403.275C84.4682 400.818 78.8539 402.777 75.9738 406.007C73.1195 410.475 66.8122 413.507 66.2004 418.911C66.004 419.036 65.8297 419.193 65.6849 419.375C65.1236 420.085 64.6271 420.844 64.2015 421.642C64.0025 421.309 63.7757 420.993 63.5236 420.698C62.297 422.924 57.9495 425.004 58.867 427.616C59.3578 428.315 60.8767 428.831 59.9478 429.891C58.6266 430.804 55.6011 428.154 54.5979 430.283C53.3999 433.001 50.4395 433.955 49.1928 436.562C46.0949 437.017 43.4573 439.787 41.6292 442.037C41.9739 443.091 43.5558 444.829 43.3449 446.418C39.9798 447.459 39.2682 439.549 37.0115 442.685C32.4877 451.919 37.5834 445.296 38.7503 451.121C38.9089 453.293 36.1966 452.987 35.0701 451.928C31.4336 448.791 27.6959 466.94 26.6249 469.665C27.4044 469.583 28.192 469.7 28.914 470.005C29.636 470.31 30.2688 470.793 30.753 471.41C28.6595 473.863 25.1844 471.117 24.8065 475.188C23.5581 481.286 21.4676 487.139 21.1185 493.43C20.6813 495.516 22.6508 494.729 23.6418 495.944C22.2853 499.6 19.1004 495.833 16.9945 498.867C4.32367 510.146 5.64772 529.579 -0.526454 543.909C0.540302 531.238 6.79283 518.53 8.55078 506.205M79.107 340.573C80.7823 339.152 80.2314 337.868 78.2888 339.53L79.107 340.573ZM89.338 358.384L88.9695 358.473C88.6392 359.565 89.382 360.313 89.9778 361.09C90.3987 360.003 89.7486 359.223 89.2674 358.343L89.338 358.384ZM89.7505 339.133C88.7424 339.971 90.0381 343.348 91.1922 342.845L89.7505 339.133ZM82.2031 302.118C83.5779 302.954 83.8357 302.549 84.8905 301.859C83.7897 300.656 83.4346 301.183 82.1325 302.078L82.2031 302.118ZM36.9484 228.829C35.9315 228.73 34.9151 229.021 34.1045 229.643C34.3322 229.91 34.6175 230.121 34.9388 230.262C35.2601 230.403 35.6092 230.47 35.9598 230.457C36.3105 230.444 36.6536 230.352 36.9636 230.187C37.2735 230.023 37.5422 229.79 37.7494 229.507L36.9484 228.829ZM33.4412 212.517C32.583 214.654 34.4542 215.734 35.2534 217.485C35.2623 215.613 34.5803 213.803 33.3381 212.402L33.4412 212.517ZM67.6761 242.536C67.6807 242.367 67.6506 242.2 67.5878 242.043C67.525 241.886 67.4307 241.744 67.3108 241.626C67.1909 241.507 67.048 241.414 66.8908 241.352C66.7336 241.291 66.5654 241.263 66.3968 241.269C65.3543 242.414 66.5783 243.696 67.573 242.421L67.6761 242.536ZM64.3272 264.705C63.1845 266.372 65.6371 267.119 66.4037 268.451C67.2973 267.37 65.0537 266.107 64.3272 264.705ZM81.0826 286.768C80.1519 287.519 81.5219 289.137 81.6136 290.16C82.3506 289.98 81.7194 287.111 81.1189 286.77L81.0826 286.768ZM60.0755 190.627C57.6287 190.808 61.2643 194.654 62.0834 193.951C61.4103 192.916 60.7591 191.809 60.0755 190.627ZM82.7237 222.728C82.4002 223.046 82.2076 223.474 82.1838 223.927C82.1599 224.38 82.3066 224.825 82.5949 225.176L83.5161 223.915C83.181 223.37 82.8908 223.009 82.7237 222.728ZM91.1643 314.68C92.1314 315.313 92.4474 316.566 93.5949 315.153C92.6192 314.684 91.6692 313.379 91.1671 314.626L91.1643 314.68ZM93.4308 361.144C93.7449 360.015 95.5911 358.803 94.1467 357.909C93.7725 358.799 92.3883 360.562 93.4337 361.09L93.4308 361.144ZM140.051 221.78C144.364 221.389 142.518 217.746 138.817 220.679L140.051 221.78ZM136.494 236.138C135.222 234.399 133.111 234.76 132.658 236.446C133.28 238.115 134.935 236.383 136.495 236.12L136.494 236.138ZM138.829 252.952C138.844 252.68 138.458 252.405 137.982 251.762C132.58 256.605 136.12 257.773 138.829 252.952ZM117.994 284.583L116.934 283.291C115.181 284.817 115.968 285.749 117.994 284.583ZM115.979 300.058C116.58 299.017 118.232 298.031 117.573 296.742C116.524 296.614 114.064 300.158 115.977 300.095L115.979 300.058ZM111.865 311.533C110.13 313.405 111.545 313.461 112.681 314.703C114.008 313.682 112.515 313.003 111.865 311.533ZM116.198 315.961C116.954 315.073 117.78 314.935 117.146 313.501C116.434 314.573 115.288 314.931 116.198 315.961ZM113.638 330.044C112.658 330.683 114.958 332.95 115.333 332.406C114.734 331.684 114.633 330.151 113.638 330.044ZM138.266 276.795C139.018 275.98 137.749 275.222 137.365 274.22C136.212 275.396 137.702 275.765 138.268 276.758L138.266 276.795ZM130.52 285.733C129.411 286.42 130.67 287.377 130.916 288.244L131.572 287.515L130.52 285.733ZM121.235 345.025C120.101 343.766 119.748 344.584 118.424 345.55C120.047 346.508 120.194 345.789 121.291 344.992L121.235 345.025ZM61.7611 417.205L60.605 415.671C59.6036 416.728 60.8361 417.502 61.3116 418.49C61.385 418.131 61.512 417.792 61.7611 417.205ZM35.7335 449.345L35.0881 450.201C36.861 451.767 37.873 450.857 35.7335 449.345Z" fill="#1B4332"/>
<path d="M65.9897 430.502C65.809 424.257 69.895 425.417 68.8276 422.543C67.4622 419.453 62.9506 422.234 64.4085 424.601C64.9056 425.099 65.2473 425.731 65.3919 426.42C65.5365 427.109 65.4778 427.824 65.223 428.48C63.9911 441.87 66.6037 455.826 59.4967 468.179C47.9725 479.791 33.6155 488.544 19.6634 496.865C39.7493 488.122 57.8043 472.69 72.5771 456.376C81.6204 450.088 94.1717 453.876 104.259 455.752C110.468 458.042 115.642 463.769 121.945 465.3C122.328 468.048 122.795 470.236 126.112 469.774C130.341 470.633 128.907 463.667 125.957 463.384C123.508 464.292 121.412 464.727 119.203 463.156C114.162 460.436 109.258 457.179 104.366 454.412C110.615 454.214 115.34 448.062 121.715 449.634C121.987 449.648 122.214 450.169 122.342 450.503C123.077 453.469 127.757 453.715 127.533 450.376C127.962 446.017 124.061 449.63 121.401 448.69C115.462 447.123 111.528 452.753 105.904 452.839C102.6 453.933 99.052 454.055 95.681 453.192C89.3563 451.936 82.849 451.909 76.514 453.111C82.7627 446.628 89.5243 440.661 96.7332 435.265C104.114 433.272 112.376 436.306 119.428 438.823C126.683 442.314 135.086 445.101 139.58 452.337C142.013 456.178 145.022 459.623 148.5 462.552C148.771 462.707 148.971 462.962 149.057 463.262C149.143 463.561 149.109 463.883 148.962 464.158C147.641 466.107 148.952 469.521 151.389 468.849C153.679 467.152 154.532 463.378 150.69 462.431C144.119 459.394 141.257 452.262 136.706 447.15C143.284 447.951 150.484 448.02 156.596 451.124C157.607 452.995 160.395 456.687 161.778 452.887C161.825 451.98 162.214 450.128 161.065 449.831C160.147 450.001 159.127 449.329 158.24 450.283C152.239 447.84 145.189 447.36 138.583 446.394C132.593 445.115 127.069 441.552 121.705 438.761C124.132 437.907 137.763 430.515 138.26 432.468C138.873 433.099 139.646 433.551 140.496 433.775C141.347 433.999 142.242 433.987 143.086 433.74C143.431 433.141 143.629 432.47 143.666 431.78C143.702 431.09 143.575 430.401 143.295 429.769C140.069 426.436 137.921 431.305 134.796 431.94C113.691 441.376 122.301 436.065 99.8616 433.539C113.659 423.159 130.227 417.102 147.468 416.135C150.592 417.274 153.485 418.966 156.009 421.129C156.725 424.803 159.792 428.746 159.06 432.29C156.941 434.869 160.286 439.063 162.285 435.641C164.321 433.93 160.959 433.535 160.667 431.811C160.558 430.441 154.741 418.953 158.527 421.68C161.013 424.211 165.367 424.422 167.488 426.97C168.409 430.218 173.432 433.955 172.406 437.21C168.612 445.374 179.104 443.017 176.3 438.215C173.685 435.42 171.463 432.281 169.697 428.886C166.027 424.674 177.655 428.032 179.447 428.199C181.45 429.177 181.254 430.494 184.041 430.422C187.089 430.91 185.957 426.141 184.165 425.283C181.712 424.209 180.087 427.778 177.377 426.744C167.599 425.691 158.299 421.968 150.496 415.985C156.727 414.749 163.412 415.937 169.669 414.212C175.589 411.287 182.21 412.671 188.675 411.83C190.913 410.42 190.679 412.808 192.512 413.559C194.274 414.651 196.363 411.943 195.005 410.435C193.595 408.543 192.592 408.236 190.733 409.702C186.865 412.007 181.53 411.763 177.322 411.196C181.38 409.082 184.792 398.498 189.309 400.463C194.476 402.171 191.747 393.191 188.134 396.183C176.186 418.264 163.451 413.812 141.655 415.301C145.066 406.481 152.823 398.016 161.569 394.967C164.267 396.237 168.738 393.526 166.569 390.503C166.029 390.099 165.387 389.853 164.714 389.793C164.042 389.733 163.367 389.862 162.763 390.164C162.16 390.466 161.653 390.931 161.299 391.505C160.945 392.08 160.758 392.741 160.759 393.416C157.416 396.06 153.867 398.433 150.145 400.512C151.174 397.202 149.413 390.928 153.023 389.372C156.634 387.817 150.868 382.968 148.903 385.756C148.3 388.233 149.14 388.514 150.282 390.665C148.82 408.769 147.585 400.777 140.668 414.359C140.533 414.824 140.258 415.237 139.881 415.542C139.504 415.847 139.043 416.03 138.559 416.066C132.451 416.69 126.796 419.083 120.944 420.721C122.91 415.637 125.937 411.03 129.822 407.206C131.06 405.453 132.987 406.846 134.549 405.855C134.828 405.693 135.067 405.47 135.248 405.203C135.428 404.935 135.546 404.631 135.593 404.312C135.639 403.993 135.613 403.667 135.516 403.359C135.419 403.052 135.254 402.77 135.033 402.535C133.554 400.221 129.379 402.492 130.462 405.058C130.398 406.273 128.822 407.19 127.999 407.965C123.45 411.471 122.58 417.971 118.471 421.736C107.822 426.629 97.8799 432.931 88.9108 440.472C89.1044 434.719 97.3832 411.5 103.733 411.47C107.076 412.573 111.771 408.038 114.24 410.205C114.743 411.013 115.323 411.734 116.396 411.391C118.754 411.515 120.578 406.938 117.752 406.371C113.214 404.46 114.711 409.539 110.862 409.409C108.39 409.715 105.59 411.077 103.183 410.168C104.27 408.862 110.258 402.214 111.645 403.523C111.891 403.68 112.168 403.783 112.457 403.827C112.746 403.87 113.041 403.853 113.323 403.775C113.605 403.697 113.867 403.561 114.093 403.376C114.319 403.19 114.504 402.959 114.635 402.698C116.025 399.426 112.903 398.625 110.589 400.431C110.271 400.941 110.483 402.443 109.857 402.938C104.5 406.911 100.431 412.005 96.1872 416.946C98.6443 411.73 96.1074 404.633 99.8658 400.267C101.354 399.291 101.063 397.912 99.4265 397.207C97.034 395.663 94.4699 398.765 96.5407 400.546C97.6434 401.023 97.631 401.949 97.5136 402.798C96.8192 415.997 91.2015 427.702 87.8492 440.252C86.2885 444.679 81.2231 446.922 78.2218 450.382C72.2315 454.994 67.761 461.486 61.8671 465.994C64.7394 459.8 64.6551 452.759 67.5942 446.678C71.3677 439.258 78.0053 433.407 80.8069 425.446C81.0198 424.857 81.2365 424.541 81.9783 424.616C85.6194 424.553 87.3529 420.299 83.5656 418.645C81.7985 417.662 79.1828 420.015 79.7471 422.081C80.6839 429.512 70.2556 440 66.2596 446.462C65.699 441.214 64.998 435.868 65.982 430.648M127.919 467.578C127.709 469.149 127.406 469.37 125.169 469.034C119.944 467.395 128.235 460.886 127.927 467.433L127.919 467.578ZM82.7293 419.329C83.2233 419.369 83.6867 419.584 84.0369 419.935C84.387 420.285 84.601 420.749 84.6406 421.243C84.6802 421.737 84.5429 422.229 84.2531 422.63C83.9634 423.032 83.5401 423.318 83.0589 423.437C81.6508 423.926 81.6746 422.782 81.3204 421.909C79.7623 420.754 81.8072 419.917 82.7293 419.329ZM172.382 439.391C172.548 436.236 175.733 437.93 175.717 439.966C175.035 442.221 171.943 442.567 172.382 439.391ZM141.077 432.871C138.479 432.461 138.52 429.264 141.48 429.692C143.584 429.803 143.143 433.361 141.077 432.871ZM162.456 392.978C162.545 391.273 163.267 391.384 164.837 391.285C168.785 391.602 161.931 396.732 162.456 392.978ZM183.386 429.733C180.551 428.984 180.186 426.238 183.549 426.633C185.142 427.116 185.529 429.446 183.386 429.733ZM149.467 465.967C149.504 465.259 150.04 464.069 150.786 464.054C154.502 465.341 149.604 470.61 149.467 465.967ZM116.287 406.894C119.724 407.257 117.944 409.981 116.117 410.14C115.052 409.975 114.477 407.072 116.287 406.894ZM188.059 398.288C188.483 396.111 191.563 397.036 191.512 398.688C191.055 401.155 188.956 399.226 188.059 398.288ZM150.508 386.022C151.965 385.971 152.056 387.013 152.921 387.858C151.418 388.415 150.084 388.2 149.459 386.585L150.508 386.022ZM193.476 412.882C191.29 412.949 191 410.152 193.027 410.35C194.623 410.434 194.455 412.243 193.512 412.884L193.476 412.882ZM133.458 402.743C134.173 403.326 135.217 403.872 134.277 404.804C133.337 405.737 129.677 403.381 133.458 402.743ZM66.1211 424.2C64.9822 423.722 65.8127 421.766 66.8304 422.129C68.5727 422.893 68.3083 424.806 66.0304 424.196L66.1211 424.2ZM158.987 434.359C160.108 433.454 161.86 433.346 161.553 435.021C160.498 436.42 159.759 435.599 158.897 434.354L158.987 434.359ZM123.583 450.423C124.448 449.882 125.481 449.678 126.487 449.849C126.502 451.649 124.376 451.938 123.456 450.416L123.583 450.423ZM160.828 450.892C162.214 452.892 158.823 454.422 159.18 452.132C159.338 451.541 159.245 450.554 160.701 450.885L160.828 450.892ZM112.424 402.891C111.655 401.596 111.311 400.178 113.087 400.308C114.765 400.905 113.481 402.147 112.329 402.959L112.424 402.891ZM96.9358 398.913C96.9444 398.749 96.953 398.586 96.9616 398.423C97.9487 397.984 98.7048 397.788 99.4352 398.771C98.4309 399.537 97.7378 400.264 96.8413 398.98L96.9358 398.913Z" fill="#1B4332"/>
<path d="M91.6309 257.742C96.893 249.752 101.536 241.371 105.518 232.673C110.012 224.71 111.587 214.811 104.002 207.903C97.511 200.943 88.4405 195.648 85.4748 186.328C82.3479 178.624 81.7132 170.134 83.6599 162.051C85.4889 159.093 86.8632 170.311 87.899 171.365C90.7862 177.68 93.2715 184.375 97.4475 190.049C103.114 197.82 109.778 204.952 111.053 214.601C121.273 179.721 101.049 189.693 96.146 161.89C94.3069 151.902 98.211 141.999 96.685 131.937C96.7098 131.465 96.3804 130.812 97.1995 130.8C103.699 139.669 102.537 151.735 104.992 162.119C106.495 170.198 110.489 177.608 113.545 185.205C114.06 175.414 114.315 165.373 115.106 155.524C115.385 150.229 111.643 145.978 109.11 141.572C105.203 136.329 102.983 130.023 102.746 123.49C102.508 116.957 104.263 110.506 107.779 104.993C107.918 104.836 108.105 104.73 108.311 104.691C108.516 104.652 108.73 104.682 108.916 104.777C109.103 104.873 109.253 105.027 109.342 105.217C109.431 105.406 109.454 105.62 109.409 105.824C105.134 117.927 114.48 134.927 117.107 147.575C123.875 133.022 119.621 122.962 116.929 108.438C114.198 98.1128 117.847 87.5231 114.923 77.4239C117.339 78.1692 119.964 90.5071 120.63 93.3967C122.457 105.002 122.238 117.117 122.834 128.603C129.79 115.315 133.084 112.524 131.563 97.1719C131.319 86.25 137.164 76.4485 141.022 66.397C141.21 65.9342 140.824 64.9684 141.8 65.0925C143.177 65.5286 142.322 67.9563 143.01 69.0652C148.799 89.3696 136.159 106.632 126.674 123.387C133.661 117.652 141.32 112.786 149.481 108.896C154.273 106.33 156.919 102.015 160.168 97.9858C161.361 99.8667 157.314 110.054 154.732 111.427C151.866 113.694 149.273 116.303 146.372 118.551C142.705 121.176 137.882 121.94 133.851 123.874C127.397 126.934 122.11 132.347 120.927 139.266C118.612 146.044 117.024 153.049 116.19 160.163C121.641 149.213 131.367 141.707 140.694 133.816C143.702 131.488 145.996 128.365 147.317 124.8C148.095 123.15 148.228 120.957 149.761 119.82C152.837 125.673 147.28 132.417 144.167 137.307C137.145 147.01 126.04 153.063 118.268 162.163C112.733 168.835 115.722 178.392 115.302 186.388C122.122 166.347 139.859 159.026 151.163 142.621C152.432 147.542 148.559 153.047 146.733 157.678C136.601 175.327 112.664 182.94 114.691 206.992C122.649 188.484 142.179 182.002 154.211 166.963C154.299 167.367 154.584 167.837 154.439 168.157C150.617 176.501 147.79 185.988 139.558 191.373C134.703 195.845 127.904 197.851 123.754 203.087C119.604 208.324 114.106 213.616 112.238 220.081C117.854 214.631 126.276 212.893 131.425 206.982C132.367 206.013 140.275 193.993 138.802 199.861C129.71 217.455 127.972 214.873 112.747 224.235C107.767 231.41 104.444 239.617 99.9236 247.051C97.266 250.548 96.3259 257.008 91.6767 257.908M101.136 142.407C100.428 141.006 99.8748 136.995 98.2117 134.726C96.6164 155.369 93.2279 169.991 111.283 185.668C111.285 179.068 106.488 173.107 105.008 166.647C103.413 157.909 102.32 151.706 101.088 142.277L101.136 142.407ZM143.474 74.0714C142.572 71.8422 142.662 69.7924 141.217 68.2254C135.19 80.781 130.33 92.9615 133.425 107.07C142.184 98.5851 143.46 85.3978 143.474 74.0714ZM118.448 186.736C128.51 173.538 146.645 164.874 149.453 147.458C139.078 160.058 118.952 168.871 118.448 186.736ZM115.737 209.92C120.041 205.547 123.794 200.599 128.927 197.069C139.594 191.739 148.489 183.08 151.507 171.693C139.176 183.772 119.375 191.93 115.737 209.92ZM83.7312 176.6C86.3916 193.104 97.279 199.131 108.565 210.379C107.534 201.961 99.4698 195.864 95.1553 188.674C90.5621 181.596 87.7512 173.484 84.4047 165.872C83.1944 169.342 82.9601 173.078 83.7274 176.673L83.7312 176.6ZM103.761 126.745C105.007 134.52 110.571 140.776 114.623 147.426C115.152 134.254 105.509 121.874 107.196 108.472C103.851 113.944 102.629 120.451 103.76 126.763L103.761 126.745ZM149.358 124.38L149.015 123.981C143.639 138.007 123.783 143.071 119.812 158.044C131.287 148.757 145.506 139.16 149.392 124.419L149.358 124.38ZM158.284 103.723C157.963 103.597 157.908 103.267 157.759 102.986C149.562 112.882 133.544 114.494 126.991 126.004C133.022 122.685 139.736 120.565 145.92 117.472C151.037 113.905 156.05 109.533 158.284 103.723ZM119.504 93.0284C118.964 91.1818 119.135 88.6272 117.796 87.1204C115.463 98.2703 117.936 110.037 120.556 121.083C121.722 112.054 120.55 102.192 119.504 93.0284ZM133.359 207.211C132.469 206.491 129.076 211.531 126.766 211.864C122.385 214.597 115.625 216.205 113.882 221.331C121.549 218.371 129.492 214.68 133.359 207.211Z" fill="#1B4332"/>
</g>
<defs>
<clipPath id="clip0_586_25661">
<rect width="221" height="627" fill="white"/>
</clipPath>
</defs>
</svg>
