<svg width="48" height="48" viewBox="0 0 48 48" fill="none" xmlns="http://www.w3.org/2000/svg">
<path d="M14.9814 5.85938C10.8774 5.85938 5.98145 10.7554 5.98145 14.8594C5.98145 19.2234 10.0594 26.8133 14.5434 31.2973C14.9554 31.7073 16.1334 32.8853 16.5434 33.2973C21.0274 37.7813 28.6174 41.8594 32.9814 41.8594C37.0854 41.8594 41.9814 36.9634 41.9814 32.8594C41.9814 28.7554 37.0854 23.8594 32.9814 23.8594C32.1614 23.8594 31.3174 24.1854 29.7314 24.9214C29.5854 24.9894 28.3654 25.5873 28.0434 25.7353C25.8114 25.1213 22.7874 22.0553 22.1054 19.7353C22.2594 19.3953 22.8614 18.2334 22.9194 18.1094C23.6854 16.4854 23.9814 15.6894 23.9814 14.8594C23.9814 10.7554 19.0854 5.85938 14.9814 5.85938ZM14.9814 9.85937C16.8774 9.85937 19.9814 12.9634 19.9814 14.8594C19.9814 14.8094 19.7134 15.5334 19.2934 16.4214C19.2374 16.5414 18.5734 17.8274 18.4194 18.1714C17.9474 19.2274 17.8894 19.5594 18.0434 20.2974C18.8834 24.2994 23.6414 29.0813 27.6054 29.7973C28.3194 29.9253 28.4954 29.8614 29.6054 29.3594C29.9174 29.2194 31.2794 28.6113 31.4194 28.5473C32.2994 28.1373 33.0234 27.8594 32.9814 27.8594C34.8774 27.8594 37.9814 30.9634 37.9814 32.8594C37.9814 34.7554 34.8774 37.8594 32.9814 37.8594C29.8574 37.8594 23.2234 34.2274 19.4194 30.4214C19.0074 30.0114 17.8294 28.8334 17.4194 28.4214C13.6134 24.6174 9.98144 17.9834 9.98144 14.8594C9.98144 12.9634 13.0854 9.85937 14.9814 9.85937Z" fill="#454545"/>
</svg>
