<svg width="25" height="24" viewBox="0 0 25 24" fill="none" xmlns="http://www.w3.org/2000/svg">
<g clip-path="url(#clip0_52_2349)">
<path d="M6.58577 23.9152C5.15848 23.8503 4.38314 23.6127 3.86743 23.4116C3.1841 23.1455 2.69693 22.8288 2.18407 22.3167C1.67122 21.8046 1.35381 21.3174 1.08918 20.6341C0.888029 20.1183 0.650504 19.343 0.585595 17.9157C0.514266 16.3729 0.5 15.9099 0.5 12.0011C0.5 8.09231 0.515692 7.6301 0.584881 6.08583C0.64979 4.65855 0.888742 3.88463 1.08846 3.36749C1.35452 2.68416 1.67193 2.19699 2.18336 1.68342C2.6955 1.17128 3.18268 0.853153 3.86672 0.588524C4.38243 0.387376 5.15777 0.149852 6.58506 0.0849423C8.12861 0.0143268 8.59225 6.10352e-05 12.4996 6.10352e-05C16.4085 6.10352e-05 16.8707 0.0157534 18.4149 0.0849423C19.8422 0.149852 20.6161 0.388803 21.1333 0.588524C21.8166 0.853153 22.3038 1.17128 22.8166 1.68342C23.3295 2.19556 23.6455 2.68345 23.9115 3.36678C24.1127 3.88249 24.3502 4.65783 24.4151 6.08512C24.4857 7.62939 24.5 8.0916 24.5 12.0004C24.5 15.9078 24.4857 16.3714 24.4151 17.9157C24.3502 19.343 24.1113 20.1183 23.9115 20.6341C23.6455 21.3174 23.3288 21.8046 22.8166 22.3167C22.3045 22.8288 21.8166 23.1455 21.1333 23.4116C20.6176 23.6127 19.8422 23.8503 18.4149 23.9152C16.8721 23.9858 16.4085 24.0001 12.4996 24.0001C8.59225 24.0001 8.12862 23.9865 6.58577 23.9152Z" fill="url(#paint0_radial_52_2349)"/>
<path d="M6.58577 23.9152C5.15848 23.8503 4.38314 23.6127 3.86743 23.4116C3.1841 23.1455 2.69693 22.8288 2.18407 22.3167C1.67122 21.8046 1.35381 21.3174 1.08918 20.6341C0.888029 20.1183 0.650504 19.343 0.585595 17.9157C0.514266 16.3729 0.5 15.9099 0.5 12.0011C0.5 8.09231 0.515692 7.6301 0.584881 6.08583C0.64979 4.65855 0.888742 3.88463 1.08846 3.36749C1.35452 2.68416 1.67193 2.19699 2.18336 1.68342C2.6955 1.17128 3.18268 0.853153 3.86672 0.588524C4.38243 0.387376 5.15777 0.149852 6.58506 0.0849423C8.12861 0.0143268 8.59225 6.10352e-05 12.4996 6.10352e-05C16.4085 6.10352e-05 16.8707 0.0157534 18.4149 0.0849423C19.8422 0.149852 20.6161 0.388803 21.1333 0.588524C21.8166 0.853153 22.3038 1.17128 22.8166 1.68342C23.3295 2.19556 23.6455 2.68345 23.9115 3.36678C24.1127 3.88249 24.3502 4.65783 24.4151 6.08512C24.4857 7.62939 24.5 8.0916 24.5 12.0004C24.5 15.9078 24.4857 16.3714 24.4151 17.9157C24.3502 19.343 24.1113 20.1183 23.9115 20.6341C23.6455 21.3174 23.3288 21.8046 22.8166 22.3167C22.3045 22.8288 21.8166 23.1455 21.1333 23.4116C20.6176 23.6127 19.8422 23.8503 18.4149 23.9152C16.8721 23.9858 16.4085 24.0001 12.4996 24.0001C8.59225 24.0001 8.12862 23.9865 6.58577 23.9152Z" fill="url(#paint1_radial_52_2349)"/>
<path d="M9.77709 11.9151C9.77709 10.458 10.9579 9.27652 12.415 9.27652C13.8721 9.27652 15.0535 10.458 15.0535 11.9151C15.0535 13.3721 13.8721 14.5536 12.415 14.5536C10.9579 14.5536 9.77709 13.3721 9.77709 11.9151ZM8.35074 11.9151C8.35074 14.1598 10.1703 15.9793 12.415 15.9793C14.6597 15.9793 16.4793 14.1598 16.4793 11.9151C16.4793 9.67037 14.6597 7.8508 12.415 7.8508C10.1703 7.8508 8.35074 9.67024 8.35074 11.9151ZM15.6904 7.68965C15.6903 7.87751 15.746 8.06116 15.8503 8.2174C15.9546 8.37363 16.1029 8.49543 16.2764 8.56739C16.4499 8.63935 16.6409 8.65823 16.8251 8.62166C17.0094 8.58508 17.1787 8.49469 17.3116 8.36191C17.4444 8.22913 17.535 8.05993 17.5717 7.8757C17.6084 7.69147 17.5897 7.50049 17.5179 7.32691C17.446 7.15333 17.3244 7.00494 17.1682 6.90052C17.0121 6.79609 16.8285 6.74031 16.6406 6.74023C16.3888 6.74035 16.147 6.8404 15.9689 7.01842C15.7908 7.19643 15.6906 7.43785 15.6904 7.68965ZM9.21734 18.3577C8.44566 18.3226 8.02623 18.1941 7.74749 18.0855C7.37796 17.9416 7.11429 17.7703 6.83708 17.4934C6.55986 17.2166 6.38827 16.9532 6.24504 16.5836C6.13638 16.305 6.00784 15.8855 5.97276 15.1138C5.93439 14.2795 5.92673 14.0289 5.92673 11.9152C5.92673 9.8015 5.93502 9.55158 5.97276 8.71658C6.0079 7.9449 6.13739 7.52616 6.24504 7.24673C6.3889 6.8772 6.56024 6.61353 6.83708 6.33632C7.11391 6.0591 7.37732 5.8875 7.74749 5.74427C8.0261 5.63562 8.44566 5.50708 9.21734 5.472C10.0516 5.43363 10.3023 5.42596 12.415 5.42596C14.5277 5.42596 14.7786 5.43413 15.6136 5.47212C16.3853 5.50727 16.804 5.63676 17.0835 5.7444C17.453 5.88763 17.7167 6.05961 17.9939 6.33644C18.2711 6.61328 18.4421 6.87732 18.5859 7.24686C18.6946 7.52547 18.8231 7.94502 18.8582 8.7167C18.8966 9.55171 18.9042 9.80163 18.9042 11.9153C18.9042 14.029 18.8966 14.2789 18.8582 15.1139C18.823 15.8856 18.6939 16.305 18.5859 16.5838C18.4421 16.9533 18.2707 17.217 17.9939 17.4936C17.717 17.7701 17.453 17.9417 17.0835 18.0856C16.8048 18.1943 16.3853 18.3228 15.6136 18.3579C14.7793 18.3962 14.5287 18.4039 12.415 18.4039C10.3013 18.4039 10.0514 18.3961 9.21734 18.3577ZM9.1518 4.04799C8.3092 4.08637 7.73344 4.21997 7.23061 4.41563C6.71018 4.61768 6.26903 4.88876 5.82852 5.32858C5.388 5.7684 5.11762 6.20961 4.91557 6.73067C4.71991 7.23381 4.58631 7.80927 4.54793 8.65187C4.50893 9.49579 4.5 9.7656 4.5 11.9151C4.5 14.0645 4.50893 14.3343 4.54793 15.1783C4.58631 16.0209 4.71991 16.5963 4.91557 17.0994C5.11762 17.6199 5.38806 18.0619 5.82852 18.5015C6.26897 18.9412 6.70955 19.2119 7.23061 19.4145C7.73439 19.6101 8.3092 19.7438 9.1518 19.7821C9.99618 19.8205 10.2655 19.8301 12.415 19.8301C14.5645 19.8301 14.8343 19.8211 15.6782 19.7821C16.5209 19.7438 17.0962 19.6101 17.5994 19.4145C18.1198 19.2119 18.561 18.9414 19.0015 18.5015C19.442 18.0617 19.7118 17.6199 19.9144 17.0994C20.1101 16.5963 20.2443 16.0209 20.2821 15.1783C20.3204 14.3337 20.3294 14.0645 20.3294 11.9151C20.3294 9.7656 20.3204 9.49579 20.2821 8.65187C20.2437 7.8092 20.1101 7.2335 19.9144 6.73067C19.7118 6.21025 19.4413 5.7691 19.0015 5.32858C18.5617 4.88806 18.1198 4.61768 17.6 4.41563C17.0962 4.21997 16.5208 4.08573 15.6788 4.04799C14.8348 4.00943 14.5651 4.00006 12.416 4.00006C10.2668 4.00006 9.99618 4.00899 9.1518 4.04799Z" fill="white"/>
</g>
<defs>
<radialGradient id="paint0_radial_52_2349" cx="0" cy="0" r="1" gradientUnits="userSpaceOnUse" gradientTransform="translate(2.05326 23.4743) scale(30.4711)">
<stop offset="0.09" stop-color="#FA8F21"/>
<stop offset="0.78" stop-color="#D82D7E"/>
</radialGradient>
<radialGradient id="paint1_radial_52_2349" cx="0" cy="0" r="1" gradientUnits="userSpaceOnUse" gradientTransform="translate(17.124 22.7037) scale(26.8148)">
<stop offset="0.64" stop-color="#8C3AAA" stop-opacity="0"/>
<stop offset="1" stop-color="#8C3AAA"/>
</radialGradient>
<clipPath id="clip0_52_2349">
<rect x="0.5" y="6.10352e-05" width="24" height="24" rx="12" fill="white"/>
</clipPath>
</defs>
</svg>
