<svg width="70" height="70" viewBox="0 0 70 70" fill="none" xmlns="http://www.w3.org/2000/svg">
<g clip-path="url(#clip0_135_8066)">
<path d="M67.2001 34.6C67.2001 41.0477 65.2882 47.3505 61.706 52.7116C58.1239 58.0726 53.0325 62.2511 47.0756 64.7185C41.1187 67.1859 34.564 67.8315 28.2402 66.5736C21.9164 65.3157 16.1076 62.2109 11.5485 57.6517C6.98926 53.0925 3.88441 47.2837 2.62654 40.9599C1.36866 34.6362 2.01425 28.0814 4.48166 22.1245C6.94908 16.1676 11.1275 11.0762 16.4885 7.49409C21.8496 3.91196 28.1525 2 34.6001 2C43.2454 2.00265 51.5358 5.43814 57.6489 11.5512C63.762 17.6644 67.1975 25.9548 67.2001 34.6Z" fill="#FFFEFE"/>
<path d="M63.3701 34.5998C63.3701 40.2924 61.6819 45.8571 58.5191 50.5902C55.3562 55.3232 50.8608 59.012 45.6014 61.19C40.342 63.368 34.5547 63.9374 28.9717 62.8261C23.3886 61.7148 18.2606 58.9728 14.236 54.9468C10.2114 50.9209 7.47121 45.7918 6.36185 40.2084C5.2525 34.625 5.82387 28.8379 8.00369 23.5793C10.1835 18.3206 13.8739 13.8265 18.608 10.6653C23.3422 7.50408 28.9075 5.81785 34.6001 5.81983C38.379 5.81983 42.121 6.56431 45.6122 8.01077C49.1034 9.45722 52.2754 11.5773 54.9471 14.2499C57.6187 16.9225 59.7377 20.0953 61.183 23.587C62.6282 27.0786 63.3714 30.8209 63.3701 34.5998Z" fill="#C98DAE"/>
<path d="M50.8102 27.4199C49.3791 24.125 46.9949 21.3336 43.9643 19.4049C40.9337 17.4762 37.3952 16.4984 33.8043 16.5973C30.2134 16.6962 26.7342 17.8674 23.8143 19.9601C20.8945 22.0527 18.6676 24.9712 17.4202 28.3399L16.8002 28.12C18.0814 24.6192 20.3828 21.583 23.4072 19.4036C26.4317 17.2242 30.0401 16.0017 33.7664 15.894C37.4927 15.7863 41.1656 16.7985 44.3108 18.7996C47.456 20.8008 49.929 23.699 51.4102 27.12L50.8102 27.4199Z" fill="#FFFEFE"/>
<path d="M35.7102 53.1302C35.4102 53.1302 35.1102 53.1302 34.8102 53.1302C31.0856 53.2487 27.4116 52.2427 24.267 50.2432C21.1223 48.2437 18.6528 45.3434 17.1802 41.9202L17.7902 41.6602C19.2228 44.952 21.607 47.7402 24.6364 49.6666C27.6659 51.5929 31.2021 52.5694 34.7908 52.4705C38.3795 52.3715 41.8566 51.2018 44.7753 49.1115C47.694 47.0212 49.9211 44.1059 51.1702 40.7402L51.7902 40.9702C50.5686 44.3323 48.4006 47.2693 45.5474 49.4269C42.6943 51.5845 39.2779 52.8706 35.7102 53.1302Z" fill="#FFFEFE"/>
<path d="M12.2901 25.2602C12.3215 25.1714 12.3582 25.0846 12.4001 25.0002C12.4459 24.906 12.4994 24.8157 12.5601 24.7302L12.7801 24.4902C12.862 24.4189 12.9527 24.3584 13.0501 24.3102C13.1594 24.2707 13.274 24.2471 13.3901 24.2402C13.667 24.2467 13.9312 24.3574 14.1301 24.5502C14.2079 24.627 14.2691 24.7189 14.3101 24.8202C14.3486 24.9196 14.3721 25.024 14.3801 25.1302C14.3952 25.2297 14.3952 25.3308 14.3801 25.4302C14.3857 25.5168 14.3857 25.6037 14.3801 25.6902C14.3801 25.7602 14.3301 25.8302 14.3101 25.8802L14.1201 26.3402L15.4201 26.8602L15.1601 27.5002L12.5901 26.4502C12.4736 26.3968 12.348 26.3663 12.2201 26.3602C12.1101 26.3602 12.0301 26.4402 11.9701 26.5902V26.6402L11.8201 26.5802L12.2901 25.2602ZM12.4801 25.3402C12.4801 25.3402 12.4801 25.4202 12.4801 25.4602V25.5702C12.4857 25.6033 12.4857 25.6371 12.4801 25.6702L13.9601 26.2802L14.0001 26.0002C14.0305 25.9163 14.0507 25.829 14.0601 25.7402C14.0791 25.6546 14.0791 25.5659 14.0601 25.4802C14.0168 25.3889 13.9556 25.3073 13.8801 25.2402C13.7713 25.1349 13.6419 25.0532 13.5001 25.0002C13.3737 24.945 13.2379 24.9144 13.1001 24.9102C13.0006 24.8997 12.9002 24.917 12.8101 24.9602C12.7318 24.9925 12.663 25.0441 12.6101 25.1102C12.5559 25.1802 12.5121 25.2577 12.4801 25.3402Z" fill="#FFFEFE"/>
<path d="M15.4601 23.0902L15.3501 23.2702L16.7001 24.0902L16.3401 24.6802L14.0001 23.2402C13.8929 23.1704 13.7745 23.1197 13.6501 23.0902C13.5401 23.0902 13.4501 23.1402 13.3601 23.2802L13.2201 23.2002L13.9301 22.0002C13.9753 21.9205 14.0254 21.8437 14.0801 21.7702C14.1356 21.6816 14.2029 21.6008 14.2801 21.5302C14.3562 21.4521 14.44 21.3817 14.5301 21.3202C14.6155 21.2592 14.71 21.2119 14.8101 21.1802C14.9158 21.16 15.0244 21.16 15.1301 21.1802C15.2546 21.1983 15.3739 21.2426 15.4801 21.3102C15.5871 21.3694 15.6768 21.4556 15.7401 21.5602C15.8003 21.6509 15.8412 21.753 15.8601 21.8602C15.875 21.9664 15.875 22.0741 15.8601 22.1802C15.8474 22.2857 15.824 22.3896 15.7901 22.4902H16.8601C16.9729 22.5061 17.0873 22.5061 17.2001 22.4902C17.2796 22.4835 17.3574 22.4632 17.4301 22.4302C17.488 22.4138 17.5422 22.3867 17.5901 22.3502L17.6901 22.2602L17.8001 22.3302C17.8053 22.3768 17.8053 22.4237 17.8001 22.4702C17.7728 22.5366 17.7393 22.6002 17.7001 22.6602C17.6545 22.7356 17.5971 22.8031 17.5301 22.8602C17.4658 22.9271 17.3872 22.9784 17.3001 23.0102C17.1936 23.052 17.083 23.0822 16.9701 23.1002C16.8236 23.1112 16.6766 23.1112 16.5301 23.1002L15.4601 23.0902ZM14.1001 22.0902L14.0401 22.2002C14.0361 22.2334 14.0361 22.267 14.0401 22.3002C14.0436 22.3301 14.0436 22.3603 14.0401 22.3902L15.2501 23.1302L15.4101 22.8602C15.4593 22.7915 15.4933 22.7131 15.5101 22.6302C15.5249 22.5476 15.5249 22.4629 15.5101 22.3802C15.4971 22.2853 15.4592 22.1956 15.4001 22.1202C15.3335 22.0209 15.2444 21.9387 15.1401 21.8802C15.0406 21.8157 14.9278 21.7746 14.8101 21.7602C14.7213 21.7397 14.6289 21.7397 14.5401 21.7602C14.4598 21.7858 14.3851 21.8265 14.3201 21.8802C14.2341 21.9477 14.1598 22.0288 14.1001 22.1202V22.0902Z" fill="#FFFEFE"/>
<path d="M16.7301 18.2402C16.7758 18.1789 16.8337 18.1278 16.9001 18.0902C16.9561 18.0774 17.0142 18.0774 17.0701 18.0902C17.1163 18.0808 17.1639 18.0808 17.2101 18.0902C17.2572 18.1143 17.3009 18.1446 17.3401 18.1802L17.6801 18.4702L17.5801 18.5902C17.5189 18.5254 17.4441 18.4747 17.3612 18.4419C17.2783 18.4091 17.1892 18.3948 17.1001 18.4002C16.9301 18.4382 16.7783 18.5336 16.6701 18.6702L16.1301 19.3202L17.1301 20.1702L18.0201 19.1702L18.1901 19.3302L17.3101 20.3302L18.4001 21.2602L18.9801 20.5902C19.0988 20.463 19.1756 20.3024 19.2001 20.1302C19.2192 19.9343 19.1735 19.7376 19.0701 19.5702L19.2001 19.5002L19.4201 19.8802C19.4739 19.9686 19.508 20.0675 19.5201 20.1702C19.5201 20.224 19.5096 20.2774 19.489 20.3271C19.4684 20.3769 19.4382 20.4221 19.4001 20.4602L18.1401 21.9302L16.0001 20.1102C15.9041 20.0227 15.7921 19.9548 15.6701 19.9102C15.612 19.9028 15.553 19.912 15.4999 19.9368C15.4468 19.9616 15.4018 20.0009 15.3701 20.0502L15.2501 19.9502L16.7301 18.2402Z" fill="#FFFEFE"/>
<path d="M22.4601 16.5998C22.6035 16.7945 22.7754 16.9665 22.9701 17.1098C23.0313 17.149 23.1025 17.1699 23.1751 17.1699C23.2478 17.1699 23.3189 17.149 23.3801 17.1098L23.4601 17.2098C23.3537 17.3139 23.2266 17.3944 23.0871 17.4461C22.9475 17.4978 22.7986 17.5195 22.6501 17.5098C22.3533 17.4331 22.0963 17.2475 21.9301 16.9898L20.7701 15.5398L21.5801 18.3998L21.4501 18.5098L18.5801 17.1498L20.3501 19.3798L20.1501 19.5498L18.0001 16.8698L18.5001 16.4798L21.0901 17.6998L20.3301 14.9998L20.8601 14.5698L22.4601 16.5998Z" fill="#FFFEFE"/>
<path d="M22.1501 13.85L22.7401 13.52L24.1101 15.92C24.1694 16.0379 24.2549 16.1405 24.3601 16.22C24.4086 16.2536 24.4662 16.2715 24.5251 16.2715C24.5841 16.2715 24.6417 16.2536 24.6901 16.22L24.7701 16.36L24.2301 16.67L24.0201 16.76C23.9584 16.7799 23.8919 16.7799 23.8301 16.76C23.7643 16.7258 23.7064 16.6781 23.6601 16.62C23.6101 16.55 23.5501 16.46 23.4801 16.34L22.1501 13.85Z" fill="#FFFEFE"/>
<path d="M25.4701 14.5C25.5712 14.7819 25.7518 15.0285 25.9901 15.21C26.0947 15.2715 26.2138 15.304 26.3351 15.304C26.4564 15.304 26.5756 15.2715 26.6801 15.21C26.8191 15.1682 26.9461 15.0937 27.0505 14.9928C27.1549 14.8919 27.2336 14.7675 27.2801 14.63C27.3327 14.2891 27.2804 13.9404 27.1301 13.63L26.4001 11.83L26.6401 11.73L27.3701 13.54C27.4525 13.7429 27.5128 13.9541 27.5501 14.17C27.5909 14.351 27.5909 14.5389 27.5501 14.72C27.4973 14.8888 27.4007 15.0407 27.2701 15.16C27.1052 15.3057 26.9155 15.4209 26.7101 15.5C25.8401 15.86 25.2101 15.55 24.8201 14.59L24.3401 13.42C24.2955 13.298 24.2276 13.186 24.1401 13.09C24.0896 13.0569 24.0305 13.0392 23.9701 13.0392C23.9097 13.0392 23.8506 13.0569 23.8001 13.09L23.7401 12.94L24.2801 12.73C24.3481 12.6939 24.4232 12.6735 24.5001 12.67C24.5635 12.67 24.6258 12.6873 24.6801 12.72C24.7397 12.7674 24.7905 12.825 24.8301 12.89C24.8825 12.9838 24.9293 13.0806 24.9701 13.18L25.4701 14.5Z" fill="#FFFEFE"/>
<path d="M32.1202 13.1601C32.1489 13.3995 32.2165 13.6325 32.3202 13.8501C32.352 13.9159 32.4017 13.9714 32.4636 14.0103C32.5255 14.0492 32.5971 14.0699 32.6702 14.0701V14.2001C32.5285 14.2445 32.3787 14.2567 32.2316 14.236C32.0846 14.2152 31.9441 14.162 31.8202 14.0801C31.5949 13.8715 31.4558 13.5861 31.4302 13.2801L31.1002 11.4601L30.4602 14.3601H30.2902L28.4202 11.8401L28.9302 14.6501H28.6702L28.0502 11.3001L28.6802 11.1801L30.3902 13.4801L31.0002 10.7601L31.6802 10.6401L32.1202 13.1601Z" fill="#FFFEFE"/>
<path d="M34.6402 12.2401C34.6619 11.9942 34.7262 11.754 34.8302 11.5301C34.9333 11.3298 35.0722 11.1502 35.2402 11.0001C35.413 10.8574 35.6092 10.7458 35.8202 10.6701C36.0534 10.6004 36.2979 10.5766 36.5402 10.6001C36.7833 10.623 37.0187 10.698 37.2302 10.8201C37.4247 10.9274 37.595 11.0738 37.7302 11.2501C37.8644 11.437 37.9627 11.6473 38.0202 11.8701C38.065 12.1114 38.065 12.3588 38.0202 12.6001C38.0016 12.8067 37.951 13.0091 37.8702 13.2001C37.8014 13.3784 37.7034 13.544 37.5802 13.6901C37.4603 13.833 37.3144 13.9518 37.1502 14.0401C36.9869 14.1359 36.8071 14.2003 36.6202 14.2301C36.6538 14.3628 36.7114 14.4882 36.7902 14.6001C36.8635 14.7198 36.9545 14.8277 37.0602 14.9201C37.163 15.0037 37.2735 15.0773 37.3902 15.1401C37.496 15.1969 37.6112 15.2341 37.7302 15.2501V15.3801C37.5309 15.3589 37.3337 15.3221 37.1402 15.2701C36.9427 15.209 36.7518 15.1287 36.5702 15.0301C36.3859 14.9191 36.2119 14.7919 36.0502 14.6501C35.88 14.4879 35.729 14.3067 35.6002 14.1101C35.4274 14.0437 35.2706 13.9415 35.1402 13.8101C35.0028 13.6914 34.8877 13.5492 34.8002 13.3901C34.7179 13.2183 34.6574 13.0369 34.6202 12.8501C34.5949 12.6509 34.5949 12.4493 34.6202 12.2501M37.3302 12.5301C37.3923 12.1248 37.3439 11.7102 37.1902 11.3301C37.1273 11.195 37.0305 11.0786 36.9091 10.9923C36.7877 10.9059 36.646 10.8525 36.4978 10.8374C36.3496 10.8223 36.2 10.8459 36.0637 10.906C35.9274 10.9661 35.809 11.0605 35.7202 11.1801C35.4934 11.5221 35.3654 11.92 35.3502 12.3301C35.2837 12.732 35.3322 13.1446 35.4902 13.5201C35.5516 13.6552 35.6473 13.7719 35.7679 13.8586C35.8884 13.9452 36.0295 13.9988 36.1771 14.014C36.3248 14.0291 36.4739 14.0054 36.6095 13.945C36.7451 13.8847 36.8626 13.7899 36.9502 13.6701C37.1895 13.3323 37.3282 12.9335 37.3502 12.5201L37.3302 12.5301Z" fill="#FFFEFE"/>
<path d="M39.6202 13.3798C39.5322 13.6665 39.5322 13.973 39.6202 14.2598C39.6543 14.3754 39.7187 14.4799 39.8065 14.5625C39.8944 14.6451 40.0026 14.7028 40.1202 14.7298C40.2564 14.7844 40.4037 14.8057 40.5499 14.7918C40.696 14.7778 40.8367 14.7292 40.9602 14.6498C41.2222 14.4106 41.4038 14.0962 41.4802 13.7498L42.0002 11.8898L42.2502 11.9598L41.7002 13.8298C41.6393 14.0432 41.5519 14.2481 41.4402 14.4398C41.3494 14.5999 41.2228 14.7369 41.0702 14.8398C40.9246 14.9386 40.7556 14.9972 40.5802 15.0098C40.3604 15.0255 40.1396 14.9983 39.9302 14.9298C39.0002 14.6598 38.7102 13.9998 39.0002 12.9998L39.3602 11.7898C39.3866 11.6645 39.3866 11.5351 39.3602 11.4098C39.3602 11.2998 39.2602 11.2298 39.1102 11.1798L39.1602 11.0298L39.7102 11.1998C39.7854 11.2156 39.8568 11.2462 39.9202 11.2898C39.9676 11.3309 40.0052 11.3822 40.0302 11.4398C40.0407 11.5127 40.0407 11.5868 40.0302 11.6598C40.0273 11.7736 40.0173 11.8872 40.0002 11.9998L39.6202 13.3798Z" fill="#FFFEFE"/>
<path d="M44.5002 16.09C44.4731 16.2321 44.4731 16.3779 44.5002 16.52C44.5417 16.6344 44.6188 16.7326 44.7202 16.8L44.6602 16.92H44.5402L44.4202 16.87C44.3404 16.8286 44.2636 16.7818 44.1902 16.73C44.1059 16.6758 44.0343 16.6042 43.9802 16.52C43.9144 16.4287 43.8638 16.3274 43.8302 16.22C43.8083 16.0842 43.8083 15.9458 43.8302 15.81V15.49L42.5802 14.87L41.7702 15.53L41.5302 15.41L44.4802 13L44.6902 13.11L44.5002 16.09ZM42.8102 14.67L43.8802 15.19L44.0002 13.71L42.8102 14.67Z" fill="#FFFEFE"/>
<path d="M47.1801 18.4499L47.0401 18.6399L45.0001 17.1999L46.6101 14.9399C46.6904 14.84 46.7483 14.7241 46.7801 14.5999C46.7801 14.4899 46.7801 14.3999 46.6201 14.3099L46.7101 14.1899L47.2201 14.5499C47.2808 14.5954 47.3346 14.6493 47.3801 14.7099C47.4179 14.7625 47.4388 14.8253 47.4401 14.8899C47.4365 14.9636 47.416 15.0355 47.3801 15.0999C47.3301 15.1971 47.2733 15.2907 47.2101 15.3799L45.7101 17.3999L47.1801 18.4499Z" fill="#FFFEFE"/>
<path d="M49.6801 16.4199L50.1801 16.8799L48.3201 18.8799C48.2336 18.9785 48.1628 19.0898 48.1101 19.2099C48.1101 19.3099 48.1101 19.4099 48.2401 19.5199L48.1301 19.6399L47.6701 19.2199C47.6087 19.1704 47.5578 19.1092 47.5201 19.0399C47.4995 18.9817 47.4995 18.9182 47.5201 18.8599C47.5309 18.788 47.5583 18.7195 47.6001 18.6599C47.6627 18.5675 47.7329 18.4806 47.8101 18.3999L49.6801 16.4199Z" fill="#FFFEFE"/>
<path d="M52.9101 19.81L52.7301 19.96L52.0001 19.14L49.5801 21.25L49.1301 20.74L51.5601 18.63L51.3101 18.34C51.2108 18.2204 51.0729 18.1391 50.9201 18.11C50.831 18.104 50.7417 18.1179 50.6586 18.1508C50.5756 18.1836 50.5009 18.2346 50.4401 18.3L50.3401 18.19L50.6701 17.89L50.8001 17.81C50.8492 17.7964 50.9011 17.7964 50.9501 17.81C51.0027 17.7973 51.0576 17.7973 51.1101 17.81C51.1738 17.8474 51.2312 17.8947 51.2801 17.95L52.9101 19.81Z" fill="#FFFEFE"/>
<path d="M53.0001 22.9998H54.9401L55.1101 23.2898H52.8501L51.5501 24.0898L51.1901 23.5098L52.3701 22.7898L53.0701 21.2698L53.1601 21.0398C53.1883 20.9587 53.2084 20.8749 53.2201 20.7898C53.2296 20.7135 53.2296 20.6362 53.2201 20.5598C53.2141 20.4941 53.1972 20.4299 53.1701 20.3698L53.2601 20.3198L53.5601 20.7998C53.6105 20.8789 53.6445 20.9673 53.6601 21.0598C53.6748 21.1526 53.6748 21.2471 53.6601 21.3398C53.6342 21.5096 53.5837 21.6747 53.5101 21.8298L53.0001 22.9998Z" fill="#FFFEFE"/>
<path d="M15.8302 48.7102L17.8302 47.3102L17.9802 47.5202L15.1502 49.5202L15.0102 49.3202L15.8102 46.0002L13.7002 47.5002L13.5502 47.2902L15.8502 45.6502L15.9902 45.5302C16.0244 45.4846 16.0514 45.434 16.0702 45.3802C16.085 45.3211 16.085 45.2592 16.0702 45.2002C16.0605 45.1295 16.0367 45.0614 16.0002 45.0002L16.1302 44.9102L16.3502 45.2102C16.4465 45.3427 16.5177 45.4919 16.5602 45.6502C16.595 45.7778 16.595 45.9125 16.5602 46.0402L15.8302 48.7102Z" fill="#FFFEFE"/>
<path d="M18.3101 51.93C18.2501 52.0618 18.2194 52.2051 18.2201 52.35C18.2133 52.47 18.2526 52.5881 18.3301 52.68L18.2301 52.77L18.1401 52.7L18.0401 52.62C17.9754 52.5542 17.9152 52.4841 17.8601 52.41C17.805 52.3262 17.7613 52.2354 17.7301 52.14C17.7093 52.031 17.7093 51.919 17.7301 51.81C17.742 51.6722 17.7757 51.5372 17.8301 51.41L17.9501 51.11L16.9501 50.11L15.9501 50.48L15.7701 50.3L19.2901 49L19.4601 49.16L18.3101 51.93ZM17.1701 50L18.0101 50.84L18.5601 49.46L17.1701 50Z" fill="#FFFEFE"/>
<path d="M22.7601 51.8401L22.6201 52.0301L21.7501 51.3701L19.8101 53.9401L19.2701 53.5301L21.2001 51.0001L20.9101 50.7801C20.7861 50.6792 20.63 50.626 20.4701 50.6301C20.3831 50.6446 20.3004 50.6781 20.2278 50.7282C20.1552 50.7784 20.0945 50.8439 20.0501 50.9201L19.9201 50.8301L20.1901 50.4701C20.2216 50.4286 20.2586 50.3916 20.3001 50.3601C20.3376 50.3273 20.3821 50.3033 20.4301 50.2901C20.4969 50.2812 20.5647 50.2873 20.6288 50.3081C20.6928 50.3288 20.7514 50.3637 20.8001 50.4101L22.7601 51.8401Z" fill="#FFFEFE"/>
<path d="M22.8301 54.29C22.676 54.5457 22.6028 54.842 22.6201 55.14C22.6313 55.2616 22.6741 55.3783 22.7442 55.4782C22.8144 55.5782 22.9095 55.6581 23.0201 55.71C23.1459 55.7837 23.2862 55.8291 23.4313 55.8429C23.5764 55.8567 23.7228 55.8387 23.8601 55.79C24.1632 55.608 24.4012 55.335 24.5401 55.01L25.4501 53.29L25.6801 53.41L24.7701 55.14C24.668 55.3336 24.5439 55.5148 24.4001 55.68C24.2936 55.8164 24.1566 55.926 24.0001 56C23.8371 56.0726 23.6575 56.1002 23.4801 56.08C23.2618 56.0511 23.0511 55.9797 22.8601 55.87C22.0201 55.43 21.8601 54.75 22.3301 53.87L22.9201 52.75C22.9916 52.6391 23.0329 52.5116 23.0401 52.38C23.0401 52.28 22.9801 52.19 22.8401 52.11L22.9201 51.98L23.4301 52.25C23.4988 52.2798 23.5602 52.3242 23.6101 52.38C23.6563 52.4252 23.6847 52.4856 23.6901 52.55C23.7083 52.6222 23.7083 52.6978 23.6901 52.77C23.6538 52.8696 23.6104 52.9666 23.5601 53.06L22.8301 54.29Z" fill="#FFFEFE"/>
<path d="M26.7301 55.7799L26.5301 55.7099L26.0301 57.2099L25.3801 56.9999L26.2501 54.3699C26.2964 54.2488 26.3168 54.1193 26.3101 53.9899C26.3101 53.8899 26.2201 53.8099 26.0701 53.7599H26.0201L26.0701 53.6099L27.4401 54.0699L27.7001 54.1699L27.9801 54.3099C28.0708 54.3675 28.1577 54.431 28.2401 54.4999C28.3151 54.5737 28.3791 54.6579 28.4301 54.7499C28.4841 54.8454 28.5181 54.9508 28.5301 55.0599C28.5368 55.1852 28.5199 55.3108 28.4801 55.4299C28.4428 55.5448 28.3815 55.6505 28.3001 55.7399C28.2216 55.8156 28.1302 55.8765 28.0301 55.9199C27.9274 55.9585 27.8196 55.9821 27.7101 55.9899H27.4001L27.6301 56.9899C27.6531 57.0995 27.6866 57.2067 27.7301 57.3099C27.7566 57.3879 27.7936 57.4619 27.8401 57.5299C27.875 57.5777 27.9153 57.6213 27.9601 57.6599C27.9897 57.6952 28.0274 57.7226 28.0701 57.7399L28.0201 57.8699C27.9704 57.8774 27.9198 57.8774 27.8701 57.8699H27.6701C27.5846 57.8421 27.5037 57.8016 27.4301 57.7499C27.3515 57.6963 27.2837 57.6285 27.2301 57.5499C27.1647 57.4568 27.111 57.356 27.0701 57.2499C27.0202 57.1129 26.9801 56.9725 26.9501 56.8299L26.7301 55.7799ZM27.3801 54.2399H27.2601H27.1501H27.0401L26.5901 55.5799L26.8901 55.6799C26.9732 55.6893 27.0571 55.6893 27.1401 55.6799C27.2258 55.6989 27.3145 55.6989 27.4001 55.6799C27.4859 55.6462 27.5617 55.5911 27.6201 55.5199C27.7004 55.4313 27.7586 55.3251 27.7901 55.2099C27.8298 55.1011 27.8468 54.9854 27.8401 54.8699C27.8303 54.7757 27.8032 54.6842 27.7601 54.5999C27.7141 54.5306 27.6566 54.4697 27.5901 54.4199C27.5326 54.3467 27.4612 54.2855 27.3801 54.2399Z" fill="#FFFEFE"/>
<path d="M31.5602 57.8299C31.5868 57.9741 31.6449 58.1106 31.7302 58.2299C31.7937 58.3326 31.8937 58.4076 32.0102 58.4399V58.5699H31.8902H31.7602L31.5002 58.5099C31.4044 58.4753 31.3136 58.4282 31.2302 58.3699C31.1393 58.2931 31.0616 58.2019 31.0002 58.0999C30.9237 57.9807 30.8695 57.8485 30.8402 57.7099L30.7702 57.4099L29.3902 57.1699L28.8102 58.0499H28.5502L30.6402 54.8999H30.8702L31.5602 57.8299ZM29.5602 56.9599L30.7302 57.1599L30.3802 55.7099L29.5602 56.9599Z" fill="#FFFEFE"/>
<path d="M35.3802 58.38V58.61H32.8902V55.84C32.8945 55.7074 32.8742 55.5752 32.8302 55.45C32.8302 55.36 32.6902 55.31 32.5302 55.31V55.15H33.1602C33.233 55.1375 33.3073 55.1375 33.3801 55.15C33.4384 55.1785 33.4896 55.2194 33.5302 55.27C33.5728 55.332 33.597 55.4048 33.6002 55.48C33.6118 55.5863 33.6118 55.6936 33.6002 55.8V58.34L35.3802 58.38Z" fill="#FFFEFE"/>
<path d="M38.3501 54.71H38.6201H38.9301C39.0381 54.7168 39.1452 54.7335 39.2501 54.76C39.3605 54.7841 39.4655 54.8282 39.5601 54.89C39.6568 54.9514 39.7387 55.0333 39.8001 55.13C39.877 55.2479 39.9281 55.3808 39.9501 55.52C39.9757 55.6487 39.9757 55.7812 39.9501 55.91C39.9279 56.0209 39.8837 56.1263 39.8201 56.22C39.7606 56.3027 39.69 56.3767 39.6101 56.44C39.5339 56.5037 39.4499 56.5575 39.3601 56.6C39.2817 56.6444 39.1976 56.6781 39.1101 56.7H38.9201L38.4301 56.8L38.7101 58.17L38.0501 58.31L37.4801 55.59C37.4593 55.4646 37.4115 55.3451 37.3401 55.24C37.2801 55.15 37.1701 55.13 37.0201 55.16H37.0001V55L38.3501 54.71ZM38.3501 54.92H38.2201H38.1201H38.0201L38.3401 56.49L38.6501 56.43C38.7369 56.4106 38.8209 56.3803 38.9001 56.34C38.9766 56.2999 39.0419 56.2415 39.0901 56.17C39.1486 56.0831 39.1863 55.9838 39.2001 55.88C39.2277 55.6097 39.1719 55.3375 39.0401 55.1C38.9859 55.0157 38.9143 54.9441 38.8301 54.89C38.7636 54.84 38.6832 54.8121 38.6001 54.81C38.5278 54.8353 38.4602 54.8724 38.4001 54.92H38.3501Z" fill="#FFFEFE"/>
<path d="M41.8002 55.6899L41.6002 55.7599L42.1502 57.2399L41.5002 57.4799L40.5002 54.8799C40.4567 54.7544 40.3887 54.6389 40.3002 54.5399C40.2507 54.5088 40.1935 54.4924 40.1352 54.4924C40.0768 54.4924 40.0196 54.5088 39.9702 54.5399H39.9202V54.3899L41.2702 53.8899L41.5402 53.8099C41.6378 53.7794 41.7383 53.7593 41.8402 53.7499C41.9466 53.7403 42.0537 53.7403 42.1602 53.7499C42.2679 53.7552 42.3734 53.7824 42.4702 53.8299C42.5715 53.8708 42.6634 53.9321 42.7402 54.0099C42.8272 54.1006 42.8922 54.2101 42.9302 54.3299C42.9582 54.4483 42.9582 54.5716 42.9302 54.6899C42.9229 54.7968 42.8885 54.9001 42.8302 54.9899C42.7774 55.0835 42.7098 55.1679 42.6302 55.2399L42.3902 55.4399L43.2202 56.0999C43.3039 56.1746 43.3943 56.2416 43.4902 56.2999C43.5638 56.3398 43.6408 56.3732 43.7202 56.3999H43.8902H44.0302V56.5199C43.996 56.5614 43.951 56.5925 43.9002 56.6099L43.7202 56.6999C43.6366 56.7301 43.5489 56.7469 43.4602 56.7499C43.3679 56.7696 43.2725 56.7696 43.1802 56.7499C43.0678 56.7222 42.96 56.6785 42.8602 56.6199C42.7342 56.5418 42.6139 56.4549 42.5002 56.3599L41.8002 55.6899ZM41.3502 54.0799C41.3079 54.0904 41.2674 54.1073 41.2302 54.1299H41.1302H41.0402L41.5302 55.4599L41.8202 55.3599C41.9022 55.327 41.9796 55.2832 42.0502 55.2299C42.1192 55.1788 42.177 55.1142 42.2202 55.0399C42.2667 54.9576 42.2909 54.8645 42.2902 54.7699C42.2973 54.6534 42.2767 54.5369 42.2302 54.4299C42.1986 54.3176 42.1403 54.2147 42.0602 54.1299C41.9953 54.0614 41.917 54.007 41.8302 53.9699C41.7475 53.9555 41.6629 53.9555 41.5802 53.9699C41.4985 53.995 41.4209 54.032 41.3502 54.0799Z" fill="#FFFEFE"/>
<path d="M43.9101 54.7201C43.7849 54.5075 43.7002 54.2735 43.6601 54.0301C43.5949 53.6855 43.6412 53.3292 43.7923 53.0127C43.9433 52.6962 44.1912 52.4361 44.5001 52.2701C44.7094 52.1493 44.9405 52.0711 45.1801 52.0401C45.4059 52.0182 45.6337 52.042 45.8501 52.1101C46.0646 52.1845 46.2644 52.2962 46.4401 52.4401C46.6246 52.6027 46.7802 52.7954 46.9001 53.0101C47.0253 53.2227 47.11 53.4566 47.1501 53.7001C47.1954 53.9211 47.1954 54.1491 47.1501 54.3701C47.1007 54.5908 47.0052 54.7987 46.8701 54.9801C46.7238 55.1717 46.5401 55.3316 46.3301 55.4501C46.1193 55.5754 45.8839 55.6538 45.6401 55.6801C45.4183 55.7058 45.1936 55.6854 44.9801 55.6201C44.7614 55.5482 44.558 55.4363 44.3801 55.2901C44.1979 55.1253 44.0427 54.933 43.9201 54.7201M46.2901 53.3701C46.1034 53.0013 45.82 52.6902 45.4701 52.4701C45.3403 52.4006 45.195 52.3651 45.0478 52.3671C44.9005 52.369 44.7562 52.4083 44.6283 52.4813C44.5004 52.5542 44.3931 52.6584 44.3165 52.7842C44.2398 52.9099 44.1963 53.053 44.1901 53.2001C44.2045 53.6134 44.3325 54.0148 44.5601 54.3601C44.7403 54.7275 45.0212 55.0362 45.3701 55.2501C45.4959 55.3291 45.6415 55.371 45.7901 55.371C45.9387 55.371 46.0843 55.3291 46.2101 55.2501C46.3422 55.18 46.4523 55.0746 46.5282 54.9458C46.604 54.817 46.6428 54.6696 46.6401 54.5201C46.6327 54.1102 46.5078 53.711 46.2801 53.3701H46.2901Z" fill="#FFFEFE"/>
<path d="M47.3302 50.4701C47.5676 50.2631 47.8337 50.0913 48.1202 49.9601C48.3506 49.8465 48.6033 49.7851 48.8602 49.7801C49.0892 49.775 49.3159 49.8265 49.5202 49.9301C49.7377 50.0414 49.9287 50.1983 50.0802 50.3901C50.2363 50.5719 50.3552 50.7825 50.4302 51.0101C50.5095 51.2241 50.5302 51.4554 50.4902 51.6801C50.4565 51.9252 50.3713 52.1604 50.2402 52.3701C50.0835 52.6229 49.8838 52.8462 49.6502 53.0301L48.7802 53.7601L47.0002 51.6401C46.9163 51.5391 46.8146 51.4544 46.7002 51.3901C46.6448 51.3707 46.585 51.368 46.5282 51.3822C46.4713 51.3964 46.4198 51.427 46.3802 51.4701L46.2802 51.3501L47.3302 50.4701ZM47.5102 50.5901L47.4002 50.6901L47.3102 50.7801C47.2893 50.812 47.2659 50.8421 47.2402 50.8701L49.1402 53.1401L49.2402 53.0801C49.3204 53.0285 49.3972 52.9717 49.4702 52.9101C49.6039 52.7994 49.71 52.659 49.7802 52.5001C49.8563 52.3518 49.8941 52.1868 49.8902 52.0201C49.8942 51.8352 49.8601 51.6514 49.7902 51.4801C49.7025 51.2852 49.588 51.1035 49.4502 50.9401C49.3191 50.7739 49.1601 50.6317 48.9802 50.5201C48.8256 50.4193 48.652 50.3512 48.4702 50.3201C48.3053 50.285 48.135 50.285 47.9702 50.3201C47.7983 50.3712 47.6385 50.4562 47.5002 50.5701L47.5102 50.5901Z" fill="#FFFEFE"/>
<path d="M51.4501 49.43C51.6746 49.633 51.952 49.7682 52.2501 49.82C52.3703 49.8306 52.4912 49.8105 52.6014 49.7616C52.7116 49.7126 52.8076 49.6363 52.8801 49.54C52.9858 49.4385 53.0641 49.3119 53.1078 49.1721C53.1515 49.0322 53.1592 48.8836 53.1301 48.74C53.0245 48.4033 52.8099 48.1113 52.5201 47.91L51.0001 46.66L51.1701 46.46L52.6701 47.71C52.8386 47.8511 52.9926 48.0085 53.1301 48.18C53.2363 48.3302 53.3111 48.5002 53.3501 48.68C53.3946 48.8538 53.3946 49.0361 53.3501 49.21C53.2739 49.4146 53.1622 49.6041 53.0201 49.77C52.903 49.9373 52.7489 50.0753 52.5698 50.1735C52.3907 50.2716 52.1914 50.3272 51.9874 50.3359C51.7833 50.3446 51.58 50.3062 51.3932 50.2236C51.2064 50.1411 51.0411 50.0167 50.9101 49.86L49.9101 49.05C49.8167 48.9592 49.7039 48.8908 49.5801 48.85C49.4801 48.85 49.3801 48.85 49.2801 48.99L49.1501 48.89L49.5201 48.45C49.5697 48.3886 49.6309 48.3376 49.7001 48.3C49.7285 48.2873 49.7591 48.2807 49.7901 48.2807C49.8212 48.2807 49.8518 48.2873 49.8801 48.3C49.9515 48.3067 50.0202 48.3307 50.0801 48.37L50.3501 48.56L51.4501 49.43Z" fill="#FFFEFE"/>
<path d="M53.9402 44.0002C53.6806 43.9062 53.3994 43.8888 53.1302 43.9502C52.8854 44.0307 52.6812 44.2027 52.5602 44.4302C52.4836 44.5637 52.4295 44.709 52.4002 44.8602C52.3768 45.0119 52.3941 45.1672 52.4502 45.3102C52.525 45.4863 52.6337 45.646 52.7702 45.7802C52.9617 45.9645 53.177 46.1225 53.4102 46.2502C53.578 46.3484 53.7556 46.4288 53.9402 46.4902C54.112 46.5416 54.2909 46.5653 54.4702 46.5602C54.6385 46.5489 54.8023 46.5012 54.9502 46.4202C55.1105 46.3278 55.242 46.1928 55.3302 46.0302C55.4427 45.8216 55.4979 45.587 55.4902 45.3502C55.4846 45.0961 55.4046 44.8493 55.2602 44.6402L55.4702 44.5502C55.6321 44.8005 55.7188 45.092 55.7202 45.3902C55.7088 45.7052 55.6157 46.0119 55.4502 46.2802C55.3278 46.5018 55.161 46.6959 54.9602 46.8502C54.786 46.9849 54.5847 47.0804 54.3702 47.1302C54.1525 47.1754 53.9278 47.1754 53.7102 47.1302C53.4791 47.0795 53.2568 46.9953 53.0502 46.8802C52.8312 46.7498 52.6353 46.5842 52.4702 46.3902C52.3209 46.2091 52.2057 46.0024 52.1302 45.7802C52.0616 45.5639 52.0378 45.3359 52.0602 45.1102C52.0814 44.873 52.1567 44.6438 52.2802 44.4402C52.4051 44.2031 52.5749 43.9925 52.7802 43.8202C52.9224 43.7086 53.0856 43.627 53.2602 43.5802C53.3877 43.5659 53.5167 43.5902 53.6302 43.6502L54.0202 43.8602L53.9402 44.0002Z" fill="#FFFEFE"/>
<path d="M54.2302 40.2998L54.4502 40.3898L54.0602 41.3898L57.0602 42.5398L56.8202 43.1798L53.8202 42.0298L53.6902 42.3698C53.6312 42.5175 53.6312 42.6821 53.6902 42.8298C53.7279 42.9112 53.7835 42.9831 53.8527 43.0402C53.9219 43.0974 54.0031 43.1382 54.0902 43.1598L54.0402 43.2998L53.6202 43.1498L53.4802 43.0698C53.4351 43.0459 53.3997 43.007 53.3802 42.9598C53.3674 42.9072 53.3674 42.8524 53.3802 42.7998C53.3645 42.7273 53.3645 42.6523 53.3802 42.5798L54.2302 40.2998Z" fill="#FFFEFE"/>
<path d="M28.7001 26.9001L27.8501 26.8801L27.9401 23.3301L27.3601 23.6801L27.2101 23.4701L28.2401 22.5601L28.8101 22.5701L28.7001 26.9001Z" fill="#FFFEFE"/>
<path d="M31.2502 22.4998C31.5251 22.4971 31.7965 22.5624 32.0402 22.6898C32.2548 22.7945 32.4326 22.9619 32.5502 23.1698C32.6867 23.3943 32.7816 23.6416 32.8302 23.8998C32.886 24.2099 32.9094 24.5249 32.9002 24.8398C32.8936 25.1532 32.8534 25.465 32.7802 25.7698C32.7271 26.0237 32.6252 26.2648 32.4802 26.4798C32.342 26.6764 32.1562 26.8346 31.9402 26.9398C31.6875 27.047 31.4145 27.0982 31.1402 27.0898C30.8654 27.0909 30.5944 27.0257 30.3502 26.8998C30.1369 26.7893 29.9573 26.6235 29.8302 26.4198C29.6986 26.1939 29.6073 25.9469 29.5602 25.6898C29.5097 25.3791 29.4863 25.0646 29.4902 24.7498C29.4986 24.4371 29.5354 24.1258 29.6002 23.8198C29.6609 23.5667 29.7658 23.3264 29.9102 23.1098C30.0483 22.9133 30.2341 22.755 30.4502 22.6498C30.7002 22.5342 30.9752 22.4826 31.2502 22.4998ZM31.2502 22.7998C31.1121 22.7991 30.9777 22.8437 30.8675 22.9268C30.7573 23.0099 30.6774 23.1269 30.6402 23.2598C30.4799 23.75 30.4054 24.2643 30.4202 24.7798C30.381 25.2913 30.4317 25.8058 30.5702 26.2998C30.5993 26.4358 30.6733 26.5581 30.7803 26.647C30.8873 26.7359 31.0211 26.7862 31.1602 26.7898C31.2978 26.7889 31.4314 26.7437 31.5413 26.6608C31.6512 26.578 31.7315 26.4619 31.7702 26.3298C31.9281 25.8423 32.0058 25.3323 32.0002 24.8198C32.0405 24.305 31.9898 23.787 31.8502 23.2898C31.7102 22.9998 31.5202 22.7998 31.2402 22.7998H31.2502Z" fill="#FFFEFE"/>
<path d="M35.1901 22.6002C35.4645 22.5923 35.7363 22.6542 35.9801 22.7802C36.1863 22.8967 36.3613 23.0614 36.4901 23.2602C36.6271 23.4835 36.7188 23.7315 36.7601 23.9902C36.8204 24.2996 36.8439 24.6152 36.8301 24.9302C36.8316 25.2435 36.7947 25.5558 36.7201 25.8602C36.6618 26.1171 36.5567 26.3612 36.4101 26.5802C36.2758 26.7739 36.0931 26.929 35.8801 27.0302C35.63 27.1458 35.3551 27.1973 35.0801 27.1802C34.8035 27.1794 34.5304 27.118 34.2801 27.0002C34.0713 26.8828 33.8957 26.7142 33.7701 26.5102C33.631 26.2879 33.5391 26.0395 33.5001 25.7802C33.4398 25.4741 33.4163 25.1619 33.4301 24.8502C33.4286 24.5368 33.4656 24.2245 33.5401 23.9202C33.5985 23.6632 33.7035 23.4191 33.8501 23.2002C33.9883 23.0036 34.1741 22.8453 34.3901 22.7402C34.6423 22.6321 34.9162 22.5842 35.1901 22.6002ZM35.1901 22.8902C35.0512 22.8917 34.9166 22.9384 34.8065 23.0232C34.6965 23.1079 34.617 23.2262 34.5801 23.3602C34.4196 23.8469 34.3452 24.3579 34.3601 24.8702C34.3197 25.3817 34.3705 25.8964 34.5101 26.3902C34.5385 26.5256 34.6106 26.648 34.7154 26.7384C34.8203 26.8288 34.952 26.8821 35.0901 26.8902C35.229 26.8886 35.3637 26.842 35.4737 26.7572C35.5838 26.6724 35.6632 26.5541 35.7001 26.4202C35.8648 25.9342 35.9427 25.4231 35.9301 24.9102C35.9604 24.3988 35.9098 23.8858 35.7801 23.3902C35.7493 23.2523 35.6738 23.1285 35.5652 23.038C35.4567 22.9476 35.3213 22.8956 35.1801 22.8902H35.1901Z" fill="#FFFEFE"/>
<path d="M38.3801 22.7702C38.6538 22.7605 38.9212 22.8532 39.1301 23.0302C39.2221 23.1144 39.2934 23.2186 39.3385 23.3348C39.3836 23.451 39.4013 23.5761 39.3901 23.7002C39.3976 23.8254 39.3752 23.9505 39.3248 24.0652C39.2744 24.18 39.1974 24.2811 39.1001 24.3602C38.8838 24.5271 38.6122 24.6057 38.3401 24.5802C38.062 24.5903 37.7893 24.5017 37.5701 24.3302C37.4786 24.2436 37.4077 24.1376 37.3626 24.0199C37.3176 23.9021 37.2997 23.7758 37.3101 23.6502C37.3086 23.5274 37.3338 23.4056 37.3838 23.2934C37.4339 23.1812 37.5077 23.0812 37.6001 23.0002C37.8264 22.8379 38.1024 22.76 38.3801 22.7802M37.5801 27.1202L40.8501 22.8702H41.5401L38.2701 27.1202H37.5801ZM38.3601 23.0002C38.2887 22.9955 38.2172 23.0075 38.1512 23.0353C38.0852 23.063 38.0267 23.1058 37.9801 23.1602C37.8791 23.2953 37.8295 23.4619 37.8401 23.6302C37.8217 23.798 37.8605 23.9672 37.9501 24.1102C37.9972 24.1679 38.0568 24.214 38.1244 24.2452C38.1919 24.2764 38.2657 24.2918 38.3401 24.2902C38.4131 24.2958 38.4864 24.2842 38.5541 24.2564C38.6218 24.2286 38.6821 24.1854 38.7301 24.1302C38.8282 23.9937 38.8775 23.8282 38.8701 23.6602C38.8864 23.4912 38.844 23.3217 38.7501 23.1802C38.7031 23.1226 38.6435 23.0764 38.5759 23.0452C38.5083 23.014 38.4345 22.9986 38.3601 23.0002ZM40.7901 25.3802C41.0666 25.3718 41.3367 25.4642 41.5501 25.6402C41.6421 25.7244 41.7134 25.8286 41.7585 25.9448C41.8036 26.061 41.8213 26.1861 41.8101 26.3102C41.8133 26.4358 41.788 26.5604 41.736 26.6747C41.684 26.789 41.6068 26.8901 41.5101 26.9702C41.2938 27.1371 41.0222 27.2157 40.7501 27.1902C40.4855 27.218 40.2196 27.1506 40.0001 27.0002C39.9128 26.9129 39.8434 26.8093 39.7961 26.6952C39.7488 26.581 39.7245 26.4587 39.7245 26.3352C39.7245 26.2117 39.7488 26.0894 39.7961 25.9753C39.8434 25.8612 39.9128 25.7575 40.0001 25.6702C40.2223 25.4889 40.5037 25.3963 40.7901 25.4102V25.3802ZM40.7901 25.6402C40.7172 25.6347 40.6439 25.6463 40.5762 25.674C40.5085 25.7018 40.4482 25.745 40.4001 25.8002C40.2991 25.9353 40.2495 26.1019 40.2601 26.2702C40.2406 26.4426 40.2832 26.6163 40.3801 26.7602C40.4251 26.8171 40.4831 26.8622 40.5493 26.8918C40.6155 26.9214 40.6878 26.9346 40.7601 26.9302C40.8321 26.9348 40.9042 26.9238 40.9716 26.8979C41.0389 26.872 41.0998 26.8319 41.1501 26.7802C41.2511 26.6413 41.3006 26.4716 41.2901 26.3002C41.3109 26.1309 41.2681 25.9599 41.1701 25.8202C41.1198 25.7686 41.0589 25.7284 40.9916 25.7025C40.9242 25.6766 40.8521 25.6656 40.7801 25.6702L40.7901 25.6402Z" fill="#FFFEFE"/>
<path d="M16.7701 31.6701C16.7385 31.6506 16.7022 31.6403 16.6651 31.6403C16.628 31.6403 16.5916 31.6506 16.5601 31.6701C16.4874 31.6837 16.4128 31.6837 16.3401 31.6701H16.0601C15.8117 31.7206 15.5723 31.8082 15.3501 31.9301C15.2761 31.9641 15.1991 31.9909 15.1201 32.0101C15.0938 32.0443 15.0606 32.0727 15.0227 32.0933C14.9849 32.114 14.9431 32.1265 14.9001 32.1301C14.8005 32.1543 14.7034 32.1877 14.6101 32.2301C14.4101 32.3001 14.3001 32.4501 14.1301 32.5301C13.9079 32.648 13.7055 32.7998 13.5301 32.9801C13.3901 33.0901 13.2201 33.1601 13.0901 33.2701C12.9601 33.3801 12.8801 33.3801 12.8501 33.4701C12.8201 33.5601 12.6701 33.6501 12.5701 33.7201C12.4701 33.7901 12.5701 33.7701 12.4901 33.7801C12.4395 33.8207 12.3985 33.8719 12.3701 33.9301C12.3701 33.9801 12.2701 34.0201 12.2401 34.0601C12.198 34.1608 12.1369 34.2525 12.0601 34.3301C11.9704 34.3988 11.8984 34.488 11.8501 34.5901C11.8136 34.6524 11.7735 34.7125 11.7301 34.7701C11.5808 34.9352 11.4744 35.1343 11.4201 35.3501C11.4201 35.3501 11.4201 35.4701 11.3701 35.5301C11.3151 35.6585 11.2748 35.7927 11.2501 35.9301C11.2353 36.0597 11.2353 36.1905 11.2501 36.3201C11.2565 36.4563 11.2953 36.5889 11.3631 36.7071C11.4309 36.8254 11.5258 36.9258 11.6401 37.0001C11.7457 37.069 11.869 37.1056 11.9951 37.1056C12.1211 37.1056 12.2445 37.069 12.3501 37.0001C12.6031 36.923 12.8402 36.801 13.0501 36.6401C13.0925 36.6062 13.1326 36.5695 13.1701 36.5301C13.3326 36.3969 13.4862 36.2533 13.6301 36.1001C13.7088 35.9875 13.7993 35.8835 13.9001 35.7901C13.9601 35.6801 14.0601 35.6001 14.1201 35.4801C14.1269 35.4607 14.1269 35.4395 14.1201 35.4201C14.1201 35.2101 14.3101 35.1201 14.4201 34.9801C14.4388 34.9485 14.4643 34.9215 14.4947 34.9009C14.5251 34.8803 14.5597 34.8666 14.596 34.8609C14.6323 34.8552 14.6694 34.8575 14.7046 34.8677C14.7399 34.878 14.7725 34.8959 14.8001 34.9201C14.8341 34.9296 14.8645 34.9489 14.8876 34.9756C14.9107 35.0022 14.9255 35.0351 14.9301 35.0701C14.9654 35.1771 14.9747 35.2909 14.9573 35.4022C14.9399 35.5135 14.8963 35.619 14.8301 35.7101C14.7201 35.8501 14.6401 36.0101 14.5501 36.1301C14.4601 36.2501 14.3201 36.4701 14.1401 36.5801C14.0559 36.6396 13.9872 36.7185 13.9401 36.8101C13.7332 37.0458 13.4942 37.2511 13.2301 37.4201C13.013 37.5681 12.7731 37.6795 12.5201 37.7501L12.2501 37.8401C12.1332 37.8709 12.011 37.8762 11.892 37.8555C11.7729 37.8347 11.6597 37.7886 11.5601 37.7201C11.4201 37.7201 11.3301 37.6201 11.2501 37.5201C11.1701 37.4201 11.1401 37.4101 11.0801 37.3801C10.8579 37.1721 10.7074 36.899 10.6501 36.6001C10.6146 36.4835 10.5977 36.362 10.6001 36.2401C10.6001 36.0501 10.6001 35.8701 10.6001 35.6701C10.6083 35.4444 10.6385 35.22 10.6901 35.0001C10.7512 34.79 10.8569 34.5956 11.0001 34.4301C10.9501 34.2301 11.1001 34.1501 11.1701 34.0401C11.2716 33.857 11.3887 33.6831 11.5201 33.5201C11.6001 33.4401 11.6201 33.3401 11.6701 33.2801C11.7201 33.2201 11.6701 33.2301 11.6701 33.2201C11.7728 33.1365 11.8833 33.0628 12.0001 33.0001C12.0001 33.0001 12.0001 33.0001 12.0001 32.9501C12.0893 32.7629 12.232 32.6063 12.4101 32.5001L12.5601 32.3601C12.5601 32.3601 12.5601 32.3101 12.6301 32.3101C12.7001 32.3101 12.7901 32.1601 12.8801 32.0701C12.9189 32.0313 12.9626 31.9977 13.0101 31.9701C13.0957 31.9315 13.1711 31.8732 13.2301 31.8001C13.2756 31.7288 13.3475 31.6785 13.4301 31.6601C13.4301 31.6601 13.5201 31.6101 13.5601 31.5501C13.6979 31.4818 13.823 31.3905 13.9301 31.2801C13.9493 31.2434 13.9813 31.2149 14.0201 31.2001C14.1841 31.0848 14.3581 30.9843 14.5401 30.9001C14.6166 30.8642 14.6874 30.817 14.7501 30.7601C14.8955 30.6514 15.0576 30.567 15.2301 30.5101C15.2751 30.4671 15.3255 30.4301 15.3801 30.4001C15.5501 30.2801 15.8101 30.2901 15.9501 30.1201C16.0069 30.0836 16.0725 30.0629 16.1401 30.0601C16.3101 30.0601 16.4501 30.0101 16.6001 30.0001C16.7501 29.9901 16.8301 30.0001 16.9401 30.0001C17.0785 30.0298 17.2216 30.0298 17.3601 30.0001C17.4161 29.9882 17.474 29.9882 17.5301 30.0001C17.6701 30.0601 17.7801 30.0801 17.9201 30.1301C18.0601 30.1801 18.0101 30.2201 18.0701 30.2901C18.12 30.2664 18.1767 30.2614 18.23 30.2761C18.2832 30.2908 18.3294 30.3242 18.3601 30.3701C18.4385 30.4397 18.522 30.5032 18.6101 30.5601C18.6101 30.5601 18.6601 30.6201 18.6601 30.6501C18.6601 30.6801 18.6601 30.8701 18.8201 30.9301C18.9801 30.9901 18.8701 31.0401 18.9001 31.1101C18.896 31.1433 18.896 31.1769 18.9001 31.2101C18.9001 31.3201 18.9501 31.3401 19.0401 31.3501C19.0551 31.4585 19.0889 31.5634 19.1401 31.6601C19.144 31.7034 19.144 31.7469 19.1401 31.7901C19.1042 31.8806 19.0774 31.9744 19.0601 32.0701V32.1401C19.0453 32.3832 19.0453 32.627 19.0601 32.8701C19.0601 33.0201 19.0601 33.1501 19.0601 33.3101C19.0601 33.4701 19.0601 33.3101 19.0601 33.3701C19.0764 33.4477 19.074 33.5281 19.0532 33.6046C19.0323 33.6811 18.9935 33.7515 18.9401 33.8101C18.8843 33.9034 18.8598 34.012 18.8701 34.1201C18.8855 34.1919 18.8772 34.2667 18.8466 34.3334C18.8159 34.4001 18.7645 34.4551 18.7001 34.4901C18.7001 34.6301 18.6101 34.7801 18.7001 34.9201C18.7901 35.0601 18.7001 35.0401 18.6101 35.0801L18.5401 35.1501C18.4701 35.2801 18.3601 35.3701 18.3701 35.5301C18.3665 35.593 18.3419 35.6529 18.3001 35.7001C18.2083 35.808 18.108 35.9083 18.0001 36.0001C17.9924 36.0228 17.9924 36.0474 18.0001 36.0701C17.9975 36.2666 17.9228 36.4552 17.7901 36.6001C17.7901 36.6701 17.6901 36.7201 17.6301 36.8101C17.5896 36.8973 17.5562 36.9876 17.5301 37.0801C17.4932 37.1311 17.4598 37.1846 17.4301 37.2401C17.4301 37.2401 17.4301 37.2401 17.4301 37.3001C17.4062 37.4032 17.3582 37.4991 17.2901 37.5801C17.2901 37.6601 17.2301 37.7601 17.1801 37.8801C17.1801 37.8801 17.3501 37.6601 17.4501 37.5701L17.6501 37.2801C17.7701 37.1401 17.8601 37.0101 17.9701 36.8901C18.0801 36.7701 18.2201 36.5801 18.3401 36.4101C18.4601 36.2401 18.6301 36.0501 18.7801 35.8801C18.7973 35.8369 18.8209 35.7964 18.8501 35.7601C18.8501 35.7601 18.8501 35.6701 18.8501 35.6701C19.0201 35.5901 19.0701 35.3901 19.2101 35.2701C19.3501 35.1501 19.6001 34.7901 19.7901 34.5401C19.9801 34.2901 20.1201 34.1401 20.2901 33.9501C20.3155 33.928 20.3359 33.9007 20.3501 33.8701C20.5393 33.6774 20.7132 33.47 20.8701 33.2501C20.9501 33.1901 21.0101 33.1101 21.0801 33.0501C21.1501 32.9901 21.3301 32.7901 21.4401 32.6601C21.61 32.4576 21.7902 32.264 21.9801 32.0801C22.1066 31.9337 22.2437 31.7967 22.3901 31.6701C22.53 31.5182 22.6878 31.3839 22.8601 31.2701C22.9818 31.2068 23.0825 31.1095 23.1501 30.9901L23.3801 30.8101L23.8901 30.4501L24.4601 30.1201C24.6443 30.0129 24.8581 29.9673 25.0701 29.9901H25.1801C25.3301 29.9901 25.4101 29.9901 25.5101 30.1301C25.5616 30.1917 25.6185 30.2486 25.6801 30.3001C25.7245 30.3347 25.761 30.3786 25.7869 30.4287C25.8128 30.4787 25.8275 30.5338 25.8301 30.5901C26.0001 30.8501 25.8801 31.1201 25.9001 31.3801C25.8938 31.6021 25.867 31.823 25.8201 32.0401C25.8153 32.0564 25.8153 32.0738 25.8201 32.0901C25.7301 32.3001 25.6801 32.5501 25.6001 32.7901C25.5938 32.8248 25.5762 32.8564 25.5501 32.8801C25.5001 32.8801 25.5501 33.0301 25.4801 33.0901C25.4302 33.2838 25.3454 33.4668 25.2301 33.6301V33.7201C25.1407 33.9266 25.0704 34.1408 25.0201 34.3601C24.9899 34.4345 24.9457 34.5023 24.8901 34.5601C24.7704 34.6984 24.6847 34.8628 24.6401 35.0401C24.5701 35.1801 24.5501 35.3301 24.4101 35.3801C24.2701 35.4301 24.3601 35.4401 24.3601 35.4701C24.3168 35.64 24.2347 35.7975 24.1201 35.9301C24.0588 36.1481 23.968 36.3567 23.8501 36.5501C23.7901 36.6701 23.8001 36.8001 23.6901 36.8701C23.5801 36.9401 23.6401 36.9401 23.6101 36.9901C23.5559 37.2106 23.4646 37.4203 23.3401 37.6101C23.2338 37.7498 23.1494 37.9049 23.0901 38.0701C23.0001 38.2001 22.9901 38.3301 22.9101 38.4201C22.9147 38.4398 22.9147 38.4604 22.9101 38.4801C22.7601 38.5801 22.7601 38.7801 22.7001 38.9301C22.6401 39.0801 22.6401 39.1401 22.5901 39.2501C22.6669 39.1982 22.7471 39.1514 22.8301 39.1101C23.1361 38.8759 23.4175 38.6112 23.6701 38.3201C23.8664 38.0498 24.0802 37.7926 24.3101 37.5501C24.4201 37.4201 24.4901 37.3001 24.5901 37.1901C24.7196 37.0149 24.8599 36.848 25.0101 36.6901C25.0579 36.6223 25.1114 36.5588 25.1701 36.5001C25.3401 36.3201 26.3101 35.1101 26.4901 34.9401C26.5041 34.9233 26.5217 34.9098 26.5416 34.9005C26.5615 34.8912 26.5831 34.8864 26.6051 34.8864C26.627 34.8864 26.6487 34.8912 26.6685 34.9005C26.6884 34.9098 26.706 34.9233 26.7201 34.9401C26.7493 34.9679 26.771 35.0027 26.7833 35.0411C26.7955 35.0796 26.7978 35.1205 26.7901 35.1601C26.778 35.2006 26.7576 35.2381 26.7301 35.2701C26.5801 35.4401 26.4301 35.6101 26.3201 35.7601C26.2101 35.9101 25.1701 37.2301 25.0401 37.4501C24.9101 37.6701 24.6801 37.8901 24.5101 38.1101C24.3401 38.3301 24.0801 38.7101 23.8601 38.9801C23.6401 39.2501 23.5601 39.3201 23.4201 39.4901C23.2629 39.6472 23.0959 39.7942 22.9201 39.9301C22.8718 39.9764 22.818 40.0167 22.7601 40.0501H22.6601C22.6601 40.0501 22.6001 40.1501 22.5601 40.1701C22.3651 40.2566 22.1647 40.3301 21.9601 40.3901C21.8644 40.4095 21.7658 40.4095 21.6701 40.3901C21.6315 40.3854 21.5948 40.371 21.5633 40.3483C21.5319 40.3255 21.5067 40.2952 21.4901 40.2601C21.4596 40.1945 21.411 40.139 21.3501 40.1001C21.3299 40.0846 21.3132 40.065 21.3011 40.0426C21.2891 40.0202 21.2819 39.9955 21.2801 39.9701C21.2425 39.8897 21.2124 39.806 21.1901 39.7201C21.1901 39.5401 21.1901 39.3701 21.1901 39.1801C21.2001 39.1272 21.2001 39.073 21.1901 39.0201C21.1979 38.916 21.225 38.8143 21.2701 38.7201C21.3301 38.6601 21.3301 38.5101 21.3501 38.4201C21.3503 38.2901 21.3848 38.1625 21.4501 38.0501C21.5791 37.8799 21.6649 37.6808 21.7001 37.4701C21.7001 37.4101 21.7001 37.3901 21.7001 37.3601C21.7764 37.2704 21.8312 37.1643 21.8601 37.0501C21.871 36.9223 21.9121 36.7989 21.9801 36.6901L22.1701 36.4001C22.2537 36.2861 22.3148 36.1571 22.3501 36.0201C22.3945 35.8891 22.4623 35.7671 22.5501 35.6601C22.6064 35.5378 22.6733 35.4207 22.7501 35.3101C22.7849 35.28 22.8134 35.2433 22.834 35.2021C22.8546 35.1609 22.8668 35.116 22.8701 35.0701C22.92 34.9326 23.0023 34.8091 23.1101 34.7101C23.1376 34.6876 23.1554 34.6554 23.1601 34.6201C23.1895 34.4785 23.2718 34.3534 23.3901 34.2701C23.4135 34.2333 23.4304 34.1927 23.4401 34.1501C23.4401 34.0101 23.4401 33.9201 23.6001 33.8301C23.668 33.7646 23.7165 33.6815 23.7401 33.5901C23.8001 33.4801 23.8501 33.4201 23.9001 33.3201C23.9501 33.2201 23.9901 33.2201 23.9801 33.1801C24.0445 32.9876 24.1427 32.8082 24.2701 32.6501C24.3125 32.5938 24.3494 32.5336 24.3801 32.4701C24.4092 32.3079 24.4741 32.1541 24.5701 32.0201C24.6549 31.8751 24.7125 31.7158 24.7401 31.5501C24.7401 31.4401 24.8101 31.3601 24.8201 31.2601C24.8301 31.1601 24.8901 31.0201 24.9301 30.9001C24.9701 30.7801 24.8801 30.9001 24.8701 30.9001C24.6843 30.978 24.5039 31.0682 24.3301 31.1701C24.0701 31.3501 23.8001 31.5101 23.5401 31.7101C23.4901 31.7101 23.4601 31.7901 23.4001 31.8201C23.1801 32.0301 22.9501 32.2201 22.7201 32.4001C22.6673 32.464 22.6069 32.5211 22.5401 32.5701C22.4094 32.6788 22.2858 32.7957 22.1701 32.9201C21.9656 33.1099 21.7782 33.3174 21.6101 33.5401C21.5501 33.6201 21.4401 33.6601 21.3801 33.7501C21.3201 33.8401 21.2301 33.9101 21.1801 33.9701C21.1301 34.0301 21.1801 33.9701 21.1301 34.0301C21.0801 34.0901 20.9001 34.2901 20.8001 34.4201C20.7001 34.5501 20.4501 34.8201 20.3101 34.9901C20.1701 35.1601 20.0801 35.2701 19.9701 35.4201C19.8601 35.5701 19.6801 35.7801 19.5301 35.9701L19.4101 36.1401C19.3552 36.1959 19.3051 36.2561 19.2601 36.3201C19.2075 36.3691 19.1636 36.4266 19.1301 36.4901C19.0449 36.608 18.968 36.7316 18.9001 36.8601C18.6953 37.0432 18.5228 37.2596 18.3901 37.5001C18.2806 37.6548 18.1567 37.7988 18.0201 37.9301C17.9201 38.0601 17.8301 38.2301 17.7201 38.3601C17.6489 38.47 17.5686 38.5737 17.4801 38.6701C17.3355 38.8519 17.2019 39.0423 17.0801 39.2401C17.0001 39.3201 16.9601 39.4101 16.8801 39.4901C16.8272 39.5283 16.7857 39.5802 16.7601 39.6401L16.4501 40.0601C16.3001 40.2701 16.1701 40.4901 16.0401 40.6901L15.9601 40.7901C15.8035 40.965 15.6661 41.1561 15.5501 41.3601C15.4401 41.5301 15.2901 41.7201 15.1701 41.8701L14.8701 42.3601C14.8173 42.4115 14.7703 42.4685 14.7301 42.5301C14.5946 42.6874 14.4511 42.8377 14.3001 42.9801C14.3001 43.0301 14.2301 43.0501 14.1601 43.0701H14.0001C13.8559 43.0205 13.7155 42.9603 13.5801 42.8901C13.5366 42.8605 13.5018 42.8199 13.4789 42.7725C13.4561 42.7251 13.4462 42.6726 13.4501 42.6201C13.4365 42.4083 13.4568 42.1956 13.5101 41.9901C13.5391 41.9349 13.5762 41.8844 13.6201 41.8401C13.6801 41.7501 13.7401 41.6801 13.7201 41.5701C13.7001 41.4601 13.7201 41.5701 13.7201 41.5101C13.8041 41.3938 13.862 41.2608 13.8901 41.1201C13.8901 41.1201 13.9501 40.9801 13.9901 40.9501C14.1265 40.821 14.2206 40.6537 14.2601 40.4701C14.3422 40.3295 14.4124 40.1824 14.4701 40.0301C14.6401 39.9201 14.6601 39.7101 14.7701 39.5701C14.8181 39.4909 14.8583 39.4072 14.8901 39.3201C14.9501 39.1901 14.9901 39.0901 15.0401 38.9601C15.0663 38.8709 15.0998 38.7839 15.1401 38.7001C15.136 38.6803 15.136 38.6599 15.1401 38.6401C15.1401 38.5801 15.2101 38.5201 15.2301 38.4601C15.2415 38.3198 15.2824 38.1835 15.3501 38.0601C15.4201 37.9501 15.5001 37.8001 15.5801 37.6801C15.6601 37.5601 15.5801 37.6801 15.5801 37.6201C15.6384 37.4201 15.7224 37.2285 15.8301 37.0501C15.8301 36.9701 15.8301 36.8701 15.9801 36.8001C16.1301 36.7301 15.9801 36.8001 15.9801 36.7401C15.9801 36.6801 15.9801 36.5401 16.0501 36.4901C15.9401 36.3101 16.1101 36.2201 16.1901 36.1301C16.2701 36.0401 16.3101 35.8401 16.3601 35.7001C16.3889 35.5676 16.436 35.4397 16.5001 35.3201C16.5762 35.2328 16.6248 35.1249 16.6401 35.0101C16.6487 34.8954 16.6792 34.7833 16.7301 34.6801C16.7301 34.6801 16.8101 34.6001 16.7301 34.5501C16.6501 34.5001 16.7301 34.5501 16.7301 34.4901C16.9001 34.4201 16.8201 34.2301 16.8901 34.1001C16.9601 33.9701 16.8901 34.0101 16.8901 33.9701C16.8703 33.9117 16.8703 33.8485 16.8901 33.7901C16.9846 33.5827 17.0356 33.358 17.0401 33.1301C17.0247 32.984 17.0453 32.8364 17.1001 32.7001C17.1198 32.6705 17.1304 32.6357 17.1304 32.6001C17.1304 32.5645 17.1198 32.5297 17.1001 32.5001C17.1001 32.5001 17.1001 32.4401 17.1001 32.4101C17.1001 32.3801 17.1001 32.2101 17.1001 32.0801C17.1001 31.9501 17.1001 32.0001 17.1001 31.9601C16.9901 31.7701 16.7901 31.7201 16.6101 31.6301" fill="#FFFEFE"/>
<path d="M28.4301 36.1702C28.357 36.2553 28.2902 36.3456 28.2301 36.4402L27.9101 36.8902C27.8356 36.967 27.7687 37.0508 27.7101 37.1402L27.4501 37.4802C27.3822 37.5714 27.3087 37.6582 27.2301 37.7402C27.121 37.8892 27.0006 38.0296 26.8701 38.1602C26.8076 38.2314 26.7371 38.2951 26.6601 38.3502C26.6073 38.4141 26.5469 38.4712 26.4801 38.5202L26.4001 38.5902C26.293 38.6378 26.1827 38.6779 26.0701 38.7102C26.0109 38.7246 25.9492 38.7246 25.8901 38.7102H25.7701H25.6901C25.6075 38.6544 25.5305 38.5908 25.4601 38.5202C25.3995 38.4685 25.3516 38.4035 25.3201 38.3302C25.3201 38.2702 25.3201 38.2002 25.3201 38.1302V38.0502C25.3201 38.0502 25.2701 37.9702 25.3201 37.9302C25.3499 37.8496 25.3499 37.7609 25.3201 37.6802C25.3201 37.6802 25.3201 37.6102 25.3201 37.5802C25.3201 37.5502 25.3201 37.4902 25.3201 37.4602C25.3087 37.3941 25.3087 37.3264 25.3201 37.2602C25.3201 37.1502 25.3201 37.0702 25.3901 36.9802C25.4601 36.8902 25.3901 36.9202 25.3901 36.9002C25.4007 36.8909 25.4092 36.8793 25.4151 36.8664C25.4209 36.8534 25.4239 36.8394 25.4239 36.8252C25.4239 36.811 25.4209 36.797 25.4151 36.7841C25.4092 36.7712 25.4007 36.7596 25.3901 36.7502C25.3752 36.7244 25.3673 36.6951 25.3673 36.6652C25.3673 36.6354 25.3752 36.6061 25.3901 36.5802C25.3901 36.5802 25.3901 36.5202 25.3901 36.4902C25.4148 36.4267 25.4522 36.3688 25.5001 36.3202L25.6001 36.1502C25.6103 36.1008 25.6103 36.0497 25.6001 36.0002C25.5921 35.9761 25.5928 35.95 25.6019 35.9263C25.611 35.9026 25.628 35.8828 25.6501 35.8702C25.7321 35.8091 25.7889 35.7203 25.8101 35.6202C25.8306 35.6074 25.8476 35.5897 25.8598 35.5688C25.872 35.5479 25.8789 35.5244 25.8801 35.5002C25.8801 35.4102 25.9801 35.3902 26.0501 35.3302C26.0883 35.282 26.1319 35.2384 26.1801 35.2002C26.2361 35.1419 26.2863 35.0783 26.3301 35.0102C26.3801 34.9102 26.5001 34.8802 26.5001 34.7702C26.5001 34.7702 26.6101 34.6602 26.6901 34.6702L26.8001 34.5002C26.8547 34.4226 26.937 34.3689 27.0301 34.3502H27.1001C27.2193 34.2467 27.3645 34.1775 27.5201 34.1502C27.5201 34.1502 27.6001 34.0802 27.6501 34.0802C27.7498 34.09 27.8503 34.09 27.9501 34.0802C27.9954 34.0962 28.0448 34.0962 28.0901 34.0802C28.1701 34.0802 28.2401 34.0802 28.3001 34.1502C28.3526 34.1634 28.4075 34.1634 28.4601 34.1502C28.4937 34.1497 28.5269 34.1577 28.5566 34.1735C28.5863 34.1892 28.6116 34.2122 28.6301 34.2402C28.6301 34.2402 28.6301 34.2402 28.6901 34.2402L28.8001 34.3202H28.8601C28.8601 34.3202 28.8601 34.3202 28.9301 34.3902L29.0701 34.5202C29.0701 34.5202 29.1201 34.4602 29.1401 34.4302L29.2501 34.2402L29.4301 33.9802L29.5101 33.9302C29.5639 33.9013 29.624 33.8862 29.6851 33.8862C29.7461 33.8862 29.8063 33.9013 29.8601 33.9302C29.9581 33.9731 30.0491 34.0304 30.1301 34.1002C30.1227 34.1399 30.1227 34.1806 30.1301 34.2202C30.1901 34.3002 30.1301 34.4002 30.1801 34.5002C30.1699 34.5988 30.1393 34.6942 30.0901 34.7802C30.0901 34.8502 30.0901 34.9302 30.0901 34.9902C30.059 35.0976 30.0044 35.1967 29.9301 35.2802C29.9071 35.2999 29.8888 35.3245 29.8767 35.3522C29.8646 35.3799 29.8589 35.41 29.8601 35.4402C29.8601 35.4402 29.8601 35.5202 29.8601 35.5502C29.8212 35.5927 29.7876 35.6397 29.7601 35.6902C29.7277 35.7262 29.7008 35.7666 29.6801 35.8102C29.6801 35.8702 29.6301 35.9402 29.6001 35.9902C29.5761 36.0429 29.5421 36.0904 29.5001 36.1302C29.5001 36.1302 29.5001 36.1302 29.4501 36.2002C29.4243 36.3026 29.3909 36.4029 29.3501 36.5002C29.3501 36.5902 29.2301 36.6902 29.1901 36.7902C29.1901 36.7902 29.1901 36.9002 29.1401 36.9302C29.0901 36.9602 29.1401 37.0102 29.0901 37.0402C29.0401 37.0702 29.0201 37.1602 28.9801 37.2102C28.9801 37.3002 28.9801 37.3502 28.9301 37.4202C28.8801 37.4902 28.9301 37.4802 28.9301 37.4902C28.9301 37.5002 28.9301 37.5502 28.9301 37.5502C28.9301 37.5502 28.9301 37.7002 28.8601 37.7902C28.8544 37.8334 28.8544 37.8771 28.8601 37.9202C28.8552 38.0102 28.8552 38.1003 28.8601 38.1902C28.8776 38.2762 28.9044 38.36 28.9401 38.4402C29.0013 38.4633 29.0688 38.4633 29.1301 38.4402C29.1901 38.4402 29.2801 38.3702 29.3501 38.3202C29.4089 38.2906 29.4656 38.2572 29.5201 38.2202C29.6201 38.1402 29.7001 38.0002 29.8301 37.9502C29.9601 37.9002 29.8301 37.8702 29.9201 37.8402C30.0872 37.6731 30.2441 37.4961 30.3901 37.3102C30.4681 37.2232 30.5384 37.1295 30.6001 37.0302L30.7601 36.8302L30.8401 36.7402C30.9001 36.6502 30.9701 36.5602 31.0301 36.4602L31.3501 36.0302C31.3501 35.9402 31.4801 35.8802 31.5201 35.8002C31.5444 35.7587 31.5711 35.7187 31.6001 35.6802C31.6525 35.5653 31.7198 35.4577 31.8001 35.3602C31.8826 35.2624 31.9531 35.1549 32.0101 35.0402L32.3401 34.5802C32.3401 34.5802 32.4001 34.4902 32.4201 34.4402C32.4401 34.3902 32.5201 34.3502 32.6101 34.3802C32.6378 34.3979 32.6594 34.4238 32.6719 34.4542C32.6845 34.4846 32.6873 34.5181 32.6801 34.5502C32.6736 34.6155 32.6494 34.6777 32.6101 34.7302L32.2801 35.2102L31.9501 35.7102C31.8601 35.8602 31.7401 36.0202 31.6501 36.1802L31.2901 36.7502C31.1901 36.8902 31.1101 37.0502 31.0101 37.1902L30.8001 37.4702C30.7301 37.5602 30.6801 37.6702 30.6101 37.7602C30.538 37.8391 30.4712 37.9226 30.4101 38.0102L30.2801 38.1502L30.0101 38.4902C29.945 38.5805 29.8714 38.6643 29.7901 38.7402C29.6701 38.8202 29.5601 38.9202 29.4501 39.0102C29.3132 39.1227 29.1463 39.1922 28.9701 39.2102C28.863 39.2461 28.7472 39.2461 28.6401 39.2102C28.6401 39.2102 28.5401 39.2102 28.5001 39.2102C28.4444 39.1735 28.391 39.1334 28.3401 39.0902L28.2101 39.0102C28.1654 38.9642 28.1252 38.914 28.0901 38.8602C28.0901 38.7602 27.9801 38.6802 28.0001 38.5802C28.0001 38.5802 27.9401 38.4102 28.0001 38.3102C28.0601 38.2102 28.0001 38.2002 28.0001 38.1602C27.9893 38.1074 27.9893 38.053 28.0001 38.0002C28.0001 37.9002 28.0601 37.8102 28.0801 37.7202C28.0692 37.6507 28.0692 37.5798 28.0801 37.5102C28.0734 37.4337 28.0734 37.3568 28.0801 37.2802C28.0801 37.2802 28.0801 37.2002 28.1301 37.1602C28.1801 37.1202 28.1301 37.0202 28.2101 36.9802C28.2901 36.9402 28.2101 36.8902 28.2101 36.8302C28.2241 36.7587 28.2442 36.6884 28.2701 36.6202C28.304 36.5147 28.3441 36.4111 28.3901 36.3102C28.3877 36.2769 28.3877 36.2435 28.3901 36.2102C28.3901 36.2102 28.4501 36.1102 28.4901 36.0602L28.2401 36.4402M28.3101 35.1802C28.2271 35.1698 28.1431 35.1698 28.0601 35.1802C28.0396 35.1711 28.0175 35.1664 27.9951 35.1664C27.9727 35.1664 27.9505 35.1711 27.9301 35.1802C27.8801 35.2602 27.8301 35.3202 27.7301 35.3002H27.6801L27.4901 35.4902L27.3501 35.6502C27.2989 35.7214 27.242 35.7882 27.1801 35.8502C27.1283 35.9239 27.0679 35.991 27.0001 36.0502C27.0001 36.1002 27.0001 36.1702 26.9201 36.1902C26.8401 36.2102 26.7801 36.3402 26.7201 36.4502C26.6942 36.4709 26.6708 36.4944 26.6501 36.5202C26.6048 36.6307 26.5513 36.7377 26.4901 36.8402L26.3301 37.1002C26.3301 37.1002 26.3301 37.1902 26.3301 37.2302C26.2928 37.2763 26.2686 37.3316 26.2601 37.3902C26.2601 37.3902 26.2601 37.5002 26.2101 37.5502C26.1373 37.6369 26.0982 37.747 26.1001 37.8602C26.1001 37.8602 26.1001 37.8602 26.1001 37.9102C26.1001 37.9602 26.0501 38.0402 26.0201 38.1202V38.2002H26.0701L26.2901 38.0602C26.3779 38.0068 26.4615 37.9466 26.5401 37.8802C26.6401 37.7902 26.7401 37.6802 26.8401 37.5702L27.0401 37.3802C27.0987 37.3216 27.1522 37.258 27.2001 37.1902C27.3101 37.0702 27.4301 36.9602 27.5301 36.8402C27.6301 36.7202 27.7601 36.5302 27.8701 36.3602L28.2401 35.8802C28.3401 35.7302 28.4501 35.5902 28.5401 35.4402C28.6301 35.2902 28.7001 35.2202 28.8001 35.1002L28.3601 35.0402" fill="#FFFEFE"/>
<path d="M33.3802 31.3299H33.2702C33.2702 31.3299 33.2102 31.3299 33.1902 31.3299C33.1702 31.3299 32.9802 31.2799 32.8902 31.2399C32.725 31.1899 32.5524 31.1696 32.3802 31.1799C32.2763 31.1661 32.1771 31.1284 32.0902 31.0699H31.9902C31.7676 31.0562 31.5468 31.0228 31.3302 30.9699C31.2502 30.9699 31.1802 30.8999 31.1002 30.9699C30.9358 30.926 30.7688 30.8926 30.6002 30.8699C30.4802 30.8699 30.3602 30.8699 30.2202 30.8699H29.7402L29.4802 30.9199C29.3248 31.0001 29.1645 31.0702 29.0002 31.1299C28.8805 31.1722 28.7738 31.2445 28.6902 31.3399C28.5628 31.4707 28.4458 31.6111 28.3402 31.7599C28.3064 31.8389 28.2893 31.924 28.2902 32.0099C28.2902 32.1299 28.2902 32.2499 28.1502 32.3099C28.0977 32.3239 28.0426 32.3239 27.9902 32.3099C27.9008 32.3002 27.8181 32.2583 27.7573 32.1921C27.6966 32.1258 27.6621 32.0398 27.6602 31.9499C27.6643 31.8833 27.6643 31.8165 27.6602 31.7499C27.6496 31.7072 27.6496 31.6626 27.6602 31.6199C27.7404 31.4296 27.841 31.2486 27.9602 31.0799C28.0302 30.9999 28.0802 30.8799 28.1502 30.7999C28.275 30.6818 28.4125 30.5778 28.5602 30.4899L28.6902 30.3999L28.8002 30.3299C28.9502 30.2699 29.1102 30.1899 29.2802 30.1399C29.4502 30.0899 29.8402 29.9999 30.1202 29.9499C30.2731 29.935 30.4272 29.935 30.5802 29.9499C30.7402 29.9499 30.9002 29.9499 31.0602 29.9499C31.2202 29.9499 31.3602 30.0299 31.5102 29.9499C31.6602 29.8699 31.7302 29.9499 31.8102 30.0099C31.8427 30.0199 31.8776 30.0199 31.9102 30.0099C32.0095 30.0027 32.109 30.0198 32.2002 30.0599C32.3466 30.1075 32.4973 30.141 32.6502 30.1599C32.7902 30.1599 32.9402 30.1599 33.0602 30.1599L33.4902 30.2399C33.5365 30.2106 33.5903 30.195 33.6452 30.195C33.7 30.195 33.7538 30.2106 33.8002 30.2399H33.9302L34.5202 30.2999C34.5462 30.3015 34.5722 30.2958 34.5951 30.2834C34.6181 30.2711 34.6372 30.2525 34.6502 30.2299C34.7202 30.1099 34.8102 29.9999 34.8902 29.8799C34.9702 29.7599 34.9602 29.7599 35.0102 29.6999C35.0555 29.6155 35.1128 29.538 35.1802 29.4699C35.2472 29.3895 35.292 29.293 35.3102 29.1899L35.4102 29.0399L35.6802 28.7999C35.8002 28.7099 35.9302 28.6099 36.0602 28.5299C36.2274 28.5282 36.3912 28.577 36.5302 28.6699C36.5713 28.7084 36.6022 28.7565 36.6202 28.8099C36.639 28.8813 36.6623 28.9515 36.6902 29.0199C36.7068 29.0506 36.7155 29.085 36.7155 29.1199C36.7155 29.1548 36.7068 29.1892 36.6902 29.2199C36.6496 29.3473 36.6195 29.4777 36.6002 29.6099C36.5891 29.7201 36.5395 29.8228 36.4602 29.8999C36.4602 29.8999 36.4602 29.9599 36.4602 29.9899C36.4388 30.1113 36.375 30.2212 36.2802 30.2999C36.2674 30.3457 36.2674 30.3941 36.2802 30.4399C36.2802 30.4399 36.3502 30.4399 36.4102 30.4399H36.5702C36.7092 30.4835 36.8545 30.5038 37.0002 30.4999C37.1502 30.4999 37.2902 30.4999 37.4202 30.4999H37.5302C37.645 30.4759 37.7585 30.4458 37.8702 30.4099C38.1185 30.3596 38.3556 30.2647 38.5702 30.1299H38.6402C38.8211 30.1004 38.9924 30.0284 39.1402 29.9199C39.1944 29.8771 39.2552 29.8433 39.3202 29.8199C39.4625 29.7462 39.5995 29.6627 39.7302 29.5699C39.8404 29.4882 39.9441 29.3979 40.0402 29.2999C40.0884 29.2507 40.1421 29.207 40.2002 29.1699C40.4085 29.033 40.594 28.8642 40.7502 28.6699C40.8444 28.5753 40.9566 28.5005 41.0802 28.4499C41.1463 28.438 41.2145 28.4522 41.2705 28.4895C41.3264 28.5268 41.3657 28.5843 41.3802 28.6499C41.4602 28.8999 41.3102 29.0699 41.1702 29.2299C41.1044 29.316 41.0443 29.4062 40.9902 29.4999C40.9351 29.5889 40.8678 29.6697 40.7902 29.7399C40.7902 29.7399 40.7302 29.7999 40.7202 29.8299C40.7082 29.8837 40.6811 29.933 40.6422 29.9719C40.6032 30.0109 40.5539 30.0379 40.5002 30.0499C40.5002 30.0499 40.5002 30.0499 40.4202 30.0999C40.2083 30.2761 39.9768 30.4271 39.7302 30.5499C39.7226 30.5455 39.7139 30.5432 39.7052 30.5432C39.6964 30.5432 39.6878 30.5455 39.6802 30.5499C39.5927 30.6503 39.4781 30.7232 39.3502 30.7599C39.2102 30.7599 39.0802 30.8999 38.9502 30.9399C38.8236 30.9853 38.7 31.0388 38.5802 31.0999C38.453 31.1562 38.3182 31.1933 38.1802 31.2099C38.0196 31.2658 37.856 31.3125 37.6902 31.3499L37.3702 31.4099L36.9002 31.4699C36.7779 31.5109 36.6489 31.5279 36.5202 31.5199C36.3438 31.5049 36.1665 31.5049 35.9902 31.5199C35.8802 31.5199 35.7902 31.5799 35.7002 31.5899C35.6102 31.5999 35.6002 31.6699 35.5702 31.7199C35.5402 31.7699 35.4802 31.8699 35.4402 31.9599C35.3818 32.1408 35.3047 32.3151 35.2102 32.4799C35.1677 32.5925 35.1069 32.6972 35.0302 32.7899C34.9808 32.8804 34.9374 32.9739 34.9002 33.0699C34.9002 33.1599 34.7702 33.2099 34.7202 33.3099C34.6722 33.3751 34.6319 33.4455 34.6002 33.5199C34.5874 33.5916 34.5481 33.6559 34.4902 33.6999C34.4902 33.6999 34.4902 33.7599 34.4902 33.7899L34.2102 34.3199L33.9602 34.7799L33.8302 34.9999L33.7702 35.1999C33.7605 35.2425 33.7436 35.2831 33.7202 35.3199C33.6702 35.4099 33.6102 35.4899 33.5702 35.5699C33.5302 35.6499 33.5702 35.6199 33.5702 35.6499C33.5702 35.6799 33.5702 35.7799 33.5002 35.8099C33.4717 35.8275 33.4472 35.8507 33.4283 35.8783C33.4093 35.9058 33.3963 35.9371 33.3902 35.9699C33.3873 36.0099 33.3873 36.05 33.3902 36.0899C33.3902 36.1799 33.2602 36.2599 33.3002 36.3799C33.3083 36.4161 33.3083 36.4537 33.3002 36.4899C33.2402 36.6099 33.1802 36.7199 33.1302 36.8399C33.0802 36.9599 33.1302 37.0099 33.0602 37.0999C33.0345 37.1782 33.0045 37.255 32.9702 37.3299C32.9702 37.4299 32.8902 37.5499 32.8402 37.6599C32.7963 37.8344 32.7629 38.0114 32.7402 38.1899C32.6805 38.3752 32.6805 38.5746 32.7402 38.7599C32.7402 38.7599 32.7402 38.7599 32.7402 38.8099H32.8202C32.9802 38.7499 33.1502 38.7499 33.2902 38.6099C33.3959 38.5197 33.5097 38.4393 33.6302 38.3699L33.8002 38.2099C34.0102 37.9599 34.2602 37.7399 34.4502 37.4799C34.6402 37.2199 34.8002 37.0599 34.9702 36.8399C35.1402 36.6199 35.1502 36.5399 35.2602 36.3999C35.3702 36.2599 35.4102 36.1799 35.4802 36.0699L35.5802 35.9099L35.9802 35.3499C35.9925 35.2336 35.9992 35.1168 36.0002 34.9999C36.0684 34.8662 36.1487 34.739 36.2402 34.6199C36.332 34.4679 36.4322 34.321 36.5402 34.1799L36.6102 34.0499C36.7017 33.8879 36.8201 33.7425 36.9602 33.6199C36.9895 33.5987 37.0231 33.584 37.0586 33.577C37.0941 33.5701 37.1308 33.5709 37.166 33.5794C37.2011 33.588 37.2341 33.6041 37.2624 33.6266C37.2908 33.6492 37.3139 33.6776 37.3302 33.7099C37.3354 33.719 37.3382 33.7294 37.3382 33.7399C37.3382 33.7504 37.3354 33.7608 37.3302 33.7699C37.3167 33.8818 37.2828 33.9903 37.2302 34.0899C37.0502 34.4299 36.8202 34.7299 36.6102 35.0899L36.1602 35.8199C36.0402 36.0299 35.8902 36.2299 35.7702 36.4299C35.6502 36.6299 35.6602 36.6299 35.6002 36.7199C35.503 36.8915 35.3926 37.0553 35.2702 37.2099C35.1922 37.3146 35.122 37.4249 35.0602 37.5399C35.0424 37.571 35.0186 37.5982 34.9902 37.6199C34.8402 37.7799 34.7502 37.9699 34.6002 38.1299C34.4502 38.2899 34.5302 38.2499 34.4802 38.3099C34.4302 38.3699 34.2402 38.5799 34.1202 38.6999C34.0002 38.8199 33.9902 38.7999 33.9702 38.8999L33.5102 39.2099C33.5102 39.2099 33.4602 39.2699 33.4202 39.2899C33.2543 39.4163 33.0768 39.5268 32.8902 39.6199C32.743 39.6788 32.588 39.7158 32.4302 39.7299C32.358 39.7481 32.2824 39.7481 32.2102 39.7299C32.0982 39.6799 31.9911 39.6196 31.8902 39.5499L31.8002 39.4599C31.8002 39.4599 31.8002 39.3999 31.7502 39.3899C31.6173 39.2726 31.5144 39.1251 31.4502 38.9599C31.4397 38.8937 31.4397 38.8262 31.4502 38.7599V38.3299C31.4502 38.3299 31.4502 38.2699 31.4502 38.2499C31.425 38.1787 31.425 38.1011 31.4502 38.0299C31.5102 37.7299 31.5602 37.4199 31.5902 37.1299C31.5858 37.0412 31.6104 36.9535 31.6602 36.8799C31.6643 36.8434 31.6643 36.8065 31.6602 36.7699C31.6602 36.7699 31.6602 36.6699 31.6602 36.6499C31.6602 36.6299 31.7402 36.3699 31.7902 36.2399C31.8118 36.135 31.8488 36.0339 31.9002 35.9399C31.9002 35.9399 31.9502 35.8299 31.9602 35.7699C31.9405 35.678 31.9547 35.5822 32.0002 35.4999C32.0307 35.4299 32.0509 35.3558 32.0602 35.2799C32.0529 35.2436 32.0529 35.2062 32.0602 35.1699C32.0602 35.1699 32.1302 35.0799 32.1302 35.0399C32.1651 34.9157 32.2191 34.7976 32.2902 34.6899C32.2902 34.6299 32.2902 34.5699 32.3602 34.5299C32.4302 34.4899 32.3602 34.3599 32.4802 34.3099C32.6002 34.2599 32.4802 34.2399 32.4802 34.1999C32.4802 34.1599 32.4802 34.1199 32.4802 34.0899C32.4802 34.0599 32.5402 33.8299 32.6602 33.7499C32.6942 33.7079 32.7212 33.6606 32.7402 33.6099C32.7843 33.5633 32.8124 33.5037 32.8202 33.4399C32.8528 33.3929 32.8702 33.3371 32.8702 33.2799C32.8597 33.2384 32.8627 33.1947 32.8789 33.1551C32.8951 33.1155 32.9236 33.0821 32.9602 33.0599C33.0048 33.0125 33.0418 32.9585 33.0702 32.8999C33.0765 32.819 33.108 32.7421 33.1602 32.6799C33.1602 32.6799 33.1602 32.6299 33.1602 32.6199C33.1561 32.5763 33.1631 32.5323 33.1806 32.4921C33.1981 32.4518 33.2255 32.4167 33.2602 32.3899C33.3885 32.2664 33.4935 32.1207 33.5702 31.9599C33.5702 31.8699 33.6302 31.7499 33.7202 31.6999C33.8102 31.6499 33.7202 31.6999 33.7202 31.6399C33.7306 31.567 33.7306 31.4929 33.7202 31.4199C33.5651 31.368 33.4035 31.3377 33.2402 31.3299" fill="#FFFEFE"/>
<path d="M39.4402 35.2798L39.2202 35.5698L38.9902 35.9098C38.8902 36.0598 38.7902 36.1998 38.7102 36.3398C38.554 36.5893 38.3838 36.8297 38.2002 37.0598C38.1313 37.1422 38.0678 37.2291 38.0102 37.3198C38.0102 37.3798 37.9002 37.4298 37.8602 37.4898C37.8202 37.5498 37.6602 37.6998 37.5802 37.8198C37.4902 37.9398 37.3782 38.0416 37.2502 38.1198C37.1802 38.1198 37.1202 38.2498 37.0602 38.2898L36.8102 38.4098H36.6902C36.6616 38.4275 36.6287 38.4369 36.5952 38.4369C36.5616 38.4369 36.5287 38.4275 36.5002 38.4098C36.5002 38.4098 36.4202 38.4098 36.3802 38.4098C36.3402 38.4098 36.2402 38.4098 36.1902 38.4098H36.0902L35.8202 38.2398C35.7908 38.2123 35.764 38.1822 35.7402 38.1498C35.7331 38.1168 35.7331 38.0827 35.7402 38.0498C35.7089 37.9646 35.6822 37.8778 35.6602 37.7898C35.6602 37.7198 35.5902 37.6498 35.6002 37.6098C35.6205 37.4906 35.6205 37.3689 35.6002 37.2498C35.5904 37.1868 35.5904 37.1227 35.6002 37.0598V36.9998C35.6002 36.9098 35.5402 36.8798 35.6002 36.7998C35.607 36.7701 35.607 36.7394 35.6002 36.7098C35.6002 36.5698 35.6802 36.4298 35.7102 36.2898C35.7226 36.2704 35.7293 36.2478 35.7293 36.2248C35.7293 36.2017 35.7226 36.1791 35.7102 36.1598C35.7102 36.1598 35.8002 36.0998 35.7602 36.0298C35.7202 35.9598 35.7602 35.9098 35.7602 35.8798C35.8197 35.8147 35.8733 35.7444 35.9202 35.6698C35.9398 35.6275 35.95 35.5814 35.95 35.5348C35.95 35.4881 35.9398 35.442 35.9202 35.3998C35.9202 35.3998 36.0302 35.3198 35.9902 35.2398C35.9502 35.1598 36.0602 35.0898 36.1102 35.0398C36.1602 34.9898 36.1902 34.9898 36.2002 34.8998C36.2102 34.8098 36.2502 34.8098 36.2802 34.7598C36.3102 34.7098 36.3402 34.6398 36.3802 34.5798C36.3954 34.5759 36.4095 34.5684 36.4214 34.558C36.4332 34.5477 36.4424 34.5346 36.4483 34.52C36.4541 34.5054 36.4564 34.4896 36.455 34.4739C36.4536 34.4582 36.4485 34.4431 36.4402 34.4298C36.4402 34.4298 36.4902 34.4298 36.5002 34.3798C36.5477 34.2727 36.5878 34.1624 36.6202 34.0498C36.7102 33.9698 36.6902 33.8698 36.7102 33.7698C36.7302 33.6698 36.7102 33.6598 36.7102 33.6098C36.7017 33.5635 36.7017 33.516 36.7102 33.4698C36.7102 33.4698 36.8102 33.4198 36.8002 33.3598L36.8702 33.2798L36.9602 33.1498C36.9602 33.1498 37.0802 33.0198 37.1302 32.9498C37.1533 32.9318 37.1707 32.9075 37.1802 32.8798L37.2602 32.8098C37.2845 32.8238 37.3121 32.8312 37.3402 32.8312C37.3682 32.8312 37.3958 32.8238 37.4202 32.8098C37.4202 32.8098 37.4902 32.8098 37.5102 32.8098C37.5302 32.8098 37.6002 32.8598 37.6302 32.8098C37.6602 32.7598 37.7002 32.7598 37.7302 32.8098C37.7602 32.8598 37.8502 32.8098 37.8902 32.8898C37.9802 32.8898 37.9702 32.9698 38.0002 33.0098L38.0902 33.0798C38.0902 33.0798 38.1402 33.0798 38.1502 33.1598C38.1602 33.2398 38.1502 33.2498 38.1502 33.2898C38.1502 33.3298 38.1502 33.3998 38.1502 33.4798C38.1502 33.5598 38.1502 33.5798 38.1502 33.6398C38.1407 33.6724 38.1407 33.7071 38.1502 33.7398C38.1461 33.783 38.1461 33.8265 38.1502 33.8698C38.1502 33.9198 38.1502 33.9798 38.1502 34.0298C38.1539 34.1107 38.133 34.1909 38.0902 34.2598C38.0902 34.2598 38.0202 34.2598 38.0102 34.3398C38.0045 34.3963 38.0045 34.4532 38.0102 34.5098C38.0137 34.5363 38.0137 34.5632 38.0102 34.5898C38.0102 34.5898 38.0102 34.6798 37.9202 34.6998C37.8302 34.7198 37.8702 34.7598 37.8702 34.7998C37.8702 34.8398 37.8702 34.8598 37.8702 34.8798C37.8362 34.9377 37.8061 34.9978 37.7802 35.0598C37.7647 35.1244 37.7447 35.1879 37.7202 35.2498C37.7202 35.2498 37.6502 35.2498 37.6102 35.3298C37.5702 35.4098 37.6102 35.3798 37.6102 35.4098C37.6026 35.4881 37.5858 35.5653 37.5602 35.6398C37.5602 35.6998 37.4902 35.7498 37.4502 35.7998C37.4502 35.9498 37.3302 35.9898 37.2702 36.0898C37.2702 36.0898 37.2702 36.2098 37.2002 36.2698C37.1302 36.3298 37.1402 36.4398 37.1102 36.5098C37.087 36.5778 37.0603 36.6445 37.0302 36.7098C37.0302 36.8398 36.9202 36.9298 36.8802 37.0698C36.8753 37.1263 36.8753 37.1832 36.8802 37.2398C36.7802 37.2898 36.7802 37.3898 36.7502 37.4798C36.7202 37.5698 36.7502 37.5598 36.7502 37.5698C36.7071 37.653 36.6864 37.7461 36.6902 37.8398L37.0502 37.6998L37.2102 37.5698L37.4802 37.3398C37.4802 37.3398 37.5302 37.2798 37.5602 37.2698L37.8902 36.8898C37.9657 36.8007 38.0358 36.7072 38.1002 36.6098C38.174 36.505 38.2541 36.4048 38.3402 36.3098C38.4188 36.1816 38.5092 36.0611 38.6102 35.9498C38.6774 35.8742 38.7284 35.7858 38.7602 35.6898C38.8902 35.5898 38.9402 35.4298 39.0402 35.3098C39.1402 35.1898 39.1902 35.1198 39.2502 35.0098C39.3102 34.8998 39.4302 34.7698 39.5202 34.6398C39.601 34.5068 39.6913 34.3799 39.7902 34.2598C39.8902 34.0898 40.0202 33.9398 40.1302 33.7698C40.2402 33.5998 40.2702 33.5398 40.3602 33.4298C40.4502 33.3198 40.6302 33.0898 40.7502 32.9198C40.8441 32.7864 40.9277 32.646 41.0002 32.4998C41.0417 32.4627 41.0916 32.4361 41.1455 32.4222C41.1994 32.4083 41.2558 32.4075 41.3102 32.4198C41.377 32.4417 41.4408 32.4719 41.5002 32.5098C41.5002 32.5098 41.5002 32.5098 41.5702 32.6098C41.5834 32.6414 41.5902 32.6754 41.5902 32.7098C41.5902 32.7441 41.5834 32.7781 41.5702 32.8098C41.5702 32.8098 41.5702 32.8798 41.5702 32.9098C41.5849 33.026 41.5849 33.1436 41.5702 33.2598C41.525 33.3685 41.4947 33.4829 41.4802 33.5998C41.4562 33.6819 41.4262 33.7621 41.3902 33.8398C41.3902 33.8398 41.3302 33.9498 41.3302 34.0198C41.3016 34.0969 41.2647 34.1706 41.2202 34.2398C41.1999 34.2992 41.173 34.3562 41.1402 34.4098C41.1142 34.4717 41.0841 34.5318 41.0502 34.5898C41.0395 34.7068 41.0018 34.8197 40.9402 34.9198C40.9363 34.9326 40.9298 34.9445 40.9213 34.9548C40.9127 34.9651 40.9021 34.9736 40.8902 34.9798C40.8902 35.0598 40.8902 35.1098 40.8302 35.1798C40.7702 35.2498 40.8302 35.2498 40.8302 35.2898C40.8302 35.3298 40.7402 35.4398 40.7102 35.5098C40.7157 35.5294 40.7157 35.5501 40.7102 35.5698C40.7102 35.5698 40.7102 35.6898 40.7102 35.7498C40.6695 35.8018 40.6359 35.8589 40.6102 35.9198C40.5865 35.9508 40.5664 35.9843 40.5502 36.0198C40.5397 36.1116 40.5196 36.2021 40.4902 36.2898C40.4342 36.4003 40.3841 36.5138 40.3402 36.6298C40.3359 36.703 40.3359 36.7765 40.3402 36.8498C40.3474 36.8759 40.3474 36.9036 40.3402 36.9298C40.3359 36.9596 40.3359 36.9899 40.3402 37.0198C40.4402 37.0198 40.5402 37.0198 40.5802 36.8898C40.6202 36.7598 40.5802 36.8898 40.5802 36.8398L40.9202 36.5098L41.2002 36.2098C41.2002 36.1498 41.2802 36.0698 41.3302 36.0098C41.3431 35.9869 41.36 35.9666 41.3802 35.9498C41.5189 35.7831 41.649 35.6096 41.7702 35.4298C42.2302 34.8098 42.6402 34.2098 43.0702 33.6098C43.1302 33.5298 43.2002 33.4698 43.2602 33.3898L43.5202 33.0798C43.542 33.0514 43.5714 33.0297 43.6051 33.0173C43.6387 33.005 43.6751 33.0023 43.7102 33.0098C43.8002 33.0098 43.8302 33.0998 43.8402 33.1798C43.8237 33.2376 43.7966 33.2919 43.7602 33.3398C43.6102 33.5298 43.4702 33.7298 43.3202 33.9098L43.0002 34.3098C42.4802 35.0198 42.0002 35.6998 41.5802 36.3998C41.5202 36.4998 41.4302 36.5998 41.3602 36.7098C41.2834 36.8203 41.2164 36.9375 41.1602 37.0598C41.0954 37.1295 41.0445 37.211 41.0102 37.2998C41.0102 37.4498 40.8202 37.4998 40.7802 37.6498C40.7402 37.7998 40.7302 37.6498 40.6902 37.7198C40.6502 37.7898 40.6002 37.8198 40.5402 37.8698C40.4802 37.9198 40.5402 37.8698 40.4802 37.9198L40.2802 38.0498C40.2802 38.0498 40.2302 38.0998 40.2002 38.0498C40.1195 38.0199 40.0308 38.0199 39.9502 38.0498C39.8902 38.0498 39.8202 38.0498 39.7702 38.0498L39.4602 37.8198C39.4102 37.8198 39.4102 37.7098 39.3802 37.6398C39.3102 37.5798 39.3202 37.4798 39.2702 37.4298C39.2561 37.4036 39.2488 37.3744 39.2488 37.3448C39.2488 37.3151 39.2561 37.2859 39.2702 37.2598C39.2702 37.2098 39.2702 37.1498 39.3302 37.0898C39.3052 36.9913 39.3052 36.8882 39.3302 36.7898V36.5898C39.3111 36.5347 39.3111 36.4748 39.3302 36.4198C39.3302 36.4198 39.3302 36.2998 39.3302 36.2398C39.3249 36.2289 39.3221 36.2169 39.3221 36.2048C39.3221 36.1926 39.3249 36.1807 39.3302 36.1698L39.4202 36.0398C39.4316 35.898 39.4837 35.7627 39.5702 35.6498C39.6115 35.5248 39.6651 35.4042 39.7302 35.2898C39.7302 35.2898 39.7302 35.2098 39.7302 35.1598C39.7302 35.1098 39.7302 35.0898 39.7302 35.0098L39.5602 35.2898" fill="#FFFEFE"/>
<path d="M42.3602 38.0598C42.3602 38.0598 42.3602 37.9698 42.3602 37.9298C42.3602 37.8898 42.3602 37.8098 42.3602 37.7598C42.378 37.7369 42.3877 37.7088 42.3877 37.6798C42.3877 37.6508 42.378 37.6226 42.3602 37.5998C42.3399 37.5722 42.3289 37.539 42.3289 37.5048C42.3289 37.4706 42.3399 37.4373 42.3602 37.4098C42.369 37.3946 42.3736 37.3773 42.3736 37.3598C42.3736 37.3422 42.369 37.325 42.3602 37.3098C42.3602 37.3098 42.3602 37.2498 42.3602 37.2398C42.3942 37.1633 42.4343 37.0897 42.4802 37.0198C42.4802 37.0198 42.4802 36.9198 42.4802 36.8598C42.5502 36.7898 42.5402 36.6798 42.5902 36.5998C42.6402 36.5198 42.5902 36.4498 42.7002 36.4298C42.8202 36.4298 42.7702 36.2798 42.8202 36.2098H42.9002C42.8202 36.0798 42.9002 36.0198 42.9602 35.9298C42.9966 35.8949 43.0211 35.8494 43.0302 35.7998C43.0302 35.7298 43.1002 35.6398 43.1402 35.5598C43.1774 35.4985 43.2108 35.4351 43.2402 35.3698C43.2402 35.3698 43.3202 35.2898 43.3602 35.2598C43.4126 35.2085 43.4476 35.142 43.4602 35.0698C43.4602 35.0198 43.5402 34.9498 43.5602 34.8898C43.5802 34.8298 43.5602 34.7598 43.6102 34.6998C43.6261 34.6579 43.6462 34.6177 43.6702 34.5798H43.5902C43.4902 34.5798 43.4402 34.4598 43.3602 34.4198C43.2802 34.3798 43.3102 34.4198 43.3002 34.4198C43.2902 34.4198 43.1002 34.4198 43.0002 34.4198C42.9088 34.3866 42.8215 34.343 42.7402 34.2898C42.5902 34.2898 42.4802 34.1798 42.3602 34.1398C42.306 34.0609 42.2591 33.9772 42.2202 33.8898C42.1985 33.8352 42.1681 33.7845 42.1302 33.7398C42.0702 33.6698 42.1302 33.5798 42.1302 33.4898C42.1302 33.4398 42.1302 33.3998 42.1302 33.4898C42.1302 33.5398 42.1302 33.3598 42.1302 33.2798L42.2202 32.8698C42.2202 32.8698 42.2902 32.8098 42.3002 32.7798C42.3102 32.7498 42.3002 32.6198 42.3002 32.5398C42.3602 32.4698 42.4302 32.4098 42.4902 32.3298C42.5502 32.1598 42.6902 32.0798 42.7902 31.9698C42.8902 31.8598 42.9602 31.8898 43.0402 31.8398H43.1302C43.221 31.8093 43.3193 31.8093 43.4102 31.8398C43.4959 31.8593 43.5751 31.9006 43.6402 31.9598C43.7612 31.9312 43.8884 31.9454 44.0002 31.9998C44.0002 32.0598 44.0002 32.1198 44.0002 32.1698V32.2198C44.0002 32.3698 43.9402 32.5098 43.9002 32.6598C43.8602 32.8098 43.8002 32.9798 43.7402 33.1398C43.6802 33.2998 43.7402 33.1398 43.7402 33.1898C43.7402 33.2398 43.7402 33.2498 43.7402 33.2698C43.7402 33.2898 43.8302 33.2698 43.8602 33.2698C43.8902 33.2698 44.0802 33.3298 44.1602 33.4198C44.2402 33.5098 44.2802 33.4998 44.3402 33.5398C44.4002 33.5798 44.4402 33.5898 44.4502 33.6498C44.4602 33.7098 44.4502 33.6998 44.5102 33.7298C44.5383 33.7477 44.5622 33.7716 44.5802 33.7998C44.6207 33.8677 44.6575 33.9378 44.6902 34.0098C44.6856 34.0897 44.6856 34.1698 44.6902 34.2498C44.7802 34.3598 44.6902 34.4698 44.6902 34.5698C44.7141 34.648 44.7141 34.7316 44.6902 34.8098C44.6649 34.898 44.6649 34.9915 44.6902 35.0798C44.6902 35.1398 44.6902 35.1898 44.6402 35.2298C44.5979 35.3334 44.5645 35.4405 44.5402 35.5498L44.4202 35.8198C44.4202 35.8198 44.4202 35.8998 44.4202 35.9198C44.3881 35.9909 44.3478 36.058 44.3002 36.1198V36.1798C44.2709 36.2476 44.2475 36.3179 44.2302 36.3898C44.207 36.4579 44.1732 36.522 44.1302 36.5798L43.9902 36.7998C43.9902 36.7998 43.9202 36.8598 43.9902 36.9298C43.9902 36.9298 43.9302 36.9998 43.9302 37.0598C43.9225 37.1139 43.9019 37.1653 43.8702 37.2098C43.8753 37.2429 43.8753 37.2766 43.8702 37.3098C43.8179 37.4549 43.7843 37.6061 43.7702 37.7598C43.7702 37.8198 43.7102 37.8598 43.6802 37.9098C43.7786 37.8957 43.8698 37.8501 43.9402 37.7798C43.9763 37.738 44.0206 37.704 44.0702 37.6798L44.1402 37.5998C44.244 37.5178 44.341 37.4275 44.4302 37.3298C44.5441 37.2342 44.6511 37.1306 44.7502 37.0198L45.1702 36.6398C45.2402 36.5598 45.3002 36.4798 45.3802 36.3998C45.4602 36.3198 45.5402 36.2198 45.6202 36.1298C45.7588 35.9665 45.889 35.7963 46.0102 35.6198C46.0371 35.5718 46.0708 35.528 46.1102 35.4898C46.1981 35.3823 46.2783 35.2686 46.3502 35.1498C46.4424 35.0397 46.5259 34.9227 46.6002 34.7998C46.7002 34.6598 46.7802 34.5198 46.8802 34.3998C46.9812 34.262 47.088 34.1286 47.2002 33.9998C47.3454 33.7751 47.5023 33.5581 47.6702 33.3498C47.7502 33.2598 47.8202 33.1598 47.9002 33.0598C47.9802 32.9598 48.0502 32.9698 48.1402 32.9498C48.2302 32.9298 48.2802 33.1898 48.2802 33.2298C48.2374 33.3248 48.18 33.4125 48.1102 33.4898L47.9802 33.6698C47.9462 33.7304 47.906 33.7874 47.8602 33.8398C47.7902 33.9698 47.5202 34.3798 47.4502 34.4998C47.3302 34.6898 47.2002 34.8498 47.0702 35.0198L46.8202 35.3798C46.7302 35.5098 46.6102 35.6398 46.5202 35.7798L46.3202 36.0798C46.2102 36.2198 46.1102 36.3598 46.0002 36.4798C45.8902 36.5998 45.8802 36.6498 45.8202 36.7498C45.7602 36.8498 45.6102 36.9998 45.5102 37.1198C45.3999 37.2281 45.3026 37.349 45.2202 37.4798C45.2202 37.4798 45.1302 37.5498 45.0802 37.5898C45.0494 37.6524 45.0089 37.7098 44.9602 37.7598C44.9146 37.7972 44.8712 37.8373 44.8302 37.8798C44.7802 37.9998 44.6602 38.0598 44.5702 38.1498L44.3302 38.3898C44.2549 38.4838 44.1712 38.5708 44.0802 38.6498L43.9502 38.7498C43.9315 38.794 43.9028 38.8332 43.8664 38.8645C43.8299 38.8957 43.7867 38.9181 43.7402 38.9298C43.7402 39.0798 43.5602 39.0598 43.4902 39.1398C43.4202 39.2198 43.3802 39.1398 43.3302 39.1398H43.0002C42.9256 39.1403 42.8524 39.12 42.7888 39.0811C42.7252 39.0422 42.6737 38.9863 42.6402 38.9198C42.6402 38.9198 42.5702 38.8598 42.5402 38.8098C42.509 38.7638 42.4854 38.7132 42.4702 38.6598L42.3502 38.3398C42.3799 38.2386 42.3799 38.131 42.3502 38.0298M43.2602 32.3398C43.1909 32.3931 43.1343 32.4611 43.0946 32.5389C43.0548 32.6167 43.0328 32.7024 43.0302 32.7898C43.1398 32.659 43.2185 32.5052 43.2602 32.3398Z" fill="#FFFEFE"/>
<path d="M49.3301 34.56L49.1401 34.84C49.0301 34.99 48.9201 35.13 48.8201 35.28C48.7451 35.3563 48.678 35.4401 48.6201 35.53L48.3601 35.87L48.1401 36.14L47.7801 36.56C47.7111 36.6282 47.6376 36.6917 47.5601 36.75L47.3901 36.92C47.3901 36.92 47.3901 36.92 47.3101 36.98L46.9801 37.11C46.9801 37.11 46.8701 37.11 46.8001 37.11C46.7602 37.1052 46.7199 37.1052 46.6801 37.11C46.6801 37.11 46.6101 37.11 46.6001 37.11C46.5126 37.0606 46.4319 37.0001 46.3601 36.93C46.3078 36.8733 46.264 36.8093 46.2301 36.74C46.2301 36.68 46.2301 36.61 46.2301 36.53L46.1801 36.45C46.1801 36.45 46.1801 36.38 46.1801 36.33C46.2102 36.2528 46.2102 36.1672 46.1801 36.09C46.1801 36.09 46.1801 36.02 46.1801 35.99C46.1801 35.96 46.1801 35.9 46.1801 35.87C46.1631 35.801 46.1631 35.729 46.1801 35.66C46.1801 35.56 46.1801 35.47 46.2501 35.38C46.2448 35.3691 46.242 35.3571 46.242 35.345C46.242 35.3329 46.2448 35.3209 46.2501 35.31C46.269 35.2896 46.2796 35.2628 46.2796 35.235C46.2796 35.2072 46.269 35.1804 46.2501 35.16C46.2374 35.1317 46.2308 35.101 46.2308 35.07C46.2308 35.039 46.2374 35.0083 46.2501 34.98C46.2501 34.98 46.2501 34.92 46.2501 34.89C46.2772 34.8277 46.3143 34.7703 46.3601 34.72C46.3938 34.6689 46.4239 34.6154 46.4501 34.56C46.4685 34.5117 46.4685 34.4583 46.4501 34.41C46.4467 34.3834 46.4504 34.3564 46.461 34.3318C46.4715 34.3072 46.4885 34.2859 46.5101 34.27C46.5883 34.2097 46.6445 34.1254 46.6701 34.03C46.6701 34.03 46.7301 33.97 46.7401 33.91C46.7501 33.85 46.8401 33.8 46.9001 33.74C46.9444 33.6942 46.9911 33.6508 47.0401 33.61C47.0401 33.55 47.1501 33.49 47.1901 33.43C47.2301 33.37 47.3601 33.3 47.3601 33.18C47.4401 33.18 47.4801 33.07 47.5601 33.07C47.5601 33.01 47.6301 32.97 47.6701 32.9C47.7257 32.8253 47.8082 32.7752 47.9001 32.76H47.9601C48.0814 32.6577 48.2254 32.5857 48.3801 32.55C48.4212 32.5229 48.4647 32.4994 48.5101 32.48C48.6124 32.5002 48.7177 32.5002 48.8201 32.48C48.8801 32.48 48.9201 32.48 48.9501 32.48C48.9801 32.48 49.1101 32.48 49.1601 32.55C49.216 32.5628 49.2741 32.5628 49.3301 32.55C49.3635 32.5504 49.3964 32.5587 49.426 32.5744C49.4556 32.59 49.481 32.6125 49.5001 32.64C49.5001 32.64 49.5001 32.64 49.5601 32.64L49.6701 32.72C49.6895 32.7269 49.7107 32.7269 49.7301 32.72C49.7559 32.7407 49.7793 32.7642 49.8001 32.79C49.8001 32.79 49.8901 32.89 49.9301 32.92L50.0101 32.83C50.0431 32.7678 50.0798 32.7077 50.1201 32.65C50.1731 32.5587 50.2333 32.4718 50.3001 32.39C50.3001 32.39 50.3001 32.39 50.3801 32.34C50.4329 32.3083 50.4934 32.2915 50.5551 32.2915C50.6167 32.2915 50.6772 32.3083 50.7301 32.34C50.8308 32.3775 50.9227 32.4353 51.0001 32.51C50.9886 32.5458 50.9886 32.5842 51.0001 32.62C51.0601 32.7 51.0001 32.81 51.0001 32.91C50.9853 33.0076 50.9549 33.1021 50.9101 33.19C50.9101 33.25 50.9101 33.34 50.9101 33.4C50.8825 33.5037 50.8312 33.5996 50.7601 33.68C50.7378 33.7023 50.7202 33.7289 50.7081 33.758C50.6961 33.7872 50.69 33.8185 50.6901 33.85C50.6945 33.8832 50.6945 33.9168 50.6901 33.95C50.6525 33.9935 50.6191 34.0404 50.5901 34.09C50.5588 34.1268 50.532 34.167 50.5101 34.21C50.5101 34.28 50.4601 34.35 50.4201 34.39C50.3984 34.4416 50.368 34.4889 50.3301 34.53C50.3099 34.5543 50.293 34.5812 50.2801 34.61L50.1801 34.91C50.1801 35 50.0601 35.09 50.0101 35.2C50.0101 35.2 50.0101 35.32 49.9501 35.35C49.8901 35.38 49.9501 35.42 49.9501 35.46L49.8401 35.62C49.8401 35.62 49.8401 35.75 49.7901 35.83C49.7401 35.91 49.7901 35.83 49.7901 35.9C49.7901 35.97 49.7901 35.96 49.7901 35.96C49.7901 35.96 49.7901 36.11 49.7301 36.2C49.7233 36.2431 49.7233 36.2869 49.7301 36.33C49.7257 36.4166 49.7257 36.5034 49.7301 36.59C49.744 36.6789 49.7674 36.7661 49.8001 36.85C49.8001 36.85 49.9301 36.85 49.9901 36.85L50.2101 36.74C50.2712 36.715 50.3285 36.6813 50.3801 36.64C50.4801 36.56 50.5701 36.42 50.7001 36.37C50.8301 36.32 50.7501 36.29 50.7901 36.26C50.8301 36.23 51.1101 35.91 51.2601 35.73C51.3356 35.6409 51.4057 35.5474 51.4701 35.45C51.5184 35.3795 51.5719 35.3127 51.6301 35.25L51.7101 35.16C51.7701 35.06 51.8401 34.97 51.9001 34.88L52.2201 34.45C52.2719 34.3699 52.3287 34.2931 52.3901 34.22L52.4601 34.09C52.5146 33.974 52.5853 33.8662 52.6701 33.77C52.7548 33.6738 52.8255 33.566 52.8801 33.45L53.2101 32.99L53.2901 32.86C53.2973 32.8424 53.3083 32.8267 53.3223 32.8139C53.3363 32.801 53.353 32.7914 53.3711 32.7857C53.3892 32.78 53.4083 32.7783 53.4272 32.7807C53.446 32.7832 53.4641 32.7898 53.4801 32.8C53.5085 32.8167 53.5301 32.843 53.5411 32.8741C53.5521 32.9052 53.5517 32.9391 53.5401 32.97C53.5291 33.0326 53.5089 33.0933 53.4801 33.15L53.1501 33.62L53.0001 34C52.892 34.1514 52.7919 34.3083 52.7001 34.47C52.5801 34.65 52.4501 34.84 52.3301 35.04C52.2101 35.24 52.1501 35.34 52.0601 35.48C51.9839 35.565 51.9137 35.6553 51.8501 35.75C51.7701 35.85 51.7301 35.95 51.6501 36.05C51.5819 36.1261 51.5185 36.2062 51.4601 36.29L51.3301 36.43C51.2401 36.54 51.1501 36.67 51.0601 36.77C50.9913 36.8602 50.9143 36.9439 50.8301 37.02L50.5001 37.29C50.3672 37.4089 50.1981 37.4794 50.0201 37.49C49.8901 37.49 49.7901 37.49 49.6901 37.49C49.5901 37.49 49.5901 37.49 49.5501 37.49C49.5101 37.49 49.4501 37.41 49.3901 37.37C49.3438 37.3525 49.3001 37.329 49.2601 37.3C49.2147 37.2545 49.1745 37.2042 49.1401 37.15C49.1401 37.05 49.0301 36.97 49.0501 36.86C48.9601 36.78 48.9901 36.69 49.0501 36.59C49.1101 36.49 49.0501 36.49 49.0501 36.44C49.0401 36.3871 49.0401 36.3329 49.0501 36.28C49.0501 36.18 49.1001 36.09 49.1201 36C49.1145 35.9334 49.1145 35.8665 49.1201 35.8C49.1309 35.7189 49.1476 35.6387 49.1701 35.56C49.173 35.5201 49.173 35.4799 49.1701 35.44C49.1701 35.38 49.1701 35.31 49.2501 35.26C49.3301 35.21 49.2501 35.17 49.2501 35.11C49.2623 35.038 49.2825 34.9676 49.3101 34.9C49.3101 34.8 49.3801 34.7 49.4201 34.59C49.4329 34.558 49.4497 34.5278 49.4701 34.5C49.4701 34.5 49.5301 34.39 49.5701 34.35C49.5701 34.35 49.4001 34.61 49.3101 34.73M49.3901 33.48H49.1301C49.082 33.4874 49.0369 33.5082 49.0001 33.54C48.9501 33.61 48.9001 33.67 48.8101 33.65C48.7418 33.7082 48.6783 33.7718 48.6201 33.84L48.4801 33.99C48.4314 34.0631 48.3744 34.1302 48.3101 34.19C48.2555 34.2645 48.1953 34.3347 48.1301 34.4C48.1301 34.4 48.1301 34.51 48.0501 34.53C47.9701 34.55 47.9101 34.69 47.8501 34.79C47.8543 34.8064 47.8543 34.8236 47.8501 34.84L47.7901 34.92C47.7428 35.0296 47.6894 35.1364 47.6301 35.24C47.5801 35.33 47.5201 35.4 47.4701 35.49C47.4525 35.5377 47.4325 35.5844 47.4101 35.63C47.3789 35.6759 47.3552 35.7266 47.3401 35.78C47.3401 35.83 47.3401 35.9 47.3401 35.94C47.2688 36.0314 47.23 36.1441 47.2301 36.26C47.2301 36.26 47.1701 36.4 47.1501 36.47C47.1441 36.4997 47.1441 36.5303 47.1501 36.56L47.3701 36.43C47.4542 36.3757 47.5344 36.3155 47.6101 36.25L47.9101 35.94L48.1201 35.75L48.2801 35.56C48.3901 35.43 48.5101 35.32 48.6001 35.2C48.7279 35.0484 48.8449 34.888 48.9501 34.72C49.0701 34.57 49.1901 34.4 49.3201 34.25C49.4501 34.1 49.5201 33.95 49.6201 33.8L49.8801 33.46L49.4401 33.41" fill="#FFFEFE"/>
<path d="M52.1601 36.8701C52.1649 36.8135 52.1649 36.7566 52.1601 36.7001C52.1551 36.6135 52.1551 36.5267 52.1601 36.4401C52.1655 36.3735 52.1655 36.3066 52.1601 36.2401C52.1476 36.2135 52.1411 36.1845 52.1411 36.1551C52.1411 36.1257 52.1476 36.0967 52.1601 36.0701C52.2301 35.9801 52.1601 35.9001 52.2301 35.8101C52.2636 35.703 52.2838 35.5921 52.2901 35.4801C52.2901 35.4001 52.3601 35.3301 52.2901 35.2501C52.3507 35.1795 52.389 35.0925 52.4001 35.0001C52.4001 35.0001 52.4701 34.9101 52.4801 34.8301C52.4949 34.7208 52.5217 34.6135 52.5601 34.5101C52.5601 34.5101 52.5601 34.3901 52.6601 34.3501C52.6669 34.2936 52.6669 34.2365 52.6601 34.1801V34.0901C52.6601 34.0101 52.7601 33.9301 52.7501 33.8601C52.7401 33.7901 52.8501 33.7201 52.8601 33.6401V33.5001V33.4501C52.929 33.3556 52.983 33.251 53.0201 33.1401C53.0201 33.0801 53.0201 32.9901 53.1201 32.9901C53.136 32.9872 53.1509 32.9801 53.1631 32.9696C53.1754 32.959 53.1845 32.9453 53.1897 32.9299C53.1948 32.9146 53.1957 32.8981 53.1922 32.8823C53.1888 32.8665 53.1811 32.8519 53.1701 32.8401C53.1523 32.7951 53.1523 32.745 53.1701 32.7001C53.2201 32.6401 53.1701 32.5501 53.2501 32.4901L53.3701 32.4001C53.3701 32.3101 53.4601 32.2201 53.5101 32.1301C53.5201 32.1044 53.5201 32.0758 53.5101 32.0501C53.5101 31.9401 53.5101 31.9101 53.6101 31.8401C53.7101 31.7701 53.6701 31.7801 53.6901 31.7301V31.6001C53.6901 31.6001 53.7601 31.4501 53.7701 31.3801C53.7801 31.3101 53.7701 31.3801 53.7701 31.3301C53.8583 31.2554 53.9418 31.1752 54.0201 31.0901C54.0612 31.0329 54.0979 30.9727 54.1301 30.9101C54.1301 30.8401 54.1301 30.7201 54.2901 30.7001C54.4501 30.6801 54.2901 30.5201 54.3501 30.4801C54.4101 30.4401 54.3501 30.4101 54.4101 30.4001C54.4701 30.3901 54.4101 30.4001 54.4101 30.3501C54.4101 30.3001 54.4901 30.2201 54.5201 30.1401C54.5166 30.1236 54.5166 30.1066 54.5201 30.0901C54.5801 30.0301 54.5201 29.9301 54.6501 29.9001C54.6469 29.8735 54.6469 29.8466 54.6501 29.8201C54.673 29.8106 54.6932 29.7956 54.7089 29.7764C54.7246 29.7572 54.7353 29.7344 54.7401 29.7101C54.7656 29.6583 54.7993 29.611 54.8401 29.5701C54.8401 29.5701 54.9001 29.4701 54.9401 29.4201C54.9801 29.3701 55.0001 29.3701 55.0201 29.3401C55.0401 29.3101 55.0701 29.2401 55.1201 29.2001C55.1701 29.1601 55.1701 29.1101 55.1901 29.0701C55.2721 28.9768 55.3458 28.8764 55.4101 28.7701C55.4704 28.7005 55.5148 28.6186 55.5401 28.5301C55.6168 28.4945 55.6973 28.4677 55.7801 28.4501C55.7801 28.4501 55.8501 28.4501 55.8801 28.4501C55.9101 28.4501 55.9901 28.5301 56.0401 28.4501C56.0901 28.3701 56.3001 28.6301 56.4201 28.7501C56.5401 28.8701 56.4201 28.7501 56.4201 28.8101C56.4201 28.8701 56.4201 29.0101 56.4201 29.1101C56.4201 29.2301 56.3501 29.3501 56.3101 29.4701C56.3141 29.4899 56.3141 29.5103 56.3101 29.5301C56.2877 29.5417 56.2687 29.5589 56.2547 29.5798C56.2407 29.6008 56.2323 29.625 56.2301 29.6501C56.2057 29.7352 56.1686 29.8161 56.1201 29.8901V29.9701C56.0843 29.9865 56.0546 30.0135 56.0349 30.0476C56.0152 30.0816 56.0065 30.1209 56.0101 30.1601C56.019 30.1918 56.0191 30.2253 56.0103 30.2571C56.0014 30.2888 55.9841 30.3175 55.9601 30.3401C55.9601 30.3401 55.8601 30.4001 55.8801 30.4901C55.8045 30.5466 55.7457 30.6227 55.7101 30.7101C55.64 30.8386 55.5798 30.9723 55.5301 31.1101C55.5301 31.1701 55.4601 31.2201 55.4501 31.2801C55.403 31.4008 55.3353 31.5125 55.2501 31.6101C55.2501 31.6901 55.1901 31.7801 55.1401 31.8501C55.0999 31.8689 55.0645 31.8968 55.0368 31.9315C55.0091 31.9661 54.9897 32.0067 54.9801 32.0501L54.8901 32.2601C54.7601 32.3401 54.7401 32.5001 54.6701 32.6201C54.6412 32.6907 54.6043 32.7578 54.5601 32.8201C54.5601 32.8701 54.5101 32.9301 54.4801 32.9901L54.3701 33.1301L54.3001 33.2901C54.2622 33.3386 54.2318 33.3925 54.2101 33.4501C54.1722 33.4813 54.1444 33.5231 54.1301 33.5701C54.1301 33.5701 54.1301 33.6501 54.1301 33.7001C54.1301 33.7501 54.1301 33.7001 54.1301 33.7601C54.1301 33.8201 54.0201 33.8501 54.0301 33.9401C54.0254 33.9699 54.0254 34.0003 54.0301 34.0301C54.0301 34.0901 54.0301 34.1501 53.9801 34.1701C53.9235 34.2193 53.8791 34.2809 53.8501 34.3501C53.8144 34.4308 53.7709 34.5079 53.7201 34.5801C53.7201 34.7101 53.7201 34.7901 53.6301 34.8801C53.5401 34.9701 53.5301 35.0101 53.4901 35.0801C53.4608 35.1616 53.4374 35.2452 53.4201 35.3301C53.3991 35.3961 53.3651 35.4573 53.3201 35.5101C53.2709 35.5902 53.2275 35.6738 53.1901 35.7601C53.1706 35.8125 53.1539 35.8659 53.1401 35.9201C53.1401 35.9201 53.1401 35.9801 53.1401 36.0101C53.1513 36.1397 53.1307 36.2702 53.0801 36.3901C53.0602 36.479 53.0602 36.5712 53.0801 36.6601C53.0723 36.6997 53.0723 36.7405 53.0801 36.7801L53.2501 36.7001L53.4501 36.6301L53.5901 36.4901L53.6901 36.3901L53.9601 36.1301C54.0135 36.0143 54.0921 35.9118 54.1901 35.8301C54.2451 35.729 54.3123 35.635 54.3901 35.5501C54.445 35.4732 54.4951 35.3931 54.5401 35.3101C54.5401 35.3101 54.5401 35.3101 54.6001 35.2401C54.7467 35.1847 54.8822 35.1034 55.0001 35.0001L55.1701 34.7201C55.1701 34.6601 55.2601 34.6101 55.2901 34.5701C55.4001 34.3801 55.5201 34.2001 55.6301 34.0201C55.7612 33.8871 55.8847 33.7469 56.0001 33.6001C56.0701 33.4801 56.1601 33.3701 56.2301 33.2501C56.3001 33.1301 56.4501 32.8701 56.5501 32.6901L56.6301 32.6001C56.6301 32.5501 56.6901 32.5101 56.7001 32.4701C56.7143 32.441 56.7354 32.4157 56.7615 32.3966C56.7876 32.3774 56.818 32.3649 56.8501 32.3601C56.9111 32.3738 56.9667 32.4051 57.0101 32.4501C57.0801 32.5301 57.0101 32.6201 57.0101 32.7101C56.9585 32.8328 56.8949 32.95 56.8201 33.0601C56.8242 33.0966 56.8242 33.1335 56.8201 33.1701C56.6601 33.4601 56.5101 33.7601 56.3601 34.0601C56.3238 34.1289 56.2837 34.1957 56.2401 34.2601C56.2358 34.2937 56.2247 34.3261 56.2076 34.3554C56.1904 34.3846 56.1674 34.41 56.1401 34.4301C56.0825 34.5161 56.0387 34.6106 56.0101 34.7101C55.9592 34.8289 55.8919 34.94 55.8101 35.0401C55.7476 35.1298 55.6908 35.2233 55.6401 35.3201C55.5921 35.42 55.5279 35.5112 55.4501 35.5901C55.3801 35.7101 55.3001 35.8201 55.2201 35.9401C55.1554 36.0388 55.0986 36.1425 55.0501 36.2501C54.9406 36.3518 54.8433 36.4659 54.7601 36.5901C54.7601 36.5901 54.6601 36.7301 54.6001 36.7901C54.5485 36.8316 54.5016 36.8785 54.4601 36.9301L54.2601 37.1401L53.9701 37.3901L53.7801 37.5401H53.7101C53.6564 37.5727 53.5994 37.5995 53.5401 37.6201C53.4201 37.6201 53.3001 37.7001 53.1801 37.6201L52.8301 37.4901C52.7705 37.4616 52.7241 37.4115 52.7001 37.3501C52.6676 37.2899 52.6143 37.2436 52.5501 37.2201C52.4976 37.1733 52.4566 37.1152 52.4301 37.0501C52.4031 37.0041 52.386 36.953 52.3801 36.9001C52.3605 36.8938 52.3426 36.8832 52.3275 36.8692C52.3125 36.8551 52.3008 36.8379 52.2931 36.8188C52.2855 36.7998 52.2822 36.7792 52.2834 36.7587C52.2846 36.7382 52.2903 36.7181 52.3001 36.7001" fill="#FFFEFE"/>
</g>
<defs>
<clipPath id="clip0_135_8066">
<rect width="65.2" height="65.2" fill="white" transform="translate(2.40002 2.3999)"/>
</clipPath>
</defs>
</svg>
