<svg width="149" height="202" viewBox="0 0 149 202" fill="none" xmlns="http://www.w3.org/2000/svg">
<path d="M16.4173 104.006C12.9421 97.205 18.0409 96.35 15.36 93.7346C12.2386 91.0368 8.73979 96.4657 11.5839 98.3175C12.3916 98.6076 13.0985 99.1266 13.6187 99.8114C14.1389 100.496 14.4499 101.317 14.514 102.175C20.1848 117.602 30.377 131.644 29.0481 148.998C22.4762 167.843 11.2922 185.013 0.325681 201.494C17.8106 181.34 29.5548 154.863 37.2298 129.129C43.8685 117.459 59.6477 115.079 71.7163 111.877C79.741 111.16 88.4305 114.778 96.161 113.173C98.0231 116.006 99.6842 118.178 103.086 115.934C108.184 114.672 102.954 107.73 99.5637 108.96C97.3491 111.242 95.2737 112.819 92.022 112.24C85.056 111.872 77.9588 110.838 71.1309 110.342C77.8938 106.856 79.8593 97.5939 87.6885 95.9968C87.995 95.8703 88.518 96.3268 88.8338 96.6287C91.1977 99.5189 96.4694 97.3442 94.4709 93.775C92.6559 88.7376 90.265 94.7658 86.8481 95.119C79.5009 96.4933 78.1313 104.765 71.9953 107.801C68.9394 110.736 65.1046 112.726 60.9472 113.535C53.3386 115.455 46.1736 118.827 39.8428 123.465C43.3086 113.042 47.6079 102.918 52.699 93.1926C59.7634 87.1332 70.4341 86.1645 79.5037 85.256C89.3081 85.3169 100.003 84.002 108.738 89.6421C113.427 92.6102 118.541 94.8408 123.9 96.2562C124.279 96.2857 124.632 96.4622 124.884 96.7483C125.136 97.0345 125.267 97.4075 125.249 97.7883C124.819 100.63 128.052 103.714 130.377 101.699C132.003 98.6274 130.961 94.0153 126.241 94.9779C117.429 95.0602 110.542 88.682 102.859 85.4171C110.508 82.8618 118.455 79.1751 126.799 79.4062C128.892 80.9437 133.894 83.5622 133.419 78.6441C132.996 77.6183 132.451 75.3702 131.033 75.6429C130.113 76.3106 128.64 76.1019 128.166 77.6181C120.29 78.0582 112.291 81.214 104.524 83.6014C97.2717 85.3209 89.3323 84.2746 81.9732 83.9972C84.1928 81.7851 95.293 66.4981 96.8644 68.3947C97.8684 68.7712 98.9551 68.866 100.007 68.6689C101.059 68.4718 102.037 67.9903 102.835 67.2762C102.899 66.4349 102.765 65.5896 102.443 64.8089C102.121 64.0281 101.62 63.3341 100.981 62.783C95.6876 60.7892 95.8817 67.2876 92.7805 69.6233C74.5393 91.0734 81.2144 80.7089 55.231 89.6512C64.9475 70.9778 79.9752 55.6296 98.4139 45.5474C102.444 45.1724 106.511 45.528 110.419 46.597C113.134 50.279 118.572 53.0293 119.627 57.3241C118.652 61.2794 124.527 64.1615 124.929 59.3383C126.269 56.3847 122.367 57.7063 121.142 55.9547C120.303 54.5002 107.885 44.8576 113.475 45.8888C117.534 47.3833 122.43 45.3398 126.097 47.0439C128.813 50.1492 136.294 51.6488 136.874 55.779C136.987 66.7763 147.28 58.689 141.68 54.8527C137.34 53.1345 133.252 50.8305 129.53 48.0046C123.287 45.2741 137.826 42.9017 139.883 42.1493C142.598 42.1817 143.073 43.7384 146.097 42.2025C149.703 41.1473 145.958 36.474 143.539 36.4636C140.279 36.56 140.366 41.3498 136.845 41.6257C125.548 45.5743 113.376 46.3263 101.662 43.7994C107.861 39.1774 115.831 36.994 121.801 31.8181C126.771 25.4941 134.773 23.5616 141.436 19.2525C143.156 16.526 144.151 19.2849 146.56 19.1553C149.069 19.4408 149.943 15.3588 147.661 14.4038C145.118 13.0517 143.856 13.2365 142.581 15.827C139.54 20.3948 133.55 22.914 128.628 24.4881C131.978 20.0328 130.176 6.56329 136.17 6.37142C142.743 5.55627 135.034 -2.93154 132.633 2.26049C131.088 32.8849 114.759 34.6272 91.5892 47.6666C90.7096 36.1451 94.7932 22.7442 102.804 14.8059C106.434 14.7967 109.926 9.46681 105.957 7.26299C105.151 7.099 104.316 7.16323 103.546 7.44851C102.776 7.73378 102.101 8.22882 101.597 8.87808C101.092 9.52735 100.779 10.3052 100.691 11.1244C100.603 11.9436 100.745 12.7717 101.1 13.516C98.8132 18.1828 96.158 22.6581 93.1599 26.8993C92.5544 22.7074 87.3269 16.7009 90.4783 13.096C93.6297 9.49115 84.7505 7.15192 84.053 11.2571C84.6897 14.3076 85.7601 14.1781 88.1433 15.956C96.0351 36.7091 90.4855 28.5307 90.0097 47.1417C90.105 47.7265 90.0199 48.326 89.7658 48.8599C89.5117 49.3938 89.1008 49.8366 88.5881 50.129C82.2037 54.0112 77.2448 59.6102 71.6732 64.4776C71.1669 57.8369 72.0755 51.1684 74.3388 44.9153C74.7797 42.3325 77.6282 42.862 78.8248 40.9519C79.0462 40.6271 79.1915 40.2561 79.2499 39.8666C79.3083 39.4771 79.2782 39.0792 79.1619 38.7025C79.0456 38.3258 78.846 37.9801 78.5781 37.6911C78.3102 37.4021 77.9809 37.1773 77.6148 37.0334C74.7756 35.2516 71.3786 39.9421 73.9157 42.2087C74.4827 43.5834 73.2319 45.4199 72.7342 46.7056C69.5739 52.9551 72.0284 60.5857 69.4889 66.8912C60.3541 77.8604 52.7344 90.0157 46.8348 103.03C44.0291 96.5771 40.9455 66.6138 47.9072 63.2617C52.1598 62.7319 54.9398 55.2707 58.7892 56.3717C59.7662 57.0011 60.7825 57.4941 61.7814 56.5539C64.4377 55.4581 64.0401 49.4519 60.6375 50.3033C54.6484 50.5652 58.958 55.3898 54.6601 57.2588C52.1048 58.8892 49.7424 61.8564 46.62 62.1121C47.1295 60.1013 50.222 49.6302 52.4321 50.3511C52.7854 50.3956 53.1439 50.3653 53.4844 50.2621C53.8249 50.159 54.1398 49.9852 54.4087 49.752C54.6777 49.5189 54.8946 49.2316 55.0456 48.9087C55.1966 48.5858 55.2782 48.2346 55.2852 47.8776C55.0968 43.5377 51.2453 44.2863 49.6496 47.4894C49.5682 48.2193 50.5891 49.7669 50.1603 50.64C46.3584 57.8265 44.5594 65.5791 42.4884 73.252C42.4519 66.2084 35.941 59.699 37.7805 52.914C38.9038 51.0581 37.8604 49.6879 35.6928 49.7658C32.2537 49.3118 31.0632 54.0765 34.2734 54.961C35.7349 54.9103 36.2074 55.9398 36.5235 56.9379C42.6852 71.8743 42.6524 87.7337 45.5531 103.343C46.1605 109.047 41.7708 114.171 40.2881 119.56C36.1251 127.784 34.6185 137.289 30.5068 145.347C30.4135 137.007 26.6271 129.277 26.6663 121.026C26.9204 110.862 31.1449 100.932 30.0466 90.6771C29.9717 89.9157 30.0441 89.4537 30.8987 89.1491C34.8668 87.176 34.5398 81.5728 29.5105 81.7269C27.0525 81.5644 25.4128 85.5301 27.1168 87.5161C32.0447 95.2307 26.0873 112.262 25.0866 121.486C21.7176 115.985 18.1427 110.449 16.4851 104.17M103.92 112.565C104.513 114.409 104.296 114.811 101.661 115.61C95.0601 116.532 100.756 105.011 103.852 112.401L103.92 112.565ZM28.9501 82.9184C29.5141 82.705 30.1361 82.6998 30.7048 82.904C31.2735 83.1081 31.7519 83.5082 32.0545 84.0327C32.3571 84.5572 32.4642 85.172 32.3566 85.7672C32.2491 86.3625 31.9339 86.8993 31.4674 87.2819C30.1769 88.5586 29.6028 87.2828 28.7555 86.504C26.4376 86.0436 28.2451 84.0496 28.9501 82.9184ZM137.992 58.199C136.519 54.629 140.908 54.8352 141.958 57.091C142.391 59.9374 139.175 61.9364 137.992 58.199ZM100.17 67.367C97.1011 68.2731 95.4685 64.721 98.9464 63.6464C101.317 62.6687 102.698 66.8285 100.17 67.367ZM102.735 12.1455C101.939 10.2169 102.79 9.96179 104.463 9.03172C108.968 7.31728 104.127 16.5648 102.735 12.1455ZM145.016 41.7842C141.509 42.439 139.667 39.5974 143.569 38.2758C145.574 37.977 147.221 40.3466 145.016 41.7842ZM126.753 99.5208C126.423 98.7206 126.387 97.1268 127.199 96.7197C131.957 96.1975 129.34 104.576 126.753 99.5208ZM59.3026 51.6463C63.2695 50.25 62.7424 54.1887 60.8176 55.3189C59.5613 55.6931 57.4067 52.7886 59.3026 51.6463ZM133.655 4.62361C132.979 1.99774 136.849 1.40967 137.66 3.25987C138.451 6.22245 135.133 5.19064 133.655 4.62361ZM85.9561 10.712C87.5315 9.8941 88.1774 10.9961 89.5715 11.4774C88.2126 12.8783 86.6329 13.3379 85.0997 11.8816L85.9561 10.712ZM147.264 17.9047C144.896 19.1214 143.111 16.1846 145.442 15.3431C147.24 14.6013 148.005 16.6868 147.305 17.8879L147.264 17.9047ZM75.9929 38.0866C77.0846 38.3565 78.5187 38.4132 77.9745 39.9341C77.4304 41.4551 72.1731 40.7668 75.9929 38.0866ZM13.2556 96.9796C11.7532 97.0472 11.6395 94.4531 12.9481 94.3215C15.2637 94.2546 15.9769 96.5052 13.1534 97.0217L13.2556 96.9796ZM120.632 59.6462C121.389 58.0614 123.258 57.0265 123.8 59.0358C123.373 61.1323 122.131 60.6125 120.53 59.6883L120.632 59.6462ZM90.1555 95.8913C90.822 94.8419 91.8504 94.0759 93.0453 93.7388C94.0059 95.7195 91.8219 97.1486 90.0125 95.9503L90.1555 95.8913ZM131.328 76.9377C133.901 78.4214 130.978 81.884 130.168 79.1688C130.032 78.4327 129.412 77.3922 131.185 76.9967L131.328 76.9377ZM52.9567 49.2463C51.4328 48.2184 50.3111 46.8324 52.3304 46.0474C54.4881 45.8296 53.7285 47.8716 52.8884 49.3706L52.9567 49.2463ZM33.8505 52.9507C33.7743 52.766 33.6982 52.5814 33.622 52.3967C34.4764 51.396 35.2041 50.7837 36.5228 51.4881C35.8208 52.8581 35.4407 54.0233 33.7822 53.0749L33.8505 52.9507Z" fill="#1B4332"/>
</svg>
