<svg width="271" height="242" viewBox="0 0 271 242" fill="none" xmlns="http://www.w3.org/2000/svg">
<path d="M12.2628 173.88C12.1091 168.923 34.4544 165.391 30.236 173.143C26.8326 182.987 19.3752 181.629 18.0541 187.99C17.7373 189.281 17.9025 190.642 18.5191 191.82C19.1358 192.998 20.162 193.914 21.4077 194.397C22.6534 194.88 24.034 194.898 25.2937 194.448C26.5533 193.997 27.6065 193.109 28.2582 191.947C32.3832 187.733 25.5828 183.473 28.7363 179.266C37.5103 162.094 52.6182 148.938 70.9068 142.545C70.3036 155.427 61.171 166.747 55.2668 177.86C49.1815 187.176 34.5015 189.777 29.4087 199.567C31.9525 209.728 42.6957 206.12 39.2662 196.364C38.6258 191.095 46.3452 187.224 51.0394 185.54C55.7337 183.855 54.094 196.826 54.587 199.959C54.1059 203.38 53.1527 206.719 51.7543 209.883C51.0367 223.67 70.8856 214.983 60.3467 206.425C57.2543 204.982 56.8432 203.138 56.9723 199.892C53.5925 180.7 60.8964 170.642 70.1689 154.627C73.3358 148.376 73.1072 139.419 81.0134 137.084C96.7704 129.191 90.2002 143.133 90.3894 152.689C89.5843 156.834 82.905 161.878 88.1938 165.393C95.4688 171.712 101.777 157.765 93.8948 154.453C90.4435 149.749 94.1682 142.242 93.5615 136.636C95.6236 124.987 110.126 120.922 117.848 113.078C123.646 109.7 127.231 103.51 132.913 100.109C132.495 113.897 136.258 146.705 123.715 154.579C112.862 159.128 102.071 174.956 91.5738 175.972C82.8342 172.988 80.7759 188.051 88.1787 189.268C100.6 191.471 93.2817 179.255 99.0771 175.246C107.475 167.692 116.942 161.401 127.173 156.572C124.323 197.424 121.108 184.82 99.8981 201.692C97.8804 202.666 95.9552 203.82 94.1465 205.138C90.8779 207.436 87.851 210.055 85.1119 212.957C81.5067 214.063 76.5831 214.476 76.2538 218.229C77.7137 227.778 89.2435 225.412 86.8375 216.385C86.55 215.953 86.295 215.5 86.0744 215.03L86.8935 214.077L91.3336 209.379L91.7313 208.959C92.8505 207.727 94.2243 206.75 95.7585 206.093C97.2691 205.395 98.6579 204.462 99.8726 203.329C105.42 199.733 111.163 196.445 117.075 193.478C115.608 204.795 107.226 214.91 102.25 225.353C101.043 226.923 99.4356 228.144 97.5943 228.889C96.6255 229.698 95.8804 230.738 95.4295 231.912C94.9786 233.086 94.8369 234.354 95.0178 235.597C95.1988 236.839 95.6964 238.014 96.4635 239.011C97.2306 240.008 98.2417 240.793 99.401 241.293C111.954 243.034 102.458 227.37 106.538 221.862C109.12 218.8 114.035 200.159 118.843 206.184C123.721 210.777 127.507 216.391 129.928 222.62C130.211 223.297 130.285 224.042 130.139 224.76C129.993 225.479 129.635 226.139 129.11 226.655C128.187 227.329 127.506 228.279 127.167 229.365C126.827 230.451 126.848 231.616 127.226 232.688C127.603 233.76 128.317 234.683 129.263 235.321C130.209 235.96 131.337 236.279 132.48 236.233C136.624 235.246 140.981 230.484 137.069 226.913C128.692 221.063 127.733 209.484 119 202.86C118.626 202.538 118.32 202.145 118.102 201.703C117.883 201.262 117.756 200.781 117.728 200.29C117.699 199.798 117.77 199.306 117.937 198.842C118.103 198.378 118.361 197.952 118.696 197.588C124.993 189.397 124.617 178.305 127.804 168.524C130.254 161.915 143.626 181.786 147.351 183.821C153.089 188.878 163.951 216.703 159.352 222.868C153.577 229.807 165.212 235.076 168.089 227.672C170.281 223.247 167.996 221.372 164.902 219.297C160.403 213.05 159.691 204.115 157.01 196.829C155.986 193.018 157.234 191.901 160.934 193.42C168.46 196.886 181.863 197.002 183.422 207.059C185.033 215.7 195.269 212.228 193.156 203.463C191.569 199.015 186.057 202.284 182.952 200.731C174.603 193.577 162.345 193.953 153.752 187.869C128.355 159.213 127.393 174.069 132.812 138.659C135.796 107.518 131.201 94.6366 155.426 70.5669C157.103 68.0611 158.816 70.1548 159.656 71.8348C171.054 108.69 165.24 100.858 149.283 130.791C147.999 135.922 142.954 130.41 141.818 137.676C140.298 147.328 156.322 145.937 151.326 136.52C148.59 129.093 157.994 122.158 160.937 115.601C166.53 124.388 166.172 135.904 169.168 145.787C167.407 153.761 165.38 163.846 158.754 169.329C156.169 171.759 156.077 172.847 158.159 175.824C160.242 178.801 162.866 179.782 165.311 178.668C166.218 178.133 167.001 177.413 167.606 176.556C168.212 175.698 168.627 174.723 168.824 173.695C169.021 172.666 168.995 171.608 168.748 170.591C168.502 169.574 168.04 168.622 167.393 167.796C161.897 163.192 169.339 156.422 170.385 150.874C173.123 142.633 186.981 166.195 190.667 168.829C191.235 169.502 190.952 171.17 190.519 172.225C187.398 177.32 195.712 184.18 198.106 177.726C199.491 174.662 200.866 169.668 196.011 169.107C186.887 163.571 180.946 153.155 173.368 145.574C166.927 136.889 168.069 125.055 164.659 115.148C164.241 114.024 164.225 112.791 164.614 111.655C165.002 110.519 165.771 109.549 166.792 108.908C167.813 108.266 169.025 107.992 170.224 108.131C171.423 108.269 172.537 108.813 173.38 109.67C202.456 129.823 196.264 134.883 202.521 164.826C204.367 168.315 199.695 172.335 204.504 174.981C208.998 179.038 213.957 171.53 212.685 167.526C211.92 161.233 203.414 166.017 202.83 160.593C203.727 144.594 192.615 130.091 215.714 141.986C217.286 142.612 217.286 143.54 216.415 144.982C209.629 156.537 230.594 154.88 225.87 144.316C218.921 140.371 210.701 137.36 203.387 133.794C192.042 125.371 184.747 111.816 171.064 105.385C170.064 104.872 169.22 104.103 168.619 103.158C168.018 102.214 167.681 101.127 167.643 100.009C167.42 88.6379 162.797 77.9874 160.75 66.9867C162.133 58.9848 170.565 53.2819 175.495 47.0765C183.23 42.7206 186.127 23.1738 190.048 24.6649C194.938 34.132 207.334 61.6588 198.863 70.1139C193.723 74.8969 192.606 82.0126 188.826 87.2242C186.056 89.046 187.243 91.4264 187.56 93.7269C189.599 103.429 202.603 94.4231 195.53 88.2286C188.412 80.7402 201.326 74.3811 202.905 67.0609C205.261 63.0618 207.346 72.8327 208.711 74.5232C213.579 89.0422 221.872 102.811 224.634 117.846C224.675 131.313 228.881 144.437 236.683 155.439C236.891 156.053 236.968 156.703 236.912 157.349C236.855 157.994 236.665 158.622 236.354 159.192C233.18 163.847 240.376 168.282 242.882 163.67C248.751 158.428 241.312 155.99 237.831 152.886C231.427 144.723 227.622 134.844 226.903 124.513C227.564 120.72 224.141 111.631 230.016 111.66C239.835 111.84 252.646 109.243 260.117 117.172C262.189 120.373 265.547 124.308 268.632 119.849C273.834 115.876 268.938 107.597 263.535 111.447C262.91 112.219 262.027 112.743 261.047 112.924C260.066 113.104 259.054 112.929 258.194 112.43C250.368 108.035 241.495 109.188 232.85 108.828C226.598 108.771 224.161 106.876 221.802 101C213.381 82.3807 206.065 63.286 199.892 43.8141C198.046 34.1627 190.43 24.7299 192.06 15.0644L197.056 1.09138C196.279 0.930697 195.515 0.713321 194.77 0.440996C189.236 16.4471 185.974 35.1473 171.784 44.8544C152.594 52.496 141.269 68.2407 121.866 51.3671C114.931 44.1535 101.931 46.7359 98.0736 40.2249C97.6409 39.54 97.0499 38.9678 96.3494 38.5557C95.6489 38.1437 94.8592 37.9037 94.0459 37.8556C88.4056 37.91 89.7023 45.809 89.1786 49.8081C88.655 53.8073 96.0266 56.921 97.117 51.7392C102.303 36.258 125.899 57.7826 134.474 61.5669C124.338 67.4026 90.7207 80.956 80.1544 77.7108C72.8635 74.0303 66.5853 68.2219 57.8608 68.1313C55.5093 67.8603 53.2467 68.3209 51.1564 66.1988C48.0583 62.8627 40.5957 66.9998 42.4725 71.6724C42.4872 73.0458 42.9871 74.3695 43.8851 75.4126C44.783 76.4557 46.0219 77.1519 47.3855 77.3796C48.7491 77.6074 50.1507 77.3522 51.3457 76.6586C52.5407 75.9651 53.4533 74.8772 53.924 73.5849C54.1156 72.6155 54.6537 71.7471 55.4391 71.1399C56.2244 70.5326 57.204 70.2276 58.197 70.281C65.3832 69.4076 70.8918 75.3467 77.1 78.1192C86.496 81.5809 59.0048 90.1572 56.0686 93.0759C46.7132 94.8534 37.5298 97.4354 28.6223 100.793C25.0038 101.79 20.4876 98.4772 17.8246 102.105C14.6953 107.126 18.1541 114.354 24.4654 112.436C27.3056 111.497 26.8387 107.655 28.1508 105.528C32.4188 99.1062 42.7318 98.1126 49.925 96.6814C50.3772 102.864 37.741 119.51 40.7635 122.225C43.9199 126.964 51.0857 128.692 52.037 122.674C47.4752 112.832 47.1209 100.995 57.5718 94.6753C76.2395 85.5007 95.591 75.7974 116.38 73.3078C114.297 81.3948 111.728 91.026 104.987 96.4862C102.856 98.3416 99.9352 99.8476 98.7927 102.14C97.7233 105.648 101.459 112.694 106.377 109.46C107.38 108.997 108.279 108.337 109.019 107.521C109.76 106.704 110.326 105.748 110.686 104.709C111.045 103.67 111.189 102.57 111.11 101.475C111.03 100.38 110.728 99.3128 110.223 98.3373C112.025 88.2539 116.152 78.7175 122.281 70.4743C137.424 63.9928 152.017 56.0561 167.241 49.9361C148.122 77.2464 128.142 107.001 98.2611 125.149C85.6244 134.407 68.8788 138.782 55.6804 148.034C46.1013 152.911 39.6602 163.607 28.7258 165.641C23.3886 164.805 15.9774 170.904 12.0877 165.362C10.1689 161.882 3.98906 164.267 2.12922 167.426C-3.48642 173.529 8.3741 183.114 12.2686 173.619M21.0377 192.231C21.1979 187.088 20.0905 184.438 26.1076 185.637C25.6608 189.961 26.8979 192.447 21.0187 192.382L21.0377 192.231ZM32.9522 203.183L31.93 197.85C33.6834 197.762 35.4388 197.963 37.1255 198.443C37.7201 201.49 37.6273 203.803 32.9464 203.444L32.9522 203.183ZM54.2373 212.774C51.7823 209.805 56.8044 206.818 59.5892 209.116C63.5056 212.724 57.7064 217.624 54.2316 213.034L54.2373 212.774ZM89.7334 163.907C86.7255 161.005 91.3405 157.437 94.3795 158.441C97.3352 160.607 93.0202 167.257 89.7144 164.058L89.7334 163.907ZM93.0547 186.002C87.9316 190.003 83.0164 183.101 88.5157 179.425C91.8852 178.533 96.7501 183.177 93.0356 186.153L93.0547 186.002ZM79.2396 216.64C80.5561 216.703 81.8681 216.729 83.1846 216.792C88.0642 223.402 78.3276 224.214 79.2205 216.791L79.2396 216.64ZM104.33 238.466C100.812 241.827 95.2209 233.67 98.239 232.041C102.407 231.868 105.229 233.864 104.164 238.635L104.33 238.466ZM135.647 232.135C132.055 235.505 129.151 233.147 129.822 229.13C132.13 229.964 136.289 228.493 135.481 232.304L135.647 232.135ZM162.018 228.187C158.555 225.23 162.393 221.422 165.531 222.934C169.327 225.554 164.904 231.623 161.852 228.356L162.018 228.187ZM187.978 204.241C191.353 203.088 190.819 206.383 191.511 209.306C187.027 209.034 184.249 207.404 187.811 204.41L187.978 204.241ZM149.769 141.87C145.951 141.221 145.153 140.501 144.785 137.167C147.298 138.458 149.776 138.231 149.603 142.039L149.769 141.87ZM166.379 176.682C162.214 176.26 159.714 175.078 161.488 171.521C163.204 171.25 164.948 171.213 166.673 171.411L166.379 176.682ZM197.299 172.626C197.41 175.694 196.843 178.102 193.765 176.472C192.28 173.793 193.556 172.599 197.133 172.795L197.299 172.626ZM207.232 166.964C207.924 166.754 208.668 166.791 209.336 167.066C210.004 167.342 210.554 167.84 210.892 168.475C211.23 169.11 211.335 169.842 211.189 170.546C211.043 171.25 210.654 171.882 210.091 172.334C206.264 174.693 203.653 170.443 207.065 167.133L207.232 166.964ZM218.921 149.913L219.008 145.707C225.053 141.593 226.904 152.21 218.755 150.081L218.921 149.913ZM190.319 94.5797C191.303 91.6012 191.532 90.7194 194.398 91.225C194.839 94.8471 193.813 94.7119 190.152 94.7484L190.319 94.5797ZM241.632 159.85C242.363 162.174 240.364 161.415 238.173 162.164C238.921 159.697 239.72 160.119 241.632 159.85ZM268.171 113.594C267.446 116.244 268.044 118.398 264.997 118.249C265.744 115.782 264.366 113.054 268.171 113.594ZM94.9587 51.5189L94.0628 52.1475C89.7174 50.8565 90.313 39.7573 95.4927 40.8356C98.4256 41.89 94.3361 48.5501 94.9587 51.5189ZM46.4143 73.6437C45.8183 73.2104 45.4018 72.5763 45.2426 71.8597C45.0834 71.143 45.1923 70.3929 45.5492 69.7494C45.9061 69.1058 46.4865 68.6128 47.1819 68.3624C47.8773 68.1121 48.6403 68.1214 49.3283 68.3887C52.6888 71.7301 50.0792 75.7972 46.4143 73.6437ZM23.9895 110.675L19.6842 109.713C19.4994 106.654 18.3495 104.269 21.6109 102.796C22.8319 103.662 23.7208 104.913 24.1327 106.347C24.5446 107.78 24.4551 109.31 23.879 110.688L23.9895 110.675ZM43.528 122.817C42.4594 118.64 45.0594 115.725 48.4637 118.504C52.1075 124.484 48.4928 124.589 43.528 122.817ZM106.758 106.444C99.264 112.478 100.099 93.8131 107.435 100.013C107.852 100.465 108.168 101 108.362 101.583C108.556 102.166 108.624 102.783 108.56 103.394C108.497 104.005 108.304 104.596 107.994 105.128C107.684 105.66 107.264 106.121 106.762 106.48L106.758 106.444ZM3.93881 168.468C12.1576 161.938 11.0791 176.14 6.26549 175.611C5.56456 175.384 4.92781 174.996 4.40726 174.478C3.88671 173.961 3.49703 173.327 3.27016 172.631C3.0433 171.935 2.98569 171.194 3.10189 170.471C3.21809 169.748 3.50484 169.061 3.93881 168.468Z" fill="#1B4332"/>
</svg>
