<svg width="70" height="70" viewBox="0 0 70 70" fill="none" xmlns="http://www.w3.org/2000/svg">
<g clip-path="url(#clip0_135_8068)">
<g clip-path="url(#clip1_135_8068)">
<rect x="7.00012" y="14" width="55" height="37" fill="#30DE76"/>
<path d="M28.5901 22.54C29.1901 22.54 29.4801 22.61 30.0601 22.68C30.1373 22.6983 30.2183 22.6905 30.2907 22.658C30.363 22.6254 30.4226 22.5699 30.4601 22.5L30.7101 21.5C30.7101 21.37 30.8401 21.38 30.9201 21.5C31.1701 21.93 31.3001 22.16 31.5401 22.6C31.5828 22.6963 31.6462 22.782 31.7257 22.8511C31.8051 22.9202 31.8988 22.9711 32.0001 23C32.5401 23.11 32.7401 23.16 33.3901 23.34C33.5701 23.34 33.6001 23.47 33.4701 23.51C33.0701 23.65 32.8601 23.69 32.4701 23.86C32.4381 23.8766 32.4099 23.8997 32.3873 23.9277C32.3647 23.9558 32.3481 23.9883 32.3387 24.023C32.3293 24.0578 32.3272 24.0942 32.3326 24.1298C32.338 24.1655 32.3508 24.1996 32.3701 24.23C32.5901 24.68 32.7001 24.91 32.9001 25.39C32.9701 25.55 32.9001 25.57 32.7601 25.44C32.3886 25.1197 31.9979 24.8225 31.5901 24.55C31.5123 24.496 31.4236 24.4599 31.3302 24.4444C31.2368 24.4288 31.1411 24.4342 31.0501 24.46C30.6401 24.63 30.4401 24.76 30.0501 24.95C29.9101 25.01 29.8301 24.95 29.8601 24.83C29.9701 24.45 30.0201 24.23 30.1301 23.83C30.1312 23.7463 30.1094 23.6639 30.0671 23.5917C30.0248 23.5194 29.9636 23.4601 29.8901 23.42C29.3801 23.12 29.1101 22.97 28.5901 22.69C28.4201 22.59 28.4301 22.53 28.5901 22.55" fill="#242424"/>
<path d="M22.8302 26.7599C23.3552 26.6401 23.8858 26.5467 24.4202 26.4799C24.5116 26.4708 24.5997 26.4408 24.6778 26.3923C24.7558 26.3438 24.8216 26.2779 24.8702 26.1999L25.2202 25.1999C25.2702 25.0699 25.3702 25.0599 25.4402 25.1999C25.6702 25.5799 25.7902 25.7699 26.0102 26.1999C26.0671 26.272 26.1402 26.3295 26.2237 26.3677C26.3071 26.406 26.3985 26.4238 26.4902 26.4199C27.1102 26.4199 27.2602 26.3499 27.9002 26.3199C28.0802 26.3199 28.1002 26.3799 27.9702 26.4599C27.4802 26.7799 27.3302 26.9099 26.9002 27.1699C26.8326 27.2005 26.7799 27.2566 26.7536 27.326C26.7274 27.3953 26.7297 27.4723 26.7602 27.5399C26.9702 27.9299 27.0802 28.1299 27.2802 28.5399C27.3502 28.6699 27.2802 28.7099 27.1202 28.6199C26.7303 28.3908 26.3262 28.1871 25.9102 28.0099C25.821 27.968 25.7237 27.9463 25.6252 27.9463C25.5266 27.9463 25.4293 27.968 25.3402 28.0099C24.8802 28.2799 24.7302 28.3799 24.1102 28.7699C23.9402 28.8699 23.8602 28.8599 23.9202 28.6899C24.1202 28.1799 24.1902 28.0599 24.3502 27.6899C24.4102 27.5599 24.3002 27.3999 24.1302 27.3499C23.6842 27.2063 23.2301 27.0894 22.7702 26.9999C22.5902 26.9999 22.6202 26.8899 22.8302 26.8499" fill="#242424"/>
<path d="M19.7801 32.1101C20.2943 32.0444 20.8118 32.0076 21.3301 32.0001C21.4301 31.998 21.5286 31.9756 21.6197 31.9344C21.7108 31.8931 21.7926 31.8338 21.8601 31.7601L22.6101 30.7601C22.7001 30.6301 22.8001 30.6301 22.8201 30.7601C22.8201 31.1801 22.9001 31.3901 22.9401 31.8201C22.9634 31.8976 23.009 31.9664 23.0713 32.018C23.1335 32.0696 23.2097 32.1017 23.2901 32.1101C23.9001 32.1901 24.0001 32.2101 24.6101 32.3201C24.7701 32.3201 24.7801 32.4301 24.6101 32.4801C24.1201 32.6401 23.8701 32.7301 23.3601 32.9301C23.2783 32.9601 23.2057 33.0109 23.1496 33.0775C23.0935 33.1442 23.0557 33.2244 23.0401 33.3101C23.0401 33.7401 23.0401 33.9601 23.0401 34.4001C23.0401 34.5501 22.9501 34.5801 22.8401 34.4801C22.5201 34.1701 22.3501 34.0101 22.0101 33.7201C21.9249 33.677 21.8307 33.6546 21.7351 33.6546C21.6396 33.6546 21.5454 33.677 21.4601 33.7201C20.9001 33.9601 20.6101 34.0901 20.0401 34.3601C19.8501 34.4501 19.7801 34.4101 19.8901 34.2701L20.7401 33.2101C20.7695 33.1857 20.7931 33.1551 20.8094 33.1206C20.8256 33.086 20.834 33.0483 20.834 33.0101C20.834 32.9719 20.8256 32.9342 20.8094 32.8996C20.7931 32.8651 20.7695 32.8345 20.7401 32.8101C20.3988 32.5985 20.0448 32.4082 19.6801 32.2401C19.5401 32.1701 19.5901 32.1001 19.8001 32.0901" fill="#242424"/>
<path d="M30.1301 39.2399C29.7372 39.4682 29.3598 39.7221 29.0001 39.9999C28.927 40.0566 28.8706 40.1322 28.8372 40.2185C28.8037 40.3049 28.7944 40.3987 28.8101 40.4899C28.9201 40.9999 28.9701 41.2499 29.0801 41.7899C29.0801 41.9699 29.0801 42.0299 28.9101 41.9199C28.5201 41.5899 28.3301 41.4299 27.9101 41.1299C27.8378 41.0763 27.7502 41.0474 27.6601 41.0474C27.5701 41.0474 27.4825 41.0763 27.4101 41.1299L26.3001 41.9999C26.1501 42.1299 26.0901 42.0799 26.1601 41.8999L26.7001 40.5399C26.7355 40.4603 26.7439 40.3713 26.724 40.2864C26.7042 40.2016 26.6572 40.1256 26.5901 40.0699C26.1801 39.7999 25.9801 39.6699 25.5901 39.4199C25.4601 39.3399 25.5001 39.2599 25.6701 39.2399C26.2101 39.1699 26.4801 39.1399 27.0201 39.0999C27.1126 39.0859 27.2001 39.0494 27.2751 38.9936C27.3501 38.9378 27.4102 38.8644 27.4501 38.7799C27.6601 38.2799 27.7601 38.0399 27.9501 37.5699C28.0201 37.4199 28.1001 37.4099 28.1401 37.5699C28.2701 38.0299 28.3301 38.2599 28.4501 38.7399C28.476 38.8198 28.5269 38.8893 28.5954 38.9379C28.6638 38.9866 28.7462 39.0118 28.8301 39.0099C29.2594 38.9748 29.6909 38.9748 30.1201 39.0099C30.2801 39.0099 30.3001 39.1099 30.1201 39.1899" fill="#242424"/>
<path d="M37.0901 40.0002C36.7101 40.1202 36.5301 40.1802 36.1501 40.3202C36.0868 40.3524 36.0387 40.4082 36.0162 40.4756C35.9937 40.543 35.9987 40.6165 36.0301 40.6802C36.1901 41.1402 36.2801 41.3602 36.4501 41.8202C36.5101 41.9702 36.4501 42.0002 36.3101 41.8802C35.9001 41.5202 35.7001 41.3402 35.3101 40.9602C35.2516 40.9002 35.1779 40.8573 35.0968 40.8362C35.0157 40.815 34.9304 40.8164 34.8501 40.8402C34.4701 41.0002 34.2701 41.0802 33.8501 41.2702C33.7201 41.3302 33.6501 41.2702 33.7001 41.1302C33.8501 40.7102 33.9201 40.5102 34.0701 40.1302C34.0871 40.0471 34.0821 39.961 34.0558 39.8804C34.0296 39.7998 33.9828 39.7274 33.9201 39.6702L32.9201 38.6702C32.8001 38.5402 32.8201 38.4802 32.9701 38.5302L34.1501 38.9102C34.2154 38.9383 34.2889 38.9405 34.3558 38.9163C34.4226 38.8922 34.4778 38.8435 34.5101 38.7802L34.8501 37.8602C34.8501 37.7502 34.9701 37.7802 35.0101 37.9202C35.1701 38.3802 35.2401 38.6102 35.4001 39.0702C35.4344 39.152 35.4849 39.226 35.5485 39.2879C35.612 39.3498 35.6874 39.3982 35.7701 39.4302L36.9501 39.8202C37.1101 39.8702 37.1401 39.9402 37.0201 39.9802" fill="#242424"/>
<path d="M43.3301 38.1801L42.3301 38.5801C42.2976 38.5947 42.2686 38.6161 42.245 38.6428C42.2214 38.6696 42.2038 38.7011 42.1934 38.7351C42.183 38.7692 42.18 38.8052 42.1846 38.8405C42.1892 38.8759 42.2013 38.9098 42.2201 38.9401C42.4301 39.3801 42.5401 39.6001 42.7701 40.0401C42.8401 40.1801 42.7701 40.2101 42.6201 40.1001C42.2164 39.8235 41.8321 39.5195 41.4701 39.1901C41.4096 39.1271 41.3364 39.0776 41.2554 39.0449C41.1744 39.0121 41.0874 38.9969 41.0001 39.0001L40.0001 39.3101C39.8801 39.3101 39.8001 39.3101 39.8401 39.1601C39.9501 38.7801 40.0101 38.5901 40.1301 38.2301C40.1385 38.1423 40.1256 38.0537 40.0925 37.9719C40.0594 37.8901 40.0072 37.8175 39.9401 37.7601L38.8801 36.7001C38.7501 36.5601 38.7601 36.5001 38.9301 36.5701L40.1701 37.0601C40.201 37.078 40.235 37.0896 40.2703 37.0942C40.3057 37.0988 40.3416 37.0965 40.376 37.0872C40.4103 37.0779 40.4426 37.0619 40.4707 37.04C40.4989 37.0182 40.5225 36.9911 40.5401 36.9601C40.6601 36.5901 40.7201 36.4101 40.8501 36.0501C40.8501 35.9301 40.9701 35.9601 41.0301 36.1101C41.2101 36.5901 41.3101 36.8301 41.5001 37.3101C41.5906 37.4827 41.7394 37.6174 41.9201 37.6901C42.3573 37.8331 42.8055 37.9401 43.2601 38.0101C43.4301 38.0101 43.4601 38.1101 43.3301 38.1601" fill="#242424"/>
<path d="M47.4001 33.9999C47.0101 34.2799 46.8101 34.4099 46.4001 34.6399C46.3407 34.6736 46.2951 34.7272 46.2713 34.7912C46.2475 34.8552 46.2471 34.9256 46.2701 34.9899L46.7101 35.8499C46.7701 35.9699 46.7101 35.9999 46.5701 35.9199C46.2261 35.742 45.8922 35.545 45.5701 35.3299C45.5055 35.2884 45.4323 35.2622 45.356 35.2536C45.2797 35.2449 45.2024 35.2539 45.1301 35.2799L44.2501 35.6599C44.1301 35.6599 44.0701 35.6599 44.1101 35.5599L44.3901 34.7499C44.4031 34.6804 44.3959 34.6085 44.3693 34.543C44.3427 34.4774 44.2979 34.4208 44.2401 34.3799C43.8601 34.0799 43.6701 33.8999 43.3001 33.5799C43.1801 33.4699 43.2001 33.4199 43.3501 33.4499C43.7901 33.5599 44.0201 33.6099 44.4701 33.6899C44.5403 33.7051 44.6135 33.6954 44.6773 33.6626C44.7412 33.6298 44.7916 33.5758 44.8201 33.5099C44.9501 33.1299 45.0101 32.9399 45.1401 32.5099C45.1401 32.3899 45.2601 32.3899 45.3101 32.5099L45.7101 33.5099C45.745 33.5809 45.7971 33.6419 45.8618 33.6873C45.9265 33.7328 46.0016 33.7612 46.0801 33.7699C46.4897 33.7949 46.9005 33.7949 47.3101 33.7699C47.4701 33.7699 47.5001 33.8199 47.3701 33.9099" fill="#242424"/>
<path d="M50.7101 27.7499C50.3301 28.1499 50.1401 28.3499 49.7101 28.7499C49.6507 28.8009 49.6057 28.8664 49.5794 28.94C49.5531 29.0137 49.5464 29.0929 49.5601 29.1699C49.6901 29.4999 49.7501 29.6699 49.8901 29.9899C49.8901 30.0899 49.8901 30.1599 49.7501 30.1299C49.4453 30.0565 49.1449 29.9664 48.8501 29.8599C48.774 29.8444 48.6954 29.8472 48.6206 29.8681C48.5458 29.889 48.4771 29.9273 48.4201 29.9799C48.0601 30.3199 47.8601 30.4799 47.5301 30.7799C47.4201 30.8799 47.3601 30.8499 47.4001 30.7199C47.5201 30.3199 47.6201 30.1099 47.7701 29.7199C47.794 29.6567 47.795 29.5872 47.7731 29.5233C47.7512 29.4594 47.7077 29.4052 47.6501 29.3699C47.3201 29.1999 47.1501 29.1099 46.8201 28.9199C46.7201 28.8599 46.7401 28.7899 46.8801 28.7699C47.3001 28.6999 47.5101 28.6599 47.9501 28.5599C48.1058 28.5005 48.2316 28.3819 48.3001 28.2299L48.6901 27.0999C48.6901 26.9599 48.8101 26.9299 48.8401 27.0999C48.9501 27.4799 49.0101 27.6599 49.1301 28.0299C49.1602 28.09 49.2125 28.1361 49.2759 28.1584C49.3393 28.1808 49.4089 28.1778 49.4701 28.1499C49.9201 27.9899 50.1501 27.9099 50.6101 27.7099C50.7601 27.6499 50.7801 27.7099 50.6601 27.8299" fill="#242424"/>
<path d="M43.5202 23.61C43.853 23.6355 44.1873 23.6355 44.5202 23.61C44.5924 23.6041 44.661 23.576 44.7165 23.5294C44.7721 23.4828 44.8118 23.4202 44.8302 23.3501L45.1202 22.23C45.1202 22.08 45.2202 22.07 45.2702 22.23C45.4002 22.66 45.4702 22.87 45.6102 23.23C45.6363 23.2931 45.6807 23.3469 45.7378 23.3844C45.7949 23.4218 45.8619 23.4412 45.9302 23.44C46.3002 23.44 46.5302 23.44 46.9902 23.44C47.1202 23.44 47.1602 23.4901 46.9902 23.5801C46.6502 23.8401 46.4802 23.9401 46.1502 24.2001C46.0928 24.2472 46.0514 24.311 46.0318 24.3826C46.0121 24.4542 46.015 24.5302 46.0402 24.6001C46.1702 24.9701 46.2402 25.1501 46.3802 25.5001C46.3802 25.6201 46.3802 25.6601 46.2702 25.6001C45.9302 25.4201 45.7602 25.3301 45.4302 25.1301C45.3725 25.0914 45.3046 25.0707 45.2352 25.0707C45.1657 25.0707 45.0978 25.0914 45.0402 25.1301C44.7302 25.3901 44.5702 25.5201 44.2702 25.7501C44.1702 25.8301 44.1102 25.7501 44.1402 25.6601L44.4002 24.73C44.4123 24.663 44.4056 24.5939 44.3809 24.5303C44.3562 24.4668 44.3144 24.4113 44.2602 24.3701C43.972 24.1649 43.695 23.9446 43.4302 23.7101C43.3202 23.6201 43.3402 23.56 43.4302 23.57" fill="#242424"/>
<path d="M36.2701 22.2099L37.4101 22.5499C37.4754 22.5743 37.5475 22.5735 37.6122 22.5476C37.6769 22.5217 37.7297 22.4726 37.7601 22.4099L38.0701 21.4699C38.0701 21.3499 38.1901 21.3699 38.2401 21.4699C38.4001 21.9299 38.4701 22.1599 38.6201 22.6099C38.6467 22.701 38.6952 22.7842 38.7615 22.8522C38.8277 22.9202 38.9097 22.9709 39.0001 22.9999L40.1301 23.3299C40.2801 23.3299 40.3001 23.4499 40.1301 23.4999L39.2201 23.8599C39.1582 23.8883 39.11 23.9398 39.0857 24.0033C39.0614 24.0669 39.063 24.1375 39.0901 24.1999C39.2301 24.6299 39.2901 24.8499 39.4301 25.2799C39.4301 25.4199 39.4301 25.4399 39.3001 25.2799C38.9501 24.9199 38.7801 24.7399 38.4201 24.3899C38.3681 24.3323 38.3021 24.2892 38.2285 24.2647C38.1549 24.2401 38.0762 24.235 38.0001 24.2499L37.1501 24.5199C37.0501 24.5199 36.9801 24.5199 37.0201 24.3999C37.1301 24.0699 37.1901 23.9099 37.3101 23.5799C37.3219 23.5044 37.3144 23.4272 37.2882 23.3555C37.2619 23.2837 37.2178 23.2199 37.1601 23.1699C36.7801 22.8199 36.5901 22.6399 36.1601 22.3099C36.0301 22.1999 36.0501 22.1399 36.1601 22.1799" fill="#242424"/>
<path d="M54.2902 21.94C53.9602 22.25 53.7802 22.4 53.4202 22.73C53.3102 22.84 53.2402 23 53.2802 23.09C53.4102 23.37 53.4702 23.5 53.6102 23.75C53.6102 23.83 53.6102 23.89 53.4702 23.88L52.5802 23.74C52.5014 23.736 52.4226 23.7482 52.3487 23.7757C52.2748 23.8032 52.2072 23.8455 52.1502 23.9L51.2102 24.76C51.0802 24.87 51.0302 24.86 51.0802 24.76C51.2502 24.36 51.3302 24.16 51.5002 23.76C51.5153 23.7342 51.5248 23.7054 51.5279 23.6756C51.5311 23.6458 51.5278 23.6157 51.5183 23.5873C51.5088 23.5589 51.4934 23.5328 51.473 23.5109C51.4526 23.4889 51.4278 23.4716 51.4002 23.46C51.0602 23.35 50.8902 23.29 50.5702 23.16C50.4602 23.16 50.4902 23.05 50.6302 23.01L51.7202 22.69C51.8738 22.6286 52.0011 22.5154 52.0802 22.37C52.2402 21.96 52.3302 21.75 52.4902 21.37C52.4902 21.23 52.6102 21.22 52.6402 21.37C52.7302 21.7 52.7802 21.86 52.8902 22.17C52.8902 22.27 53.0602 22.31 53.2002 22.27L54.2002 21.92C54.3302 21.92 54.3502 21.92 54.2002 22.02" fill="#242424"/>
<path d="M39.5101 29.1901C39.7501 29.1301 39.7901 29.0001 39.5101 29.0201C35.5519 29.8515 31.7467 31.292 28.2301 33.2901C25.315 34.9331 22.5597 36.8447 20.0001 39.0001C19.6901 39.2401 19.4601 39.2401 19.4101 39.1001C19.2201 38.6001 19.1101 38.3201 18.9501 37.8601C18.9501 37.7101 18.7701 37.7301 18.7201 37.9301C18.5101 38.6001 18.4101 39.0101 18.2101 39.6201C18.1392 39.8957 17.9634 40.1325 17.7201 40.2801L16.4101 41.1701C16.2501 41.2901 16.1701 41.4101 16.4901 41.4601L17.2801 41.6101C17.6201 41.6701 17.5101 41.9001 17.4601 42.1001C17.3201 42.6601 17.2701 42.8801 17.0801 43.4601C17.0201 43.6501 17.0801 43.6801 17.2601 43.5101L18.3901 42.3301C18.5801 42.1301 18.7501 41.9001 18.9501 41.9401L20.1901 42.1701C20.5001 42.2301 20.4901 42.0901 20.4101 41.8901C20.1801 41.3101 20.2201 41.3801 20.0401 40.8901C20.0026 40.7845 19.993 40.6711 20.0123 40.5607C20.0316 40.4503 20.0791 40.3468 20.1501 40.2601C22.549 37.8493 25.2359 35.7434 28.1501 33.9901C31.6854 31.8412 35.5256 30.2397 39.5401 29.2401" fill="#242424"/>
<path d="M7.7466 57.6899V52.599H9.52643C9.88107 52.599 10.1736 52.6603 10.4039 52.783C10.6343 52.904 10.8058 53.0672 10.9185 53.2727C11.0312 53.4765 11.0875 53.7027 11.0875 53.9513C11.0875 54.1701 11.0486 54.3507 10.9707 54.4932C10.8945 54.6357 10.7934 54.7484 10.6674 54.8313C10.5431 54.9141 10.4081 54.9755 10.2622 55.0152V55.0649C10.418 55.0749 10.5746 55.1296 10.732 55.229C10.8895 55.3284 11.0212 55.471 11.1273 55.6566C11.2333 55.8422 11.2864 56.0692 11.2864 56.3377C11.2864 56.5929 11.2284 56.8224 11.1124 57.0262C10.9964 57.2301 10.8132 57.3916 10.563 57.511C10.3128 57.6303 9.98713 57.6899 9.58609 57.6899H7.7466ZM8.36308 57.1431H9.58609C9.98879 57.1431 10.2747 57.0652 10.4437 56.9094C10.6144 56.752 10.6997 56.5614 10.6997 56.3377C10.6997 56.1653 10.6558 56.0062 10.568 55.8604C10.4802 55.7129 10.355 55.5952 10.1926 55.5074C10.0302 55.4179 9.83799 55.3732 9.61592 55.3732H8.36308V57.1431ZM8.36308 54.8362H9.50655C9.69215 54.8362 9.85953 54.7998 10.0087 54.7269C10.1595 54.654 10.2788 54.5512 10.3666 54.4186C10.4561 54.2861 10.5009 54.1303 10.5009 53.9513C10.5009 53.7276 10.423 53.5378 10.2672 53.3821C10.1114 53.2246 9.8645 53.1459 9.52643 53.1459H8.36308V54.8362ZM12.5081 57.6899H11.8618L13.7312 52.599H14.3675L16.2368 57.6899H15.5905L14.0692 53.4044H14.0295L12.5081 57.6899ZM12.7468 55.7013H15.3519V56.2482H12.7468V55.7013ZM19.1378 54.871V55.4179H16.9105V54.871H19.1378ZM20.2495 57.6899V52.599H22.0294C22.384 52.599 22.6765 52.6603 22.9068 52.783C23.1372 52.904 23.3087 53.0672 23.4214 53.2727C23.5341 53.4765 23.5904 53.7027 23.5904 53.9513C23.5904 54.1701 23.5515 54.3507 23.4736 54.4932C23.3974 54.6357 23.2963 54.7484 23.1703 54.8313C23.0461 54.9141 22.911 54.9755 22.7652 55.0152V55.0649C22.9209 55.0749 23.0775 55.1296 23.235 55.229C23.3924 55.3284 23.5242 55.471 23.6302 55.6566C23.7363 55.8422 23.7893 56.0692 23.7893 56.3377C23.7893 56.5929 23.7313 56.8224 23.6153 57.0262C23.4993 57.2301 23.3162 57.3916 23.0659 57.511C22.8157 57.6303 22.4901 57.6899 22.089 57.6899H20.2495ZM20.866 57.1431H22.089C22.4917 57.1431 22.7776 57.0652 22.9466 56.9094C23.1173 56.752 23.2027 56.5614 23.2027 56.3377C23.2027 56.1653 23.1587 56.0062 23.0709 55.8604C22.9831 55.7129 22.858 55.5952 22.6956 55.5074C22.5332 55.4179 22.3409 55.3732 22.1189 55.3732H20.866V57.1431ZM20.866 54.8362H22.0095C22.1951 54.8362 22.3625 54.7998 22.5116 54.7269C22.6624 54.654 22.7817 54.5512 22.8696 54.4186C22.9591 54.2861 23.0038 54.1303 23.0038 53.9513C23.0038 53.7276 22.9259 53.5378 22.7701 53.3821C22.6144 53.2246 22.3674 53.1459 22.0294 53.1459H20.866V54.8362ZM25.4187 52.599V57.6899H24.8023V52.599H25.4187ZM30.9503 55.1445C30.9503 55.6814 30.8533 56.1454 30.6594 56.5365C30.4655 56.9276 30.1996 57.2292 29.8615 57.4414C29.5234 57.6535 29.1373 57.7595 28.7031 57.7595C28.2689 57.7595 27.8828 57.6535 27.5447 57.4414C27.2067 57.2292 26.9407 56.9276 26.7468 56.5365C26.5529 56.1454 26.4559 55.6814 26.4559 55.1445C26.4559 54.6076 26.5529 54.1435 26.7468 53.7524C26.9407 53.3613 27.2067 53.0597 27.5447 52.8476C27.8828 52.6355 28.2689 52.5294 28.7031 52.5294C29.1373 52.5294 29.5234 52.6355 29.8615 52.8476C30.1996 53.0597 30.4655 53.3613 30.6594 53.7524C30.8533 54.1435 30.9503 54.6076 30.9503 55.1445ZM30.3537 55.1445C30.3537 54.7037 30.2799 54.3316 30.1324 54.0284C29.9866 53.7251 29.7886 53.4956 29.5383 53.3398C29.2898 53.184 29.0113 53.1061 28.7031 53.1061C28.3949 53.1061 28.1156 53.184 27.8654 53.3398C27.6168 53.4956 27.4188 53.7251 27.2713 54.0284C27.1255 54.3316 27.0525 54.7037 27.0525 55.1445C27.0525 55.5853 27.1255 55.9573 27.2713 56.2606C27.4188 56.5639 27.6168 56.7934 27.8654 56.9492C28.1156 57.105 28.3949 57.1828 28.7031 57.1828C29.0113 57.1828 29.2898 57.105 29.5383 56.9492C29.7886 56.7934 29.9866 56.5639 30.1324 56.2606C30.2799 55.9573 30.3537 55.5853 30.3537 55.1445ZM34.0948 54.871V55.4179H31.8675V54.871H34.0948ZM36.9068 52.599V57.6899H36.2904V53.2453H36.2605L35.0176 54.0706V53.4442L36.2904 52.599H36.9068ZM40.0315 57.7595C39.657 57.7595 39.338 57.6576 39.0745 57.4538C38.811 57.2483 38.6096 56.9508 38.4704 56.5614C38.3312 56.1703 38.2616 55.698 38.2616 55.1445C38.2616 54.5943 38.3312 54.1245 38.4704 53.735C38.6113 53.3439 38.8135 53.0456 39.0769 52.8402C39.3421 52.633 39.6603 52.5294 40.0315 52.5294C40.4027 52.5294 40.7201 52.633 40.9836 52.8402C41.2487 53.0456 41.4509 53.3439 41.5901 53.735C41.7309 54.1245 41.8014 54.5943 41.8014 55.1445C41.8014 55.698 41.7318 56.1703 41.5926 56.5614C41.4534 56.9508 41.252 57.2483 40.9885 57.4538C40.725 57.6576 40.406 57.7595 40.0315 57.7595ZM40.0315 57.2127C40.4027 57.2127 40.6911 57.0337 40.8966 56.6757C41.102 56.3178 41.2048 55.8074 41.2048 55.1445C41.2048 54.7037 41.1576 54.3283 41.0631 54.0184C40.9703 53.7085 40.8361 53.4724 40.6604 53.31C40.4864 53.1476 40.2768 53.0664 40.0315 53.0664C39.6636 53.0664 39.3761 53.2478 39.1689 53.6108C38.9618 53.972 38.8582 54.4833 38.8582 55.1445C38.8582 55.5853 38.9046 55.9598 38.9974 56.2681C39.0902 56.5763 39.2236 56.8108 39.3976 56.9715C39.5733 57.1323 39.7846 57.2127 40.0315 57.2127ZM44.5358 52.599V57.6899H43.9193V53.2453H43.8894L42.6466 54.0706V53.4442L43.9193 52.599H44.5358Z" fill="#FFFEFE"/>
</g>
</g>
<defs>
<clipPath id="clip0_135_8068">
<rect width="70" height="70" fill="white"/>
</clipPath>
<clipPath id="clip1_135_8068">
<rect width="55.45" height="50.05" fill="white" transform="translate(7.00012 14)"/>
</clipPath>
</defs>
</svg>
