<svg width="100" height="115" viewBox="0 0 100 115" fill="none" xmlns="http://www.w3.org/2000/svg">
<path d="M48.3 16.9348C47.2063 16.04 46.0464 14.9464 45.0853 14.1842C44.1243 13.4219 43.3621 13.0242 42.5667 12.726C41.7713 12.3946 40.9097 12.1626 40.1143 11.9306C39.5841 11.7981 39.0538 11.6655 38.6561 11.5992C39.0538 12.3946 39.4846 13.4551 39.9155 14.4161C40.512 15.808 41.1417 17.2993 42.169 18.5918C43.1964 19.8843 44.6545 21.0111 46.1458 21.707C46.8418 22.0384 47.5709 22.2373 48.3662 22.403C49.029 22.5355 50.0233 22.5687 50.8849 22.5687C51.0837 22.5687 51.2494 22.5687 51.4483 22.5687C53.2047 22.5024 55.392 22.3035 57.6787 22.0053C56.3862 21.4419 54.9612 20.8122 53.8344 19.9837C52.7076 19.1221 51.8791 18.0284 50.918 16.504C49.957 15.0127 48.8302 12.9911 47.4052 11.7318C46.0796 10.5387 44.4888 9.97534 42.9312 9.87592C41.8707 9.80964 40.8434 9.90906 39.816 10.1079C40.3794 10.3067 40.976 10.5387 41.5725 10.8038C42.6992 11.301 43.9586 11.9969 45.0522 12.7923C46.1458 13.6208 47.14 14.5818 48.1674 15.6755C49.1947 16.7691 50.2884 18.0284 50.8186 18.6581L51.3489 19.2878L50.8518 18.9232C50.3547 18.5255 49.3936 17.8296 48.3 16.9348Z" fill="#FFFEFE"/>
<path d="M53.6025 13.2236C54.6299 14.9468 55.7567 16.7364 57.3474 18.2277C58.9381 19.7191 61.0591 20.9121 63.1138 21.5086C64.108 21.8069 65.0691 21.9395 66.1627 21.9726C67.0575 22.0057 68.35 21.8732 69.4768 21.7075C69.7087 21.6743 69.9739 21.6412 70.2058 21.5749C72.4594 21.1772 75.2763 20.4481 78.2258 19.6528C76.4362 19.1557 74.4478 18.6254 72.8571 17.7638C71.2332 16.869 69.9407 15.6097 68.3831 13.7869C66.8587 12.0305 65.0028 9.61126 62.915 8.21937C60.9597 6.92689 58.8056 6.49607 56.7177 6.66177C55.3258 6.76119 54.0002 7.12574 52.7078 7.55656C53.47 7.68912 54.2654 7.88796 55.0939 8.11995C56.6846 8.55077 58.4079 9.21358 60.0318 10.0752C61.6225 10.9369 63.0807 11.9974 64.6383 13.2567C66.1959 14.516 67.8197 15.9079 68.6482 16.637L69.4768 17.333L68.7477 16.9684C68.0186 16.6039 66.6267 15.8748 65.036 14.9137C63.4452 13.9526 61.7219 12.7264 60.33 11.9642C58.9381 11.1689 57.8776 10.8043 56.7509 10.5392C55.6241 10.2741 54.4642 10.1084 53.4037 9.9758C52.6746 9.90952 51.9787 9.84324 51.4153 9.8101C52.1112 10.7712 52.8735 12.0305 53.6025 13.2236Z" fill="#FFFEFE"/>
<path d="M38.7557 28.0044C38.4574 27.4741 37.8609 26.4137 37.2643 25.1543C36.6678 23.895 36.0713 22.4037 35.541 21.31C34.9777 20.2164 34.4806 19.5536 33.884 18.9239C33.2875 18.2943 32.6247 17.6978 31.995 17.1675C31.5642 16.803 31.1665 16.4716 30.802 16.2396C30.8351 17.1344 30.7688 18.2611 30.7357 19.3216C30.6694 20.8461 30.6363 22.4368 31.034 24.0607C31.4316 25.6846 32.2602 27.3084 33.3206 28.5678C33.8177 29.1643 34.3811 29.6614 35.0439 30.1254C35.5742 30.5231 36.469 30.987 37.2643 31.3516C37.43 31.4178 37.5957 31.5173 37.7946 31.5835C39.3853 32.2795 41.4732 33.0086 43.6936 33.7377C42.7656 32.6772 41.7383 31.5173 41.0755 30.2911C40.4127 29.0649 40.1475 27.7061 39.9156 25.8834C39.6836 24.127 39.5179 21.8072 38.7888 20.0839C38.0928 18.4268 36.8998 17.2669 35.5079 16.5047C34.58 16.0076 33.5858 15.6431 32.5916 15.3779C33.0224 15.8088 33.4532 16.2396 33.884 16.7367C34.7125 17.6646 35.541 18.8245 36.2038 20.0176C36.8667 21.2438 37.3306 22.5362 37.7946 23.9613C38.2585 25.4194 38.6894 26.977 38.9214 27.7724L39.1533 28.5678L38.7557 28.0044Z" fill="#FFFEFE"/>
<path d="M61.8211 30.5223C61.6554 31.1188 61.2909 31.9805 59.3688 35.891C59.1368 36.355 58.8717 36.8852 58.6065 37.4486C57.8443 39.0062 56.8832 40.9283 55.8228 43.0162C56.9495 43.0825 58.0763 43.1156 59.1699 43.1156C61.4235 43.1156 63.5776 42.9499 65.5991 42.6516C65.8643 41.9888 66.0963 41.3592 66.3282 40.7958C66.7922 39.5696 67.1899 38.5754 67.5213 37.7469C68.6481 34.8637 68.9795 34.1677 69.2446 33.7037C69.6091 33.1072 69.8742 32.9747 70.2056 32.9084C70.5371 32.8752 70.9347 32.9084 71.3324 32.9747C72.2604 33.0409 73.1551 32.5107 73.5528 31.6159L74.4476 29.5612C72.4261 27.6059 69.1452 25.7832 65.2677 24.6233C63.909 24.2256 62.5502 23.9274 61.2578 23.7285L60.363 25.8164C59.9322 26.7774 60.2636 27.9042 61.0589 28.5339C61.324 28.7658 61.6223 28.9647 61.788 29.2298C61.9537 29.5612 62.02 29.8926 61.8211 30.5223Z" fill="#FFFEFE"/>
<path d="M74.4145 43.2481C70.5039 44.2423 64.5387 45.3028 58.4077 45.6342C52.2767 45.9656 45.9469 45.568 41.1085 44.8389C36.27 44.1098 32.8897 43.0824 31.1995 42.5522C29.5093 42.0219 29.5093 42.0219 29.5093 42.6516C29.5093 43.2813 29.5093 44.5075 29.8076 46.2308C30.1059 47.9541 30.7024 50.1413 31.7297 52.0303C32.7571 53.9193 34.2484 55.4769 35.8723 56.8357C37.4962 58.1613 39.2857 59.288 40.1805 59.8183C41.0753 60.3817 41.0753 60.3817 40.3794 59.4869C39.7166 58.6252 38.3578 56.8688 37.6619 54.8472C36.9991 52.8257 36.9991 50.4727 37.2642 49.2465C37.5293 48.0203 38.0927 47.8878 39.1863 47.9872C40.2799 48.0866 41.8707 48.3849 45.0522 48.6169C48.2336 48.8489 52.9727 49.0146 56.7838 48.9483C60.5618 48.8489 63.4119 48.5174 66.7922 47.8215C70.1725 47.1256 74.0831 46.0651 76.4692 45.3028C78.8553 44.5406 79.7501 44.0766 80.2803 44.1429C80.7774 44.2092 80.91 44.8057 80.6117 46.0651C80.3134 47.3244 79.6175 49.2134 78.8884 50.8041C78.3913 51.8978 77.8611 52.8588 77.5297 53.6211C72.1278 62.4364 62.4177 68.3022 51.3157 68.3022C34.3478 68.3022 20.5946 54.549 20.5946 37.5811C20.5946 22.204 31.8955 9.44501 46.6429 7.22461C30.0396 9.04733 17.1149 23.132 17.1149 40.1992C17.1149 58.5258 31.9617 73.3727 50.2883 73.3727C66.0631 73.3727 79.2861 62.337 82.6333 47.5895C82.6996 47.1587 82.7658 46.6947 82.799 46.297C82.8984 45.7005 82.8984 45.104 82.8652 44.5075C82.7658 43.4801 82.4676 42.3533 81.7053 41.8562C81.5396 41.7568 81.3739 41.6574 81.1751 41.6243C80.1477 41.2929 78.2919 42.2208 74.4145 43.2481Z" fill="#FFFEFE"/>
<path d="M4.66543 94.2446C7.12637 94.2583 9.04043 94.9521 10.4076 96.3262C11.8705 97.8027 12.602 99.5664 12.602 101.617C12.602 103.688 11.8568 105.473 10.3666 106.97C9.02676 108.31 7.12637 108.986 4.66543 109H1.54824V94.2446H4.66543ZM3.4042 95.8853V107.37H4.65517C6.48721 107.37 7.92617 106.864 8.97207 105.852C10.1273 104.697 10.705 103.285 10.705 101.617C10.705 99.9629 10.1273 98.5513 8.97207 97.3823C7.92617 96.3843 6.48721 95.8853 4.65517 95.8853H3.4042ZM19.1792 101.022C18.3316 101.152 17.6753 101.491 17.2105 102.038C16.7456 102.578 16.5132 103.258 16.5132 104.078V109H14.6572V99.6279H16.5132V100.961C16.7866 100.229 17.3745 99.7202 18.2769 99.4331L19.1792 101.022ZM20.6911 106.744C21.067 106.744 21.3781 106.867 21.6242 107.113C21.8771 107.353 22.0036 107.626 22.0036 107.934C22.0036 108.241 21.8771 108.518 21.6242 108.764C21.3781 109.003 21.067 109.123 20.6911 109.123C20.3014 109.123 19.9835 109.003 19.7374 108.764C19.4913 108.518 19.3683 108.241 19.3683 107.934C19.3683 107.626 19.4913 107.353 19.7374 107.113C19.9835 106.867 20.3014 106.744 20.6911 106.744ZM31.8666 102.427V109H30.0106V94.2446H31.8666V100.817H37.9266V94.2446H39.7826V109H37.9266V102.427H31.8666ZM44.145 102.407H50.2871C49.8496 101.135 48.8311 100.5 47.2314 100.5C45.625 100.5 44.5962 101.135 44.145 102.407ZM43.8169 104.027V104.058C43.8169 105.056 44.1553 105.893 44.832 106.57C45.5088 107.247 46.3086 107.585 47.2314 107.585C48.1475 107.585 48.9507 107.24 49.6411 106.549C49.7368 106.454 49.9214 106.238 50.1948 105.903L51.938 106.519C51.6782 106.956 51.3774 107.342 51.0356 107.677C49.9966 108.723 48.7285 109.246 47.2314 109.246C45.748 109.246 44.4902 108.733 43.458 107.708C42.4326 106.676 41.9199 105.459 41.9199 104.058C41.9199 102.643 42.4326 101.422 43.458 100.397C44.4902 99.3716 45.748 98.8589 47.2314 98.8589C48.7285 98.8589 49.9966 99.3784 51.0356 100.417C51.9312 101.32 52.3789 102.523 52.3789 104.027H43.8169ZM58.6896 101.022C57.8419 101.152 57.1857 101.491 56.7208 102.038C56.256 102.578 56.0236 103.258 56.0236 104.078V109H54.1676V99.6279H56.0236V100.961C56.297 100.229 56.8849 99.7202 57.7872 99.4331L58.6896 101.022ZM61.9241 99.6279V95.9878H63.7698V99.6279H65.5129V101.228H63.7698V109H61.9241V101.228H60.1809V99.6279H61.9241ZM71.516 101.351H67.3939V99.751H74.4999L70.0804 107.39H74.5511V109H67.1068L71.516 101.351ZM78.5752 102.407H84.7173C84.2798 101.135 83.2612 100.5 81.6616 100.5C80.0552 100.5 79.0263 101.135 78.5752 102.407ZM78.247 104.027V104.058C78.247 105.056 78.5854 105.893 79.2622 106.57C79.9389 107.247 80.7387 107.585 81.6616 107.585C82.5776 107.585 83.3808 107.24 84.0713 106.549C84.167 106.454 84.3515 106.238 84.625 105.903L86.3681 106.519C86.1084 106.956 85.8076 107.342 85.4658 107.677C84.4267 108.723 83.1587 109.246 81.6616 109.246C80.1782 109.246 78.9204 108.733 77.8882 107.708C76.8628 106.676 76.3501 105.459 76.3501 104.058C76.3501 102.643 76.8628 101.422 77.8882 100.397C78.9204 99.3716 80.1782 98.8589 81.6616 98.8589C83.1587 98.8589 84.4267 99.3784 85.4658 100.417C86.3613 101.32 86.8091 102.523 86.8091 104.027H78.247ZM96.9855 103.268C96.8487 102.605 96.5274 102.017 96.0216 101.504C95.3585 100.834 94.5689 100.5 93.6529 100.5C92.7301 100.5 91.9303 100.841 91.2535 101.525C90.5768 102.208 90.2384 103.053 90.2384 104.058C90.2384 105.056 90.5768 105.896 91.2535 106.58C91.9303 107.257 92.7301 107.595 93.6529 107.595C94.5689 107.595 95.3722 107.25 96.0626 106.56C96.5411 106.081 96.8487 105.514 96.9855 104.857V103.268ZM96.8624 107.411C96.2198 108.634 95.15 109.246 93.6529 109.246C92.1695 109.246 90.9117 108.733 89.8795 107.708C88.8541 106.676 88.3414 105.459 88.3414 104.058C88.3414 102.643 88.8541 101.426 89.8795 100.407C90.9117 99.3818 92.1695 98.8691 93.6529 98.8691C95.1432 98.8691 96.2574 99.4878 96.9957 100.725V99.6279H98.8517V106.683C98.8517 108.057 98.3561 109.236 97.3648 110.22C96.3258 111.266 95.0611 111.789 93.5709 111.789C92.0807 111.789 90.8263 111.28 89.8077 110.261C89.5753 110.022 89.2813 109.667 88.9259 109.195L90.6998 108.549C90.9391 108.85 91.1065 109.041 91.2022 109.123C91.8653 109.793 92.6549 110.128 93.5709 110.128C95.5055 110.128 96.6026 109.222 96.8624 107.411Z" fill="#FFFEFE"/>
</svg>
