<svg width="70" height="70" viewBox="0 0 70 70" fill="none" xmlns="http://www.w3.org/2000/svg">
<g clip-path="url(#clip0_135_8065)">
<path d="M67.6 34.9999C67.6 41.4476 65.6881 47.7504 62.1059 53.1115C58.5238 58.4725 53.4324 62.651 47.4755 65.1184C41.5187 67.5858 34.9639 68.2314 28.6401 66.9735C22.3163 65.7156 16.5075 62.6108 11.9484 58.0516C7.38917 53.4924 4.28432 47.6836 3.02644 41.3598C1.76856 35.0361 2.41415 28.4813 4.88157 22.5244C7.34898 16.5676 11.5274 11.4761 16.8884 7.89399C22.2495 4.31186 28.5524 2.3999 35 2.3999C43.6453 2.40255 51.9357 5.83804 58.0488 11.9511C64.1619 18.0643 67.5974 26.3547 67.6 34.9999Z" fill="#FFFEFE"/>
<path d="M63.77 34.9997C63.77 40.6923 62.0818 46.257 58.919 50.9901C55.7561 55.7231 51.2607 59.4119 46.0013 61.5899C40.7419 63.7679 34.9546 64.3373 29.3716 63.226C23.7886 62.1147 18.6605 59.3727 14.6359 55.3467C10.6113 51.3208 7.87111 46.1917 6.76175 40.6083C5.6524 35.0249 6.22377 29.2379 8.40359 23.9792C10.5834 18.7205 14.2738 14.2264 19.0079 11.0652C23.7421 7.90399 29.3074 6.21775 35 6.21973C38.7789 6.21973 42.5209 6.96422 46.0121 8.41067C49.5033 9.85712 52.6753 11.9772 55.347 14.6498C58.0186 17.3224 60.1376 20.4952 61.5829 23.9869C63.0281 27.4785 63.7713 31.2208 63.77 34.9997Z" fill="#56C5D0"/>
<g clip-path="url(#clip1_135_8065)">
<path d="M51.9001 39C51.8001 39 51.8001 39 51.7001 39C51.6001 39 51.6001 39 51.5001 39C51.4001 39 51.4001 39 51.3001 39C51.3001 39 51.3001 39 51.2001 39C51.2001 39 51.1001 39 51.1001 38.9C51.1001 38.9 51.0001 38.9 51.0001 38.8C51.0001 38.8 50.9001 38.8 50.9001 38.7L50.8001 38.6C50.8001 38.6 50.8001 38.6 50.7001 38.6C50.7001 38.6 50.7001 38.5 50.6001 38.5C50.6001 38.4 50.5001 38.4 50.5001 38.4L50.4001 38.3C50.4001 38.2 50.3001 38.2 50.3001 38.1C50.3001 38 50.3001 38 50.2001 37.9C50.1001 37.8 50.1001 37.7 50.1001 37.6C50.1001 37.6 50.1001 37.5 50.0001 37.5C50.0001 37.5 50.0001 37.5 50.0001 37.4V37.3C50.0001 37.2 50.0001 37.2 50.0001 37.1C50.0001 37.1 50.0001 37 50.0001 37C50.0001 36.9 50.0001 36.8 50.0001 36.8L50.1001 36.6C50.1001 36.6 50.1001 36.6 50.1001 36.5C50.1001 36.5 50.1001 36.5 50.1001 36.4V36.3V36.2V36.1V36V35.9V35.8V35.7C50.1001 35.7 50.1001 35.6 50.2001 35.6L50.3001 35.5C50.3001 35.4 50.3001 35.4 50.4001 35.4L50.5001 35.3C50.5001 35.2 50.5001 35.2 50.6001 35.2L50.7001 35.1C50.8001 35.1 50.8001 35 50.8001 35C51.0001 34.7 51.0001 34.7 51.1001 34.6C51.1001 34.5 51.2001 34.5 51.2001 34.4L51.3001 34.3C51.3001 34.3 51.3001 34.3 51.3001 34.2C51.3001 34.1 51.4001 34.1 51.5001 34C51.5001 34 51.6001 34 51.6001 33.9C51.6001 33.9 51.6001 33.9 51.7001 33.8C51.8001 33.8 51.8001 33.7 51.8001 33.7L51.9001 33.6C52.0001 33.6 52.0001 33.5 52.1001 33.5C52.1001 33.5 52.2001 33.4 52.3001 33.4C52.4001 33.3 52.5001 33.3 52.6001 33.3C52.9001 33.3 53.0001 33.2 53.1001 33.2C53.2001 33.2 53.3001 33.1 53.4001 33.1C53.4001 33.1 53.4001 33.1 53.5001 33.1C53.5001 33.1 53.5001 33.1 53.6001 33.1C53.7001 33.1 53.7001 33.1 53.7001 33.1C53.7001 33 53.7001 33 53.8001 33C53.9001 33 53.9001 33 54.0001 33H54.1001H54.2001C54.3001 33 54.3001 33 54.4001 33C54.5001 33 54.5001 33 54.6001 33C54.6001 33 54.6001 33 54.7001 33C54.8001 33 54.8001 33 54.8001 33.1C54.8001 33.1 54.9001 33.1 54.9001 33.2C55.0001 33.2 55.0001 33.3 55.1001 33.3C55.2001 33.3 55.2001 33.4 55.2001 33.5C55.2001 33.5 55.2001 33.6 55.3001 33.6V33.7C55.3001 33.8 55.3001 33.8 55.3001 33.9C55.3001 34 55.3001 34 55.3001 34.1C55.3001 34.2 55.3001 34.2 55.3001 34.3C55.3001 34.4 55.3001 34.4 55.3001 34.5V34.6C55.3001 34.7 55.2001 34.8 55.1001 34.9C55.1001 34.8 55.1001 34.9 55.0001 35C55.0001 35 55.0001 35.1 54.9001 35.1L54.8001 35.2L54.7001 35.3L54.6001 35.4L54.5001 35.5C54.4001 35.5 54.4001 35.6 54.3001 35.6C54.2001 35.6 54.1001 35.6 54.1001 35.7C54.0001 35.8 53.9001 35.8 53.8001 35.8C53.8001 35.8 53.8001 35.8 53.7001 35.8C53.7001 35.8 53.7001 35.8 53.6001 35.8H53.5001H53.4001C53.3001 35.8 53.3001 35.8 53.2001 35.8L53.1001 35.7C53.0001 35.7 53.0001 35.7 53.0001 35.6C53.0001 35.6 53.0001 35.5 52.9001 35.5C52.9001 35.4 52.9001 35.4 52.9001 35.3V35.2C53.0001 35.2 53.0001 35.1 53.0001 35.1C53.0001 35 53.1001 35 53.2001 35H53.3001H53.4001C53.5001 35 53.5001 35 53.6001 35C53.7001 35 53.7001 35 53.8001 34.9C54.0001 34.7 54.0001 34.6 54.1001 34.6C54.2001 34.6 54.2001 34.5 54.3001 34.5C54.4001 34.4 54.4001 34.4 54.5001 34.4C54.6001 34.4 54.6001 34.3 54.7001 34.2C54.7001 34.2 54.7001 34.2 54.7001 34.1C54.6001 34.1 54.6001 34.1 54.5001 34.1C54.4001 34.1 54.4001 34.1 54.3001 34.1H54.2001H54.1001C54.0001 34.1 54.0001 34.1 54.0001 34.1H53.9001C53.9001 34.1 53.9001 34.1 53.8001 34.1C53.8001 34.1 53.7001 34.1 53.7001 34.2H53.6001C53.6001 34.2 53.6001 34.2 53.5001 34.2C53.5001 34.3 53.4001 34.3 53.4001 34.3C53.2001 34.3 53.0001 34.4 52.9001 34.5L52.8001 34.6C52.8001 34.7 52.7001 34.7 52.7001 34.7C52.6001 34.7 52.6001 34.7 52.5001 34.8C52.5001 34.8 52.5001 34.8 52.5001 34.9C52.5001 34.9 52.5001 34.9 52.5001 35C52.4001 35 52.4001 35 52.4001 35.1L52.3001 35.2C52.0001 35.3 51.9001 35.3 51.9001 35.4L51.8001 35.5C51.8001 35.6 51.7001 35.7 51.7001 35.7V35.8C51.7001 35.8 51.7001 35.8 51.6001 35.9C51.6001 36 51.6001 36 51.6001 36L51.5001 36.1V36.2C51.5001 36.2 51.5001 36.3 51.4001 36.3C51.4001 36.4 51.4001 36.4 51.3001 36.5C51.3001 36.6 51.2001 36.6 51.2001 36.7V36.8V36.9C51.2001 37 51.2001 37.1 51.2001 37.2L51.3001 37.3V37.4C51.3001 37.5 51.3001 37.5 51.3001 37.5C51.3001 37.5 51.3001 37.6 51.4001 37.6C51.4001 37.7 51.5001 37.7 51.5001 37.7C51.6001 37.7 51.6001 37.8 51.7001 37.8C51.6001 38 51.7001 38 51.8001 38C51.9001 38 51.9001 38 52.0001 38C52.1001 38 52.1001 38 52.2001 38C52.3001 38 52.3001 38 52.4001 37.9C52.4001 37.9 52.5001 37.8 52.6001 37.8C52.7001 37.8 52.7001 37.8 52.8001 37.7C52.9001 37.7 52.9001 37.7 52.9001 37.6L53.0001 37.5C53.1001 37.5 53.1001 37.4 53.2001 37.4C53.3001 37.3 53.3001 37.3 53.4001 37.3C53.5001 37.3 53.5001 37.2 53.5001 37.2L53.6001 37.1L53.7001 37C53.9001 37 54.0001 37 54.0001 36.9C54.1001 36.9 54.1001 36.8 54.1001 36.8L54.2001 36.7C54.3001 36.6 54.3001 36.6 54.4001 36.6C54.5001 36.6 54.5001 36.5 54.6001 36.5C54.7001 36.5 54.7001 36.4 54.7001 36.4L54.8001 36.3C55.0001 36 55.1001 35.9 55.2001 35.8C55.3001 35.7 55.3001 35.7 55.4001 35.6C55.5001 35.5 55.5001 35.4 55.6001 35.4C55.7001 35.3 55.7001 35.3 55.8001 35.2C55.8001 35.1 55.9001 35.1 55.9001 35C55.9001 34.9 56.0001 34.9 56.0001 34.8L56.4001 34.3L56.5001 34.2L56.6001 34.1C56.6001 34 56.7001 34 56.8001 34C57.0001 34.1 57.0001 34.1 57.0001 34.2C57.0001 34.2 57.0001 34.3 57.1001 34.3V34.4C57.1001 34.4 57.1001 34.5 57.0001 34.5C57.0001 34.5 57.0001 34.6 56.9001 34.6L56.8001 34.7L56.7001 34.8C56.7001 34.9 56.7001 35 56.6001 35C56.6001 35 56.5001 35.1 56.5001 35.2L56.4001 35.3L56.3001 35.4C56.3001 35.5 56.2001 35.5 56.2001 35.6L56.1001 35.7L55.7001 36.2C55.6001 36.3 55.5001 36.4 55.4001 36.5C55.4001 36.6 55.3001 36.7 55.2001 36.8C55.2001 36.8 55.2001 36.8 55.1001 36.9C55.0001 36.9 55.0001 37 55.0001 37C55.0001 37.1 54.9001 37.2 54.8001 37.2C54.8001 37.3 54.7001 37.3 54.6001 37.4C54.6001 37.5 54.5001 37.6 54.4001 37.6C54.3001 37.6 54.3001 37.7 54.2001 37.7C54.2001 37.8 54.1001 37.9 54.0001 37.9C53.9001 38 53.8001 38 53.8001 38.1C53.7001 38.1 53.7001 38.2 53.6001 38.2C53.5001 38.2 53.5001 38.3 53.5001 38.3L53.4001 38.4C53.3001 38.4 53.3001 38.4 53.3001 38.5C53.3001 38.5 53.2001 38.5 53.1001 38.6C53.1001 38.7 53.0001 38.7 52.9001 38.7C52.8001 38.7 52.8001 38.7 52.7001 38.8C52.5001 38.8 52.4001 38.8 52.3001 38.9H52.2001L51.9001 39Z" fill="#FFFEFE"/>
</g>
<g clip-path="url(#clip2_135_8065)">
<path d="M21.0001 39.7C21.1001 39.6 21.0001 39.5 21.0001 39.4C21.0001 39.4 21.0001 39.4 21.0001 39.3V39.2V39.1C21.0001 39 21.1001 39 21.1001 39C21.2001 39 21.2001 38.9 21.1001 38.8C21.1001 38.7 21.1001 38.6 21.1001 38.6V38.5V38.4L21.2001 38.3C21.2001 38.3 21.2001 38.2 21.3001 38.2C21.3001 38.2 21.3001 38.2 21.3001 38.1V38C21.4001 38 21.4001 37.9 21.4001 37.9C21.4001 37.8 21.4001 37.8 21.5001 37.8V37.7C21.5001 37.7 21.5001 37.6 21.6001 37.6C21.7001 37.6 21.7001 37.6 21.7001 37.5C21.7001 37.4 21.7001 37.4 21.7001 37.4C21.7001 37.4 21.7001 37.4 21.8001 37.4C21.9001 37.1 21.9001 37 22.0001 37C22.0001 36.9 22.0001 36.9 22.0001 36.8L22.1001 36.7C22.1001 36.7 22.1001 36.6 22.2001 36.6C22.2001 36.6 22.2001 36.5 22.3001 36.5L22.4001 36.4C22.4001 36.4 22.4001 36.3 22.5001 36.3C22.5001 36.3 22.5001 36.3 22.6001 36.2C22.6001 36.2 22.7001 36.2 22.7001 36.1C22.6001 36 22.7001 36 22.7001 35.9C22.7001 35.9 22.7001 35.8 22.8001 35.8C22.8001 35.8 22.8001 35.7 22.9001 35.7V35.6V35.5C22.9001 35.5 22.9001 35.5 22.9001 35.4C22.9001 35.4 22.9001 35.4 22.9001 35.3H22.8001C22.7001 35.3 22.7001 35.2 22.7001 35.2L22.6001 35.1C22.5001 35.1 22.5001 35.1 22.4001 35.1C22.3001 35.1 22.3001 35.1 22.2001 35C22.1001 35 22.1001 35 22.0001 35L21.9001 34.9C21.8001 34.9 21.7001 34.9 21.7001 34.8C21.6001 34.8 21.6001 34.7 21.5001 34.7C21.5001 34.6 21.4001 34.6 21.4001 34.6L21.3001 34.5V34.4C21.3001 34.4 21.3001 34.4 21.2001 34.3V34.2V34.1V34V33.9V33.8C21.2001 33.7 21.2001 33.6 21.3001 33.6C21.3001 33.5 21.3001 33.4 21.4001 33.4C21.4001 33.4 21.4001 33.4 21.4001 33.3C21.4001 33.3 21.4001 33.3 21.4001 33.2V33.1V33C21.4001 33 21.4001 33 21.4001 32.9L21.5001 32.8L21.6001 32.7C21.6001 32.6 21.7001 32.5 21.8001 32.5C21.9001 32.3 22.0001 32.3 22.0001 32.2L22.1001 32.1C22.2001 32.1 22.2001 32.1 22.3001 32H22.4001C22.5001 32 22.5001 32 22.6001 32C22.7001 32 22.7001 32 22.8001 32C22.9001 32.1 23.0001 32.1 23.0001 32.2C23.1001 32.3 23.2001 32.5 23.2001 32.6V32.7V32.8C23.2001 32.9 23.2001 33 23.1001 33C23.1001 33.1 23.1001 33.2 23.0001 33.2C23.0001 33.3 22.9001 33.4 22.9001 33.5C22.9001 33.6 22.8001 33.7 22.8001 33.8V33.9C23.0001 34 23.0001 34 23.0001 34C23.1001 34 23.1001 34.1 23.2001 34.1C23.3001 34.1 23.3001 34.1 23.4001 34.2L23.5001 34.3C23.5001 34.3 23.6001 34.3 23.6001 34.4C23.6001 34.4 23.6001 34.4 23.7001 34.5C23.7001 34.5 23.7001 34.5 23.7001 34.6C23.7001 34.6 23.7001 34.7 23.8001 34.7C23.8001 34.7 23.9001 34.7 23.9001 34.8C23.9001 34.8 23.9001 34.9 24.0001 34.9C24.0001 34.9 24.0001 35 24.1001 35V35.3C24.2001 35.4 24.2001 35.4 24.2001 35.5C24.2001 35.6 24.2001 35.6 24.2001 35.7V35.8V35.9C24.2001 36 24.1001 36.1 24.1001 36.2V36.3V36.4C24.1001 36.5 24.0001 36.5 24.0001 36.6C24.0001 36.7 24.0001 36.7 23.9001 36.8C23.9001 36.9 23.9001 36.9 23.8001 36.9L23.7001 37C23.7001 37 23.7001 37 23.7001 37.1C23.7001 37.1 23.7001 37.2 23.6001 37.2L23.5001 37.3C23.5001 37.3 23.5001 37.4 23.4001 37.4V37.5C23.4001 37.6 23.3001 37.6 23.3001 37.7L23.2001 37.8C23.0001 38 23.0001 38 23.0001 38C23.0001 38 23.0001 38 22.9001 38.1C22.9001 38.1 22.9001 38.1 22.9001 38.2C22.8001 38.2 22.8001 38.3 22.8001 38.3C22.8001 38.3 22.8001 38.4 22.7001 38.5C22.7001 38.5 22.7001 38.5 22.7001 38.6C22.7001 38.6 22.7001 38.6 22.7001 38.7C22.7001 38.8 22.6001 38.9 22.6001 38.9C22.6001 39 22.6001 39.1 22.5001 39.1V39.2C22.5001 39.2 22.5001 39.3 22.4001 39.3C22.4001 39.3 22.4001 39.3 22.4001 39.4C22.5001 39.4 22.5001 39.4 22.6001 39.3C22.7001 39.3 22.7001 39.3 22.7001 39.2C22.7001 39.2 22.7001 39.2 22.8001 39.1C22.8001 39.1 22.9001 39.1 22.9001 39C23.0001 39 23.0001 38.9 23.1001 38.9C23.2001 38.9 23.2001 38.8 23.3001 38.7C23.4001 38.6 23.4001 38.6 23.5001 38.5C23.6001 38.4 23.6001 38.4 23.7001 38.3C23.8001 38.3 23.9001 38.2 24.0001 38.2C24.1001 38.1 24.2001 38 24.3001 38C24.4001 38 24.4001 37.9 24.4001 37.9L24.5001 37.8C24.6001 37.7 24.6001 37.7 24.6001 37.6C24.6001 37.6 24.7001 37.5 24.7001 37.4C24.9001 37.3 25.0001 37.2 25.1001 37.2C25.2001 37.1 25.3001 37 25.3001 36.9C25.3001 36.9 25.3001 36.9 25.4001 36.8C25.4001 36.8 25.4001 36.8 25.5001 36.7C25.6001 36.6 25.6001 36.6 25.7001 36.5C25.7001 36.4 25.8001 36.4 25.9001 36.3C25.9001 36.2 26.0001 36.1 26.1001 36C26.2001 35.9 26.2001 35.9 26.3001 35.8C26.4001 35.7 26.4001 35.7 26.5001 35.6C26.6001 35.5 26.7001 35.4 26.7001 35.3C26.7001 35.1 26.8001 35 26.9001 34.9C27.0001 34.9 27.0001 34.8 27.0001 34.7C27.1001 34.6 27.1001 34.6 27.2001 34.5C27.3001 34.4 27.3001 34.4 27.4001 34.3C27.5001 34.2 27.5001 34.2 27.5001 34.2C27.6001 34.1 27.6001 34.1 27.7001 34C27.7001 33.9 27.8001 33.9 27.8001 33.8C27.8001 33.7 27.9001 33.7 27.9001 33.7C28.0001 33.7 28.0001 33.7 28.1001 33.7L28.2001 33.8C28.2001 33.9 28.2001 33.9 28.2001 34C28.2001 34.1 28.1001 34.1 28.1001 34.2L28.0001 34.3C28.0001 34.4 28.0001 34.4 28.0001 34.5C28.0001 34.5 28.0001 34.6 27.9001 34.6C27.9001 34.6 27.9001 34.7 27.8001 34.7L27.7001 34.8C27.7001 34.9 27.6001 35 27.4001 35.2C27.3001 35.3 27.3001 35.4 27.2001 35.5C27.0001 35.7 26.9001 35.9 26.7001 36.1C26.7001 36.1 26.6001 36.2 26.6001 36.3C26.5001 36.3 26.4001 36.4 26.4001 36.5C26.3001 36.5 26.3001 36.6 26.2001 36.7C26.1001 36.7 26.1001 36.8 26.0001 36.9C26.0001 36.9 25.9001 37 25.9001 37.1C25.9001 37.2 25.8001 37.2 25.8001 37.3C25.7001 37.3 25.6001 37.4 25.6001 37.5C25.5001 37.5 25.4001 37.6 25.4001 37.7C25.4001 37.8 25.3001 37.8 25.3001 37.8L25.2001 37.9C25.1001 38 25.0001 38.1 25.0001 38.2C24.9001 38.2 24.8001 38.3 24.8001 38.4C24.7001 38.4 24.6001 38.5 24.6001 38.5C24.5001 38.6 24.5001 38.7 24.4001 38.7C24.4001 38.7 24.4001 38.7 24.3001 38.8C24.3001 38.8 24.2001 38.8 24.2001 38.9L24.1001 39C24.1001 39 24.1001 39 24.0001 39.1C24.0001 39.1 23.9001 39.1 23.9001 39.2C23.9001 39.3 23.8001 39.3 23.7001 39.4C23.6001 39.4 23.6001 39.5 23.5001 39.5C23.4001 39.5 23.4001 39.6 23.4001 39.6L23.3001 39.7C23.2001 39.8 23.1001 39.9 23.0001 40C23.0001 40 23.0001 40 22.9001 40.1C22.9001 40.1 22.8001 40.1 22.8001 40.2C22.8001 40.3 22.7001 40.3 22.7001 40.3C22.7001 40.3 22.6001 40.3 22.6001 40.4C22.6001 40.5 22.5001 40.5 22.5001 40.5C22.4001 40.5 22.4001 40.5 22.3001 40.6H22.2001H22.1001C22.0001 40.6 22.0001 40.6 21.9001 40.6C21.8001 40.6 21.8001 40.6 21.7001 40.6C21.6001 40.6 21.5001 40.6 21.5001 40.5C21.4001 40.5 21.4001 40.4 21.3001 40.3C21.3001 40.3 21.3001 40.3 21.2001 40.2C21.2001 40.2 21.2001 40.2 21.1001 40.1C21.1001 40.1 21.1001 40 21.0001 39.9C21.0001 39.8 21.0001 39.8 20.9001 39.7C21.0001 39.8 21.0001 39.7 21.0001 39.7ZM22.0001 33.5C22.2001 33.4 22.3001 33.2 22.3001 33C22.2001 33.1 22.2001 33.2 22.1001 33.2C22.0001 33.3 22.0001 33.4 22.0001 33.5Z" fill="#FFFEFE"/>
</g>
<path d="M51.2101 27.8197C49.779 24.5247 47.3948 21.7333 44.3642 19.8046C41.3336 17.8759 37.7951 16.8981 34.2042 16.997C30.6133 17.096 27.1341 18.2671 24.2142 20.3598C21.2944 22.4525 19.0675 25.3709 17.8201 28.7397L17.2001 28.5197C18.4796 25.0158 20.7809 21.9765 23.8064 19.7946C26.8319 17.6128 30.4424 16.3889 34.171 16.2812C37.8996 16.1735 41.5748 17.187 44.7212 19.1905C47.8676 21.1941 50.3405 24.0955 51.8201 27.5197L51.2101 27.8197Z" fill="#FFFEFE"/>
<path d="M36.1101 53.5301C35.8101 53.5301 35.5101 53.5301 35.2101 53.5301C31.4855 53.6486 27.8115 52.6426 24.6669 50.6431C21.5222 48.6436 19.0527 45.7433 17.5801 42.3201L18.1901 42.0601C19.6227 45.3519 22.0069 48.1401 25.0363 50.0665C28.0658 51.9928 31.602 52.9693 35.1907 52.8704C38.7794 52.7714 42.2565 51.6017 45.1752 49.5114C48.0939 47.4211 50.321 44.5058 51.5701 41.1401L52.1901 41.3701C50.9686 44.7322 48.8005 47.6692 45.9473 49.8268C43.0942 51.9844 39.6778 53.2705 36.1101 53.5301Z" fill="#FFFEFE"/>
<path d="M17.07 41.2499C16.9752 41.3783 16.8473 41.4786 16.7 41.5399H16.61H16.53C16.4975 41.5506 16.4625 41.5506 16.43 41.5399H16.36C16.3403 41.5352 16.3197 41.5352 16.3 41.5399C16.2631 41.5758 16.2187 41.6031 16.17 41.6199L16.02 41.6699H15.88H15.79H15.7L15.58 41.7199C15.5338 41.7293 15.4862 41.7293 15.44 41.7199H15.37H15.27H15.17H15.02C14.9711 41.7051 14.9189 41.7051 14.87 41.7199H14.75H14.63C14.5778 41.7043 14.5222 41.7043 14.47 41.7199C14.3696 41.7549 14.2603 41.7549 14.16 41.7199C14.16 41.7199 14.16 41.7199 14.06 41.7199C13.96 41.7199 13.98 41.7199 13.93 41.7199H13.81L13.69 41.6699H13.57C13.4038 41.6359 13.2489 41.5602 13.12 41.4499C13.0672 41.4415 13.0184 41.417 12.98 41.3799C12.9387 41.352 12.9017 41.3183 12.87 41.2799C12.8329 41.2582 12.7992 41.2313 12.77 41.1999L12.67 41.1199C12.6556 41.0919 12.6389 41.0651 12.62 41.0399C12.6117 41.0247 12.6003 41.0115 12.5865 41.0011C12.5727 40.9908 12.5569 40.9835 12.54 40.9799C12.5343 40.9313 12.5133 40.8857 12.48 40.8499C12.4447 40.8203 12.4172 40.7826 12.4 40.7399C12.3815 40.6828 12.3545 40.6289 12.32 40.5799C12.2871 40.5263 12.2603 40.4693 12.24 40.4099C12.2353 40.3901 12.2353 40.3696 12.24 40.3499C12.2468 40.3305 12.2468 40.3093 12.24 40.2899L12.16 40.1299C12.1495 40.0703 12.1495 40.0094 12.16 39.9499C12.1355 39.9357 12.1151 39.9153 12.1011 39.8907C12.087 39.8661 12.0797 39.8382 12.08 39.8099C12.0899 39.7536 12.0899 39.6961 12.08 39.6399C12.0847 39.5933 12.0847 39.5464 12.08 39.4999C12.0847 39.45 12.0847 39.3998 12.08 39.3499C12.0647 39.2875 12.0647 39.2223 12.08 39.1599C12.105 39.0614 12.105 38.9583 12.08 38.8599C12.0743 38.8335 12.0743 38.8062 12.08 38.7799C12.08 38.7799 12.08 38.7799 12.08 38.7099V38.6199C12.0847 38.6088 12.0871 38.5969 12.0871 38.5849C12.0871 38.5729 12.0847 38.561 12.08 38.5499C12.08 38.5499 12.08 38.5499 12.08 38.4999C12.0219 38.4399 11.9433 38.4042 11.86 38.3999V38.2299C11.8847 38.1511 11.9047 38.071 11.92 37.9899C11.92 37.9199 11.92 37.8399 11.99 37.7499C12.0192 37.678 12.0526 37.6079 12.09 37.5399C12.1322 37.5002 12.1662 37.4527 12.19 37.3999C12.2005 37.3638 12.2174 37.3299 12.24 37.2999C12.2679 37.276 12.2886 37.2448 12.3 37.2099L12.4 36.9999L12.47 36.8299C12.4868 36.7841 12.5143 36.743 12.55 36.7099C12.5906 36.6812 12.6192 36.6384 12.63 36.5899L12.69 36.4499H12.59C12.5414 36.4335 12.4993 36.4019 12.47 36.3599C12.37 36.3599 12.32 36.2799 12.31 36.2199C12.287 36.209 12.2674 36.1921 12.2533 36.171C12.2393 36.1498 12.2312 36.1253 12.23 36.0999C12.2243 36.0513 12.2033 36.0057 12.17 35.9699C12.1449 35.9057 12.1112 35.8451 12.07 35.7899C12.0636 35.7757 12.0604 35.7604 12.0604 35.7449C12.0604 35.7294 12.0636 35.714 12.07 35.6999C12.0798 35.6639 12.0798 35.6259 12.07 35.5899V35.4199C12.0746 35.36 12.0746 35.2998 12.07 35.2399V35.1799C12.0849 35.1006 12.0849 35.0192 12.07 34.9399C12.065 34.86 12.065 34.7798 12.07 34.6999V34.5799C12.0643 34.5367 12.0643 34.493 12.07 34.4499C12.0643 34.3967 12.0643 34.3431 12.07 34.2899C12.07 34.2399 12.07 34.1799 12.07 34.1299C12.1076 34.0483 12.141 33.9649 12.17 33.8799C12.1914 33.7928 12.2364 33.7132 12.3 33.6499C12.3074 33.6018 12.3282 33.5567 12.36 33.5199L12.44 33.4199C12.4639 33.3964 12.4842 33.3694 12.5 33.3399C12.5078 33.3206 12.5078 33.2991 12.5 33.2799C12.5062 33.2423 12.5237 33.2074 12.55 33.1799L12.61 33.0999L12.67 33.0199L12.74 32.9399V32.8699C12.7444 32.8549 12.7537 32.8419 12.7664 32.8329C12.7791 32.8238 12.7944 32.8192 12.81 32.8199C12.8252 32.7869 12.8454 32.7566 12.87 32.7299L12.95 32.6599L13.01 32.5999C13.0549 32.512 13.1244 32.439 13.21 32.3899C13.2373 32.375 13.2612 32.3546 13.28 32.3299L13.35 32.2799C13.401 32.2415 13.448 32.198 13.49 32.1499C13.49 32.1499 13.54 32.1499 13.55 32.0999L13.66 31.9899L13.76 31.8699L13.89 31.8199L14.01 31.7599C14.0292 31.7149 14.065 31.6791 14.11 31.6599L14.25 31.5899C14.3195 31.4927 14.4173 31.4194 14.53 31.3799C14.6449 31.3333 14.7553 31.2764 14.86 31.2099H14.93C14.9599 31.1991 14.9848 31.1778 15 31.1499C15 31.1499 15 31.1499 15.06 31.1499L15.26 31.0699C15.3926 31.0289 15.5152 30.9608 15.62 30.8699C15.6392 30.8621 15.6607 30.8621 15.68 30.8699C15.7819 30.8686 15.8831 30.8517 15.98 30.8199C16.077 30.7808 16.1774 30.7506 16.28 30.7299L16.4 30.6799H16.52H16.61H16.69H16.77H16.84C16.8928 30.6899 16.9471 30.6899 17 30.6799C17.0493 30.6684 17.1006 30.6684 17.15 30.6799H17.22H17.29C17.3511 30.6559 17.4189 30.6559 17.48 30.6799C17.491 30.6897 17.5052 30.6952 17.52 30.6952C17.5347 30.6952 17.549 30.6897 17.56 30.6799C17.5873 30.6641 17.6184 30.6558 17.65 30.6558C17.6816 30.6558 17.7126 30.6641 17.74 30.6799C17.8024 30.6948 17.8675 30.6948 17.93 30.6799H18.12C18.1294 30.6754 18.1396 30.6731 18.15 30.6731C18.1604 30.6731 18.1706 30.6754 18.18 30.6799H18.24H18.36C18.3959 30.6902 18.434 30.6902 18.47 30.6799C18.4937 30.6697 18.5192 30.6644 18.545 30.6644C18.5708 30.6644 18.5963 30.6697 18.62 30.6799C18.6698 30.6856 18.7201 30.6856 18.77 30.6799H18.93C18.9754 30.6951 19.0246 30.6951 19.07 30.6799H19.15H19.22L19.37 30.7499L19.53 30.7999C19.53 30.7999 19.59 30.7999 19.62 30.7999C19.6352 30.836 19.6639 30.8647 19.7 30.8799L19.82 30.9299L19.9 30.9799L19.96 31.0299C20.007 31.0442 20.0487 31.072 20.08 31.1099L20.18 31.1999C20.2206 31.2292 20.2547 31.2667 20.28 31.3099C20.3012 31.3472 20.3282 31.3809 20.36 31.4099C20.3744 31.4379 20.3911 31.4647 20.41 31.4899C20.4172 31.5056 20.4209 31.5226 20.4209 31.5399C20.4209 31.5571 20.4172 31.5742 20.41 31.5899C20.41 31.6399 20.41 31.6899 20.49 31.7399C20.5454 31.804 20.5772 31.8852 20.58 31.9699C20.58 31.9699 20.58 32.0499 20.63 32.0799C20.6951 32.1394 20.7345 32.2218 20.74 32.3099C20.7268 32.3901 20.7447 32.4723 20.79 32.5399C20.7997 32.5602 20.8048 32.5824 20.8048 32.6049C20.8048 32.6274 20.7997 32.6496 20.79 32.6699C20.7708 32.7662 20.7887 32.8662 20.84 32.9499C20.8484 32.9962 20.8484 33.0436 20.84 33.0899C20.8351 33.1831 20.8351 33.2766 20.84 33.3699C21.0228 33.4167 21.2132 33.4269 21.4 33.3999C21.4048 33.423 21.4048 33.4468 21.4 33.4699C21.3897 33.516 21.3897 33.5638 21.4 33.6099C21.3953 33.6598 21.3953 33.71 21.4 33.7599C21.4097 33.806 21.4097 33.8537 21.4 33.8999C21.4048 33.9464 21.4048 33.9933 21.4 34.0399C21.3696 34.0686 21.3516 34.1081 21.35 34.1499C21.35 34.1499 21.35 34.2299 21.35 34.2799C21.3453 34.2996 21.3453 34.3202 21.35 34.3399C21.3553 34.3508 21.358 34.3628 21.358 34.3749C21.358 34.387 21.3553 34.399 21.35 34.4099C21.3109 34.4509 21.2864 34.5036 21.28 34.5599C21.2843 34.6131 21.2843 34.6666 21.28 34.7199C21.2338 34.7723 21.2088 34.84 21.21 34.9099C21.2198 34.9762 21.2198 35.0436 21.21 35.1099C21.2154 35.1396 21.2154 35.1701 21.21 35.1999C21.2048 35.2229 21.2048 35.2468 21.21 35.2699C21.1714 35.3238 21.1442 35.3851 21.13 35.4499C21.1278 35.5698 21.1041 35.6884 21.06 35.7999C21.0325 35.8479 21.0091 35.898 20.99 35.9499C20.9612 36.0066 20.9409 36.0672 20.93 36.1299C20.9007 36.2136 20.8839 36.3012 20.88 36.3899C20.8521 36.4051 20.8308 36.43 20.82 36.4599C20.8183 36.4932 20.8183 36.5266 20.82 36.5599C20.8077 36.6048 20.791 36.6483 20.77 36.6899L20.68 36.7999C20.689 36.8131 20.6938 36.8288 20.6938 36.8449C20.6938 36.8609 20.689 36.8766 20.68 36.8899C20.6782 36.9165 20.6782 36.9432 20.68 36.9699C20.6604 37.012 20.637 37.0521 20.61 37.0899L20.55 37.2299C20.55 37.2299 20.55 37.2299 20.55 37.2899H20.5L20.45 37.3399C20.45 37.3399 20.45 37.3399 20.45 37.3999L20.34 37.6399C20.2984 37.7209 20.2405 37.7924 20.17 37.8499C20.1509 37.905 20.1275 37.9585 20.1 38.0099C20.0609 38.0594 20.0273 38.113 20 38.1699C19.9629 38.2277 19.9295 38.2878 19.9 38.3499C19.8714 38.4137 19.8266 38.4688 19.77 38.5099C19.7221 38.5492 19.6815 38.5966 19.65 38.6499C19.626 38.7064 19.5958 38.76 19.56 38.8099C19.5619 38.8332 19.5619 38.8566 19.56 38.8799C19.56 38.8799 19.56 38.9299 19.56 38.9499C19.5519 38.9702 19.5398 38.9887 19.5243 39.0042C19.5088 39.0197 19.4903 39.0318 19.47 39.0399C19.4442 39.0481 19.4208 39.0624 19.4017 39.0816C19.3825 39.1007 19.3682 39.1241 19.36 39.1499C19.3399 39.2082 19.3094 39.2624 19.27 39.3099L19.14 39.4299L19.09 39.4899L19.04 39.5499C19.0015 39.6158 18.9544 39.6764 18.9 39.7299L18.8 39.8399L18.7 39.9399L18.62 40.0099L18.55 40.0999L18.47 40.1899C18.4308 40.2524 18.3799 40.3068 18.32 40.3499L18.15 40.4999L18.03 40.5899C17.9853 40.6171 17.9448 40.6508 17.91 40.6899C17.893 40.7198 17.87 40.7459 17.8425 40.7666C17.815 40.7872 17.7835 40.802 17.75 40.8099C17.7244 40.8376 17.6935 40.8598 17.6592 40.8753C17.6248 40.8907 17.5877 40.8991 17.55 40.8999M13.79 36.2099C13.7512 36.2464 13.7205 36.2907 13.7 36.3399C13.6827 36.3862 13.6592 36.43 13.63 36.4699C13.58 36.5799 13.52 36.6799 13.47 36.7799L13.3 37.0799C13.2842 37.2006 13.2358 37.3146 13.16 37.4099C13.1584 37.4399 13.1584 37.4699 13.16 37.4999L13.08 37.7399C13.0682 37.8208 13.0515 37.901 13.03 37.9799C13.03 38.0599 13.03 38.1299 13.03 38.1999C13.0196 38.2695 13.0196 38.3403 13.03 38.4099C13.0354 38.4798 13.0354 38.55 13.03 38.6199C13.0196 38.6928 13.0196 38.7669 13.03 38.8399C13.0352 38.9064 13.0352 38.9733 13.03 39.0399C13.0195 39.1028 13.0195 39.167 13.03 39.2299C13.03 39.2299 13.03 39.2299 13.03 39.2899C13.0253 39.3062 13.0253 39.3235 13.03 39.3399V39.4899C13.0256 39.5364 13.0256 39.5833 13.03 39.6299C13.03 39.6299 13.03 39.6999 13.08 39.7299C13.1026 39.7636 13.1195 39.8007 13.13 39.8399C13.1495 39.9202 13.1798 39.9976 13.22 40.0699C13.2692 40.1431 13.3126 40.22 13.35 40.2999C13.3951 40.3516 13.4453 40.3985 13.5 40.4399L13.68 40.5499C13.7374 40.6086 13.8052 40.6561 13.88 40.6899L14.1 40.7899H14.22H14.4H14.6H14.8H14.4H14.57H14.74C14.8569 40.7899 14.9726 40.7661 15.08 40.7199C15.1362 40.6854 15.1967 40.6585 15.26 40.6399C15.3484 40.6266 15.4334 40.596 15.51 40.5499L15.75 40.4399C15.8178 40.4115 15.8816 40.3745 15.94 40.3299L16.14 40.2299H16.19L16.27 40.1599L16.34 40.0999C16.4455 40.0351 16.5429 39.9579 16.63 39.8699L16.7 39.7899C16.7257 39.7798 16.7543 39.7798 16.78 39.7899C16.8099 39.7791 16.8348 39.7578 16.85 39.7299C16.8443 39.7035 16.8443 39.6762 16.85 39.6499L17.01 39.5299L17.18 39.4099C17.1905 39.3528 17.2184 39.3004 17.26 39.2599L17.37 39.1299C17.3899 39.0943 17.4134 39.0608 17.44 39.0299L17.52 38.9399C17.5753 38.811 17.657 38.6951 17.76 38.5999C17.7909 38.5726 17.8149 38.5383 17.83 38.4999C17.83 38.4999 17.83 38.4999 17.83 38.4499L17.9 38.3899H17.96C17.9826 38.3769 18.0011 38.3578 18.0135 38.3349C18.0259 38.3119 18.0316 38.2859 18.03 38.2599C18.0264 38.2266 18.0264 38.1931 18.03 38.1599L18.15 38.0599C18.2021 38.0233 18.2408 37.9706 18.26 37.9099C18.2542 37.8768 18.2542 37.843 18.26 37.8099L18.32 37.7299C18.3954 37.6606 18.4478 37.5699 18.47 37.4699V37.3799C18.5115 37.3484 18.5485 37.3114 18.58 37.2699C18.6007 37.2232 18.6276 37.1794 18.66 37.1399C18.66 37.1399 18.66 37.1399 18.66 37.0699C18.6553 37.0367 18.6553 37.003 18.66 36.9699C18.6544 36.9503 18.6544 36.9295 18.66 36.9099C18.6907 36.8433 18.7275 36.7797 18.77 36.7199C18.8126 36.657 18.8399 36.5851 18.85 36.5099C18.85 36.5099 18.91 36.4599 18.91 36.3999C18.9808 36.4526 19.0667 36.4811 19.155 36.4811C19.2433 36.4811 19.3292 36.4526 19.4 36.3999C19.3946 36.3735 19.3946 36.3463 19.4 36.3199C19.4289 36.2597 19.4491 36.1957 19.46 36.1299C19.4707 36.0651 19.4874 36.0015 19.51 35.9399V35.8899C19.5056 35.8701 19.5056 35.8496 19.51 35.8299C19.5018 35.8181 19.4974 35.8042 19.4974 35.7899C19.4974 35.7756 19.5018 35.7616 19.51 35.7499C19.5321 35.7309 19.5492 35.7069 19.56 35.6799C19.5633 35.6567 19.5633 35.6331 19.56 35.6099C19.5794 35.4821 19.6164 35.3575 19.67 35.2399C19.6494 35.1816 19.6494 35.1181 19.67 35.0599C19.6957 35.0063 19.7126 34.9489 19.72 34.8899C19.736 34.8446 19.736 34.7952 19.72 34.7499C19.7062 34.7183 19.6991 34.6843 19.6991 34.6499C19.6991 34.6155 19.7062 34.5814 19.72 34.5499C19.7278 34.5306 19.7278 34.5091 19.72 34.4899C19.72 34.4899 19.72 34.4299 19.72 34.3999C19.715 34.34 19.715 34.2798 19.72 34.2199C19.72 34.1499 19.72 34.0899 19.72 34.0299C19.7247 34.0102 19.7247 33.9896 19.72 33.9699C19.7153 33.9502 19.7153 33.9296 19.72 33.9099V33.7699C19.7385 33.7216 19.7385 33.6682 19.72 33.6199V33.3999C19.7351 33.3206 19.7351 33.2392 19.72 33.1599C19.7051 33.1251 19.6975 33.0877 19.6975 33.0499C19.6975 33.0121 19.7051 32.9746 19.72 32.9399C19.7353 32.8842 19.7353 32.8255 19.72 32.7699C19.7001 32.715 19.7001 32.6548 19.72 32.5999C19.6935 32.576 19.6775 32.5426 19.6756 32.5069C19.6738 32.4713 19.6861 32.4364 19.71 32.4099C19.7339 32.3834 19.7673 32.3674 19.8029 32.3655C19.8385 32.3637 19.8735 32.376 19.9 32.3999C19.9 32.3999 19.9 32.3399 19.9 32.2999L19.84 32.1399C19.8165 32.0913 19.7965 32.0412 19.78 31.9899C19.7842 31.9735 19.7842 31.9563 19.78 31.9399C19.78 31.9399 19.78 31.8699 19.78 31.8599C19.78 31.8499 19.78 31.8599 19.73 31.8099C19.7021 31.7426 19.6613 31.6815 19.61 31.6299C19.5871 31.6363 19.5629 31.6363 19.54 31.6299L19.4 31.4699C19.3836 31.4451 19.3587 31.4273 19.33 31.4199H19.23C19.2074 31.4283 19.1826 31.4283 19.16 31.4199L19.11 31.3699C19.11 31.3699 19.11 31.3699 19.05 31.3699H18.89C18.8395 31.3604 18.7917 31.3399 18.75 31.3099C18.7251 31.2975 18.6977 31.2911 18.67 31.2911C18.6422 31.2911 18.6148 31.2975 18.59 31.3099C18.5349 31.3289 18.4751 31.3289 18.42 31.3099C18.4021 31.3215 18.3813 31.3277 18.36 31.3277C18.3387 31.3277 18.3178 31.3215 18.3 31.3099C18.2577 31.2961 18.2122 31.2961 18.17 31.3099H17.79C17.7203 31.3197 17.6496 31.3197 17.58 31.3099H17.4C17.3601 31.3149 17.3198 31.3149 17.28 31.3099H17.1C17.0418 31.2893 16.9782 31.2893 16.92 31.3099H16.8H16.75H16.64H16.32L16.14 31.3699L15.96 31.4199L15.8 31.3999C15.7451 31.4197 15.6849 31.4197 15.63 31.3999C15.5677 31.4806 15.4793 31.5371 15.38 31.5599C15.3645 31.552 15.3474 31.5479 15.33 31.5479C15.3126 31.5479 15.2955 31.552 15.28 31.5599C15.2527 31.5955 15.2138 31.6202 15.17 31.6299H15.05H14.98L14.74 31.7899L14.49 31.9399C14.49 31.9399 14.44 31.9399 14.43 31.9399C14.3751 31.9509 14.3237 31.9749 14.28 32.0099L14.16 32.1099L14.03 32.2299L13.89 32.3399L13.75 32.4299C13.7055 32.4614 13.6652 32.4983 13.63 32.5399L13.51 32.6599C13.4684 32.7004 13.4405 32.7528 13.43 32.8099C13.3747 32.8294 13.3284 32.8686 13.3 32.9199C13.2789 32.9714 13.2444 33.0163 13.2 33.0499C13.1247 33.1197 13.0606 33.2006 13.01 33.2899L12.95 33.3999C12.9274 33.4336 12.9105 33.4707 12.9 33.5099C12.9053 33.5261 12.9053 33.5436 12.9 33.5599C12.8442 33.6118 12.8029 33.6772 12.78 33.7499C12.7541 33.8151 12.724 33.8785 12.69 33.9399C12.6437 34.0265 12.6164 34.1219 12.61 34.2199C12.5997 34.3216 12.5796 34.422 12.55 34.5199C12.5351 34.5891 12.5351 34.6607 12.55 34.7299C12.5556 34.8165 12.5556 34.9033 12.55 34.9899C12.5568 35.0783 12.5842 35.1639 12.63 35.2399L12.7 35.3299C12.7239 35.3533 12.7442 35.3803 12.76 35.4099C12.7898 35.4624 12.8352 35.5044 12.89 35.5299L13.04 35.5799C13.1 35.5799 13.16 35.5799 13.21 35.5199L13.28 35.4099L13.35 35.2999L13.88 34.6099L14.11 34.3599C14.1854 34.2777 14.2555 34.1909 14.32 34.0999C14.3261 34.0879 14.3346 34.0774 14.3449 34.0688C14.3552 34.0602 14.3671 34.0538 14.38 34.0499C14.38 34.0499 14.38 34.0499 14.38 33.9899C14.4348 33.9206 14.5028 33.8628 14.58 33.8199L14.7 33.6999L14.83 33.6099C14.8627 33.5808 14.8998 33.5572 14.94 33.5399C14.978 33.5156 15.0118 33.4852 15.04 33.4499C15.0498 33.4348 15.0631 33.4224 15.0788 33.4137C15.0945 33.405 15.112 33.4002 15.13 33.3999C15.1626 33.4099 15.1974 33.4099 15.23 33.3999L15.32 33.3399L15.42 33.2899L15.51 33.2399H15.59C15.6127 33.2475 15.6373 33.2475 15.66 33.2399L15.88 33.1699C15.9531 33.1361 16.0305 33.1126 16.11 33.0999H16.33C16.4063 33.0902 16.4836 33.0902 16.56 33.0999H16.81C16.893 33.0894 16.977 33.0894 17.06 33.0999C17.1267 33.1322 17.1973 33.1557 17.27 33.1699L17.48 33.2299L17.64 33.2799L17.79 33.3399C17.8393 33.3514 17.8832 33.3795 17.9141 33.4196C17.9451 33.4597 17.9613 33.5092 17.96 33.5599C17.9638 33.5763 17.9638 33.5934 17.96 33.6099C17.9653 33.6261 17.9653 33.6436 17.96 33.6599L17.85 33.7199C17.8342 33.732 17.8149 33.7386 17.795 33.7386C17.7751 33.7386 17.7557 33.732 17.74 33.7199H17.49C17.411 33.7167 17.3332 33.6998 17.26 33.6699H16.96C16.877 33.6803 16.793 33.6803 16.71 33.6699C16.6072 33.655 16.5028 33.655 16.4 33.6699L16.09 33.7499L15.76 33.8999L15.43 34.0399L15.29 34.1399L15.15 34.2299C15.1194 34.244 15.0921 34.2645 15.07 34.2899C15.0131 34.3286 14.9625 34.3758 14.92 34.4299L14.76 34.5599C14.6576 34.6249 14.5636 34.7021 14.48 34.7899L14.24 35.0699L14.03 35.3299L13.84 35.5899C13.8639 35.605 13.8917 35.613 13.92 35.613C13.9483 35.613 13.976 35.605 14 35.5899L14.14 35.5199H14.29L14.45 35.4599L14.59 35.3699L14.77 35.2399C14.8304 35.198 14.8843 35.1474 14.93 35.0899L15.09 34.9699L15.23 34.8299C15.28 34.7699 15.32 34.7099 15.37 34.6599C15.4214 34.6011 15.4529 34.5276 15.46 34.4499C15.46 34.4499 15.46 34.3899 15.53 34.3599C15.5478 34.3288 15.5716 34.3016 15.6 34.2799L15.67 34.1999C15.6994 34.154 15.7392 34.1157 15.786 34.0879C15.8329 34.0601 15.8856 34.0437 15.94 34.0399C15.9739 34.0373 16.0079 34.0443 16.038 34.0603C16.0681 34.0762 16.0931 34.1003 16.11 34.1299C16.1262 34.1318 16.1418 34.1372 16.1556 34.1459C16.1695 34.1545 16.1812 34.1661 16.19 34.1799C16.1968 34.2095 16.1968 34.2403 16.19 34.2699C16.1952 34.3331 16.1952 34.3967 16.19 34.4599C16.1999 34.5195 16.1999 34.5803 16.19 34.6399C16.1956 34.683 16.1956 34.7267 16.19 34.7699C16.169 34.8114 16.1522 34.855 16.14 34.8999L16.08 35.0099L15.97 35.1499C15.9311 35.1923 15.8975 35.2393 15.87 35.2899C15.8547 35.2942 15.8405 35.3018 15.8284 35.3122C15.8163 35.3225 15.8066 35.3354 15.8 35.3499C15.7964 35.3764 15.7964 35.4033 15.8 35.4299C15.8 35.4299 15.8 35.4299 15.75 35.4899C15.6994 35.5174 15.6524 35.551 15.61 35.5899L15.48 35.6999L15.29 35.8799C15.2286 35.9409 15.1576 35.9916 15.08 36.0299C15.0122 36.0736 14.9421 36.1137 14.87 36.1499L14.67 36.2499C14.5863 36.2932 14.4994 36.33 14.41 36.3599L14.15 36.4299H13.98H13.8H13.62C13.5847 36.4773 13.5373 36.5144 13.4828 36.5373C13.4282 36.5602 13.3686 36.568 13.31 36.5599L13.79 36.2099Z" fill="#FFFEFE"/>
<path d="M30.4 36.0898C30.3325 36.1456 30.272 36.2094 30.22 36.2798L30.08 36.4998L29.99 36.6198L29.78 36.8598C29.7089 36.9369 29.6452 37.0206 29.59 37.1098C29.559 37.1749 29.5147 37.2328 29.46 37.2798L29.3 37.4398L29.16 37.5998L29.1 37.6598L29.04 37.7298L28.86 37.8898C28.8018 37.9453 28.7483 38.0055 28.7 38.0698C28.6494 38.151 28.5713 38.2113 28.48 38.2398H28.42C28.3916 38.2813 28.3545 38.3162 28.3114 38.3421C28.2683 38.368 28.22 38.3843 28.17 38.3898C28.0783 38.395 27.9876 38.4118 27.9 38.4398C27.856 38.4597 27.8083 38.47 27.76 38.47C27.7118 38.47 27.664 38.4597 27.62 38.4398C27.5488 38.4168 27.4748 38.4033 27.4 38.3998C27.373 38.3957 27.3472 38.3855 27.3246 38.3699C27.3021 38.3543 27.2834 38.3337 27.27 38.3098C27.2457 38.2689 27.2153 38.2318 27.18 38.1998L27.06 38.0698C27.0249 38.0183 26.9711 37.9824 26.91 37.9698C26.91 37.9698 26.91 37.9698 26.86 37.9198V37.8398C26.8476 37.8132 26.8411 37.7842 26.8411 37.7548C26.8411 37.7255 26.8476 37.6964 26.86 37.6698C26.8578 37.6354 26.8486 37.6017 26.8332 37.5708C26.8177 37.5399 26.7963 37.5124 26.77 37.4898C26.7535 37.4814 26.7389 37.4698 26.7269 37.4556C26.715 37.4414 26.7059 37.4251 26.7003 37.4074C26.6948 37.3897 26.6927 37.3711 26.6944 37.3526C26.6961 37.3342 26.7014 37.3162 26.71 37.2998C26.71 37.2998 26.71 37.2998 26.71 37.2098C26.7199 37.1807 26.7199 37.149 26.71 37.1198C26.6965 37.064 26.6965 37.0057 26.71 36.9498C26.7056 36.8899 26.7056 36.8298 26.71 36.7698C26.7162 36.72 26.7162 36.6697 26.71 36.6198C26.7003 36.5569 26.7003 36.4928 26.71 36.4298C26.7192 36.3615 26.7509 36.2982 26.8 36.2498C26.8158 36.2225 26.8242 36.1914 26.8242 36.1598C26.8242 36.1282 26.8158 36.0972 26.8 36.0698C26.782 36.0433 26.7723 36.0119 26.7723 35.9798C26.7723 35.9477 26.782 35.9164 26.8 35.8898C26.8044 35.8701 26.8044 35.8496 26.8 35.8298C26.7945 35.8068 26.7945 35.7828 26.8 35.7598C26.8047 35.7401 26.8047 35.7196 26.8 35.6998C26.861 35.6525 26.9035 35.5853 26.92 35.5098C26.9428 35.4394 26.9803 35.3746 27.03 35.3198C27.0485 35.2613 27.0485 35.1984 27.03 35.1398C27.0256 35.1064 27.0296 35.0723 27.0419 35.0408C27.0541 35.0094 27.0741 34.9815 27.1 34.9598C27.144 34.9272 27.1814 34.8865 27.21 34.8398C27.2493 34.7763 27.2828 34.7094 27.31 34.6398L27.4 34.4298L27.49 34.3098C27.6003 34.2436 27.7012 34.1629 27.79 34.0698L28.03 33.7898H28.08V33.7398C28.1118 33.7278 28.1396 33.707 28.16 33.6798C28.1609 33.638 28.1707 33.5968 28.1889 33.5592C28.2072 33.5215 28.2333 33.4882 28.2656 33.4616C28.2979 33.435 28.3356 33.4157 28.3761 33.4051C28.4165 33.3944 28.4588 33.3926 28.5 33.3998L28.7 33.3098C28.75 33.3098 28.77 33.3098 28.78 33.2398L28.92 33.0998C28.9603 33.0382 29.0133 32.9858 29.0753 32.9462C29.1374 32.9065 29.2072 32.8805 29.28 32.8698L29.4 32.7998C29.5051 32.7304 29.6196 32.6766 29.74 32.6398L30.05 32.5698C30.149 32.5496 30.2511 32.5496 30.35 32.5698C30.4297 32.5803 30.5104 32.5803 30.59 32.5698H30.83H30.93C30.9493 32.5709 30.968 32.5758 30.9853 32.5844C31.0025 32.593 31.0177 32.6051 31.03 32.6198C31.1288 32.7042 31.2509 32.7565 31.38 32.7698L31.78 33.0398L31.92 32.8798L32.06 32.7198C32.1224 32.6554 32.2 32.6079 32.2857 32.5817C32.3714 32.5555 32.4623 32.5514 32.55 32.5698H32.63C32.6558 32.5598 32.6843 32.5598 32.71 32.5698C32.7898 32.5823 32.8615 32.6253 32.91 32.6898C32.9562 32.7472 32.9933 32.8113 33.02 32.8798C33.0846 33.0176 33.1187 33.1677 33.12 33.3198V33.3998C33.1155 33.4497 33.1155 33.4999 33.12 33.5498C33.1235 33.6031 33.1235 33.6566 33.12 33.7098C33.111 33.7493 33.111 33.7903 33.12 33.8298C33.124 33.8631 33.124 33.8966 33.12 33.9298C33.0739 34.0145 33.0402 34.1055 33.02 34.1998C33.0144 34.2864 33.0144 34.3733 33.02 34.4598L32.97 34.5698C32.9392 34.615 32.9058 34.6584 32.87 34.6998C32.8355 34.7435 32.8054 34.7903 32.78 34.8398C32.78 34.8398 32.78 34.8398 32.78 34.8998C32.8008 34.9546 32.8008 35.0151 32.78 35.0698L32.67 35.2198L32.4 35.3998C32.3733 35.4585 32.35 35.5186 32.33 35.5798C32.2864 35.7705 32.2121 35.9529 32.11 36.1198C32.0649 36.1799 32.031 36.2477 32.01 36.3198C32.0032 36.3897 32.0032 36.46 32.01 36.5298L31.96 36.6598C31.9195 36.7154 31.8953 36.7812 31.89 36.8498C31.8997 36.8684 31.9047 36.889 31.9047 36.9098C31.9047 36.9307 31.8997 36.9513 31.89 36.9698C31.8586 37.003 31.8377 37.0448 31.83 37.0898V37.2198C31.8163 37.3251 31.7928 37.4289 31.76 37.5298C31.7294 37.6334 31.6821 37.7314 31.62 37.8198C31.6118 37.8695 31.6118 37.9202 31.62 37.9698C31.6645 37.9791 31.7106 37.9755 31.7531 37.9596C31.7955 37.9436 31.8326 37.916 31.86 37.8798C31.9223 37.7944 32.0048 37.7257 32.1 37.6798C32.1939 37.636 32.2787 37.5749 32.35 37.4998C32.7084 37.2548 33.0432 36.9769 33.35 36.6698C33.6604 36.3493 33.9322 35.9935 34.16 35.6098L34.44 35.1098L34.71 34.6398L35.02 34.0898C35.0346 34.0522 35.0574 34.0182 35.0869 33.9905C35.1163 33.9628 35.1515 33.9421 35.19 33.9298L35.4 33.8798C35.46 33.8798 35.52 33.8798 35.57 33.9998C35.5885 34.0584 35.5885 34.1213 35.57 34.1798C35.5757 34.2364 35.5757 34.2933 35.57 34.3498C35.5295 34.4177 35.4928 34.4878 35.46 34.5598C35.4313 34.6337 35.3944 34.7042 35.35 34.7698L35.11 35.1598L34.88 35.5498C34.8339 35.6301 34.7938 35.7137 34.76 35.7998C34.76 35.8798 34.68 35.9698 34.63 36.0598C34.5 36.2998 34.38 36.5198 34.26 36.7098C34.14 36.8998 34.01 37.0698 33.88 37.2298C33.7431 37.3985 33.5926 37.5557 33.43 37.6998C33.27 37.8498 33.08 38.0198 32.86 38.1898C32.8104 38.2416 32.753 38.2855 32.69 38.3198H32.61L32.41 38.4998C32.3509 38.5677 32.2837 38.6281 32.21 38.6798L32.08 38.7498L31.94 38.8198L31.7 38.9898L31.46 39.1498C31.431 39.1467 31.4017 39.1516 31.3753 39.1639C31.3489 39.1763 31.3263 39.1956 31.31 39.2198L31.19 39.3198C31.18 39.3524 31.18 39.3873 31.19 39.4198C31.1958 39.4596 31.1958 39.5 31.19 39.5398C31.1966 39.5762 31.1966 39.6135 31.19 39.6498L31.07 39.8598L30.97 40.0598C30.9675 40.1031 30.9675 40.1465 30.97 40.1898L30.92 40.3398C30.9264 40.3627 30.9264 40.3869 30.92 40.4098C30.8444 40.4574 30.7905 40.5328 30.77 40.6198C30.7507 40.7098 30.7204 40.7971 30.68 40.8798C30.6656 40.9335 30.6419 40.9843 30.61 41.0298L30.44 41.2898C30.3905 41.3802 30.3567 41.4782 30.34 41.5798C30.3306 41.6076 30.3132 41.6319 30.29 41.6498L30.22 41.7298L30.13 41.8998C30.0947 41.9593 30.047 42.0105 29.99 42.0498C29.9847 42.0607 29.982 42.0727 29.982 42.0848C29.982 42.097 29.9847 42.1089 29.99 42.1198C29.9974 42.13 30.0013 42.1423 30.0013 42.1548C30.0013 42.1674 29.9974 42.1796 29.99 42.1898L29.88 42.3798L29.78 42.5398C29.7428 42.5481 29.7076 42.5639 29.6766 42.5862C29.6457 42.6086 29.6196 42.637 29.6 42.6698L29.49 42.8498C29.4385 42.9145 29.3816 42.9747 29.32 43.0298L29.13 43.1698C29.0573 43.2621 28.9651 43.3372 28.86 43.3898C28.7602 43.4372 28.6633 43.4906 28.57 43.5498C28.534 43.5596 28.4961 43.5596 28.46 43.5498H28.32H28.22C28.1839 43.5409 28.1462 43.5409 28.11 43.5498H27.88H27.64C27.5974 43.5604 27.5527 43.5604 27.51 43.5498H27.37H27.32C27.2386 43.5746 27.1515 43.5746 27.07 43.5498L26.4 43.5898L26.21 43.4698C26.1552 43.425 26.1049 43.3747 26.06 43.3198C25.9418 43.1951 25.8378 43.0576 25.75 42.9098C25.6872 42.8158 25.6431 42.7106 25.62 42.5998C25.57 42.4378 25.543 42.2694 25.54 42.0998C25.5323 41.9316 25.5491 41.7632 25.59 41.5998C25.6542 41.3647 25.7742 41.1485 25.94 40.9698C26.0317 40.8683 26.1285 40.7715 26.23 40.6798C26.3299 40.5822 26.4446 40.5012 26.57 40.4398C26.6351 40.4081 26.6957 40.3677 26.75 40.3198C26.809 40.2729 26.8771 40.2389 26.95 40.2198C27.1297 40.1582 27.3036 40.0813 27.47 39.9898C27.5212 39.9768 27.5689 39.9529 27.61 39.9198H27.68H27.76H27.83C27.9395 39.852 28.0571 39.7982 28.18 39.7598L28.53 39.6598C28.5427 39.6543 28.5563 39.6515 28.57 39.6515C28.5838 39.6515 28.5974 39.6543 28.61 39.6598C28.6895 39.6647 28.768 39.6397 28.83 39.5898C28.8833 39.538 28.9486 39.5003 29.02 39.4798L29.23 39.3598L29.46 39.2598C29.5314 39.2434 29.5946 39.2023 29.6386 39.1437C29.6825 39.0852 29.7043 39.0129 29.7 38.9398C29.7 38.9398 29.7 38.8098 29.77 38.6998L29.89 38.0598V37.9698C29.8958 37.93 29.8958 37.8896 29.89 37.8498L29.98 37.5998C29.98 37.5198 30.03 37.4298 30.06 37.3398L30.12 37.1298C30.12 37.0698 30.12 36.9998 30.12 36.9198V36.8398V36.7698V36.6798C30.1277 36.6571 30.1277 36.6326 30.12 36.6098C30.12 36.6098 30.4 36.3998 30.4 36.3998V36.3098C30.4 36.3098 30.4 36.2498 30.4 36.2198V36.0898ZM29.22 40.3998C29.2153 40.3835 29.2153 40.3662 29.22 40.3498L28.91 40.4198C28.8082 40.4412 28.7104 40.4783 28.62 40.5298L28.38 40.5898C28.3042 40.6112 28.2374 40.6569 28.19 40.7198H28.14L27.78 40.8198L27.43 40.9198H27.4C27.3934 40.9399 27.3816 40.9579 27.3658 40.9719C27.35 40.986 27.3308 40.9956 27.31 40.9998H27.18C27.1384 40.9826 27.0917 40.9826 27.05 40.9998L26.9 41.1398C26.8581 41.185 26.8111 41.2253 26.76 41.2598C26.6922 41.2995 26.6313 41.3502 26.58 41.4098L26.43 41.5998C26.3766 41.6744 26.3438 41.7618 26.335 41.8531C26.3262 41.9444 26.3418 42.0365 26.38 42.1198C26.4079 42.1992 26.4484 42.2735 26.5 42.3398C26.5479 42.411 26.6184 42.4638 26.7 42.4898L26.75 42.5398C26.8164 42.5914 26.8907 42.632 26.97 42.6598C27.0542 42.6896 27.1459 42.6896 27.23 42.6598H27.42L27.62 42.5898C27.7207 42.5482 27.8098 42.4831 27.88 42.3998L27.93 42.3398C27.93 42.3398 27.93 42.3398 27.99 42.2798L28.11 42.1898C28.1329 42.1813 28.1537 42.168 28.1709 42.1507C28.1882 42.1335 28.2015 42.1127 28.21 42.0898C28.2485 42.0085 28.2954 41.9314 28.35 41.8598L28.49 41.6598L28.58 41.5498L28.66 41.4298C28.6745 41.3495 28.7015 41.2718 28.74 41.1998L28.86 40.9698C28.8892 40.8914 28.9225 40.8146 28.96 40.7398C28.9933 40.6588 29.0407 40.5843 29.1 40.5198C29.1365 40.4956 29.1644 40.4607 29.18 40.4198C29.1936 40.4136 29.2069 40.4069 29.22 40.3998ZM28.13 37.2898C28.1664 37.2831 28.2037 37.2831 28.24 37.2898H28.32C28.4819 37.1947 28.6388 37.0912 28.79 36.9798C28.9373 36.8722 29.0776 36.7553 29.21 36.6298C29.2884 36.5581 29.3619 36.4813 29.43 36.3998L29.65 36.1598L30.08 35.7198C30.2193 35.5727 30.3432 35.4119 30.45 35.2398L30.52 35.1498L30.6 35.0498C30.65 34.9898 30.7 34.9398 30.75 34.8698L30.9 34.6798L31.23 34.2798H31.18C31.131 34.2662 31.0791 34.2662 31.03 34.2798H30.88C30.8103 34.2708 30.7398 34.2708 30.67 34.2798H30.45C30.3807 34.2951 30.3158 34.3259 30.26 34.3698C30.2405 34.3979 30.2124 34.4189 30.18 34.4298C30.18 34.4298 30.12 34.4298 30.1 34.4298C30.0421 34.4075 29.978 34.4075 29.92 34.4298L29.77 34.5398L29.56 34.7498C29.49 34.8098 29.42 34.8798 29.35 34.9298L29.11 35.1598L28.87 35.4098C28.8188 35.4637 28.7751 35.5243 28.74 35.5898C28.7072 35.6585 28.6705 35.7253 28.63 35.7898C28.5827 35.8681 28.5458 35.9521 28.52 36.0398C28.52 36.1098 28.45 36.1898 28.41 36.2698L28.25 36.6098C28.202 36.7269 28.1848 36.8543 28.2 36.9798C28.2 36.9798 28.2 37.0398 28.2 37.0498C28.2 37.0598 28.2 37.1498 28.2 37.1898V37.3298C28.1954 37.3496 28.1954 37.3701 28.2 37.3898C28.2 37.3898 28.13 37.2098 28.13 37.2398V37.2898Z" fill="#FFFEFE"/>
<path d="M37.4 35.1699C37.4 35.2499 37.29 35.3199 37.24 35.3899C37.1813 35.452 37.1278 35.5189 37.08 35.5899C37.0311 35.6347 36.9875 35.6851 36.95 35.7399C36.9053 35.7859 36.8651 35.8361 36.83 35.8899L36.63 36.1299L36.4 36.3999C36.3065 36.4835 36.2226 36.5774 36.15 36.6799L35.99 36.8599L35.83 37.0499L35.69 37.1899C35.6459 37.239 35.5992 37.2857 35.55 37.3299L35.34 37.5699L35.11 37.7899L34.98 37.8999L34.84 37.9899C34.7778 38.0613 34.7073 38.125 34.63 38.1799H34.58L34.39 38.2399L34.19 38.3099H34.09H33.97H33.9C33.889 38.3145 33.8771 38.3169 33.865 38.3169C33.853 38.3169 33.8411 38.3145 33.83 38.3099H33.77L33.62 38.2099L33.4 38.0599C33.3334 37.9994 33.282 37.924 33.25 37.8399C33.2402 37.8251 33.2349 37.8077 33.2349 37.7899C33.2349 37.7721 33.2402 37.7547 33.25 37.7399C33.255 37.7 33.255 37.6597 33.25 37.6199L33.19 37.5199V37.4599C33.1848 37.4507 33.182 37.4404 33.182 37.4299C33.182 37.4193 33.1848 37.409 33.19 37.3999C33.19 37.3999 33.19 37.3099 33.19 37.2699C33.2048 37.221 33.2048 37.1688 33.19 37.1199C33.1848 37.1107 33.182 37.1004 33.182 37.0899C33.182 37.0793 33.1848 37.069 33.19 37.0599C33.1852 37.0368 33.1852 37.0129 33.19 36.9899C33.1947 36.9701 33.1947 36.9496 33.19 36.9299C33.1838 36.8868 33.1838 36.843 33.19 36.7999L33.24 36.6999C33.24 36.6399 33.24 36.5899 33.29 36.5399L33.34 36.3899C33.34 36.3899 33.34 36.3899 33.34 36.2999C33.34 36.2099 33.43 36.2199 33.4 36.1399C33.3858 36.1102 33.3785 36.0777 33.3785 36.0449C33.3785 36.012 33.3858 35.9795 33.4 35.9499C33.4 35.9499 33.4 35.9499 33.4 35.8899C33.4175 35.8528 33.4412 35.819 33.47 35.7899C33.4909 35.758 33.5143 35.7279 33.54 35.6999L33.6 35.6099L33.66 35.5199C33.6762 35.4678 33.6762 35.412 33.66 35.3599C33.6569 35.3309 33.6618 35.3015 33.6741 35.2751C33.6865 35.2487 33.7058 35.2261 33.73 35.2099C33.78 35.1818 33.8241 35.1445 33.86 35.0999C33.8894 35.0494 33.9129 34.9957 33.93 34.9399C33.9253 34.9235 33.9253 34.9062 33.93 34.8899C33.93 34.8899 34 34.8899 34.02 34.7599C34.0229 34.7362 34.0318 34.7137 34.0458 34.6945C34.0598 34.6753 34.0785 34.6599 34.1 34.6499C34.1444 34.6303 34.185 34.6033 34.22 34.5699L34.3 34.5099L34.6 34.3999L34.7 34.2899C34.7349 34.2651 34.7653 34.2347 34.79 34.1999C34.8161 34.1455 34.8579 34.1002 34.91 34.0699C34.9347 34.0549 34.9556 34.0345 34.9712 34.0102C34.9868 33.986 34.9966 33.9585 35 33.9299C35 33.9299 35 33.9299 35 33.8799C35.0466 33.8701 35.0887 33.8455 35.12 33.8099C35.1374 33.7969 35.1584 33.7899 35.18 33.7899C35.2017 33.7899 35.2227 33.7969 35.24 33.8099L35.31 33.7199C35.3387 33.6945 35.3625 33.6639 35.38 33.6299C35.4168 33.5821 35.4649 33.5442 35.52 33.5199H35.66C35.6902 33.5095 35.7175 33.4924 35.74 33.4699L35.99 33.3299C36.0727 33.2915 36.1601 33.2646 36.25 33.2499H36.33H36.41H36.59H36.78C36.8326 33.2626 36.8875 33.2626 36.94 33.2499C36.9594 33.2374 36.982 33.2307 37.005 33.2307C37.0281 33.2307 37.0507 33.2374 37.07 33.2499L37.18 33.3299C37.2439 33.3562 37.3113 33.373 37.38 33.3799H37.49C37.5085 33.3863 37.5254 33.3969 37.5392 33.4107C37.5531 33.4246 37.5636 33.4414 37.57 33.4599H37.64L37.71 33.5099H37.78L37.84 33.5599V33.6099L37.92 33.6799L38 33.7599V33.7099L38.05 33.6599L38.19 33.4599L38.29 33.3199L38.41 33.1699H38.47C38.534 33.1395 38.6011 33.1161 38.67 33.0999C38.7033 33.0858 38.739 33.0786 38.775 33.0786C38.8111 33.0786 38.8468 33.0858 38.88 33.0999L39.03 33.1699C39.0911 33.2032 39.1482 33.2435 39.2 33.2899C39.1909 33.3327 39.1909 33.377 39.2 33.4199C39.2346 33.4659 39.2523 33.5224 39.25 33.5799V33.7399C39.2427 33.7957 39.2258 33.8498 39.2 33.8999L39.13 34.0499C39.1244 34.0897 39.1244 34.1301 39.13 34.1699C39.1403 34.2058 39.1403 34.2439 39.13 34.2799C39.0982 34.4023 39.0323 34.5133 38.94 34.5999C38.9088 34.6175 38.8836 34.644 38.8675 34.6761C38.8515 34.7082 38.8454 34.7443 38.85 34.7799C38.8544 34.7996 38.8544 34.8201 38.85 34.8399L38.72 34.9899L38.62 35.1299C38.5975 35.1599 38.5805 35.1938 38.57 35.2299L38.51 35.3299L38.45 35.4099L38.39 35.4699L38.33 35.6299C38.3025 35.6847 38.2791 35.7415 38.26 35.7999L38.15 35.9499C38.1132 36.0009 38.0797 36.0543 38.05 36.1099C38.0474 36.1398 38.0474 36.1699 38.05 36.1999C38.05 36.1999 38.05 36.2499 38 36.2799C37.9957 36.2875 37.9933 36.2961 37.9933 36.3049C37.9933 36.3136 37.9957 36.3223 38 36.3299C38.0069 36.3493 38.0069 36.3705 38 36.3899L37.86 36.5799C37.8762 36.6217 37.8762 36.668 37.86 36.7099C37.8357 36.7404 37.8155 36.774 37.8 36.8099C37.7976 36.8264 37.7976 36.8433 37.8 36.8599V36.9199C37.7782 36.9304 37.7605 36.948 37.7496 36.9697C37.7388 36.9914 37.7354 37.016 37.74 37.0399C37.7485 37.0862 37.7485 37.1336 37.74 37.1799C37.73 37.2056 37.73 37.2341 37.74 37.2599C37.7456 37.2829 37.7456 37.3069 37.74 37.3299V37.4799C37.7297 37.526 37.7297 37.5738 37.74 37.6199C37.7306 37.6694 37.7306 37.7203 37.74 37.7699C37.743 37.8165 37.743 37.8632 37.74 37.9099C37.74 37.9099 37.74 37.9099 37.79 37.9099H37.89C37.9088 37.9188 37.9293 37.9234 37.95 37.9234C37.9708 37.9234 37.9913 37.9188 38.01 37.9099L38.14 37.8499L38.28 37.7899L38.39 37.7399L38.48 37.6799C38.5469 37.6348 38.6075 37.581 38.66 37.5199C38.7169 37.4582 38.7895 37.4132 38.87 37.3899L38.93 37.3399V37.2699L39.23 36.9899L39.52 36.6999L39.65 36.5499C39.6866 36.4913 39.7302 36.4376 39.78 36.3899C39.8044 36.3489 39.8348 36.3119 39.87 36.2799L39.98 36.1699L40.07 36.0699L40.19 35.9199C40.2348 35.8738 40.275 35.8236 40.31 35.7699C40.38 35.6999 40.45 35.6099 40.51 35.5399L40.71 35.2999C40.7351 35.2508 40.769 35.2067 40.81 35.1699C40.8564 35.14 40.8943 35.0987 40.92 35.0499L41.01 34.9199L41.13 34.7399C41.1712 34.6789 41.218 34.6219 41.27 34.5699L41.41 34.3899L41.53 34.2199L41.94 33.7199C41.9602 33.6956 41.9771 33.6687 41.99 33.6399L42.05 33.5699C42.0604 33.5514 42.0744 33.5351 42.0911 33.522C42.1078 33.509 42.127 33.4994 42.1475 33.4938C42.168 33.4882 42.1893 33.4868 42.2104 33.4895C42.2314 33.4923 42.2517 33.4992 42.27 33.5099C42.35 33.5099 42.37 33.6099 42.34 33.6999C42.3344 33.7701 42.3063 33.8367 42.26 33.8899L42.05 34.1499C41.9862 34.2413 41.916 34.3282 41.84 34.4099L41.43 34.9599L41.25 35.2199L41.06 35.4799C40.9771 35.5749 40.9003 35.6751 40.83 35.7799L40.6 36.0999C40.5212 36.1912 40.4541 36.292 40.4 36.3999C40.34 36.4799 40.28 36.5699 40.22 36.6399L40.08 36.7999L39.96 36.9399C39.9161 36.9901 39.876 37.0436 39.84 37.0999C39.8066 37.1578 39.7663 37.2116 39.72 37.2599L39.6 37.3899C39.5493 37.429 39.5053 37.4763 39.47 37.5299L39.4 37.5999L39.32 37.6799L38.98 38.0499C38.9386 38.1045 38.8917 38.1548 38.84 38.1999C38.84 38.1999 38.76 38.2799 38.7 38.3199C38.5597 38.4101 38.426 38.5104 38.3 38.6199C38.126 38.7405 37.9216 38.8098 37.71 38.8199H37.5C37.4354 38.8185 37.3726 38.7976 37.32 38.7599C37.3079 38.7528 37.2941 38.7491 37.28 38.7491C37.266 38.7491 37.2522 38.7528 37.24 38.7599C37.2143 38.7699 37.1858 38.7699 37.16 38.7599C37.1282 38.739 37.0981 38.7156 37.07 38.6899L36.97 38.6199H36.9C36.8769 38.6244 36.8532 38.6244 36.83 38.6199C36.7724 38.5732 36.7248 38.5154 36.69 38.4499C36.69 38.4499 36.69 38.3399 36.61 38.2899C36.5977 38.265 36.5913 38.2376 36.5913 38.2099C36.5913 38.1821 36.5977 38.1547 36.61 38.1299C36.55 38.1299 36.52 38.0299 36.54 37.9799C36.5319 37.9268 36.5319 37.8729 36.54 37.8199C36.54 37.8199 36.54 37.8199 36.54 37.7399C36.5344 37.7135 36.5344 37.6862 36.54 37.6599C36.5362 37.5999 36.5362 37.5398 36.54 37.4799C36.5612 37.4315 36.5779 37.3813 36.59 37.3299C36.59 37.2799 36.59 37.2299 36.59 37.1699C36.595 37.13 36.595 37.0897 36.59 37.0499C36.58 37.0173 36.58 36.9824 36.59 36.9499C36.59 36.8899 36.59 36.8499 36.59 36.8099C36.5814 36.7703 36.5814 36.7294 36.59 36.6899V36.6199V36.5499C36.594 36.5167 36.594 36.4831 36.59 36.4499C36.5982 36.4134 36.6195 36.3814 36.65 36.3599C36.6556 36.3472 36.6584 36.3336 36.6584 36.3199C36.6584 36.3061 36.6556 36.2925 36.65 36.2799C36.6437 36.2657 36.6404 36.2504 36.6404 36.2349C36.6404 36.2194 36.6437 36.204 36.65 36.1899V36.0799L36.7 35.9599C36.7 35.9599 36.7 35.8499 36.77 35.7899C36.7906 35.7305 36.8175 35.6736 36.85 35.6199C36.8631 35.5828 36.8835 35.5488 36.91 35.5199C36.9323 35.4915 36.9524 35.4614 36.97 35.4299L37.4 35.1999V35.1699ZM37.74 34.2699H37.48C37.3934 34.2748 37.3066 34.2748 37.22 34.2699C37.1705 34.2599 37.1195 34.2599 37.07 34.2699H36.92C36.8907 34.2687 36.8615 34.2734 36.834 34.2837C36.8065 34.294 36.7814 34.3097 36.76 34.3299C36.7376 34.3725 36.7024 34.407 36.6594 34.4285C36.6163 34.45 36.5676 34.4575 36.52 34.4499C36.52 34.4499 36.52 34.4499 36.46 34.4499L36.23 34.6499L36.06 34.8199L35.96 34.9399L35.84 35.0399C35.8123 35.0842 35.7786 35.1246 35.74 35.1599L35.63 35.2599C35.6022 35.2838 35.5814 35.3149 35.57 35.3499C35.5762 35.3694 35.5762 35.3903 35.57 35.4099C35.5112 35.4329 35.4618 35.4752 35.43 35.5299C35.4003 35.5854 35.3669 35.6388 35.33 35.6899H35.28L35.2 35.7799L35.11 35.9499L34.99 36.1299L34.9 36.2699C34.8589 36.3104 34.825 36.3578 34.8 36.4099C34.7936 36.4328 34.7936 36.457 34.8 36.4799C34.8092 36.5057 34.8092 36.534 34.8 36.5599L34.75 36.6299V36.7199C34.7414 36.7492 34.7414 36.7805 34.75 36.8099C34.7572 36.8256 34.761 36.8426 34.761 36.8599C34.761 36.8771 34.7572 36.8942 34.75 36.9099L34.64 37.0599C34.623 37.1221 34.623 37.1877 34.64 37.2499C34.6179 37.2561 34.5983 37.2691 34.584 37.287C34.5696 37.305 34.5613 37.3269 34.56 37.3499C34.5745 37.392 34.5745 37.4377 34.56 37.4799C34.5541 37.5096 34.5541 37.5402 34.56 37.5699H34.63L34.75 37.4999L34.9 37.4299C35.0004 37.3724 35.0973 37.3089 35.19 37.2399L35.38 37.0699L35.56 36.8999L35.69 36.7999L35.81 36.6999C35.8492 36.6657 35.8859 36.629 35.92 36.5899L36.01 36.4899L36.22 36.2999C36.2884 36.2382 36.3519 36.1713 36.41 36.0999C36.563 35.9347 36.7066 35.7611 36.84 35.5799C36.9219 35.498 36.9987 35.4111 37.07 35.3199L37.3 35.0599C37.3553 34.9738 37.4189 34.8934 37.49 34.8199C37.5611 34.7463 37.6248 34.6659 37.68 34.5799L37.83 34.3999L37.74 34.2699Z" fill="#FFFEFE"/>
<path d="M42.5401 36.1601L42.8901 35.7701L43.0401 35.6201L43.1801 35.4701L43.3201 35.3201L43.4601 35.1801L43.7901 34.8001L44.1201 34.4201L44.2601 34.2701C44.315 34.2252 44.3652 34.1749 44.4101 34.1201L44.9301 33.6201C45.1001 33.4601 45.2701 33.2901 45.4301 33.1101C45.5318 32.9995 45.6499 32.9051 45.7801 32.8301L46.1501 32.6201C46.2097 32.6105 46.2705 32.6105 46.3301 32.6201C46.3863 32.6097 46.4439 32.6097 46.5001 32.6201C46.5578 32.6434 46.6223 32.6434 46.6801 32.6201C46.7222 32.6131 46.7655 32.6213 46.8021 32.6433C46.8388 32.6653 46.8664 32.6996 46.8801 32.7401L46.9401 32.9201C46.96 32.9757 46.9767 33.0325 46.9901 33.0901C47.0174 33.1576 47.0262 33.2311 47.0157 33.3032C47.0051 33.3753 46.9756 33.4432 46.9301 33.5001C46.9137 33.6468 46.8622 33.7874 46.7801 33.9101C46.692 34.0242 46.6243 34.1528 46.5801 34.2901C46.5801 34.3801 46.5201 34.4701 46.4801 34.5601C46.4428 34.6432 46.3993 34.7234 46.3501 34.8001C46.2768 34.8866 46.2254 34.9895 46.2001 35.1001C46.1852 35.153 46.1598 35.2024 46.1255 35.2454C46.0911 35.2883 46.0485 35.3239 46.0001 35.3501C46.0001 35.3501 46.0001 35.4201 46.0001 35.4301C45.9099 35.5162 45.8413 35.6224 45.8001 35.7401C45.7612 35.8594 45.6963 35.9687 45.6101 36.0601C45.5131 36.1543 45.441 36.2711 45.4001 36.4001C45.3685 36.4936 45.3284 36.584 45.2801 36.6701C45.2801 36.6701 45.2801 36.7701 45.2101 36.8101C45.1789 36.8524 45.1552 36.8997 45.1401 36.9501C45.0895 37.0696 45.0327 37.1864 44.9701 37.3001C44.9081 37.4251 44.8579 37.5557 44.8201 37.6901C44.8258 37.77 44.8258 37.8502 44.8201 37.9301C44.8052 38.0094 44.8052 38.0907 44.8201 38.1701C44.8201 38.3601 44.9301 38.4301 45.1201 38.3901C45.2494 38.3643 45.3699 38.3058 45.4701 38.2201L45.7801 37.9501L45.8501 37.8801L45.9301 37.8201L45.9801 37.7701C46.4383 37.2364 46.8499 36.6643 47.2101 36.0601C47.5601 35.4701 47.9101 34.8901 48.2701 34.3301C48.3701 34.2201 48.4501 34.1101 48.5401 33.9901L48.8101 33.6601C48.856 33.5936 48.9136 33.536 48.9801 33.4901C49.0601 33.4401 49.1301 33.4901 49.1701 33.4901C49.1912 33.5153 49.2028 33.5471 49.2028 33.5801C49.2028 33.613 49.1912 33.6448 49.1701 33.6701L49.0501 33.8901L48.9301 34.1201C48.8501 34.2601 48.7801 34.4001 48.7101 34.5501C48.6401 34.7001 48.5701 34.8301 48.4901 34.9601C48.4101 35.0901 48.1901 35.4601 48.0001 35.7601C47.8101 36.0601 47.6301 36.3701 47.4301 36.6701C47.2301 36.9701 47.0201 37.2601 46.8101 37.5401C46.6275 37.7849 46.4305 38.0187 46.2201 38.2401C46.0536 38.4184 45.8693 38.5793 45.6701 38.7201C45.4716 38.8564 45.2607 38.9736 45.0401 39.0701C44.8657 39.1335 44.6745 39.1335 44.5001 39.0701C44.393 39.0352 44.3012 38.9646 44.2401 38.8701C44.1788 38.7815 44.1252 38.6878 44.0801 38.5901C44.0228 38.4644 43.9921 38.3282 43.9901 38.1901C43.9901 38.0601 43.9901 37.9201 43.9901 37.7901C44.0166 37.6064 44.0601 37.4256 44.1201 37.2501C44.1801 37.0701 44.2401 36.9001 44.3201 36.7201C44.4001 36.5401 44.4201 36.5401 44.4601 36.4501C44.508 36.3697 44.5418 36.2818 44.5601 36.1901C44.5902 36.0738 44.6374 35.9626 44.7001 35.8601L44.8701 35.5401C44.9125 35.417 44.9696 35.2995 45.0401 35.1901C45.1126 35.0768 45.1793 34.96 45.2401 34.8401V34.7601C45.2773 34.6644 45.3315 34.5764 45.4001 34.5001L45.5201 34.2801L45.5801 34.1501C45.6021 34.1111 45.6221 34.071 45.6401 34.0301C45.6526 33.9927 45.673 33.9586 45.7001 33.9301C45.7001 33.9301 45.7001 33.8601 45.7701 33.8001H45.7001C45.691 33.7948 45.6806 33.792 45.6701 33.792C45.6595 33.792 45.6492 33.7948 45.6401 33.8001C45.5766 33.8417 45.5193 33.8922 45.4701 33.9501C45.4101 34.0056 45.3428 34.0527 45.2701 34.0901C45.1993 34.1344 45.1324 34.1845 45.0701 34.2401L44.8801 34.4101L44.6701 34.5901L44.4601 34.7901L44.2101 35.0601L43.9601 35.3201C43.9601 35.3801 43.8501 35.4401 43.8001 35.5101L43.6301 35.7001L43.3401 36.0401L43.0501 36.3801L42.8601 36.6301L42.6601 36.8701C42.6246 36.9206 42.5807 36.9646 42.5301 37.0001C42.4817 37.0417 42.4381 37.0887 42.4001 37.1401C42.2905 37.2918 42.1702 37.4355 42.0401 37.5701L41.6801 37.9901L41.5301 38.1901C41.4715 38.2519 41.408 38.3087 41.3401 38.3601L41.2001 38.4901L41.0601 38.5901C41.0138 38.599 40.9663 38.599 40.9201 38.5901H40.6801C40.6563 38.5875 40.6333 38.5799 40.6126 38.5679C40.5919 38.5558 40.574 38.5395 40.5601 38.5201L40.4001 38.4001C40.369 38.3469 40.3455 38.2897 40.3301 38.2301C40.3256 38.1601 40.3256 38.09 40.3301 38.0201C40.3253 37.9468 40.3253 37.8733 40.3301 37.8001C40.3202 37.7036 40.3202 37.6065 40.3301 37.5101C40.3357 37.4168 40.3357 37.3233 40.3301 37.2301C40.3106 37.1985 40.3003 37.1621 40.3003 37.1251C40.3003 37.088 40.3106 37.0516 40.3301 37.0201L40.4201 36.8401C40.4431 36.7811 40.4631 36.721 40.4801 36.6601L40.5401 36.4801C40.5458 36.4269 40.5458 36.3732 40.5401 36.3201C40.55 36.2981 40.5552 36.2742 40.5552 36.2501C40.5552 36.2259 40.55 36.2021 40.5401 36.1801C40.5401 36.1801 40.5401 36.1801 40.5401 36.1201V36.0601C40.6479 35.9394 40.7052 35.7818 40.7001 35.6201C40.6906 35.5739 40.6906 35.5262 40.7001 35.4801C40.7001 35.4301 40.7001 35.3801 40.7001 35.3201L40.8101 35.1101C40.8527 35.0398 40.8895 34.9663 40.9201 34.8901C40.9384 34.8421 40.9655 34.798 41.0001 34.7601C41.0332 34.7228 41.0572 34.6783 41.0701 34.6301C41.189 34.6141 41.3022 34.5695 41.4001 34.5001C41.4235 34.4515 41.4436 34.4014 41.4601 34.3501C41.4601 34.2801 41.5201 34.2001 41.5501 34.1201C41.5839 34.0453 41.6314 33.9774 41.6901 33.9201C41.6871 33.8423 41.708 33.7655 41.7501 33.7001C41.7949 33.6397 41.8162 33.565 41.8101 33.4901C41.8068 33.4668 41.8068 33.4433 41.8101 33.4201L41.8601 33.3401L42.0501 33.1701L42.2301 33.0101C42.3306 32.912 42.4413 32.8249 42.5601 32.7501C42.599 32.7371 42.6411 32.7371 42.6801 32.7501H42.8001H42.9301C42.9615 32.7326 42.9961 32.7216 43.0318 32.7176C43.0676 32.7137 43.1037 32.717 43.1382 32.7272C43.1727 32.7375 43.2047 32.7545 43.2325 32.7773C43.2603 32.8001 43.2833 32.8283 43.3001 32.8601L43.4101 32.9701L43.5201 33.0901C43.5248 33.1098 43.5248 33.1303 43.5201 33.1501V33.2001C43.5393 33.3025 43.5393 33.4076 43.5201 33.5101C43.5201 33.6001 43.5201 33.7001 43.4701 33.8001C43.4621 33.8631 43.4621 33.927 43.4701 33.9901C43.4541 34.072 43.4307 34.1524 43.4001 34.2301C43.3654 34.3041 43.3141 34.3691 43.2501 34.4201C43.2501 34.4201 43.2501 34.4201 43.2001 34.5001L43.1401 34.6901C43.1285 34.7229 43.1086 34.7522 43.0823 34.775C43.056 34.7978 43.0242 34.8133 42.9901 34.8201C43.0024 34.8449 43.0088 34.8723 43.0088 34.9001C43.0088 34.9278 43.0024 34.9552 42.9901 34.9801C42.9555 35.0218 42.9285 35.0691 42.9101 35.1201L42.8201 35.3101C42.8202 35.327 42.8143 35.3435 42.8032 35.3563C42.7922 35.3692 42.7769 35.3776 42.7601 35.3801C42.6977 35.4305 42.6552 35.5013 42.6401 35.5801C42.6542 35.6291 42.6542 35.6811 42.6401 35.7301C42.6129 35.7712 42.5895 35.8147 42.5701 35.8601C42.5178 35.9226 42.471 35.9895 42.4301 36.0601C42.3856 36.1244 42.3354 36.1847 42.2801 36.2401C42.2422 36.2958 42.212 36.3563 42.1901 36.4201C42.1773 36.4868 42.1537 36.551 42.1201 36.6101C42.2401 36.4701 42.3701 36.3401 42.4901 36.2101" fill="#FFFEFE"/>
<path d="M53.4 33.0398C53.4 33.0398 53.4 33.0398 53.4 33.1298C53.4155 33.1683 53.4155 33.2113 53.4 33.2498C53.3456 33.3395 53.2819 33.4233 53.21 33.4998C53.1318 33.5759 53.0615 33.6597 53 33.7498L52.83 33.9998L52.65 34.2498L52.55 34.3898C52.5181 34.4431 52.4812 34.4933 52.44 34.5398C52.4217 34.5877 52.3945 34.6318 52.36 34.6698C52.3212 34.7063 52.2905 34.7506 52.27 34.7998C52.2149 34.8799 52.1648 34.9634 52.12 35.0498C52.0724 35.1271 52.0189 35.2007 51.96 35.2698L51.86 35.4198C51.8232 35.4755 51.7831 35.5289 51.74 35.5798C51.7235 35.6257 51.696 35.6669 51.66 35.6998L51.51 35.8498L51.34 35.9898L51.22 36.0798C51.15 36.1898 51.1 36.2598 51.06 36.2698C51.02 36.2798 50.97 36.3398 50.9 36.4398L50.77 36.5798C50.7311 36.6222 50.6975 36.6692 50.67 36.7198C50.6454 36.7465 50.6252 36.7769 50.61 36.8098L50.55 36.8898C50.4861 36.9425 50.429 37.003 50.38 37.0698C50.3319 37.1312 50.2783 37.1881 50.22 37.2398C50.2016 37.265 50.1777 37.2855 50.15 37.2998L50.08 37.3598C50.06 37.3954 50.0366 37.4289 50.01 37.4598C49.9777 37.4957 49.9507 37.5361 49.93 37.5798L49.78 37.6998H49.73C49.7016 37.7554 49.6645 37.806 49.62 37.8498C49.5559 37.8866 49.4984 37.9339 49.45 37.9898C49.4108 38.0406 49.3635 38.0845 49.31 38.1198C49.2552 38.1573 49.2049 38.2009 49.16 38.2498L49.01 38.3498L48.88 38.4598C48.8289 38.4674 48.7807 38.4881 48.74 38.5198L48.55 38.6398L48.37 38.7498C48.3227 38.776 48.2723 38.7962 48.22 38.8098C48.184 38.7995 48.1459 38.7995 48.11 38.8098H48.02H47.82C47.7815 38.8254 47.7385 38.8254 47.7 38.8098L47.63 38.7398L47.4 38.8098C47.3554 38.7825 47.3086 38.7591 47.26 38.7398L47.2 38.6598L47.14 38.5498C47.1283 38.5106 47.1283 38.4689 47.14 38.4298C47.1488 38.4146 47.1534 38.3973 47.1534 38.3798C47.1534 38.3622 47.1488 38.345 47.14 38.3298C47.14 38.3298 47.14 38.3298 47.14 38.2398C47.1598 38.1849 47.1598 38.1247 47.14 38.0698C47.14 38.0698 47.14 38.0198 47.14 37.9798C47.1445 37.9399 47.1445 37.8997 47.14 37.8598C47.1449 37.8199 47.1449 37.7796 47.14 37.7398C47.1334 37.7001 47.1334 37.6595 47.14 37.6198V37.5098C47.1609 37.4928 47.178 37.4715 47.1901 37.4473C47.2021 37.4232 47.2089 37.3968 47.21 37.3698C47.21 37.3698 47.21 37.2698 47.21 37.2198C47.2229 37.1808 47.2229 37.1387 47.21 37.0998C47.2144 37.0666 47.2144 37.033 47.21 36.9998C47.1962 36.9809 47.1887 36.9582 47.1887 36.9348C47.1887 36.9114 47.1962 36.8886 47.21 36.8698C47.2449 36.8463 47.2698 36.8106 47.28 36.7698C47.3109 36.7083 47.3376 36.6448 47.36 36.5798C47.36 36.5098 47.36 36.4498 47.42 36.3998C47.4372 36.3582 47.4372 36.3114 47.42 36.2698C47.42 36.2698 47.42 36.2098 47.49 36.1798C47.4998 36.1688 47.5053 36.1545 47.5053 36.1398C47.5053 36.125 47.4998 36.1108 47.49 36.0998C47.4749 36.0758 47.4669 36.0481 47.4669 36.0198C47.4669 35.9915 47.4749 35.9637 47.49 35.9398C47.5117 35.8998 47.5386 35.8628 47.57 35.8298C47.6079 35.7985 47.6357 35.7568 47.65 35.7098C47.66 35.6772 47.66 35.6424 47.65 35.6098C47.6445 35.5733 47.6445 35.5362 47.65 35.4998C47.6445 35.4768 47.6445 35.4528 47.65 35.4298C47.6456 35.41 47.6456 35.3896 47.65 35.3698C47.6572 35.3541 47.6609 35.337 47.6609 35.3198C47.6609 35.3025 47.6572 35.2855 47.65 35.2698C47.6401 35.255 47.6348 35.2376 47.6348 35.2198C47.6348 35.202 47.6401 35.1846 47.65 35.1698C47.6821 35.1451 47.7092 35.1146 47.73 35.0798C47.768 35.0206 47.7983 34.9567 47.82 34.8898L47.88 34.7898C47.8864 34.7568 47.8864 34.7228 47.88 34.6898L48.01 34.5398L48.11 34.3898C48.1272 34.3435 48.1508 34.2997 48.18 34.2598C48.1962 34.218 48.1962 34.1716 48.18 34.1298V34.0798L48.23 34.0098C48.2319 33.9832 48.2319 33.9564 48.23 33.9298C48.2598 33.9242 48.2872 33.9098 48.3086 33.8884C48.33 33.867 48.3444 33.8396 48.35 33.8098C48.3453 33.7499 48.3453 33.6897 48.35 33.6298C48.35 33.6298 48.35 33.5298 48.35 33.5098C48.378 33.4715 48.4117 33.4378 48.45 33.4098L48.62 33.2598C48.683 33.2175 48.7402 33.1671 48.79 33.1098L48.84 33.0398C48.84 33.0398 48.84 33.0398 48.84 32.9898L49.06 32.8798L49.29 32.7798H49.38C49.3731 32.8094 49.3731 32.8402 49.38 32.8698C49.47 32.8698 49.52 32.8698 49.55 32.8698C49.58 32.8698 49.6 32.8698 49.63 32.9698C49.66 33.0698 49.82 32.9698 49.89 33.0798C49.9121 33.148 49.9121 33.2215 49.89 33.2898C49.8867 33.3197 49.8867 33.3499 49.89 33.3798C49.89 33.3798 49.89 33.4298 49.89 33.4698C49.8853 33.5297 49.8853 33.5899 49.89 33.6498C49.8957 33.7063 49.8957 33.7633 49.89 33.8198C49.9094 33.8679 49.9094 33.9217 49.89 33.9698C49.8927 34.0164 49.8927 34.0632 49.89 34.1098C49.8814 34.1392 49.8814 34.1704 49.89 34.1998C49.89 34.1998 49.89 34.1998 49.8 34.1998C49.8018 34.2264 49.8018 34.2531 49.8 34.2798C49.8014 34.3098 49.8014 34.3398 49.8 34.3698C49.7943 34.423 49.7943 34.4766 49.8 34.5298C49.792 34.5596 49.7769 34.587 49.756 34.6096C49.7351 34.6323 49.709 34.6495 49.68 34.6598C49.68 34.6598 49.63 34.6598 49.63 34.7498C49.6319 34.7764 49.6319 34.8032 49.63 34.8298C49.6106 34.8751 49.5871 34.9186 49.56 34.9598L49.5 35.1098C49.5087 35.1268 49.5133 35.1457 49.5133 35.1648C49.5133 35.1839 49.5087 35.2028 49.5 35.2198L49.39 35.2898C49.39 35.2898 49.39 35.3498 49.39 35.4198C49.3799 35.4455 49.3799 35.4741 49.39 35.4998C49.4 35.5255 49.4 35.5541 49.39 35.5798C49.3712 35.6192 49.3394 35.651 49.3 35.6698C49.2806 35.7336 49.2463 35.7919 49.2 35.8398L49.06 35.9898C49.074 36.0046 49.0819 36.0243 49.0819 36.0448C49.0819 36.0652 49.074 36.0849 49.06 36.0998L48.98 36.1898C48.9871 36.2328 48.9871 36.2767 48.98 36.3198C48.9729 36.3628 48.9729 36.4067 48.98 36.4498C48.9745 36.4795 48.9745 36.51 48.98 36.5398C48.9917 36.5686 48.9917 36.6009 48.98 36.6298L48.92 36.7398C48.9048 36.7727 48.8845 36.8031 48.86 36.8298C48.86 36.8298 48.81 36.9198 48.79 36.9598L48.72 37.1098L48.66 37.1798C48.6326 37.1863 48.608 37.2015 48.5899 37.2231C48.5719 37.2447 48.5614 37.2717 48.56 37.2998C48.5656 37.3463 48.5656 37.3933 48.56 37.4398V37.4898C48.5288 37.5357 48.5052 37.5864 48.49 37.6398V37.8298L48.74 37.6998C48.87 37.6298 48.94 37.5798 48.96 37.5298L49.31 37.3398L49.37 37.2798C49.37 37.2798 49.37 37.2798 49.37 37.2198C49.4126 37.2076 49.4508 37.1832 49.48 37.1498L49.6 37.0698C49.6292 37.0203 49.6705 36.979 49.72 36.9498L49.82 36.8498L50.03 36.6298L50.21 36.4398L50.36 36.2798L50.51 36.1198C50.5429 36.0724 50.5878 36.0344 50.64 36.0098C50.6922 35.9851 50.737 35.9472 50.77 35.8998C50.8196 35.8456 50.8663 35.7889 50.91 35.7298L51.05 35.5698C51.05 35.5698 51.05 35.5698 51.12 35.4998C51.1832 35.4294 51.2536 35.3657 51.33 35.3098L51.49 35.1398C51.5516 35.0883 51.6084 35.0314 51.66 34.9698C51.7123 34.8876 51.7763 34.8135 51.85 34.7498C51.9239 34.6798 51.9909 34.6028 52.05 34.5198L52.19 34.3398C52.2391 34.2701 52.2826 34.1965 52.32 34.1198L52.45 33.9498L52.54 33.8298C52.5654 33.7835 52.5956 33.7399 52.63 33.6998C52.669 33.6368 52.7125 33.5767 52.76 33.5198C52.7742 33.4801 52.7875 33.4401 52.8 33.3998C52.87 33.3012 52.9542 33.2136 53.05 33.1398C53.0745 33.1131 53.0948 33.0827 53.11 33.0498C53.11 33.0498 53.11 32.9998 53.21 33.0498H53.27C53.2802 33.0425 53.2924 33.0385 53.305 33.0385C53.3175 33.0385 53.3298 33.0425 53.34 33.0498C53.34 33.0498 53.34 33.0498 53.39 33.0998" fill="#FFFEFE"/>
<path d="M54.01 28.0399C53.2809 28.3556 52.6376 28.8405 52.1333 29.4544C51.6289 30.0682 51.2782 30.7935 51.11 31.5699C51.8466 30.7594 52.6872 30.0499 53.61 29.4599C54.1709 29.0775 54.763 28.743 55.38 28.4599C54.5724 29.4326 53.6175 30.2727 52.55 30.9499C52.1018 31.2477 51.6341 31.515 51.15 31.7499C51.8928 31.9338 52.6721 31.906 53.4 31.6699C54.1678 31.345 54.8434 30.8354 55.3668 30.1864C55.8902 29.5374 56.2451 28.7692 56.4 27.9499C55.6153 27.7432 54.7868 27.7745 54.02 28.0399" fill="#FFFEFE"/>
<path d="M48.6 28.6901C48.7923 29.8356 49.3926 30.8727 50.29 31.6101C49.8868 30.8618 49.5521 30.0786 49.29 29.2701C49.12 28.7201 48.98 28.2001 48.88 27.7201C49.3619 28.5704 49.754 29.4686 50.05 30.4001C50.19 30.8301 50.31 31.2501 50.4 31.6501C50.5105 31.0552 50.5105 30.445 50.4 29.8501C50.1995 28.6614 49.5608 27.5911 48.61 26.8501C48.4696 27.4603 48.4492 28.0921 48.55 28.7101" fill="#FFFEFE"/>
<path d="M12.69 25.6601C12.7214 25.5713 12.7581 25.4845 12.8 25.4001C12.8458 25.3059 12.8993 25.2156 12.96 25.1301L13.18 24.8901C13.2619 24.8188 13.3526 24.7583 13.45 24.7101C13.5594 24.6706 13.6739 24.647 13.79 24.6401C13.9311 24.6443 14.0701 24.6748 14.2 24.7301C14.3236 24.7807 14.4358 24.8555 14.53 24.9501C14.6078 25.0269 14.669 25.1188 14.71 25.2201C14.7485 25.3195 14.7721 25.4239 14.78 25.5301C14.7951 25.6296 14.7951 25.7307 14.78 25.8301C14.7856 25.9167 14.7856 26.0036 14.78 26.0901C14.78 26.1601 14.73 26.2301 14.71 26.2801L14.52 26.7401L15.82 27.2601L15.56 27.9001L12.99 26.8501C12.8735 26.7967 12.7479 26.7662 12.62 26.7601C12.51 26.7601 12.43 26.8401 12.37 26.9901V27.0401L12.22 26.9801L12.69 25.6601ZM12.88 25.7401C12.88 25.7401 12.88 25.8201 12.88 25.8601V25.9701C12.8856 26.0032 12.8856 26.037 12.88 26.0701L14.36 26.6801L14.4 26.4001C14.4304 26.3162 14.4506 26.2289 14.46 26.1401C14.479 26.0545 14.479 25.9658 14.46 25.8801C14.4167 25.7888 14.3555 25.7072 14.28 25.6401C14.1712 25.5348 14.0418 25.4531 13.9 25.4001C13.7736 25.3449 13.6378 25.3143 13.5 25.3101C13.4005 25.2996 13.3001 25.3169 13.21 25.3601C13.1317 25.3924 13.0629 25.444 13.01 25.5101C12.9558 25.5802 12.912 25.6576 12.88 25.7401Z" fill="#FFFEFE"/>
<path d="M15.86 23.4901L15.75 23.6701L17.1 24.4901L16.74 25.0801L14.4 23.6401C14.2928 23.5703 14.1744 23.5196 14.05 23.4901C13.94 23.4901 13.85 23.5401 13.76 23.6801L13.62 23.6001L14.33 22.4001C14.3752 22.3204 14.4253 22.2436 14.48 22.1701C14.5386 22.0838 14.6056 22.0034 14.68 21.9301C14.7561 21.852 14.8399 21.7816 14.93 21.7201C15.0154 21.6591 15.1099 21.6118 15.21 21.5801C15.3157 21.5599 15.4243 21.5599 15.53 21.5801C15.6545 21.5982 15.7738 21.6425 15.88 21.7101C15.987 21.7693 16.0767 21.8555 16.14 21.9601C16.2002 22.0508 16.2411 22.1529 16.26 22.2601C16.2749 22.3663 16.2749 22.474 16.26 22.5801C16.2473 22.6856 16.2239 22.7895 16.19 22.8901H17.26C17.3728 22.906 17.4872 22.906 17.6 22.8901C17.6795 22.8834 17.7573 22.8631 17.83 22.8301C17.8879 22.8137 17.9421 22.7866 17.99 22.7501L18.09 22.6601L18.2 22.7301C18.2052 22.7767 18.2052 22.8236 18.2 22.8701C18.1727 22.9365 18.1392 23.0001 18.1 23.0601C18.0544 23.1355 17.997 23.203 17.93 23.2601C17.8657 23.327 17.7871 23.3783 17.7 23.4101C17.5936 23.4519 17.4829 23.4821 17.37 23.5001C17.2235 23.5111 17.0765 23.5111 16.93 23.5001L15.86 23.4901ZM14.5 22.4901L14.44 22.6001C14.436 22.6334 14.436 22.6669 14.44 22.7001C14.4435 22.73 14.4435 22.7602 14.44 22.7901L15.65 23.5301L15.81 23.2601C15.8592 23.1914 15.8932 23.113 15.91 23.0301C15.9248 22.9475 15.9248 22.8628 15.91 22.7801C15.897 22.6852 15.8591 22.5955 15.8 22.5201C15.7334 22.4208 15.6443 22.3386 15.54 22.2801C15.4405 22.2156 15.3277 22.1745 15.21 22.1601C15.1212 22.1396 15.0288 22.1396 14.94 22.1601C14.8597 22.1857 14.785 22.2265 14.72 22.2801C14.634 22.3476 14.5597 22.4287 14.5 22.5201V22.4901Z" fill="#FFFEFE"/>
<path d="M17.13 18.6401C17.1757 18.5788 17.2336 18.5277 17.3 18.4901C17.356 18.4773 17.4141 18.4773 17.47 18.4901C17.5161 18.4798 17.5639 18.4798 17.61 18.4901C17.6571 18.5142 17.7009 18.5445 17.74 18.5801L18.08 18.8701L17.98 18.9901C17.9188 18.9253 17.844 18.8746 17.7611 18.8418C17.6782 18.809 17.5891 18.7947 17.5 18.8001C17.33 18.8381 17.1782 18.9335 17.07 19.0701L16.53 19.7201L17.53 20.5701L18.42 19.5701L18.59 19.7301L17.71 20.7301L18.8 21.6601L19.38 20.9901C19.4987 20.8629 19.5755 20.7023 19.6 20.5301C19.6191 20.3342 19.5734 20.1375 19.47 19.9701L19.6 19.9001L19.82 20.2801C19.8738 20.3685 19.9079 20.4674 19.92 20.5701C19.92 20.6239 19.9095 20.6773 19.8889 20.727C19.8683 20.7768 19.8381 20.822 19.8 20.8601L18.54 22.3301L16.4 20.5101C16.3041 20.4226 16.192 20.3547 16.07 20.3101C16.0119 20.3027 15.9529 20.3119 15.8998 20.3367C15.8467 20.3615 15.8017 20.4008 15.77 20.4501L15.65 20.3501L17.13 18.6401Z" fill="#FFFEFE"/>
<path d="M22.86 16.9997C23.0034 17.1944 23.1753 17.3664 23.37 17.5097C23.4312 17.5489 23.5024 17.5698 23.575 17.5698C23.6477 17.5698 23.7188 17.5489 23.78 17.5097L23.86 17.6097C23.7536 17.7138 23.6265 17.7943 23.487 17.846C23.3474 17.8977 23.1985 17.9194 23.05 17.9097C22.7545 17.8304 22.4983 17.6454 22.33 17.3897L21.17 15.9397L21.98 18.7997L21.85 18.9097L18.98 17.5497L20.75 19.7797L20.55 19.9497L18.4 17.2697L18.9 16.8797L21.49 18.0997L20.73 15.3997L21.26 14.9697L22.86 16.9997Z" fill="#FFFEFE"/>
<path d="M22.55 14.2499L23.14 13.9199L24.51 16.3199C24.5693 16.4378 24.6548 16.5404 24.76 16.6199C24.8085 16.6535 24.8661 16.6714 24.925 16.6714C24.984 16.6714 25.0416 16.6535 25.09 16.6199L25.17 16.7599L24.63 17.0699L24.42 17.1599C24.3583 17.1798 24.2918 17.1798 24.23 17.1599C24.1642 17.1257 24.1063 17.078 24.06 17.0199C24.01 16.9499 23.95 16.8599 23.88 16.7399L22.55 14.2499Z" fill="#FFFEFE"/>
<path d="M25.87 14.8999C25.9711 15.1818 26.1517 15.4284 26.39 15.6099C26.4946 15.6714 26.6137 15.7039 26.735 15.7039C26.8563 15.7039 26.9755 15.6714 27.08 15.6099C27.219 15.5681 27.346 15.4936 27.4504 15.3927C27.5548 15.2918 27.6335 15.1674 27.68 15.0299C27.7326 14.6891 27.6803 14.3403 27.53 14.0299L26.8 12.2299L27.04 12.1299L27.77 13.9399C27.8524 14.1428 27.9127 14.354 27.95 14.5699C27.9908 14.7509 27.9908 14.9388 27.95 15.1199C27.8972 15.2887 27.8006 15.4406 27.67 15.5599C27.5051 15.7056 27.3154 15.8208 27.11 15.8999C26.24 16.2599 25.61 15.9499 25.22 14.9899L24.74 13.8199C24.6954 13.6979 24.6275 13.5859 24.54 13.4899C24.4895 13.4568 24.4304 13.4391 24.37 13.4391C24.3096 13.4391 24.2505 13.4568 24.2 13.4899L24.14 13.3399L24.68 13.1299C24.748 13.0939 24.8231 13.0734 24.9 13.0699C24.9634 13.0699 25.0257 13.0872 25.08 13.1199C25.1396 13.1673 25.1904 13.2249 25.23 13.2899C25.2825 13.3837 25.3292 13.4805 25.37 13.5799L25.87 14.8999Z" fill="#FFFEFE"/>
<path d="M32.5201 13.56C32.5488 13.7994 32.6164 14.0324 32.7201 14.25C32.7519 14.3158 32.8016 14.3713 32.8635 14.4102C32.9254 14.4491 32.997 14.4699 33.0701 14.47V14.6C32.9284 14.6444 32.7786 14.6566 32.6315 14.6359C32.4845 14.6151 32.344 14.5619 32.2201 14.48C31.9948 14.2714 31.8557 13.986 31.8301 13.68L31.5001 11.86L30.8601 14.76H30.6901L28.8201 12.24L29.3301 15.05H29.0701L28.4501 11.7L29.0801 11.58L30.7901 13.88L31.4001 11.16L32.0801 11.04L32.5201 13.56Z" fill="#FFFEFE"/>
<path d="M35.0401 12.64C35.0666 12.395 35.1307 12.1555 35.2301 11.93C35.3332 11.7297 35.4721 11.5501 35.6401 11.4C35.8129 11.2573 36.0091 11.1457 36.2201 11.07C36.4533 11.0003 36.6978 10.9765 36.9401 11C37.1832 11.0229 37.4186 11.0979 37.6301 11.22C37.8246 11.3273 37.9949 11.4737 38.1301 11.65C38.2643 11.8369 38.3626 12.0472 38.4201 12.27C38.4649 12.5113 38.4649 12.7587 38.4201 13C38.4015 13.2066 38.3509 13.409 38.2701 13.6C38.2013 13.7783 38.1033 13.9439 37.9801 14.09C37.8602 14.2329 37.7143 14.3517 37.5501 14.44C37.3868 14.5358 37.207 14.6002 37.0201 14.63C37.058 14.7611 37.1153 14.8858 37.1901 15C37.2634 15.1197 37.3544 15.2276 37.4601 15.32C37.5629 15.4036 37.6734 15.4772 37.7901 15.54C37.8959 15.5968 38.0111 15.634 38.1301 15.65V15.78C37.9308 15.7588 37.7336 15.722 37.5401 15.67C37.3426 15.6089 37.1517 15.5286 36.9701 15.43C36.7858 15.319 36.6118 15.1918 36.4501 15.05C36.2799 14.8878 36.1289 14.7066 36.0001 14.51C35.8273 14.4436 35.6705 14.3414 35.5401 14.21C35.4027 14.0913 35.2876 13.9491 35.2001 13.79C35.1178 13.6182 35.0573 13.4368 35.0201 13.25C34.9948 13.0508 34.9948 12.8492 35.0201 12.65M37.7301 12.93C37.7922 12.5247 37.7438 12.1101 37.5901 11.73C37.5272 11.5949 37.4304 11.4785 37.309 11.3922C37.1876 11.3058 37.0459 11.2525 36.8977 11.2373C36.7495 11.2222 36.5999 11.2458 36.4636 11.3059C36.3273 11.366 36.2089 11.4604 36.1201 11.58C35.8933 11.922 35.7653 12.3199 35.7501 12.73C35.6836 13.1319 35.7321 13.5445 35.8901 13.92C35.9515 14.0551 36.0472 14.1718 36.1678 14.2585C36.2883 14.3451 36.4294 14.3987 36.577 14.4139C36.7247 14.429 36.8738 14.4053 37.0094 14.3449C37.145 14.2846 37.2625 14.1898 37.3501 14.07C37.5894 13.7322 37.7281 13.3334 37.7501 12.92L37.7301 12.93Z" fill="#FFFEFE"/>
<path d="M40.0201 13.7797C39.9321 14.0664 39.9321 14.373 40.0201 14.6597C40.0542 14.7753 40.1186 14.8798 40.2064 14.9624C40.2943 15.045 40.4025 15.1027 40.5201 15.1297C40.6563 15.1843 40.8036 15.2056 40.9498 15.1917C41.0959 15.1778 41.2366 15.1291 41.3601 15.0497C41.6221 14.8105 41.8037 14.4961 41.8801 14.1497L42.4001 12.2897L42.6501 12.3597L42.1001 14.2297C42.0392 14.4431 41.9518 14.648 41.8401 14.8397C41.7493 14.9998 41.6227 15.1368 41.4701 15.2397C41.3245 15.3385 41.1555 15.3971 40.9801 15.4097C40.7603 15.4254 40.5395 15.3982 40.3301 15.3297C39.4001 15.0597 39.1101 14.3997 39.4001 13.3997L39.7601 12.1897C39.7865 12.0644 39.7865 11.935 39.7601 11.8097C39.7601 11.6997 39.6601 11.6297 39.5101 11.5797L39.5601 11.4297L40.1101 11.5997C40.1853 11.6155 40.2567 11.6461 40.3201 11.6897C40.3675 11.7308 40.4051 11.7821 40.4301 11.8397C40.4406 11.9126 40.4406 11.9867 40.4301 12.0597C40.4272 12.1735 40.4172 12.2871 40.4001 12.3997L40.0201 13.7797Z" fill="#FFFEFE"/>
<path d="M44.9001 16.4899C44.873 16.632 44.873 16.7778 44.9001 16.9199C44.9416 17.0343 45.0187 17.1325 45.1201 17.1999L45.0601 17.3199H44.9401L44.8201 17.2699C44.7403 17.2285 44.6635 17.1817 44.5901 17.1299C44.5058 17.0757 44.4342 17.0041 44.3801 16.9199C44.3143 16.8286 44.2637 16.7273 44.2301 16.6199C44.2082 16.4841 44.2082 16.3457 44.2301 16.2099V15.8899L42.9801 15.2699L42.1701 15.9299L41.9301 15.8099L44.8801 13.3999L45.0901 13.5099L44.9001 16.4899ZM43.2101 15.0699L44.2801 15.5899L44.4001 14.1099L43.2101 15.0699Z" fill="#FFFEFE"/>
<path d="M47.58 18.8498L47.44 19.0398L45.4 17.5998L47.01 15.3398C47.0903 15.2399 47.1482 15.124 47.18 14.9998C47.18 14.8898 47.18 14.7998 47.02 14.7098L47.11 14.5898L47.62 14.9498C47.6807 14.9953 47.7345 15.0492 47.78 15.1098C47.8178 15.1624 47.8387 15.2252 47.84 15.2898C47.8364 15.3635 47.8159 15.4354 47.78 15.4998C47.73 15.5971 47.6732 15.6906 47.61 15.7798L46.11 17.7998L47.58 18.8498Z" fill="#FFFEFE"/>
<path d="M50.08 16.8198L50.58 17.2798L48.72 19.2798C48.6335 19.3784 48.5627 19.4897 48.51 19.6098C48.51 19.7098 48.51 19.8098 48.64 19.9198L48.53 20.0398L48.07 19.6198C48.0086 19.5703 47.9577 19.5091 47.92 19.4398C47.8994 19.3816 47.8994 19.3181 47.92 19.2598C47.9308 19.1879 47.9582 19.1194 48 19.0598C48.0626 18.9675 48.1329 18.8805 48.21 18.7998L50.08 16.8198Z" fill="#FFFEFE"/>
<path d="M53.31 20.2099L53.13 20.3599L52.4 19.5399L49.98 21.6499L49.53 21.1399L51.96 19.0299L51.71 18.7399C51.6107 18.6203 51.4728 18.539 51.32 18.5099C51.2309 18.5039 51.1416 18.5178 51.0585 18.5507C50.9755 18.5835 50.9009 18.6345 50.84 18.6999L50.74 18.5899L51.07 18.2899L51.2 18.2099C51.2491 18.1963 51.301 18.1963 51.35 18.2099C51.4026 18.1972 51.4575 18.1972 51.51 18.2099C51.5737 18.2473 51.6311 18.2946 51.68 18.3499L53.31 20.2099Z" fill="#FFFEFE"/>
<path d="M53.4 23.3997H55.34L55.51 23.6897H53.25L51.95 24.4897L51.59 23.9097L52.77 23.1897L53.47 21.6697L53.56 21.4397C53.5882 21.3586 53.6083 21.2749 53.62 21.1897C53.6295 21.1134 53.6295 21.0361 53.62 20.9597C53.614 20.894 53.5971 20.8298 53.57 20.7697L53.66 20.7197L53.96 21.1997C54.0104 21.2788 54.0444 21.3672 54.06 21.4597C54.0747 21.5525 54.0747 21.647 54.06 21.7397C54.0341 21.9095 53.9836 22.0746 53.91 22.2297L53.4 23.3997Z" fill="#FFFEFE"/>
<path d="M16.2301 49.1101L18.2301 47.7101L18.3801 47.9201L15.5501 49.9201L15.4101 49.7201L16.2101 46.4001L14.1001 47.9001L13.9501 47.6901L16.2501 46.0501L16.3901 45.9301C16.4244 45.8845 16.4513 45.8339 16.4701 45.7801C16.4849 45.721 16.4849 45.6591 16.4701 45.6001C16.4604 45.5294 16.4366 45.4613 16.4001 45.4001L16.5301 45.3101L16.7501 45.6101C16.8464 45.7426 16.9176 45.8918 16.9601 46.0501C16.9949 46.1777 16.9949 46.3124 16.9601 46.4401L16.2301 49.1101Z" fill="#FFFEFE"/>
<path d="M18.71 52.3299C18.65 52.4617 18.6193 52.605 18.62 52.7499C18.6132 52.8699 18.6525 52.988 18.73 53.0799L18.63 53.1699L18.54 53.0999L18.44 53.0199C18.3753 52.9541 18.3151 52.884 18.26 52.8099C18.2049 52.7261 18.1612 52.6353 18.13 52.5399C18.1092 52.4309 18.1092 52.3189 18.13 52.2099C18.1419 52.0721 18.1756 51.9371 18.23 51.8099L18.35 51.5099L17.35 50.5099L16.35 50.8799L16.17 50.6999L19.69 49.3999L19.86 49.5599L18.71 52.3299ZM17.57 50.3999L18.41 51.2399L18.96 49.8599L17.57 50.3999Z" fill="#FFFEFE"/>
<path d="M23.16 52.24L23.02 52.43L22.15 51.77L20.21 54.34L19.67 53.93L21.6 51.4L21.31 51.18C21.186 51.0791 21.0299 51.0259 20.87 51.03C20.783 51.0445 20.7003 51.078 20.6277 51.1281C20.5551 51.1783 20.4944 51.2438 20.45 51.32L20.32 51.23L20.59 50.87C20.6215 50.8285 20.6585 50.7915 20.7 50.76C20.7375 50.7272 20.782 50.7032 20.83 50.69C20.8968 50.6811 20.9646 50.6872 21.0287 50.708C21.0927 50.7288 21.1513 50.7636 21.2 50.81L23.16 52.24Z" fill="#FFFEFE"/>
<path d="M23.23 54.6899C23.0759 54.9456 23.0027 55.2419 23.02 55.5399C23.0312 55.6615 23.074 55.7782 23.1441 55.8782C23.2143 55.9781 23.3094 56.058 23.42 56.1099C23.5458 56.1836 23.6861 56.229 23.8312 56.2428C23.9763 56.2566 24.1227 56.2386 24.26 56.1899C24.5631 56.0079 24.8011 55.735 24.94 55.4099L25.85 53.6899L26.08 53.8099L25.17 55.5399C25.0679 55.7335 24.9438 55.9147 24.8 56.0799C24.6935 56.2163 24.5565 56.3259 24.4 56.3999C24.237 56.4725 24.0574 56.5001 23.88 56.4799C23.6617 56.451 23.451 56.3796 23.26 56.2699C22.42 55.8299 22.26 55.1499 22.73 54.2699L23.32 53.1499C23.3915 53.039 23.4328 52.9115 23.44 52.7799C23.44 52.6799 23.38 52.5899 23.24 52.5099L23.32 52.3799L23.83 52.6499C23.8987 52.6798 23.9601 52.7241 24.01 52.7799C24.0562 52.8251 24.0846 52.8855 24.09 52.9499C24.1082 53.0221 24.1082 53.0977 24.09 53.1699C24.0537 53.2695 24.0103 53.3665 23.96 53.4599L23.23 54.6899Z" fill="#FFFEFE"/>
<path d="M27.13 56.1798L26.93 56.1098L26.43 57.6098L25.78 57.3998L26.65 54.7698C26.6963 54.6487 26.7167 54.5192 26.71 54.3898C26.71 54.2898 26.62 54.2098 26.47 54.1598H26.42L26.47 54.0098L27.84 54.4698L28.1 54.5698L28.38 54.7098C28.4707 54.7674 28.5576 54.8309 28.64 54.8998C28.715 54.9736 28.779 55.0578 28.83 55.1498C28.884 55.2453 28.918 55.3507 28.93 55.4598C28.9367 55.5851 28.9198 55.7107 28.88 55.8298C28.8427 55.9447 28.7814 56.0504 28.7 56.1398C28.6215 56.2155 28.5301 56.2764 28.43 56.3198C28.3273 56.3584 28.2195 56.382 28.11 56.3898H27.8L28.03 57.3898C28.053 57.4994 28.0865 57.6066 28.13 57.7098C28.1565 57.7878 28.1935 57.8618 28.24 57.9298C28.2749 57.9776 28.3152 58.0212 28.36 58.0598C28.3896 58.0951 28.4273 58.1225 28.47 58.1398L28.42 58.2698C28.3703 58.2773 28.3197 58.2773 28.27 58.2698H28.07C27.9845 58.242 27.9036 58.2015 27.83 58.1498C27.7514 58.0962 27.6836 58.0284 27.63 57.9498C27.5646 57.8567 27.5109 57.7559 27.47 57.6498C27.4201 57.5128 27.38 57.3724 27.35 57.2298L27.13 56.1798ZM27.78 54.6398H27.66H27.55H27.44L26.99 55.9798L27.29 56.0798C27.3731 56.0892 27.457 56.0892 27.54 56.0798C27.6257 56.0988 27.7144 56.0988 27.8 56.0798C27.8858 56.0461 27.9616 55.991 28.02 55.9198C28.1003 55.8312 28.1585 55.725 28.19 55.6098C28.2297 55.501 28.2467 55.3853 28.24 55.2698C28.2302 55.1756 28.2031 55.0841 28.16 54.9998C28.114 54.9305 28.0565 54.8696 27.99 54.8198C27.9325 54.7466 27.8612 54.6854 27.78 54.6398Z" fill="#FFFEFE"/>
<path d="M31.9601 58.2298C31.9867 58.374 32.0448 58.5105 32.1301 58.6298C32.1936 58.7325 32.2936 58.8075 32.4101 58.8398V58.9698H32.2901H32.1601L31.9001 58.9098C31.8043 58.8752 31.7135 58.8281 31.6301 58.7698C31.5392 58.693 31.4615 58.6018 31.4001 58.4998C31.3236 58.3806 31.2694 58.2484 31.2401 58.1098L31.1701 57.8098L29.7901 57.5698L29.2101 58.4498H28.9501L31.0401 55.2998H31.2701L31.9601 58.2298ZM29.9601 57.3598L31.1301 57.5598L30.7801 56.1098L29.9601 57.3598Z" fill="#FFFEFE"/>
<path d="M35.7801 58.7799V59.0099H33.2901V56.2399C33.2944 56.1073 33.2741 55.9751 33.2301 55.8499C33.2301 55.7599 33.0901 55.7099 32.9301 55.7099V55.5499H33.5601C33.6329 55.5374 33.7073 55.5374 33.7801 55.5499C33.8383 55.5784 33.8895 55.6193 33.9301 55.6699C33.9727 55.7319 33.9969 55.8047 34.0001 55.8799C34.0117 55.9862 34.0117 56.0936 34.0001 56.1999V58.7399L35.7801 58.7799Z" fill="#FFFEFE"/>
<path d="M38.75 55.1099H39.02H39.33C39.438 55.1167 39.5451 55.1335 39.65 55.1599C39.7604 55.184 39.8654 55.2281 39.96 55.2899C40.0567 55.3513 40.1386 55.4332 40.2 55.5299C40.2769 55.6479 40.328 55.7808 40.35 55.9199C40.3756 56.0486 40.3756 56.1811 40.35 56.3099C40.3278 56.4208 40.2836 56.5262 40.22 56.6199C40.1605 56.7026 40.0899 56.7766 40.01 56.8399C39.9338 56.9036 39.8498 56.9574 39.76 56.9999C39.6816 57.0443 39.5975 57.078 39.51 57.0999H39.32L38.83 57.1999L39.11 58.5699L38.45 58.7099L37.88 55.9899C37.8592 55.8645 37.8114 55.7451 37.74 55.6399C37.68 55.5499 37.57 55.5299 37.42 55.5599H37.4V55.3999L38.75 55.1099ZM38.75 55.3199H38.62H38.52H38.42L38.74 56.8899L39.05 56.8299C39.1368 56.8105 39.2208 56.7802 39.3 56.7399C39.3765 56.6998 39.4418 56.6414 39.49 56.5699C39.5485 56.483 39.5862 56.3837 39.6 56.2799C39.6276 56.0096 39.5718 55.7374 39.44 55.4999C39.3859 55.4156 39.3142 55.344 39.23 55.2899C39.1635 55.2399 39.0831 55.212 39 55.2099C38.9277 55.2352 38.8601 55.2723 38.8 55.3199H38.75Z" fill="#FFFEFE"/>
<path d="M42.2001 56.0898L42.0001 56.1598L42.5501 57.6398L41.9001 57.8798L40.9001 55.2798C40.8566 55.1543 40.7886 55.0388 40.7001 54.9398C40.6506 54.9088 40.5934 54.8923 40.5351 54.8923C40.4767 54.8923 40.4195 54.9088 40.3701 54.9398H40.3201V54.7898L41.6701 54.2898L41.9401 54.2098C42.0377 54.1793 42.1382 54.1592 42.2401 54.1498C42.3465 54.1402 42.4536 54.1402 42.5601 54.1498C42.6678 54.1551 42.7733 54.1823 42.8701 54.2298C42.9714 54.2708 43.0633 54.332 43.1401 54.4098C43.2271 54.5005 43.2921 54.61 43.3301 54.7298C43.3581 54.8482 43.3581 54.9715 43.3301 55.0898C43.3228 55.1967 43.2884 55.3 43.2301 55.3898C43.1773 55.4834 43.1097 55.5678 43.0301 55.6398L42.7901 55.8398L43.6201 56.4998C43.7038 56.5745 43.7942 56.6415 43.8901 56.6998C43.9637 56.7397 44.0407 56.7732 44.1201 56.7998H44.2901H44.4301V56.9198C44.3959 56.9613 44.3509 56.9924 44.3001 57.0098L44.1201 57.0998C44.0365 57.13 43.9488 57.1468 43.8601 57.1498C43.7678 57.1695 43.6724 57.1695 43.5801 57.1498C43.4677 57.1221 43.3599 57.0784 43.2601 57.0198C43.1341 56.9417 43.0138 56.8548 42.9001 56.7598L42.2001 56.0898ZM41.7501 54.4798C41.7078 54.4903 41.6673 54.5072 41.6301 54.5298H41.5301H41.4401L41.9301 55.8598L42.2201 55.7598C42.3021 55.7269 42.3795 55.6831 42.4501 55.6298C42.5191 55.5787 42.5769 55.5141 42.6201 55.4398C42.6666 55.3575 42.6908 55.2644 42.6901 55.1698C42.6972 55.0533 42.6766 54.9368 42.6301 54.8298C42.5985 54.7175 42.5402 54.6146 42.4601 54.5298C42.3952 54.4613 42.3169 54.4069 42.2301 54.3698C42.1474 54.3555 42.0628 54.3555 41.9801 54.3698C41.8984 54.3949 41.8208 54.4319 41.7501 54.4798Z" fill="#FFFEFE"/>
<path d="M44.31 55.12C44.1848 54.9074 44.1001 54.6734 44.06 54.43C43.9948 54.0854 44.0411 53.7291 44.1922 53.4126C44.3432 53.0961 44.5911 52.836 44.9 52.67C45.1093 52.5492 45.3404 52.471 45.58 52.44C45.8058 52.4181 46.0336 52.4419 46.25 52.51C46.4646 52.5844 46.6643 52.6961 46.84 52.84C47.0245 53.0026 47.1801 53.1953 47.3 53.41C47.4252 53.6226 47.5099 53.8565 47.55 54.1C47.5953 54.321 47.5953 54.549 47.55 54.77C47.5006 54.9907 47.4052 55.1986 47.27 55.38C47.1237 55.5716 46.94 55.7315 46.73 55.85C46.5192 55.9753 46.2838 56.0537 46.04 56.08C45.8182 56.1057 45.5935 56.0853 45.38 56.02C45.1613 55.9481 44.9579 55.8362 44.78 55.69C44.5978 55.5252 44.4426 55.3329 44.32 55.12M46.69 53.77C46.5033 53.4012 46.2199 53.0901 45.87 52.87C45.7402 52.8005 45.5949 52.765 45.4477 52.767C45.3004 52.7689 45.1561 52.8082 45.0282 52.8812C44.9003 52.9541 44.793 53.0583 44.7164 53.1841C44.6397 53.3098 44.5962 53.4529 44.59 53.6C44.6044 54.0133 44.7324 54.4147 44.96 54.76C45.1402 55.1274 45.4211 55.4361 45.77 55.65C45.8958 55.729 46.0414 55.7709 46.19 55.7709C46.3386 55.7709 46.4842 55.729 46.61 55.65C46.7421 55.5799 46.8522 55.4745 46.9281 55.3457C47.004 55.2169 47.0427 55.0695 47.04 54.92C47.0326 54.5101 46.9077 54.1109 46.68 53.77H46.69Z" fill="#FFFEFE"/>
<path d="M47.7301 50.87C47.9675 50.663 48.2336 50.4912 48.5201 50.36C48.7505 50.2464 49.0032 50.185 49.2601 50.18C49.4891 50.1749 49.7158 50.2264 49.9201 50.33C50.1376 50.4413 50.3286 50.5982 50.4801 50.79C50.6364 50.9733 50.7584 51.1834 50.8401 51.41C50.9113 51.6259 50.9284 51.856 50.8901 52.08C50.8564 52.3251 50.7712 52.5603 50.6401 52.77C50.4834 53.0228 50.2837 53.2461 50.0501 53.43L49.1801 54.16L47.4001 52.04C47.3162 51.939 47.2145 51.8543 47.1001 51.79C47.0447 51.7707 46.9849 51.7679 46.9281 51.7821C46.8712 51.7963 46.8197 51.8269 46.7801 51.87L46.6801 51.75L47.7301 50.87ZM47.9101 50.99L47.8001 51.09L47.7101 51.18C47.6892 51.2119 47.6658 51.242 47.6401 51.27L49.5401 53.54L49.6401 53.48C49.7203 53.4284 49.7971 53.3716 49.8701 53.31C50.0038 53.1993 50.1099 53.0589 50.1801 52.9C50.2562 52.7517 50.294 52.5867 50.2901 52.42C50.2941 52.2351 50.26 52.0513 50.1901 51.88C50.1024 51.6851 49.9879 51.5034 49.8501 51.34C49.719 51.1738 49.56 51.0316 49.3801 50.92C49.2255 50.8192 49.0519 50.7512 48.8701 50.72C48.7052 50.6849 48.5349 50.6849 48.3701 50.72C48.1982 50.7711 48.0384 50.8561 47.9001 50.97L47.9101 50.99Z" fill="#FFFEFE"/>
<path d="M51.8501 49.8299C52.0745 50.0329 52.3519 50.1681 52.6501 50.2199C52.7702 50.2306 52.8911 50.2105 53.0013 50.1615C53.1116 50.1125 53.2075 50.0362 53.2801 49.9399C53.3857 49.8384 53.464 49.7118 53.5077 49.572C53.5515 49.4321 53.5591 49.2835 53.5301 49.1399C53.4245 48.8032 53.2099 48.5112 52.9201 48.3099L51.4001 47.0599L51.5701 46.8599L53.0701 48.1099C53.2385 48.251 53.3926 48.4084 53.5301 48.5799C53.6362 48.7301 53.711 48.9001 53.7501 49.0799C53.7945 49.2537 53.7945 49.436 53.7501 49.6099C53.6738 49.8145 53.5621 50.004 53.4201 50.1699C53.3029 50.3372 53.1488 50.4752 52.9697 50.5734C52.7906 50.6715 52.5913 50.7271 52.3873 50.7358C52.1832 50.7445 51.9799 50.7061 51.7931 50.6236C51.6063 50.541 51.441 50.4166 51.3101 50.2599L50.3101 49.4499C50.2166 49.3591 50.1038 49.2907 49.9801 49.2499C49.8801 49.2499 49.7801 49.2499 49.6801 49.3899L49.5601 49.2899L49.9201 48.8499C49.9696 48.7885 50.0308 48.7375 50.1001 48.6999C50.1284 48.6872 50.159 48.6806 50.1901 48.6806C50.2211 48.6806 50.2518 48.6872 50.2801 48.6999C50.3514 48.7066 50.4201 48.7306 50.4801 48.7699L50.7501 48.9599L51.8501 49.8299Z" fill="#FFFEFE"/>
<path d="M54.3401 44.4001C54.0805 44.3061 53.7993 44.2887 53.5301 44.3501C53.2853 44.4306 53.0811 44.6026 52.9601 44.8301C52.8835 44.9636 52.8294 45.1089 52.8001 45.2601C52.7767 45.4118 52.794 45.5671 52.8501 45.7101C52.9249 45.8862 53.0336 46.0459 53.1701 46.1801C53.3616 46.3644 53.5769 46.5224 53.8101 46.6501C53.9779 46.7483 54.1555 46.8287 54.3401 46.8901C54.5119 46.9415 54.6908 46.9652 54.8701 46.9601C55.0384 46.9488 55.2022 46.9011 55.3501 46.8201C55.5104 46.7277 55.6419 46.5927 55.7301 46.4301C55.8426 46.2215 55.8978 45.9869 55.8901 45.7501C55.8845 45.496 55.8045 45.2492 55.6601 45.0401L55.8701 44.9501C56.032 45.2004 56.1187 45.4919 56.1201 45.7901C56.1087 46.1051 56.0156 46.4118 55.8501 46.6801C55.7277 46.9017 55.5609 47.0958 55.3601 47.2501C55.1859 47.3848 54.9846 47.4803 54.7701 47.5301C54.5524 47.5753 54.3277 47.5753 54.1101 47.5301C53.879 47.4794 53.6567 47.3952 53.4501 47.2801C53.2311 47.1497 53.0352 46.9841 52.8701 46.7901C52.7208 46.609 52.6056 46.4023 52.5301 46.1801C52.4615 45.9638 52.4377 45.7358 52.4601 45.5101C52.4813 45.2729 52.5566 45.0437 52.6801 44.8401C52.805 44.603 52.9748 44.3924 53.1801 44.2201C53.3223 44.1085 53.4855 44.0269 53.6601 43.9801C53.7876 43.9658 53.9166 43.9901 54.0301 44.0501L54.4201 44.2601L54.3401 44.4001Z" fill="#FFFEFE"/>
<path d="M54.6301 40.6997L54.8601 40.7897L54.4601 41.7897L57.4601 42.9397L57.2201 43.5797L54.2201 42.4297L54.0901 42.7697C54.0311 42.9174 54.0311 43.082 54.0901 43.2297C54.1278 43.3111 54.1834 43.383 54.2526 43.4402C54.3218 43.4973 54.403 43.5381 54.4901 43.5597L54.4401 43.6997L54.0201 43.5497L53.8801 43.4697C53.835 43.4458 53.7996 43.4069 53.7801 43.3597C53.7674 43.3071 53.7674 43.2523 53.7801 43.1997C53.7644 43.1272 53.7644 43.0522 53.7801 42.9797L54.6301 40.6997Z" fill="#FFFEFE"/>
<path d="M29.11 27.3L28.25 27.28L28.34 23.73L27.76 24.08L27.61 23.87L28.64 22.96L29.21 22.97L29.11 27.3Z" fill="#FFFEFE"/>
<path d="M31.6501 22.8997C31.925 22.897 32.1964 22.9623 32.4401 23.0897C32.6547 23.1944 32.8326 23.3618 32.9501 23.5697C33.0866 23.7942 33.1815 24.0415 33.2301 24.2997C33.2859 24.6098 33.3093 24.9248 33.3001 25.2397C33.2935 25.5531 33.2533 25.8649 33.1801 26.1697C33.127 26.4236 33.0251 26.6647 32.8801 26.8797C32.7419 27.0763 32.5561 27.2345 32.3401 27.3397C32.0874 27.4469 31.8144 27.4981 31.5401 27.4897C31.2653 27.4908 30.9943 27.4256 30.7501 27.2997C30.5368 27.1892 30.3572 27.0234 30.2301 26.8197C30.0985 26.5938 30.0072 26.3468 29.9601 26.0897C29.9096 25.779 29.8862 25.4645 29.8901 25.1497C29.8985 24.837 29.9353 24.5257 30.0001 24.2197C30.0608 23.9666 30.1657 23.7263 30.3101 23.5097C30.4482 23.3132 30.634 23.1549 30.8501 23.0497C31.1001 22.9341 31.3751 22.8825 31.6501 22.8997ZM31.6501 23.1997C31.512 23.199 31.3776 23.2436 31.2674 23.3267C31.1572 23.4098 31.0773 23.5268 31.0401 23.6597C30.8798 24.1499 30.8053 24.6642 30.8201 25.1797C30.7809 25.6912 30.8316 26.2057 30.9701 26.6997C30.9992 26.8357 31.0732 26.958 31.1802 27.0469C31.2872 27.1358 31.421 27.1861 31.5601 27.1897C31.6977 27.1888 31.8313 27.1436 31.9412 27.0607C32.0511 26.9779 32.1314 26.8618 32.1701 26.7297C32.328 26.2422 32.4057 25.7322 32.4001 25.2197C32.4404 24.7049 32.3897 24.1869 32.2501 23.6897C32.1101 23.3997 31.9201 23.1997 31.6401 23.1997H31.6501Z" fill="#FFFEFE"/>
<path d="M35.59 23.0001C35.8644 22.9922 36.1362 23.0541 36.38 23.1801C36.5862 23.2966 36.7612 23.4613 36.89 23.6601C37.027 23.8834 37.1187 24.1314 37.16 24.3901C37.2203 24.6996 37.2438 25.0151 37.23 25.3301C37.2315 25.6434 37.1946 25.9557 37.12 26.2601C37.0617 26.517 36.9566 26.7611 36.81 26.9801C36.6757 27.1738 36.493 27.3289 36.28 27.4301C36.0299 27.5457 35.755 27.5972 35.48 27.5801C35.2034 27.5793 34.9303 27.5179 34.68 27.4001C34.4712 27.2827 34.2956 27.1141 34.17 26.9101C34.0309 26.6878 33.939 26.4394 33.9 26.1801C33.8397 25.874 33.8162 25.5618 33.83 25.2501C33.8334 24.937 33.8703 24.6253 33.94 24.3201C33.9984 24.0631 34.1034 23.819 34.25 23.6001C34.3882 23.4035 34.574 23.2453 34.79 23.1401C35.0422 23.032 35.3161 22.9841 35.59 23.0001ZM35.59 23.2901C35.4511 23.2916 35.3165 23.3383 35.2064 23.4231C35.0964 23.5078 35.0169 23.6261 34.98 23.7601C34.8195 24.2468 34.7451 24.7578 34.76 25.2701C34.7196 25.7816 34.7704 26.2963 34.91 26.7901C34.9384 26.9256 35.0105 27.0479 35.1153 27.1383C35.2202 27.2287 35.3519 27.282 35.49 27.2901C35.6289 27.2885 35.7636 27.2419 35.8736 27.1571C35.9837 27.0723 36.0631 26.954 36.1 26.8201C36.2647 26.3341 36.3426 25.823 36.33 25.3101C36.3603 24.7987 36.3097 24.2857 36.18 23.7901C36.1492 23.6522 36.0737 23.5284 35.9651 23.4379C35.8566 23.3475 35.7212 23.2955 35.58 23.2901H35.59Z" fill="#FFFEFE"/>
<path d="M38.78 23.1701C39.0537 23.1604 39.3211 23.2531 39.53 23.4301C39.622 23.5143 39.6933 23.6185 39.7384 23.7347C39.7835 23.8509 39.8012 23.976 39.79 24.1001C39.7975 24.2253 39.7751 24.3504 39.7247 24.4651C39.6743 24.5799 39.5973 24.681 39.5 24.7601C39.2837 24.927 39.0121 25.0056 38.74 24.9801C38.4619 24.9902 38.1892 24.9017 37.97 24.7301C37.8785 24.6435 37.8076 24.5375 37.7626 24.4198C37.7175 24.302 37.6996 24.1757 37.71 24.0501C37.7085 23.9273 37.7337 23.8055 37.7837 23.6933C37.8338 23.5811 37.9076 23.4811 38 23.4001C38.2263 23.2378 38.5023 23.1599 38.78 23.1801M37.98 27.5201L41.25 23.2701H41.94L38.67 27.5201H37.98ZM38.76 23.4001C38.6886 23.3954 38.6171 23.4074 38.5511 23.4352C38.4851 23.4629 38.4266 23.5057 38.38 23.5601C38.279 23.6952 38.2294 23.8618 38.24 24.0301C38.2216 24.1979 38.2604 24.3671 38.35 24.5101C38.3971 24.5678 38.4567 24.6139 38.5243 24.6451C38.5918 24.6763 38.6656 24.6917 38.74 24.6901C38.813 24.6957 38.8863 24.6841 38.954 24.6563C39.0217 24.6285 39.082 24.5853 39.13 24.5301C39.2281 24.3936 39.2774 24.2281 39.27 24.0601C39.2863 23.8911 39.2439 23.7216 39.15 23.5801C39.103 23.5225 39.0434 23.4763 38.9758 23.4451C38.9082 23.4139 38.8345 23.3985 38.76 23.4001ZM41.19 25.7801C41.4665 25.7717 41.7366 25.8641 41.95 26.0401C42.042 26.1243 42.1133 26.2285 42.1584 26.3447C42.2035 26.4609 42.2212 26.586 42.21 26.7101C42.2132 26.8357 42.1879 26.9603 42.1359 27.0746C42.0839 27.1889 42.0067 27.29 41.91 27.3701C41.6937 27.537 41.4221 27.6156 41.15 27.5901C40.8854 27.6179 40.6195 27.5505 40.4 27.4001C40.3127 27.3128 40.2433 27.2092 40.196 27.0951C40.1487 26.981 40.1244 26.8586 40.1244 26.7351C40.1244 26.6116 40.1487 26.4893 40.196 26.3752C40.2433 26.2611 40.3127 26.1574 40.4 26.0701C40.6222 25.8888 40.9036 25.7962 41.19 25.8101V25.7801ZM41.19 26.0401C41.1171 26.0346 41.0438 26.0462 40.9761 26.0739C40.9084 26.1017 40.8481 26.1449 40.8 26.2001C40.699 26.3352 40.6494 26.5018 40.66 26.6701C40.6405 26.8425 40.6831 27.0162 40.78 27.1601C40.825 27.217 40.883 27.2621 40.9492 27.2917C41.0154 27.3213 41.0877 27.3345 41.16 27.3301C41.232 27.3347 41.3041 27.3237 41.3715 27.2978C41.4388 27.2719 41.4997 27.2318 41.55 27.1801C41.651 27.0412 41.7005 26.8715 41.69 26.7001C41.7108 26.5308 41.668 26.3598 41.57 26.2201C41.5197 26.1685 41.4588 26.1283 41.3915 26.1024C41.3241 26.0765 41.252 26.0655 41.18 26.0701L41.19 26.0401Z" fill="#FFFEFE"/>
</g>
<defs>
<clipPath id="clip0_135_8065">
<rect width="65.2" height="65.2" fill="white" transform="translate(2.40002 2.3999)"/>
</clipPath>
<clipPath id="clip1_135_8065">
<rect width="7.1" height="6" fill="white" transform="translate(50.0001 33)"/>
</clipPath>
<clipPath id="clip2_135_8065">
<rect width="7.2" height="8.6" fill="white" transform="translate(21.0001 32)"/>
</clipPath>
</defs>
</svg>
