<svg width="52" height="52" viewBox="0 0 52 52" fill="none" xmlns="http://www.w3.org/2000/svg">
<path d="M24.8951 11.0073C24.1842 10.4257 23.4303 9.71486 22.8056 9.21941C22.1809 8.72396 21.6854 8.46547 21.1684 8.2716C20.6515 8.05618 20.0914 7.9054 19.5744 7.75461C19.2297 7.66844 18.8851 7.58228 18.6266 7.5392C18.8851 8.05619 19.1651 8.7455 19.4452 9.3702C19.8329 10.2749 20.2422 11.2443 20.91 12.0844C21.5777 12.9245 22.5255 13.6569 23.4949 14.1093C23.9473 14.3247 24.4212 14.4539 24.9382 14.5616C25.369 14.6478 26.0152 14.6693 26.5753 14.6693C26.7045 14.6693 26.8122 14.6693 26.9415 14.6693C28.0832 14.6263 29.5049 14.497 30.9912 14.3031C30.1511 13.9369 29.2249 13.5276 28.4925 12.9891C27.7601 12.429 27.2215 11.7182 26.5968 10.7273C25.9721 9.75794 25.2397 8.44393 24.3135 7.62536C23.4518 6.84988 22.4178 6.48368 21.4054 6.41905C20.7161 6.37597 20.0483 6.44059 19.3805 6.56984C19.7467 6.69909 20.1345 6.84988 20.5222 7.02221C21.2546 7.34533 22.0732 7.79769 22.784 8.31468C23.4949 8.85321 24.1411 9.4779 24.8089 10.1888C25.4767 10.8996 26.1875 11.7182 26.5322 12.1275L26.8769 12.5368L26.5538 12.2998C26.2306 12.0413 25.6059 11.5889 24.8951 11.0073Z" fill="#081C15"/>
<path d="M28.3416 8.59477C29.0094 9.71491 29.7418 10.8781 30.7758 11.8475C31.8098 12.8168 33.1884 13.5923 34.524 13.9801C35.1702 14.1739 35.7949 14.2601 36.5058 14.2816C37.0874 14.3032 37.9275 14.217 38.6599 14.1093C38.8107 14.0878 38.983 14.0662 39.1338 14.0232C40.5986 13.7647 42.4296 13.2908 44.3468 12.7738C43.1835 12.4506 41.8911 12.106 40.8571 11.5459C39.8016 10.9643 38.9615 10.1457 37.949 8.96097C36.9581 7.81929 35.7518 6.24678 34.3947 5.34205C33.1238 4.50194 31.7236 4.22191 30.3665 4.32961C29.4618 4.39424 28.6001 4.63119 27.76 4.91123C28.2555 4.99739 28.7725 5.12664 29.311 5.27743C30.345 5.55746 31.4651 5.98829 32.5206 6.54836C33.5546 7.10843 34.5024 7.79775 35.5149 8.61631C36.5273 9.43488 37.5828 10.3396 38.1213 10.8135L38.6599 11.2659L38.186 11.0289C37.7121 10.792 36.8073 10.3181 35.7734 9.69337C34.7394 9.06868 33.6192 8.27165 32.7145 7.77621C31.8098 7.25922 31.1205 7.02226 30.3881 6.84994C29.6557 6.67761 28.9017 6.5699 28.2124 6.48373C27.7385 6.44065 27.2861 6.39757 26.9199 6.37603C27.3723 7.00072 27.8677 7.81929 28.3416 8.59477Z" fill="#081C15"/>
<path d="M18.6912 18.2023C18.4973 17.8577 18.1096 17.1683 17.7219 16.3498C17.3341 15.5312 16.9464 14.5619 16.6017 13.851C16.2355 13.1401 15.9124 12.7093 15.5246 12.3C15.1369 11.8907 14.7061 11.503 14.2968 11.1583C14.0168 10.9214 13.7583 10.706 13.5213 10.5552C13.5429 11.1368 13.4998 11.8692 13.4782 12.5585C13.4351 13.5494 13.4136 14.5834 13.6721 15.6389C13.9306 16.6944 14.4691 17.7499 15.1584 18.5685C15.4816 18.9563 15.8478 19.2794 16.2786 19.581C16.6232 19.8394 17.2049 20.141 17.7219 20.378C17.8296 20.4211 17.9373 20.4857 18.0665 20.5288C19.1005 20.9811 20.4576 21.455 21.9008 21.9289C21.2977 21.2396 20.6299 20.4857 20.1991 19.6887C19.7683 18.8916 19.5959 18.0084 19.4451 16.8237C19.2944 15.682 19.1867 14.1741 18.7127 13.054C18.2604 11.9769 17.4849 11.223 16.5802 10.7275C15.977 10.4044 15.3308 10.1674 14.6845 9.99512C14.9646 10.2752 15.2446 10.5552 15.5246 10.8783C16.0632 11.4815 16.6017 12.2354 17.0325 13.0109C17.4634 13.8079 17.7649 14.648 18.0665 15.5743C18.3681 16.5221 18.6481 17.5345 18.7989 18.0515L18.9497 18.5685L18.6912 18.2023Z" fill="#081C15"/>
<path d="M33.6837 19.8393C33.576 20.227 33.3391 20.7871 32.0897 23.329C31.9389 23.6305 31.7666 23.9752 31.5942 24.3414C31.0988 25.3538 30.4741 26.6032 29.7848 27.9603C30.5172 28.0034 31.2496 28.0249 31.9604 28.0249C33.4253 28.0249 34.8254 27.9172 36.1394 27.7234C36.3118 27.2925 36.4626 26.8833 36.6134 26.5171C36.9149 25.72 37.1734 25.0738 37.3888 24.5353C38.1212 22.6612 38.3366 22.2088 38.509 21.9072C38.7459 21.5195 38.9183 21.4333 39.1337 21.3903C39.3491 21.3687 39.6076 21.3903 39.8661 21.4333C40.4692 21.4764 41.0508 21.1318 41.3093 20.5501L41.8909 19.2146C40.5769 17.9437 38.4444 16.7589 35.924 16.005C35.0408 15.7465 34.1577 15.5526 33.3175 15.4233L32.7359 16.7804C32.4559 17.4051 32.6713 18.1375 33.1883 18.5468C33.3606 18.6976 33.5545 18.8268 33.6622 18.9992C33.7699 19.2146 33.813 19.43 33.6837 19.8393Z" fill="#081C15"/>
<path d="M41.8695 28.1111C39.3276 28.7573 35.4502 29.4466 31.4651 29.6621C27.48 29.8775 23.3656 29.619 20.2206 29.1451C17.0756 28.6712 14.8784 28.0034 13.7798 27.6587C12.6812 27.3141 12.6812 27.3141 12.6812 27.7233C12.6812 28.1326 12.6812 28.9297 12.875 30.0498C13.0689 31.1699 13.4566 32.5917 14.1244 33.8195C14.7922 35.0474 15.7616 36.0598 16.8171 36.943C17.8726 37.8046 19.0358 38.537 19.6174 38.8817C20.199 39.2479 20.199 39.2479 19.7467 38.6663C19.3159 38.1062 18.4327 36.9645 17.9803 35.6505C17.5495 34.3365 17.5495 32.8071 17.7218 32.01C17.8941 31.213 18.2603 31.1269 18.9712 31.1915C19.6821 31.2561 20.716 31.45 22.784 31.6008C24.8519 31.7516 27.9323 31.8593 30.4096 31.8162C32.8653 31.7516 34.7178 31.5361 36.915 31.0838C39.1122 30.6314 41.6541 29.9421 43.2051 29.4466C44.756 28.9512 45.3376 28.6496 45.6823 28.6927C46.0054 28.7358 46.0916 29.1235 45.8977 29.9421C45.7038 30.7607 45.2515 31.9885 44.7776 33.0225C44.4544 33.7333 44.1098 34.358 43.8944 34.8535C40.3832 40.5834 34.0716 44.3962 26.8553 44.3962C15.8262 44.3962 6.88658 35.4566 6.88658 24.4275C6.88658 14.4324 14.2321 6.13906 23.818 4.6958C13.0258 5.88057 4.62476 15.0356 4.62476 26.1293C4.62476 38.0416 14.2752 47.692 26.1875 47.692C36.4411 47.692 45.0361 40.5188 47.2117 30.933C47.2548 30.653 47.2979 30.3514 47.3194 30.0929C47.384 29.7051 47.384 29.3174 47.3625 28.9297C47.2979 28.2619 47.104 27.5295 46.6086 27.2064C46.5009 27.1417 46.3931 27.0771 46.2639 27.0556C45.5961 26.8402 44.3898 27.4433 41.8695 28.1111Z" fill="#081C15"/>
</svg>
