<svg width="80" height="80" viewBox="0 0 80 80" fill="none" xmlns="http://www.w3.org/2000/svg">
<path d="M38.3001 16.9343C37.2065 16.0395 36.0465 14.9459 35.0855 14.1837C34.1244 13.4214 33.3622 13.0238 32.5668 12.7255C31.7714 12.3941 30.9098 12.1621 30.1144 11.9301C29.5842 11.7976 29.0539 11.665 28.6562 11.5987C29.0539 12.3941 29.4848 13.4546 29.9156 14.4157C30.5121 15.8075 31.1418 17.2989 32.1691 18.5913C33.1965 19.8838 34.6546 21.0106 36.146 21.7065C36.8419 22.0379 37.571 22.2368 38.3664 22.4025C39.0292 22.535 40.0234 22.5682 40.885 22.5682C41.0839 22.5682 41.2496 22.5682 41.4484 22.5682C43.2048 22.5019 45.3921 22.303 47.6788 22.0048C46.3863 21.4414 44.9613 20.8117 43.8345 19.9832C42.7077 19.1216 41.8792 18.0279 40.9182 16.5035C39.9571 15.0122 38.8303 12.9906 37.4053 11.7313C36.0797 10.5382 34.4889 9.97485 32.9313 9.87543C31.8709 9.80915 30.8435 9.90857 29.8162 10.1074C30.3795 10.3063 30.9761 10.5382 31.5726 10.8034C32.6994 11.3005 33.9587 11.9964 35.0523 12.7918C36.146 13.6203 37.1402 14.5814 38.1675 15.675C39.1949 16.7686 40.2885 18.0279 40.8187 18.6576L41.349 19.2873L40.8519 18.9227C40.3548 18.5251 39.3937 17.8291 38.3001 16.9343Z" fill="#FFFEFE"/>
<path d="M43.6025 13.2231C44.6299 14.9464 45.7567 16.7359 47.3474 18.2273C48.9381 19.7186 51.0591 20.9116 53.1138 21.5081C54.108 21.8064 55.0691 21.939 56.1627 21.9721C57.0575 22.0052 58.35 21.8727 59.4768 21.707C59.7087 21.6738 59.9739 21.6407 60.2058 21.5744C62.4594 21.1767 65.2763 20.4477 68.2258 19.6523C66.4362 19.1552 64.4478 18.6249 62.8571 17.7633C61.2332 16.8685 59.9407 15.6092 58.3831 13.7865C56.8587 12.03 55.0028 9.61077 52.915 8.21888C50.9597 6.92641 48.8056 6.49558 46.7177 6.66128C45.3258 6.7607 44.0002 7.12525 42.7078 7.55607C43.47 7.68863 44.2654 7.88747 45.0939 8.11946C46.6846 8.55028 48.4079 9.21309 50.0318 10.0747C51.6225 10.9364 53.0807 11.9969 54.6383 13.2562C56.1959 14.5155 57.8197 15.9074 58.6482 16.6365L59.4768 17.3325L58.7477 16.9679C58.0186 16.6034 56.6267 15.8743 55.036 14.9132C53.4452 13.9522 51.7219 12.726 50.33 11.9637C48.9381 11.1684 47.8776 10.8038 46.7509 10.5387C45.6241 10.2736 44.4642 10.1079 43.4037 9.97531C42.6746 9.90903 41.9787 9.84275 41.4153 9.80961C42.1112 10.7707 42.8735 12.03 43.6025 13.2231Z" fill="#FFFEFE"/>
<path d="M28.7558 28.0039C28.4575 27.4737 27.861 26.4132 27.2645 25.1538C26.6679 23.8945 26.0714 22.4032 25.5412 21.3096C24.9778 20.2159 24.4807 19.5531 23.8841 18.9235C23.2876 18.2938 22.6248 17.6973 21.9952 17.167C21.5643 16.8025 21.1666 16.4711 20.8021 16.2391C20.8352 17.1339 20.769 18.2606 20.7358 19.3211C20.6695 20.8456 20.6364 22.4363 21.0341 24.0602C21.4318 25.6841 22.2603 27.308 23.3208 28.5673C23.8179 29.1638 24.3813 29.6609 25.0441 30.1249C25.5743 30.5226 26.4691 30.9865 27.2645 31.3511C27.4302 31.4174 27.5959 31.5168 27.7947 31.5831C29.3854 32.279 31.4733 33.0081 33.6937 33.7372C32.7657 32.6767 31.7384 31.5168 31.0756 30.2906C30.4128 29.0644 30.1477 27.7056 29.9157 25.8829C29.6837 24.1265 29.518 21.8067 28.7889 20.0834C28.093 18.4264 26.8999 17.2664 25.508 16.5042C24.5801 16.0071 23.5859 15.6426 22.5917 15.3774C23.0225 15.8083 23.4533 16.2391 23.8841 16.7362C24.7127 17.6641 25.5412 18.824 26.204 20.0171C26.8668 21.2433 27.3307 22.5357 27.7947 23.9608C28.2587 25.419 28.6895 26.9765 28.9215 27.7719L29.1535 28.5673L28.7558 28.0039Z" fill="#FFFEFE"/>
<path d="M51.8213 30.5218C51.6556 31.1183 51.291 31.98 49.3689 35.8905C49.1369 36.3545 48.8718 36.8847 48.6067 37.4481C47.8444 39.0057 46.8834 40.9278 45.8229 43.0157C46.9496 43.082 48.0764 43.1151 49.17 43.1151C51.4236 43.1151 53.5777 42.9494 55.5993 42.6511C55.8644 41.9883 56.0964 41.3587 56.3284 40.7953C56.7923 39.5691 57.19 38.5749 57.5214 37.7464C58.6482 34.8632 58.9796 34.1672 59.2447 33.7033C59.6092 33.1067 59.8744 32.9742 60.2058 32.9079C60.5372 32.8748 60.9349 32.9079 61.3325 32.9742C62.2605 33.0405 63.1553 32.5102 63.5529 31.6154L64.4477 29.5607C62.4262 27.6054 59.1453 25.7827 55.2679 24.6228C53.9091 24.2251 52.5504 23.9269 51.2579 23.728L50.3631 25.8159C49.9323 26.7769 50.2637 27.9037 51.059 28.5334C51.3242 28.7654 51.6224 28.9642 51.7881 29.2293C51.9538 29.5607 52.0201 29.8921 51.8213 30.5218Z" fill="#FFFEFE"/>
<path d="M64.4146 43.2476C60.504 44.2419 54.5388 45.3023 48.4078 45.6338C42.2769 45.9652 35.9471 45.5675 31.1086 44.8384C26.2701 44.1093 22.8898 43.0819 21.1996 42.5517C19.5095 42.0215 19.5095 42.0215 19.5095 42.6511C19.5095 43.2808 19.5095 44.507 19.8077 46.2303C20.106 47.9536 20.7025 50.1408 21.7299 52.0298C22.7572 53.9188 24.2485 55.4764 25.8724 56.8352C27.4963 58.1608 29.2859 59.2876 30.1807 59.8178C31.0754 60.3812 31.0754 60.3812 30.3795 59.4864C29.7167 58.6248 28.3579 56.8683 27.662 54.8468C26.9992 52.8252 26.9992 50.4722 27.2643 49.246C27.5294 48.0199 28.0928 47.8873 29.1864 47.9867C30.2801 48.0861 31.8708 48.3844 35.0523 48.6164C38.2337 48.8484 42.9728 49.0141 46.7839 48.9478C50.5619 48.8484 53.412 48.517 56.7923 47.821C60.1726 47.1251 64.0832 46.0646 66.4693 45.3023C68.8554 44.5401 69.7502 44.0762 70.2804 44.1424C70.7775 44.2087 70.9101 44.8052 70.6118 46.0646C70.3136 47.3239 69.6176 49.2129 68.8885 50.8036C68.3914 51.8973 67.8612 52.8583 67.5298 53.6206C62.1279 62.4359 52.4178 68.3017 41.3158 68.3017C24.348 68.3017 10.5947 54.5485 10.5947 37.5807C10.5947 22.2035 21.8956 9.44452 36.643 7.22412C20.0397 9.04684 7.11499 23.1315 7.11499 40.1987C7.11499 58.5253 21.9619 73.3722 40.2884 73.3722C56.0632 73.3722 69.2862 62.3365 72.6334 47.589C72.6997 47.1582 72.766 46.6942 72.7991 46.2966C72.8985 45.7 72.8985 45.1035 72.8654 44.507C72.7659 43.4796 72.4677 42.3529 71.7055 41.8558C71.5398 41.7563 71.3741 41.6569 71.1752 41.6238C70.1479 41.2924 68.292 42.2203 64.4146 43.2476Z" fill="#FFFEFE"/>
</svg>
